<svg version="1.1" xmlns="http://www.w3.org/2000/svg" viewBox="0 0 464.44782798943163 632.591324463567" width="464.44782798943163" height="632.591324463567" class="excalidraw-svg">
  <!-- svg-source:excalidraw -->
  
  <defs>
    <style class="style-fonts">
      @font-face {
        font-family: "Virgil";
        src: url("https://excalidraw.com/Virgil.woff2");
      }
      @font-face {
        font-family: "Cascadia";
        src: url("https://excalidraw.com/Cascadia.woff2");
      }
      @font-face {
        font-family: "Assistant";
        src: url("https://excalidraw.com/Assistant-Regular.woff2");
      }
    </style>
    
  </defs>
  <g transform="translate(224.59012340337716 20.57858930005915) rotate(0 -14.591633388976902 130.3585385322763)" stroke="none"><path fill="#1e1e1e" d="M 0.36,3.12 Q 0.36,3.12 -3.58,3.58 -7.54,4.04 -14.48,6.13 -21.42,8.22 -31.15,12.04 -40.87,15.85 -52.52,21.48 -64.17,27.11 -75.65,33.65 -87.13,40.19 -95.69,45.75 -104.25,51.32 -112.52,58.07 -120.79,64.81 -128.72,72.96 -136.64,81.11 -141.97,88.58 -147.30,96.04 -150.41,103.04 -153.53,110.03 -155.14,117.38 -156.75,124.72 -157.55,131.92 -158.35,139.12 -158.64,146.02 -158.94,152.91 -156.97,165.40 -155.00,177.89 -152.35,186.64 -149.70,195.39 -146.45,202.05 -143.20,208.70 -139.27,214.55 -135.34,220.40 -131.25,225.34 -127.16,230.28 -122.63,234.50 -118.09,238.73 -112.56,242.65 -107.02,246.58 -101.27,249.69 -95.51,252.81 -88.57,255.44 -81.63,258.07 -72.97,260.38 -64.32,262.70 -55.23,264.24 -46.14,265.78 -36.82,266.61 -27.50,267.43 -17.19,267.20 -6.88,266.97 6.34,263.54 19.56,260.11 35.56,252.51 51.55,244.91 62.31,238.27 73.06,231.63 80.72,225.34 88.38,219.04 95.72,209.06 103.06,199.07 107.86,190.66 112.66,182.24 115.95,174.29 119.24,166.34 121.53,158.30 123.82,150.25 125.28,142.07 126.75,133.89 127.65,125.64 128.54,117.39 129.07,110.09 129.60,102.80 129.78,96.65 129.97,90.51 129.63,84.95 129.28,79.39 128.30,74.62 127.32,69.85 125.90,65.63 124.48,61.41 122.68,57.62 120.89,53.83 116.84,48.12 112.79,42.41 108.67,37.76 104.54,33.12 100.02,29.12 95.51,25.12 91.19,21.85 86.87,18.57 83.27,16.05 79.68,13.52 76.11,11.28 72.53,9.04 69.16,7.21 65.79,5.39 62.36,3.80 58.93,2.22 55.52,0.93 52.12,-0.36 48.19,-1.65 44.27,-2.93 41.22,-3.51 38.18,-4.10 35.42,-4.47 32.67,-4.83 28.56,-5.48 24.44,-6.12 21.47,-6.27 18.49,-6.42 16.16,-6.41 13.82,-6.39 10.62,-6.19 7.42,-5.98 5.11,-5.70 2.81,-5.43 0.02,-3.61 -2.76,-1.79 -3.55,1.72 -4.34,5.23 -4.51,6.24 -4.68,7.24 -5.16,8.14 -5.64,9.04 -6.38,9.73 -7.12,10.43 -8.05,10.86 -8.97,11.28 -9.99,11.39 -11.00,11.49 -11.99,11.27 -12.99,11.04 -13.86,10.52 -14.73,9.99 -15.38,9.21 -16.04,8.43 -16.41,7.48 -16.79,6.53 -16.84,5.52 -16.89,4.50 -16.61,3.52 -16.34,2.54 -15.76,1.70 -15.19,0.86 -14.37,0.25 -13.56,-0.36 -12.59,-0.68 -11.63,-1.00 -10.61,-0.99 -9.59,-0.99 -8.62,-0.66 -7.66,-0.33 -6.85,0.28 -6.04,0.90 -5.48,1.74 -4.91,2.59 -4.64,3.57 -4.37,4.55 -4.43,5.57 -4.49,6.59 -4.87,7.53 -5.25,8.48 -5.92,9.25 -6.58,10.02 -7.45,10.54 -8.33,11.06 -9.32,11.28 -10.32,11.49 -11.33,11.38 -12.34,11.26 -13.27,10.83 -14.19,10.40 -14.92,9.70 -15.66,8.99 -16.13,8.09 -16.61,7.19 -16.77,6.19 -16.93,5.18 -16.93,5.18 -16.93,5.18 -16.89,3.18 -16.85,1.18 -16.39,-1.00 -15.92,-3.19 -14.70,-5.35 -13.47,-7.50 -11.42,-9.28 -9.36,-11.06 -6.25,-12.82 -3.14,-14.58 -0.33,-15.09 2.46,-15.59 5.03,-15.34 7.61,-15.08 10.98,-14.68 14.35,-14.28 16.77,-13.95 19.20,-13.61 22.23,-13.17 25.27,-12.74 29.66,-12.31 34.06,-11.89 36.90,-11.16 39.73,-10.44 42.88,-9.50 46.03,-8.55 50.23,-7.30 54.42,-6.04 57.94,-4.53 61.46,-3.02 65.01,-1.24 68.55,0.54 71.94,2.56 75.32,4.59 79.01,6.90 82.70,9.22 86.37,11.80 90.04,14.39 94.52,17.79 99.00,21.19 103.73,25.41 108.47,29.63 112.78,34.51 117.09,39.38 121.36,45.48 125.64,51.59 127.55,55.66 129.46,59.74 130.96,64.27 132.46,68.80 133.50,73.93 134.53,79.06 134.87,84.86 135.22,90.66 135.03,96.92 134.84,103.18 134.30,110.56 133.76,117.95 132.84,126.39 131.92,134.82 130.40,143.25 128.87,151.69 126.48,160.02 124.09,168.35 120.66,176.60 117.23,184.84 112.26,193.52 107.28,202.19 99.51,212.63 91.74,223.07 83.78,229.59 75.83,236.10 64.82,242.88 53.81,249.65 37.35,257.43 20.89,265.20 7.07,268.71 -6.73,272.22 -17.35,272.44 -27.96,272.67 -37.49,271.81 -47.02,270.96 -56.35,269.37 -65.67,267.77 -74.59,265.38 -83.50,262.98 -90.76,260.20 -98.02,257.43 -104.04,254.14 -110.06,250.86 -115.87,246.72 -121.68,242.57 -126.44,238.10 -131.21,233.63 -135.46,228.48 -139.71,223.33 -143.82,217.17 -147.93,211.01 -151.33,203.97 -154.74,196.92 -157.47,187.82 -160.20,178.71 -162.20,165.71 -164.20,152.71 -163.90,145.62 -163.60,138.53 -162.76,131.05 -161.92,123.58 -160.15,115.73 -158.38,107.88 -155.01,100.42 -151.65,92.96 -146.07,85.17 -140.49,77.38 -132.35,69.00 -124.21,60.63 -115.72,53.69 -107.24,46.75 -98.56,41.07 -89.88,35.38 -78.26,28.71 -66.64,22.04 -54.83,16.25 -43.01,10.47 -33.10,6.49 -23.19,2.50 -15.74,0.16 -8.29,-2.17 -4.33,-2.65 -0.36,-3.12 0.01,-3.12 0.39,-3.12 0.75,-3.03 1.12,-2.93 1.46,-2.76 1.79,-2.58 2.08,-2.33 2.36,-2.07 2.57,-1.76 2.79,-1.45 2.92,-1.09 3.05,-0.74 3.10,-0.36 3.14,0.01 3.10,0.38 3.05,0.76 2.91,1.11 2.78,1.47 2.56,1.78 2.34,2.09 2.06,2.34 1.77,2.59 1.44,2.77 1.10,2.94 0.73,3.03 0.36,3.12 0.36,3.12 L 0.36,3.12 Z"></path></g><g transform="translate(190.93762136026743 138.90747188400888) rotate(0 -28.490365962542683 19.946106829714267)" stroke="none"><path fill="#1e1e1e" d="M 0,3.52 Q 0,3.52 -3.70,3.52 -7.40,3.53 -11.56,3.43 -15.71,3.34 -21.16,3.24 -26.61,3.14 -32.88,3.05 -39.14,2.96 -44.76,3.31 -50.38,3.65 -55.52,4.85 -60.66,6.05 -64.90,7.68 -69.14,9.32 -72.04,11.05 -74.93,12.78 -77.13,14.79 -79.34,16.81 -81.14,19.00 -82.93,21.19 -84.22,24.37 -85.51,27.55 -83.47,29.21 -81.44,30.86 -79.02,32.20 -76.60,33.54 -71.86,35.55 -67.11,37.57 -59.34,39.43 -51.56,41.30 -44.24,42.46 -36.92,43.62 -31.51,44.04 -26.11,44.46 -20.86,44.26 -15.62,44.05 -11.07,42.99 -6.52,41.93 -2.04,39.76 2.44,37.58 6.79,34.67 11.13,31.75 13.99,29.25 16.85,26.75 18.67,24.58 20.48,22.41 21.97,20.22 23.45,18.04 24.48,16.10 25.50,14.17 26.54,10.90 27.59,7.62 27.90,5.45 28.21,3.27 25.02,1.49 21.83,-0.28 19.56,-0.86 17.30,-1.45 15.07,-1.82 12.84,-2.19 8.99,-2.46 5.14,-2.73 2.88,-2.63 0.62,-2.52 1.76,-1.77 2.91,-1.03 2.57,-0.07 2.23,0.88 1.61,1.68 0.99,2.48 0.14,3.04 -0.70,3.61 -1.68,3.87 -2.66,4.13 -3.68,4.06 -4.69,3.99 -5.63,3.61 -6.57,3.22 -7.34,2.55 -8.10,1.89 -8.62,1.01 -9.13,0.13 -9.34,-0.85 -9.54,-1.85 -9.42,-2.85 -9.30,-3.86 -8.86,-4.78 -8.43,-5.70 -7.72,-6.43 -7.01,-7.16 -6.11,-7.62 -5.21,-8.09 -4.20,-8.24 -3.20,-8.39 -2.20,-8.22 -1.20,-8.04 -0.30,-7.55 0.58,-7.07 1.27,-6.32 1.96,-5.58 2.37,-4.65 2.79,-3.72 2.89,-2.71 2.99,-1.70 2.76,-0.71 2.53,0.27 1.99,1.13 1.46,2.00 0.68,2.65 -0.09,3.29 -1.04,3.66 -1.99,4.02 -3.01,4.07 -4.02,4.11 -5.00,3.83 -5.97,3.54 -6.81,2.96 -7.64,2.38 -8.25,1.57 -8.85,0.75 -9.17,-0.20 -9.48,-1.17 -9.47,-2.19 -9.45,-3.20 -9.45,-3.20 -9.45,-3.20 -8.11,-7.19 -6.76,-11.17 -4.28,-12.77 -1.80,-14.36 0.55,-14.46 2.91,-14.55 6.45,-14.27 9.99,-13.99 12.32,-13.73 14.65,-13.47 17.35,-13.05 20.04,-12.63 22.82,-11.97 25.60,-11.32 27.90,-10.50 30.19,-9.69 33.68,-7.22 37.16,-4.74 37.82,-0.86 38.47,3.02 37.84,5.48 37.22,7.95 35.86,11.13 34.51,14.31 33.34,16.37 32.17,18.42 30.66,20.46 29.14,22.49 27.18,24.72 25.21,26.94 22.91,29.05 20.60,31.17 17.44,33.78 14.28,36.40 9.62,39.57 4.97,42.74 -0.06,45.22 -5.10,47.69 -10.18,48.96 -15.26,50.23 -20.87,50.61 -26.48,51.00 -32.17,50.79 -37.87,50.58 -45.52,49.69 -53.17,48.80 -61.60,47.20 -70.03,45.59 -75.64,43.82 -81.24,42.05 -84.47,40.30 -87.70,38.56 -89.82,36.54 -91.94,34.52 -92.98,31.98 -94.02,29.44 -93.75,27.04 -93.48,24.64 -92.45,22.56 -91.43,20.48 -89.83,18.42 -88.22,16.37 -85.87,14.03 -83.52,11.69 -80.68,9.58 -77.84,7.48 -74.50,5.82 -71.16,4.15 -66.56,2.35 -61.97,0.55 -56.38,-0.78 -50.80,-2.13 -44.96,-2.58 -39.13,-3.04 -32.87,-3.09 -26.61,-3.14 -21.16,-3.24 -15.71,-3.34 -11.56,-3.43 -7.40,-3.53 -3.70,-3.52 0,-3.52 0.42,-3.46 0.84,-3.41 1.23,-3.26 1.63,-3.11 1.98,-2.87 2.33,-2.63 2.61,-2.31 2.89,-1.99 3.09,-1.62 3.29,-1.24 3.39,-0.83 3.49,-0.42 3.49,0.00 3.49,0.42 3.39,0.83 3.29,1.24 3.09,1.62 2.89,2.00 2.61,2.31 2.33,2.63 1.98,2.87 1.63,3.11 1.23,3.26 0.84,3.41 0.42,3.46 -0.00,3.52 -0.00,3.52 L 0,3.52 Z"></path></g><g transform="translate(301.09738285458644 148.9298125018936) rotate(0 -16.856464870296747 26.398781241759963)" stroke="none"><path fill="#1e1e1e" d="M 0.03,4.25 Q 0.03,4.25 -3.64,4.21 -7.32,4.16 -11.93,4.46 -16.54,4.76 -21.30,5.68 -26.07,6.59 -30.13,7.77 -34.19,8.96 -37.26,10.28 -40.33,11.60 -42.85,13.05 -45.37,14.51 -47.37,16.00 -49.37,17.48 -51.72,20.71 -54.06,23.93 -54.59,26.83 -55.11,29.73 -55.12,33.17 -55.13,36.60 -54.76,39.30 -54.40,41.99 -53.03,43.63 -51.66,45.27 -48.24,46.32 -44.81,47.38 -42.72,47.84 -40.63,48.30 -37.97,48.90 -35.31,49.50 -32.84,49.94 -30.37,50.37 -27.11,50.76 -23.86,51.15 -20.22,51.45 -16.59,51.75 -14.37,51.68 -12.15,51.62 -8.74,50.49 -5.33,49.37 -3.19,48.24 -1.05,47.12 1.23,45.55 3.53,43.99 5.71,42.16 7.89,40.33 9.68,38.50 11.46,36.68 12.85,34.99 14.25,33.31 15.80,30.65 17.36,28.00 18.10,25.69 18.83,23.38 19.42,20.70 20.00,18.02 20.24,15.87 20.47,13.72 19.09,11.19 17.71,8.67 15.91,7.30 14.11,5.93 11.73,4.71 9.34,3.49 7.39,3.04 5.45,2.58 4.38,2.39 3.32,2.20 2.37,1.68 1.42,1.15 0.69,0.36 -0.03,-0.43 -0.47,-1.42 -0.91,-2.41 -1.01,-3.49 -1.11,-4.56 -0.86,-5.61 -0.61,-6.67 -0.03,-7.59 0.53,-8.50 1.36,-9.19 2.20,-9.88 3.21,-10.26 4.22,-10.64 5.30,-10.69 6.38,-10.73 7.42,-10.42 8.46,-10.11 9.35,-9.49 10.23,-8.87 10.87,-8.00 11.51,-7.13 11.84,-6.10 12.17,-5.07 12.15,-3.98 12.13,-2.90 11.77,-1.88 11.41,-0.86 10.74,-0.01 10.07,0.83 9.17,1.42 8.26,2.01 7.21,2.28 6.17,2.56 5.09,2.48 4.01,2.40 3.01,1.99 2.01,1.57 1.20,0.86 0.39,0.14 -0.15,-0.78 -0.69,-1.72 -0.90,-2.78 -1.12,-3.84 -0.98,-4.91 -0.85,-5.99 -0.38,-6.96 0.08,-7.93 0.84,-8.71 1.60,-9.48 2.56,-9.97 3.52,-10.46 4.59,-10.62 5.66,-10.78 5.66,-10.78 5.66,-10.78 9.32,-10.01 12.98,-9.25 15.34,-8.11 17.70,-6.97 21.16,-4.76 24.62,-2.55 27.24,0.15 29.85,2.86 31.34,6.16 32.84,9.47 32.73,12.34 32.63,15.21 32.08,18.03 31.52,20.85 30.60,23.94 29.68,27.03 28.22,30.29 26.75,33.54 24.38,36.81 22.00,40.08 20.32,41.92 18.63,43.76 16.55,45.85 14.46,47.93 11.96,50.14 9.46,52.36 6.65,54.40 3.85,56.45 1.06,57.91 -1.72,59.37 -4.46,60.29 -7.21,61.22 -9.65,61.55 -12.09,61.87 -14.45,61.82 -16.82,61.77 -20.66,61.90 -24.49,62.02 -28.32,62.00 -32.16,61.97 -34.86,61.61 -37.56,61.24 -40.34,60.80 -43.12,60.35 -47.54,59.32 -51.95,58.29 -55.15,56.71 -58.35,55.13 -60.38,52.93 -62.41,50.74 -63.87,47.31 -65.33,43.89 -65.47,40.07 -65.62,36.25 -65.18,32.02 -64.74,27.79 -64.15,25.61 -63.57,23.43 -62.49,21.18 -61.42,18.93 -59.71,16.74 -58.00,14.55 -55.84,12.73 -53.68,10.91 -51.20,9.47 -48.72,8.04 -45.77,6.67 -42.82,5.30 -39.48,4.08 -36.13,2.86 -31.84,1.38 -27.54,-0.08 -22.43,-1.34 -17.32,-2.60 -12.36,-3.32 -7.40,-4.04 -3.71,-4.14 -0.03,-4.25 0.47,-4.19 0.98,-4.13 1.46,-3.95 1.94,-3.78 2.36,-3.49 2.79,-3.20 3.13,-2.82 3.47,-2.44 3.72,-1.99 3.96,-1.54 4.08,-1.04 4.21,-0.54 4.22,-0.03 4.22,0.47 4.10,0.97 3.98,1.47 3.75,1.92 3.52,2.38 3.18,2.77 2.84,3.15 2.42,3.45 2.00,3.74 1.53,3.93 1.05,4.11 0.54,4.18 0.03,4.25 0.03,4.25 L 0.03,4.25 Z"></path></g><g transform="translate(201.48760062889806 143.44979293168086) rotate(0 -5.351265806110632 -0.7231491548479596)" stroke="none"><path fill="#1e1e1e" d="M -0.52,5.16 Q -0.52,5.16 -2.70,4.99 -4.88,4.82 -8.28,4.84 -11.67,4.87 -12.20,2.57 -12.73,0.28 -10.51,0.21 -8.28,0.14 -6.38,-1.39 -4.49,-2.93 -2.78,-4.89 -1.07,-6.84 0.95,-4.71 2.97,-2.59 0.67,-1.97 -1.62,-1.36 -3.83,-1.34 -6.03,-1.31 -7.03,-4.23 -8.04,-7.15 -7.34,-6.97 -6.64,-6.79 -5.61,-7.35 -4.58,-7.91 -3.42,-8.11 -2.27,-8.30 -1.11,-8.12 0.04,-7.94 1.08,-7.40 2.12,-6.86 2.94,-6.01 3.75,-5.17 4.25,-4.11 4.75,-3.05 4.89,-1.88 5.03,-0.72 4.78,0.42 4.54,1.57 3.94,2.58 3.34,3.59 2.46,4.36 1.57,5.12 0.48,5.57 -0.59,6.01 -1.77,6.08 -2.94,6.15 -4.07,5.85 -5.20,5.54 -6.18,4.89 -7.16,4.24 -7.87,3.31 -8.59,2.39 -8.97,1.28 -9.36,0.17 -9.37,-1.00 -9.38,-2.17 -9.01,-3.28 -8.64,-4.40 -7.94,-5.34 -7.24,-6.28 -6.27,-6.94 -5.31,-7.61 -4.18,-7.93 -3.05,-8.26 -1.88,-8.20 -0.71,-8.15 0.38,-7.72 1.47,-7.29 2.37,-6.54 3.27,-5.79 3.88,-4.79 4.50,-3.79 4.76,-2.64 5.02,-1.50 4.90,-0.33 4.78,0.82 4.30,1.89 3.81,2.96 3.01,3.82 2.21,4.68 2.21,4.68 2.22,4.68 -3.71,5.83 -9.64,6.98 -12.48,6.10 -15.32,5.22 -17.05,3.66 -18.78,2.10 -19.23,-2.12 -19.68,-6.35 -17.88,-8.94 -16.07,-11.54 -12.63,-13.28 -9.19,-15.02 -6.50,-15.19 -3.80,-15.36 -1.07,-15.32 1.64,-15.28 4.09,-15.17 6.55,-15.06 9.26,-12.82 11.98,-10.58 12.12,-6.92 12.27,-3.26 10.72,-0.86 9.17,1.53 6.54,4.41 3.90,7.28 2.23,8.60 0.56,9.91 -1.52,11.04 -3.60,12.17 -5.85,12.72 -8.10,13.27 -11.13,12.99 -14.16,12.70 -16.70,11.83 -19.24,10.95 -21.04,9.25 -22.84,7.55 -23.27,4.53 -23.70,1.51 -22.67,-0.79 -21.64,-3.10 -19.21,-4.51 -16.79,-5.92 -14.14,-6.08 -11.48,-6.24 -7.65,-5.98 -3.81,-5.71 -1.64,-5.43 0.52,-5.16 1.13,-5.02 1.74,-4.88 2.30,-4.60 2.86,-4.32 3.33,-3.92 3.81,-3.51 4.18,-3.00 4.54,-2.50 4.77,-1.92 5.01,-1.33 5.10,-0.72 5.18,-0.10 5.12,0.52 5.06,1.14 4.85,1.73 4.64,2.32 4.29,2.84 3.94,3.36 3.48,3.78 3.02,4.21 2.48,4.51 1.93,4.81 1.32,4.97 0.72,5.13 0.10,5.14 -0.52,5.16 -0.52,5.16 L -0.52,5.16 Z"></path></g><g transform="translate(299.4857706441829 155.04235692607614) rotate(0 3.665015731920022 2.716176714922966)" stroke="none"><path fill="#1e1e1e" d="M -0.17,5.15 Q -0.17,5.15 -1.99,5.16 -3.81,5.18 -1.61,3.59 0.58,1.99 2.70,0.92 4.82,-0.14 6.68,-1.44 8.55,-2.73 10.41,-1.37 12.27,-0.00 12.66,1.42 13.05,2.85 11.95,2.63 10.85,2.40 9.89,1.84 8.92,1.27 8.18,0.43 7.44,-0.41 7.01,-1.44 6.58,-2.48 6.51,-3.60 6.43,-4.71 6.72,-5.80 7.00,-6.88 7.62,-7.82 8.23,-8.75 9.12,-9.44 10.00,-10.13 11.06,-10.51 12.11,-10.88 13.23,-10.90 14.36,-10.91 15.42,-10.57 16.49,-10.22 17.39,-9.56 18.29,-8.89 18.93,-7.97 19.58,-7.05 19.89,-5.98 20.20,-4.90 20.16,-3.78 20.11,-2.66 19.71,-1.62 19.31,-0.57 18.60,0.28 17.89,1.15 16.93,1.74 15.98,2.33 14.89,2.59 13.80,2.84 12.68,2.74 11.57,2.63 10.54,2.17 9.52,1.72 8.70,0.96 7.87,0.20 7.33,-0.78 6.80,-1.76 6.60,-2.86 6.40,-3.97 6.57,-5.07 6.73,-6.18 7.25,-7.18 7.76,-8.18 8.56,-8.96 9.36,-9.74 10.37,-10.22 11.39,-10.71 12.50,-10.85 13.61,-10.98 13.61,-10.98 13.61,-10.98 17.97,-8.92 22.32,-6.85 23.10,-3.98 23.87,-1.12 22.84,0.88 21.82,2.88 20.11,4.68 18.40,6.47 16.16,8.13 13.91,9.79 10.90,11.49 7.90,13.18 4.31,14.39 0.72,15.60 -2.30,15.65 -5.34,15.70 -8.41,14.66 -11.49,13.62 -13.29,11.60 -15.10,9.59 -15.56,6.26 -16.01,2.94 -15.04,0.47 -14.06,-1.99 -11.49,-3.59 -8.91,-5.19 -6.18,-5.31 -3.45,-5.43 -1.64,-5.29 0.17,-5.15 0.78,-5.05 1.40,-4.96 1.97,-4.71 2.55,-4.47 3.04,-4.10 3.54,-3.73 3.94,-3.26 4.34,-2.78 4.60,-2.22 4.87,-1.66 5.00,-1.05 5.13,-0.44 5.11,0.17 5.09,0.79 4.92,1.39 4.75,1.99 4.44,2.53 4.13,3.07 3.71,3.52 3.28,3.97 2.76,4.30 2.23,4.64 1.64,4.84 1.06,5.04 0.44,5.09 -0.17,5.15 -0.17,5.15 L -0.17,5.15 Z"></path></g><g transform="translate(206.3448893303013 59.64942456915594) rotate(0 48.35876523766878 2.592373498637272)" stroke="none"><path fill="#1e1e1e" d="M -0.47,-0.85 Q -0.47,-0.85 0.33,-1.29 1.14,-1.73 2.66,-2.32 4.18,-2.90 5.61,-3.32 7.04,-3.74 8.13,-3.96 9.23,-4.18 10.56,-4.34 11.90,-4.50 13.16,-4.60 14.42,-4.71 15.20,-4.80 15.99,-4.90 16.59,-4.98 17.20,-5.07 17.79,-5.09 18.37,-5.11 19.08,-4.83 19.79,-4.56 20.49,-3.88 21.20,-3.21 21.84,-2.26 22.49,-1.31 23.18,-0.22 23.87,0.87 24.55,1.92 25.23,2.98 25.86,3.90 26.49,4.83 27.09,5.58 27.69,6.33 28.26,6.83 28.84,7.33 29.62,7.64 30.41,7.95 31.57,8.15 32.73,8.34 34.74,8.33 36.74,8.32 40.66,7.71 44.59,7.10 48.77,6.23 52.95,5.36 56.10,4.73 59.24,4.11 61.98,3.63 64.71,3.15 67.13,2.88 69.55,2.61 71.75,2.50 73.94,2.39 76.01,2.36 78.08,2.34 80.03,2.42 81.97,2.51 83.42,2.67 84.88,2.84 85.93,3.03 86.97,3.23 87.96,3.49 88.94,3.76 90.01,4.14 91.08,4.52 93.53,5.59 95.98,6.65 96.08,6.72 96.19,6.79 96.27,6.89 96.34,6.99 96.38,7.11 96.42,7.23 96.43,7.36 96.43,7.48 96.39,7.60 96.35,7.72 96.27,7.83 96.20,7.93 96.09,8.00 95.99,8.07 95.86,8.11 95.74,8.14 95.62,8.13 95.49,8.13 95.37,8.08 95.25,8.04 95.16,7.95 95.06,7.87 94.99,7.76 94.93,7.66 94.90,7.53 94.87,7.41 94.89,7.28 94.90,7.16 94.95,7.04 95.00,6.93 95.09,6.83 95.18,6.74 95.29,6.68 95.40,6.62 95.52,6.60 95.65,6.58 95.77,6.60 95.90,6.62 96.01,6.68 96.12,6.74 96.21,6.83 96.30,6.92 96.35,7.03 96.41,7.15 96.42,7.27 96.44,7.40 96.41,7.52 96.38,7.65 96.32,7.76 96.25,7.87 96.16,7.95 96.06,8.03 95.94,8.08 95.83,8.13 95.70,8.13 95.57,8.14 95.45,8.11 95.33,8.07 95.33,8.07 95.33,8.07 92.97,6.95 90.62,5.83 89.59,5.47 88.55,5.11 87.64,4.83 86.72,4.55 85.73,4.35 84.73,4.15 83.32,3.99 81.91,3.83 80.01,3.75 78.10,3.67 76.05,3.70 74.01,3.73 71.86,3.84 69.70,3.96 67.33,4.22 64.95,4.49 62.23,4.98 59.51,5.46 56.38,6.10 53.24,6.74 49.03,7.63 44.81,8.53 40.79,9.17 36.76,9.81 34.63,9.85 32.49,9.89 31.14,9.69 29.78,9.48 28.74,9.03 27.70,8.57 27.09,7.94 26.47,7.30 25.85,6.51 25.23,5.73 24.55,4.81 23.88,3.90 23.14,2.88 22.41,1.85 21.68,0.84 20.96,-0.16 20.31,-0.93 19.67,-1.70 19.23,-2.19 18.79,-2.67 18.05,-2.97 17.31,-3.26 16.70,-3.27 16.09,-3.28 15.32,-3.28 14.55,-3.28 13.32,-3.15 12.10,-3.02 10.83,-2.85 9.56,-2.67 8.55,-2.42 7.53,-2.17 6.19,-1.72 4.85,-1.27 3.46,-0.66 2.07,-0.04 1.27,0.40 0.47,0.85 0.36,0.90 0.25,0.94 0.13,0.96 0.02,0.98 -0.09,0.96 -0.21,0.95 -0.32,0.91 -0.43,0.87 -0.53,0.81 -0.63,0.74 -0.71,0.66 -0.79,0.57 -0.85,0.47 -0.90,0.36 -0.94,0.25 -0.97,0.13 -0.97,0.02 -0.97,-0.09 -0.95,-0.21 -0.92,-0.32 -0.87,-0.43 -0.81,-0.53 -0.74,-0.63 -0.66,-0.72 -0.57,-0.78 -0.47,-0.85 -0.47,-0.85 L -0.47,-0.85 Z"></path></g><g transform="translate(162.64431814770572 82.23309681391578) rotate(0 83.41272147611707 12.195357519308686)" stroke="none"><path fill="#1e1e1e" d="M 0.01,-0.78 Q 0.01,-0.78 1.50,-0.72 2.98,-0.67 4.55,-0.64 6.13,-0.61 8.24,-0.60 10.35,-0.58 12.73,-0.57 15.12,-0.56 17.62,-0.56 20.12,-0.55 22.73,-0.41 25.34,-0.27 28.02,0.23 30.69,0.73 33.57,1.74 36.46,2.74 38.95,3.92 41.44,5.10 43.50,6.37 45.57,7.65 47.67,9.22 49.77,10.79 51.64,12.33 53.52,13.87 55.14,15.24 56.76,16.61 58.21,17.82 59.65,19.03 60.97,19.98 62.29,20.93 63.61,21.64 64.94,22.36 66.68,22.74 68.43,23.13 70.84,23.12 73.25,23.12 76.39,22.55 79.53,21.97 83.73,20.82 87.93,19.66 91.97,18.45 96.01,17.25 99.69,16.10 103.36,14.95 107.23,13.78 111.09,12.60 114.32,11.70 117.55,10.80 120.21,10.13 122.87,9.46 125.52,8.91 128.17,8.36 130.45,8.02 132.73,7.68 134.73,7.56 136.73,7.44 139.14,7.76 141.55,8.07 144.10,8.91 146.66,9.74 149.05,10.88 151.44,12.01 153.70,13.35 155.96,14.68 157.83,15.96 159.69,17.23 161.04,18.28 162.38,19.34 163.36,20.15 164.35,20.96 165.77,22.26 167.20,23.55 167.27,23.65 167.34,23.75 167.37,23.87 167.41,23.99 167.40,24.11 167.40,24.23 167.36,24.35 167.31,24.46 167.24,24.56 167.16,24.65 167.05,24.72 166.95,24.78 166.83,24.81 166.71,24.84 166.59,24.83 166.47,24.82 166.35,24.77 166.24,24.72 166.15,24.64 166.06,24.55 166.00,24.45 165.94,24.34 165.92,24.22 165.90,24.10 165.92,23.97 165.93,23.85 165.99,23.74 166.04,23.63 166.13,23.55 166.22,23.46 166.33,23.41 166.44,23.36 166.56,23.34 166.68,23.32 166.80,23.35 166.93,23.37 167.03,23.43 167.14,23.50 167.22,23.59 167.30,23.68 167.35,23.79 167.39,23.91 167.40,24.03 167.41,24.15 167.38,24.27 167.35,24.39 167.28,24.49 167.22,24.60 167.12,24.67 167.02,24.75 166.91,24.79 166.79,24.83 166.67,24.83 166.55,24.83 166.43,24.80 166.31,24.76 166.21,24.69 166.11,24.61 166.11,24.61 166.11,24.61 164.81,23.29 163.51,21.97 162.54,21.17 161.57,20.37 160.26,19.34 158.95,18.31 157.12,17.06 155.30,15.81 153.08,14.50 150.87,13.19 148.56,12.09 146.24,10.99 143.81,10.18 141.37,9.37 139.09,9.06 136.81,8.75 134.87,8.87 132.92,8.98 130.68,9.32 128.43,9.65 125.81,10.19 123.19,10.73 120.54,11.40 117.90,12.07 114.68,12.96 111.47,13.85 107.61,15.03 103.75,16.21 100.07,17.36 96.38,18.51 92.33,19.71 88.28,20.92 84.02,22.10 79.77,23.27 76.51,23.85 73.25,24.43 70.70,24.42 68.14,24.41 66.23,23.96 64.32,23.52 62.92,22.76 61.52,22.00 60.17,21.02 58.81,20.04 57.36,18.83 55.91,17.62 54.30,16.26 52.69,14.89 50.83,13.37 48.97,11.85 46.92,10.31 44.87,8.77 42.87,7.54 40.87,6.30 38.44,5.15 36.02,3.99 33.23,3.02 30.44,2.05 27.85,1.56 25.27,1.07 22.70,0.94 20.12,0.80 17.62,0.81 15.12,0.81 12.73,0.81 10.34,0.82 8.23,0.82 6.12,0.82 4.53,0.82 2.94,0.82 1.46,0.80 -0.01,0.78 -0.11,0.76 -0.20,0.75 -0.29,0.71 -0.38,0.68 -0.45,0.62 -0.53,0.57 -0.59,0.49 -0.65,0.42 -0.69,0.34 -0.73,0.25 -0.75,0.16 -0.77,0.07 -0.77,-0.01 -0.77,-0.11 -0.74,-0.20 -0.72,-0.29 -0.67,-0.37 -0.63,-0.45 -0.56,-0.52 -0.50,-0.59 -0.42,-0.64 -0.34,-0.70 -0.25,-0.73 -0.16,-0.76 -0.07,-0.77 0.01,-0.78 0.01,-0.78 L 0.01,-0.78 Z"></path></g><g transform="translate(118.46288211316187 278.1974312911977) rotate(0 11.131815142594917 130.44510794089555)" stroke="none"><path fill="#1e1e1e" d="M 2.15,2.26 Q 2.15,2.26 -1.76,5.90 -5.67,9.54 -11.02,15.63 -16.37,21.72 -23.28,30.93 -30.19,40.13 -38.16,52.08 -46.12,64.03 -53.78,76.71 -61.44,89.39 -67.97,101.29 -74.50,113.18 -80.09,124.68 -85.68,136.17 -89.65,145.61 -93.61,155.04 -95.93,161.36 -98.24,167.67 -99.82,172.28 -101.39,176.88 -102.34,180.32 -103.29,183.77 -103.65,185.97 -104.02,188.17 -104.25,190.56 -104.49,192.95 -104.45,192.86 -104.41,192.77 -104.57,193.24 -104.73,193.71 -104.99,194.12 -105.26,194.54 -105.62,194.88 -105.98,195.22 -106.41,195.46 -106.84,195.71 -107.31,195.84 -107.79,195.97 -108.28,195.99 -108.78,196.01 -109.26,195.90 -109.74,195.80 -110.19,195.59 -110.63,195.37 -111.01,195.06 -111.39,194.74 -111.69,194.34 -111.98,193.95 -112.17,193.49 -112.36,193.03 -112.43,192.55 -112.51,192.06 -112.47,191.57 -112.42,191.07 -111.43,188.91 -110.44,186.76 -107.94,184.64 -105.43,182.52 -102.71,181.37 -100.00,180.21 -96.59,179.28 -93.19,178.35 -90.72,177.69 -88.26,177.04 -83.77,176.95 -79.27,176.86 -74.04,177.01 -68.81,177.17 -62.97,178.53 -57.13,179.88 -50.20,182.73 -43.28,185.58 -36.43,189.44 -29.58,193.29 -22.11,198.17 -14.65,203.05 -7.89,207.76 -1.12,212.47 8.51,219.73 18.14,226.99 24.93,232.33 31.72,237.67 36.27,241.35 40.81,245.03 44.60,248.18 48.38,251.33 50.58,252.84 52.77,254.34 55.70,255.22 58.64,256.10 63.02,256.01 67.41,255.93 70.96,255.37 74.51,254.80 78.82,253.53 83.13,252.26 87.37,250.38 91.61,248.51 94.60,246.80 97.60,245.10 99.55,243.62 101.50,242.14 105.17,238.73 108.83,235.32 113.63,228.72 118.42,222.12 120.84,217.75 123.26,213.39 124.55,208.51 125.84,203.64 126.43,199.09 127.01,194.55 127.28,188.75 127.55,182.95 127.68,176.15 127.81,169.35 127.87,161.86 127.93,154.37 127.97,147.26 128.00,140.15 127.95,133.40 127.91,126.66 127.79,119.82 127.68,112.99 127.53,106.72 127.38,100.45 127.19,95.55 127.01,90.66 126.67,87.17 126.33,83.69 125.94,81.06 125.54,78.42 124.91,75.24 124.27,72.07 123.46,68.54 122.65,65.02 121.95,61.44 121.25,57.86 120.89,55.66 120.54,53.47 120.33,50.88 120.13,48.29 120.09,45.27 120.06,42.26 120.12,38.98 120.18,35.70 120.20,32.65 120.22,29.60 120.20,27.18 120.17,24.77 120.28,22.38 120.38,19.98 120.53,17.75 120.68,15.52 120.81,12.10 120.95,8.69 120.98,7.12 121.02,5.56 121.22,4.67 121.41,3.77 121.89,2.99 122.36,2.20 123.05,1.61 123.75,1.01 124.60,0.67 125.45,0.33 126.37,0.28 127.28,0.23 128.16,0.48 129.04,0.72 129.80,1.23 130.56,1.74 131.12,2.47 131.67,3.20 131.97,4.07 132.26,4.94 132.26,5.85 132.26,6.77 131.97,7.64 131.68,8.50 131.13,9.23 130.57,9.96 129.82,10.48 129.06,10.99 128.18,11.24 127.29,11.49 126.38,11.44 125.47,11.39 124.61,11.05 123.76,10.71 123.07,10.12 122.37,9.53 121.89,8.75 121.42,7.96 121.22,7.07 121.02,6.17 121.12,5.26 121.22,4.35 121.60,3.52 121.99,2.69 122.62,2.02 123.24,1.36 124.05,0.93 124.86,0.50 125.77,0.35 126.67,0.20 127.57,0.35 128.48,0.49 129.29,0.92 130.10,1.35 130.73,2.01 131.36,2.68 131.74,3.51 132.13,4.34 132.23,5.25 132.33,6.16 132.33,6.16 132.33,6.16 132.20,7.81 132.07,9.47 131.65,12.99 131.23,16.50 130.77,20.71 130.32,24.92 130.22,27.24 130.13,29.56 130.18,32.59 130.22,35.61 130.34,38.82 130.45,42.03 130.55,44.82 130.64,47.62 130.75,49.85 130.85,52.09 131.08,54.26 131.30,56.42 131.58,60.01 131.85,63.59 132.14,67.48 132.44,71.36 132.34,74.66 132.25,77.96 132.23,80.66 132.20,83.37 132.25,86.91 132.29,90.45 132.49,95.39 132.68,100.32 132.84,106.61 133.00,112.89 133.13,119.75 133.26,126.61 133.33,133.39 133.39,140.16 133.38,147.28 133.38,154.41 133.35,161.92 133.32,169.44 133.24,176.31 133.16,183.18 132.94,189.21 132.72,195.25 132.16,200.19 131.59,205.12 130.16,210.70 128.74,216.27 126.25,221.08 123.76,225.90 118.76,233.11 113.76,240.33 109.75,244.43 105.74,248.54 103.36,249.90 100.98,251.25 97.76,252.96 94.54,254.66 90.02,256.96 85.50,259.26 80.79,261.04 76.08,262.82 71.85,263.77 67.63,264.72 64.40,264.70 61.16,264.69 58.64,264.17 56.12,263.64 52.43,261.45 48.74,259.25 46.83,257.37 44.93,255.50 41.16,252.39 37.38,249.29 32.85,245.66 28.31,242.04 21.53,236.78 14.75,231.52 5.16,224.39 -4.41,217.26 -11.16,212.69 -17.91,208.11 -25.26,203.47 -32.61,198.82 -39.18,195.32 -45.75,191.82 -52.19,189.39 -58.63,186.97 -63.68,186.05 -68.72,185.13 -73.69,185.45 -78.65,185.78 -82.31,186.26 -85.97,186.75 -88.19,187.21 -90.41,187.68 -95.31,189.29 -100.20,190.91 -102.30,191.84 -104.41,192.77 -104.57,193.24 -104.73,193.71 -104.99,194.12 -105.26,194.54 -105.62,194.88 -105.98,195.22 -106.41,195.46 -106.84,195.71 -107.31,195.84 -107.79,195.97 -108.28,195.99 -108.77,196.01 -109.26,195.90 -109.74,195.80 -110.19,195.59 -110.63,195.37 -111.01,195.06 -111.39,194.74 -111.69,194.34 -111.98,193.95 -112.17,193.49 -112.36,193.03 -112.43,192.55 -112.51,192.06 -112.47,191.57 -112.42,191.07 -112.32,190.92 -112.23,190.77 -111.38,188.57 -110.53,186.37 -109.69,184.19 -108.84,182.01 -107.62,178.59 -106.40,175.17 -104.81,170.51 -103.23,165.85 -100.88,159.41 -98.53,152.98 -94.52,143.40 -90.50,133.83 -84.87,122.21 -79.24,110.59 -72.68,98.58 -66.11,86.57 -58.42,73.77 -50.73,60.97 -42.72,48.87 -34.70,36.76 -27.72,27.35 -20.74,17.94 -15.27,11.57 -9.80,5.21 -5.98,1.47 -2.15,-2.26 -1.85,-2.48 -1.55,-2.71 -1.20,-2.85 -0.85,-3.00 -0.48,-3.06 -0.11,-3.12 0.26,-3.09 0.63,-3.05 0.99,-2.93 1.35,-2.81 1.66,-2.61 1.98,-2.41 2.24,-2.13 2.50,-1.86 2.69,-1.54 2.87,-1.21 2.98,-0.85 3.08,-0.48 3.09,-0.11 3.11,0.26 3.03,0.63 2.95,1.00 2.79,1.34 2.63,1.68 2.39,1.97 2.15,2.26 2.15,2.26 L 2.15,2.26 Z"></path></g><g transform="translate(109.32200548057108 276.376491306548) rotate(0 -38.582922840596694 -56.080841914786674)" stroke="none"><path fill="#1e1e1e" d="M 0.52,5.30 Q 0.52,5.30 -1.81,5.55 -4.14,5.81 -6.48,5.96 -8.82,6.11 -12.48,6.28 -16.14,6.46 -18.40,6.59 -20.67,6.71 -23.11,6.81 -25.56,6.91 -29.66,6.44 -33.75,5.98 -36.64,4.92 -39.52,3.87 -41.88,2.87 -44.23,1.86 -46.23,0.79 -48.23,-0.27 -51.33,-2.70 -54.42,-5.13 -56.31,-8.05 -58.19,-10.97 -58.95,-13.89 -59.72,-16.80 -60.77,-20.73 -61.83,-24.65 -62.62,-27.16 -63.41,-29.67 -64.26,-32.39 -65.11,-35.11 -66.03,-38.03 -66.94,-40.96 -67.88,-43.89 -68.83,-46.83 -69.77,-49.88 -70.70,-52.92 -71.59,-55.79 -72.47,-58.65 -73.31,-61.26 -74.15,-63.86 -74.93,-66.64 -75.72,-69.42 -76.39,-72.34 -77.07,-75.25 -77.64,-77.86 -78.21,-80.48 -78.66,-82.87 -79.10,-85.27 -79.75,-88.97 -80.39,-92.67 -80.79,-95.01 -81.18,-97.34 -81.39,-99.59 -81.61,-101.83 -81.91,-104.64 -82.22,-107.44 -82.62,-108.86 -83.02,-110.27 -83.21,-111.29 -83.39,-112.31 -83.24,-113.34 -83.09,-114.37 -82.62,-115.30 -82.15,-116.22 -81.41,-116.95 -80.67,-117.68 -79.73,-118.13 -78.80,-118.58 -77.77,-118.71 -76.74,-118.84 -75.72,-118.64 -74.70,-118.43 -73.80,-117.91 -72.90,-117.39 -72.21,-116.61 -71.53,-115.83 -71.13,-114.87 -70.72,-113.91 -70.65,-112.88 -70.58,-111.84 -70.84,-110.84 -71.10,-109.83 -71.67,-108.96 -72.23,-108.09 -73.05,-107.45 -73.87,-106.80 -74.84,-106.46 -75.82,-106.11 -76.86,-106.09 -77.90,-106.07 -78.89,-106.39 -79.88,-106.70 -80.72,-107.31 -81.56,-107.93 -82.15,-108.78 -82.75,-109.63 -83.05,-110.62 -83.34,-111.62 -83.30,-112.66 -83.27,-113.70 -82.90,-114.67 -82.53,-115.64 -81.87,-116.44 -81.21,-117.25 -80.33,-117.80 -79.45,-118.35 -78.44,-118.59 -77.43,-118.83 -76.40,-118.74 -75.36,-118.64 -74.41,-118.22 -73.46,-117.80 -72.69,-117.10 -71.93,-116.40 -71.42,-115.49 -70.92,-114.58 -70.92,-114.58 -70.92,-114.58 -70.12,-109.64 -69.32,-104.69 -69.48,-102.07 -69.63,-99.44 -69.56,-96.85 -69.49,-94.25 -69.13,-90.62 -68.76,-86.98 -68.45,-84.79 -68.14,-82.61 -67.63,-80.11 -67.12,-77.62 -66.46,-74.93 -65.81,-72.25 -65.06,-69.65 -64.31,-67.05 -63.46,-64.45 -62.62,-61.85 -61.67,-59.08 -60.72,-56.31 -59.64,-53.41 -58.56,-50.51 -57.42,-47.62 -56.28,-44.73 -55.14,-41.87 -54.00,-39.00 -52.97,-36.36 -51.94,-33.71 -50.92,-31.07 -49.89,-28.42 -48.97,-25.77 -48.04,-23.13 -47.38,-20.11 -46.71,-17.10 -45.60,-14.76 -44.50,-12.42 -42.06,-10.78 -39.62,-9.14 -37.61,-8.33 -35.61,-7.51 -33.39,-6.81 -31.17,-6.11 -28.37,-5.71 -25.57,-5.31 -22.17,-5.17 -18.76,-5.02 -15.86,-4.93 -12.96,-4.83 -9.08,-4.86 -5.19,-4.90 -2.86,-5.10 -0.52,-5.30 0.12,-5.28 0.76,-5.27 1.38,-5.10 2.00,-4.93 2.56,-4.62 3.12,-4.31 3.59,-3.87 4.06,-3.43 4.41,-2.90 4.77,-2.36 4.98,-1.76 5.19,-1.15 5.26,-0.51 5.32,0.12 5.23,0.75 5.14,1.39 4.89,1.98 4.65,2.58 4.28,3.10 3.90,3.62 3.41,4.03 2.92,4.45 2.34,4.73 1.77,5.02 1.14,5.16 0.52,5.30 0.52,5.30 L 0.52,5.30 Z"></path></g><g transform="translate(252.2274574746649 314.77064834286466) rotate(0 101.11018525738336 2.5337014371277746)" stroke="none"><path fill="#1e1e1e" d="M 2.60,-2.97 Q 2.60,-2.97 6.73,0.87 10.85,4.72 15.39,8.74 19.93,12.77 23.11,15.52 26.29,18.28 28.58,19.88 30.86,21.49 34.01,23.14 37.17,24.79 42.77,26.14 48.37,27.50 52.93,28.39 57.50,29.28 62.53,29.91 67.56,30.54 70.87,30.67 74.18,30.79 77.55,30.39 80.91,29.99 85.22,28.62 89.53,27.24 95.22,24.86 100.90,22.49 106.64,19.89 112.39,17.30 118.42,14.45 124.45,11.61 130.77,8.54 137.09,5.47 143.96,1.88 150.83,-1.71 157.46,-5.37 164.09,-9.02 168.97,-11.82 173.85,-14.62 177.62,-16.85 181.39,-19.09 184.39,-21.06 187.39,-23.03 189.49,-24.66 191.59,-26.29 194.22,-28.68 196.85,-31.07 198.42,-32.10 199.98,-33.12 200.62,-33.34 201.26,-33.56 201.94,-33.57 202.61,-33.57 203.25,-33.36 203.90,-33.15 204.44,-32.74 204.98,-32.33 205.36,-31.78 205.74,-31.22 205.93,-30.57 206.11,-29.92 206.08,-29.24 206.05,-28.57 205.80,-27.94 205.55,-27.31 205.12,-26.79 204.68,-26.27 204.11,-25.92 203.53,-25.57 202.87,-25.42 202.21,-25.27 201.54,-25.34 200.86,-25.41 200.25,-25.69 199.63,-25.97 199.14,-26.43 198.65,-26.89 198.33,-27.49 198.01,-28.08 197.89,-28.75 197.78,-29.42 197.89,-30.09 197.99,-30.75 198.31,-31.35 198.62,-31.95 199.11,-32.42 199.60,-32.89 200.21,-33.17 200.82,-33.46 201.49,-33.54 202.16,-33.62 202.82,-33.47 203.49,-33.33 204.07,-32.99 204.65,-32.64 205.09,-32.13 205.53,-31.62 205.78,-30.99 206.04,-30.36 206.08,-29.69 206.12,-29.01 205.94,-28.36 205.76,-27.71 205.39,-27.15 205.01,-26.58 204.47,-26.17 203.94,-25.76 203.94,-25.76 203.94,-25.76 202.87,-25.14 201.81,-24.51 198.54,-22.59 195.27,-20.68 192.85,-19.34 190.43,-18.00 187.28,-16.24 184.13,-14.48 180.34,-12.21 176.54,-9.94 171.64,-7.10 166.74,-4.26 160.07,-0.54 153.41,3.17 146.49,6.85 139.58,10.52 133.27,13.67 126.96,16.81 120.93,19.76 114.90,22.72 109.15,25.46 103.39,28.21 97.52,30.85 91.66,33.50 86.69,35.28 81.72,37.05 77.73,37.46 73.75,37.86 70.32,37.56 66.90,37.25 61.64,36.87 56.38,36.49 51.63,35.94 46.87,35.40 39.99,33.80 33.11,32.20 29.78,29.59 26.46,26.97 24.36,25.06 22.26,23.14 18.93,20.50 15.61,17.86 10.86,14.00 6.10,10.13 1.74,6.55 -2.60,2.97 -2.92,2.62 -3.24,2.26 -3.46,1.84 -3.69,1.42 -3.80,0.96 -3.92,0.49 -3.92,0.02 -3.93,-0.45 -3.81,-0.91 -3.70,-1.38 -3.48,-1.80 -3.26,-2.23 -2.95,-2.58 -2.64,-2.94 -2.24,-3.22 -1.85,-3.49 -1.41,-3.66 -0.96,-3.83 -0.49,-3.89 -0.02,-3.95 0.45,-3.90 0.92,-3.84 1.37,-3.68 1.82,-3.51 2.21,-3.24 2.60,-2.97 2.60,-2.97 L 2.60,-2.97 Z"></path></g><g transform="translate(91.5313479933265 477.91833812030563) rotate(0 -35.58407609745203 52.2091240414386)" stroke="none"><path fill="#1e1e1e" d="M 2.93,2.13 Q 2.93,2.13 -1.06,7.40 -5.06,12.67 -11.41,20.76 -17.76,28.86 -23.03,35.74 -28.31,42.63 -34.75,51.76 -41.18,60.89 -45.45,67.14 -49.71,73.39 -52.88,78.21 -56.04,83.04 -58.28,86.67 -60.53,90.31 -61.95,93.06 -63.37,95.82 -64.66,98.99 -65.95,102.16 -66.50,102.47 -67.05,102.78 -67.32,103.25 -67.59,103.71 -67.97,104.10 -68.34,104.49 -68.80,104.77 -69.26,105.06 -69.77,105.23 -70.28,105.39 -70.81,105.44 -71.35,105.48 -71.88,105.39 -72.41,105.30 -72.91,105.09 -73.40,104.87 -73.83,104.55 -74.26,104.22 -74.60,103.80 -74.94,103.38 -75.17,102.90 -75.39,102.41 -75.50,101.88 -75.60,101.35 -75.58,100.82 -75.56,100.28 -75.40,99.76 -75.25,99.24 -75.33,99.47 -75.41,99.69 -75.09,99.04 -74.77,98.39 -74.25,97.88 -73.74,97.38 -73.09,97.06 -72.44,96.74 -71.73,96.65 -71.01,96.55 -70.30,96.69 -69.59,96.83 -68.97,97.19 -68.34,97.55 -67.86,98.09 -67.38,98.63 -67.09,99.29 -66.81,99.96 -66.76,100.68 -66.70,101.40 -66.88,102.10 -67.06,102.80 -67.45,103.40 -67.84,104.01 -68.40,104.46 -68.97,104.91 -69.65,105.16 -70.33,105.40 -71.05,105.42 -71.77,105.44 -72.46,105.22 -73.15,105.01 -73.74,104.58 -74.32,104.16 -74.74,103.57 -75.16,102.98 -75.37,102.29 -75.58,101.60 -75.56,100.88 -75.53,100.15 -75.28,99.48 -75.03,98.80 -74.57,98.24 -74.12,97.68 -73.51,97.29 -72.90,96.90 -72.20,96.73 -71.49,96.56 -70.77,96.62 -70.05,96.69 -69.39,96.97 -68.73,97.26 -68.19,97.75 -67.66,98.23 -67.30,98.86 -66.95,99.49 -66.82,100.20 -66.69,100.91 -66.87,101.85 -67.05,102.78 -67.32,103.25 -67.59,103.71 -67.97,104.10 -68.34,104.49 -68.80,104.77 -69.25,105.06 -69.77,105.23 -70.28,105.39 -70.81,105.44 -71.35,105.48 -71.88,105.39 -72.41,105.30 -72.91,105.09 -73.40,104.87 -73.83,104.55 -74.26,104.22 -74.60,103.80 -74.94,103.38 -75.17,102.90 -75.39,102.41 -75.50,101.88 -75.60,101.35 -75.58,100.82 -75.56,100.28 -75.40,99.76 -75.25,99.25 -74.63,99.70 -74.00,100.15 -72.61,98.14 -71.23,96.12 -69.98,94.38 -68.72,92.63 -66.96,90.04 -65.19,87.46 -62.94,83.74 -60.69,80.02 -57.55,75.12 -54.40,70.22 -50.18,63.89 -45.95,57.57 -39.54,48.28 -33.12,39.00 -27.94,32.01 -22.76,25.01 -16.62,16.87 -10.49,8.72 -6.71,3.29 -2.93,-2.13 -2.63,-2.45 -2.33,-2.77 -1.97,-3.00 -1.60,-3.24 -1.19,-3.39 -0.78,-3.53 -0.34,-3.58 0.08,-3.62 0.52,-3.55 0.95,-3.49 1.35,-3.33 1.76,-3.16 2.11,-2.90 2.46,-2.65 2.74,-2.31 3.03,-1.98 3.22,-1.59 3.41,-1.20 3.51,-0.77 3.60,-0.34 3.59,0.08 3.58,0.52 3.46,0.94 3.35,1.36 3.14,1.74 2.93,2.13 2.93,2.13 L 2.93,2.13 Z"></path></g><g transform="translate(152.19256631910832 525.2105553337132) rotate(0 0.1367794998927252 48.690384564926944)" stroke="none"><path fill="#1e1e1e" d="M 3.56,-0.07 Q 3.56,-0.07 3.54,5.11 3.51,10.30 3.47,16.44 3.42,22.58 3.37,28.33 3.32,34.08 3.28,40.32 3.23,46.56 3.20,53.17 3.17,59.77 3.14,65.03 3.12,70.28 3.10,74.60 3.08,78.92 3.24,82.34 3.39,85.75 3.55,88.27 3.71,90.79 3.75,94.08 3.79,97.38 3.66,97.99 3.54,98.61 3.22,99.15 2.91,99.69 2.44,100.11 1.97,100.52 1.39,100.76 0.81,101.01 0.18,101.05 -0.43,101.09 -1.04,100.94 -1.65,100.78 -2.17,100.43 -2.70,100.09 -3.09,99.60 -3.47,99.10 -3.68,98.51 -3.89,97.92 -3.90,97.29 -3.91,96.67 -3.72,96.07 -3.53,95.47 -3.16,94.97 -2.79,94.46 -2.28,94.10 -1.76,93.74 -1.16,93.56 -0.56,93.38 0.06,93.41 0.69,93.43 1.27,93.65 1.86,93.88 2.34,94.28 2.83,94.67 3.16,95.21 3.49,95.74 3.64,96.35 3.78,96.96 3.72,97.58 3.67,98.21 3.41,98.78 3.16,99.36 2.73,99.82 2.31,100.28 1.76,100.58 1.21,100.89 0.59,101.00 -0.02,101.11 -0.64,101.02 -1.26,100.93 -1.82,100.64 -2.37,100.36 -2.81,99.91 -3.25,99.46 -3.52,98.89 -3.80,98.33 -3.87,97.71 -3.95,97.08 -3.95,97.08 -3.95,97.08 -3.58,93.86 -3.20,90.64 -2.94,88.19 -2.67,85.75 -2.51,82.34 -2.36,78.92 -2.38,74.60 -2.40,70.28 -2.43,65.03 -2.46,59.77 -2.50,53.17 -2.54,46.57 -2.59,40.33 -2.65,34.10 -2.74,28.36 -2.82,22.63 -2.96,16.53 -3.10,10.43 -3.33,5.25 -3.56,0.07 -3.52,-0.35 -3.47,-0.78 -3.33,-1.18 -3.19,-1.59 -2.95,-1.95 -2.71,-2.31 -2.39,-2.60 -2.08,-2.89 -1.70,-3.10 -1.33,-3.30 -0.91,-3.41 -0.50,-3.53 -0.07,-3.53 0.35,-3.54 0.77,-3.45 1.19,-3.35 1.58,-3.16 1.96,-2.97 2.29,-2.69 2.62,-2.41 2.87,-2.06 3.12,-1.71 3.28,-1.32 3.44,-0.92 3.50,-0.49 3.56,-0.07 3.56,-0.07 L 3.56,-0.07 Z"></path></g></svg>