<svg version="1.1" xmlns="http://www.w3.org/2000/svg" viewBox="0 0 563.4200134277344 496.9325256347656" width="563.4200134277344" height="496.9325256347656" class="excalidraw-svg">
  <!-- svg-source:excalidraw -->
  
  <defs>
    <style class="style-fonts">
      @font-face {
        font-family: "Virgil";
        src: url("https://excalidraw.com/Virgil.woff2");
      }
      @font-face {
        font-family: "Cascadia";
        src: url("https://excalidraw.com/Cascadia.woff2");
      }
      @font-face {
        font-family: "Assistant";
        src: url("https://excalidraw.com/Assistant-Regular.woff2");
      }
    </style>
    
  </defs>
  <g transform="translate(321.9737854003906 405.4881286621094) rotate(0 -40.26377868652344 -157.02186584472656)" stroke="none"><path fill="#1e1e1e" d="M 0.86,6.93 Q 0.86,6.93 -3.99,7.88 -8.86,8.84 -14.84,9.34 -20.83,9.84 -27.43,10.02 -34.03,10.20 -41.89,10.03 -49.74,9.85 -58.94,9.19 -68.14,8.52 -78.64,6.50 -89.15,4.48 -102.27,-0.02 -115.39,-4.53 -130.65,-12.04 -145.90,-19.54 -160.38,-28.74 -174.85,-37.95 -188.25,-48.34 -201.65,-58.72 -215.30,-70.65 -228.94,-82.57 -241.15,-94.63 -253.36,-106.69 -262.84,-117.61 -272.32,-128.54 -279.84,-138.55 -287.37,-148.57 -293.36,-158.20 -299.36,-167.84 -303.44,-176.28 -307.53,-184.73 -310.22,-191.90 -312.90,-199.08 -314.57,-205.82 -316.24,-212.55 -317.14,-219.10 -318.05,-225.64 -318.21,-232.01 -318.38,-238.38 -317.29,-244.96 -316.21,-251.55 -313.73,-258.22 -311.26,-264.90 -307.84,-271.26 -304.41,-277.62 -300.10,-283.70 -295.79,-289.77 -290.63,-295.68 -285.48,-301.59 -278.96,-307.81 -272.45,-314.04 -259.17,-324.06 -245.90,-334.09 -234.75,-341.15 -223.61,-348.20 -213.01,-354.08 -202.41,-359.96 -191.59,-365.15 -180.78,-370.34 -171.06,-374.03 -161.33,-377.71 -151.49,-380.45 -141.65,-383.19 -131.73,-385.43 -121.82,-387.66 -112.59,-389.23 -103.36,-390.80 -94.23,-392.00 -85.10,-393.20 -74.74,-394.25 -64.37,-395.31 -53.15,-396.30 -41.92,-397.30 -31.91,-398.13 -21.89,-398.97 -13.17,-399.48 -4.45,-400.00 5.57,-400.22 15.61,-400.43 26.85,-400.52 38.10,-400.61 47.86,-400.65 57.62,-400.69 66.19,-400.70 74.75,-400.72 82.85,-400.70 90.96,-400.69 98.92,-400.30 106.88,-399.90 112.62,-399.74 118.37,-399.58 128.91,-397.55 139.45,-395.52 147.98,-391.74 156.51,-387.96 163.88,-383.73 171.25,-379.50 177.81,-374.92 184.38,-370.34 190.29,-365.41 196.20,-360.49 201.37,-355.35 206.54,-350.20 210.57,-345.79 214.60,-341.38 217.98,-337.11 221.35,-332.83 224.48,-328.06 227.60,-323.28 230.08,-318.57 232.56,-313.86 234.29,-309.44 236.03,-305.01 237.22,-300.74 238.40,-296.47 239.85,-288.43 241.31,-280.39 241.62,-275.92 241.94,-271.45 242.26,-263.47 242.59,-255.50 242.52,-248.02 242.46,-240.53 241.40,-233.52 240.33,-226.51 238.70,-220.28 237.07,-214.05 235.11,-208.61 233.15,-203.17 230.15,-197.09 227.16,-191.01 224.67,-186.69 222.18,-182.36 219.66,-178.50 217.15,-174.65 214.01,-170.17 210.87,-165.69 206.95,-160.64 203.03,-155.58 200.08,-151.78 197.12,-147.98 193.53,-144.11 189.93,-140.23 185.90,-136.37 181.87,-132.50 178.46,-129.30 175.06,-126.09 171.25,-122.35 167.45,-118.62 163.75,-114.87 160.06,-111.12 156.85,-107.72 153.65,-104.31 150.07,-100.57 146.50,-96.83 142.24,-92.81 137.99,-88.78 133.42,-84.73 128.85,-80.67 124.14,-76.89 119.43,-73.11 114.25,-68.99 109.07,-64.87 104.98,-61.51 100.89,-58.16 97.46,-55.31 94.04,-52.46 90.08,-50.51 86.12,-48.56 87.63,-53.89 89.15,-59.22 94.45,-56.60 99.75,-53.98 104.72,-46.91 109.69,-39.83 115.97,-31.48 122.26,-23.12 128.66,-14.80 135.07,-6.47 141.80,2.07 148.54,10.62 154.65,18.60 160.77,26.58 165.73,33.60 170.69,40.62 174.64,45.92 178.58,51.23 181.53,55.16 184.48,59.09 188.31,64.37 192.13,69.64 194.22,75.61 196.31,81.58 190.91,86.50 185.50,91.41 177.95,90.00 170.39,88.59 160.86,85.06 151.32,81.52 140.21,76.46 129.10,71.40 121.61,67.85 114.13,64.29 108.16,61.61 102.20,58.93 97.58,56.77 92.96,54.61 86.45,51.27 79.94,47.92 74.95,45.15 69.96,42.38 65.63,39.81 61.31,37.24 57.48,35.16 53.65,33.08 48.55,30.98 43.45,28.88 38.69,27.11 33.94,25.35 29.41,23.22 24.88,21.10 19.63,18.40 14.39,15.70 10.29,13.42 6.18,11.14 -0.57,4.93 -7.33,-1.27 -7.91,-3.44 -8.50,-5.61 -8.35,-7.85 -8.21,-10.09 -7.36,-12.17 -6.51,-14.25 -5.05,-15.95 -3.58,-17.65 -1.64,-18.79 0.28,-19.93 2.48,-20.39 4.68,-20.86 6.91,-20.59 9.14,-20.33 11.17,-19.37 13.20,-18.41 14.81,-16.85 16.43,-15.29 17.47,-13.30 18.50,-11.31 18.84,-9.09 19.19,-6.87 18.80,-4.65 18.42,-2.44 17.35,-0.47 16.28,1.50 14.64,3.03 13.00,4.56 10.95,5.48 8.90,6.41 6.67,6.63 4.43,6.85 2.24,6.35 0.05,5.85 -1.85,4.68 -3.76,3.50 -5.20,1.78 -6.64,0.05 -7.45,-2.03 -8.27,-4.13 -8.37,-6.37 -8.47,-8.61 -7.85,-10.77 -7.23,-12.93 -5.95,-14.78 -4.68,-16.62 -2.88,-17.97 -1.08,-19.31 1.05,-20.01 3.18,-20.71 5.43,-20.69 7.68,-20.67 9.80,-19.93 11.92,-19.19 13.69,-17.82 15.47,-16.44 16.71,-14.57 17.96,-12.70 17.96,-12.71 17.96,-12.71 18.78,-12.68 19.61,-12.66 23.63,-10.30 27.66,-7.94 31.92,-5.57 36.18,-3.21 41.36,-0.34 46.55,2.53 52.02,5.17 57.48,7.81 61.80,10.32 66.11,12.83 70.05,15.73 73.99,18.64 77.79,21.59 81.58,24.54 85.99,27.85 90.41,31.16 95.83,34.98 101.25,38.80 105.27,41.16 109.28,43.52 114.89,46.17 120.50,48.81 128.16,51.49 135.82,54.18 147.23,57.89 158.64,61.61 167.66,64.61 176.67,67.61 180.71,69.23 184.74,70.86 180.55,74.74 176.36,78.63 173.80,73.15 171.24,67.67 168.99,63.56 166.74,59.46 163.29,54.12 159.83,48.79 154.66,42.34 149.49,35.89 142.92,28.53 136.35,21.17 128.89,13.31 121.42,5.45 114.06,-1.96 106.71,-9.38 99.20,-16.63 91.69,-23.87 85.27,-29.64 78.86,-35.41 72.11,-42.55 65.37,-49.68 64.51,-55.38 63.64,-61.08 67.82,-67.69 72.00,-74.31 76.12,-75.89 80.23,-77.47 76.50,-74.44 72.77,-71.40 76.49,-74.98 80.20,-78.56 84.06,-81.41 87.92,-84.26 91.75,-87.43 95.58,-90.61 100.39,-94.25 105.21,-97.89 109.48,-101.27 113.76,-104.65 118.00,-108.42 122.24,-112.18 125.92,-115.89 129.59,-119.59 133.24,-123.36 136.90,-127.14 140.34,-130.74 143.78,-134.34 147.82,-138.37 151.86,-142.39 155.83,-146.20 159.80,-150.01 164.31,-154.06 168.82,-158.12 172.58,-161.60 176.34,-165.08 179.12,-168.41 181.89,-171.74 185.63,-176.62 189.38,-181.50 192.39,-185.58 195.41,-189.67 198.96,-194.58 202.50,-199.49 204.79,-203.41 207.09,-207.34 209.44,-212.14 211.79,-216.94 213.58,-221.63 215.36,-226.31 216.81,-231.57 218.25,-236.83 219.11,-242.46 219.97,-248.08 220.15,-255.55 220.32,-263.01 220.32,-270.62 220.31,-278.24 219.72,-285.20 219.12,-292.16 217.67,-299.18 216.22,-306.19 214.54,-310.30 212.87,-314.41 210.42,-318.89 207.97,-323.36 205.40,-327.49 202.82,-331.61 199.58,-335.97 196.33,-340.33 191.83,-345.18 187.32,-350.04 181.98,-354.66 176.64,-359.29 170.65,-363.50 164.65,-367.72 157.95,-371.35 151.25,-374.98 143.13,-377.94 135.02,-380.89 126.03,-383.72 117.04,-386.55 111.59,-387.53 106.14,-388.51 98.47,-389.13 90.80,-389.76 82.78,-389.98 74.77,-390.20 66.22,-390.18 57.67,-390.16 47.93,-390.12 38.18,-390.08 27.01,-389.98 15.84,-389.89 6.00,-389.67 -3.83,-389.45 -12.42,-388.94 -21.00,-388.42 -30.99,-387.57 -40.97,-386.72 -52.13,-385.71 -63.28,-384.70 -73.48,-383.64 -83.69,-382.57 -92.60,-381.37 -101.52,-380.16 -110.45,-378.59 -119.38,-377.03 -129.01,-374.79 -138.64,-372.55 -147.96,-369.87 -157.28,-367.19 -166.49,-363.57 -175.70,-359.95 -186.10,-354.76 -196.50,-349.57 -206.64,-343.65 -216.78,-337.73 -227.28,-330.68 -237.78,-323.63 -250.01,-313.85 -262.24,-304.08 -267.90,-297.78 -273.55,-291.48 -278.09,-285.96 -282.63,-280.43 -286.41,-275.11 -290.18,-269.79 -293.22,-264.38 -296.26,-258.97 -298.52,-253.65 -300.79,-248.33 -302.11,-243.20 -303.44,-238.07 -303.81,-232.49 -304.18,-226.91 -303.93,-220.97 -303.68,-215.03 -302.80,-208.89 -301.92,-202.75 -299.94,-196.05 -297.97,-189.34 -294.14,-181.40 -290.31,-173.47 -284.55,-164.24 -278.80,-155.01 -271.49,-145.32 -264.18,-135.62 -254.94,-125.04 -245.71,-114.46 -233.70,-102.69 -221.69,-90.92 -208.23,-79.29 -194.78,-67.65 -181.74,-57.69 -168.69,-47.72 -154.69,-39.01 -140.69,-30.29 -126.07,-23.34 -111.44,-16.38 -99.17,-12.46 -86.90,-8.54 -77.26,-7.12 -67.61,-5.70 -58.72,-5.72 -49.84,-5.74 -42.07,-6.01 -34.31,-6.27 -27.94,-6.31 -21.57,-6.36 -16.16,-6.38 -10.75,-6.40 -5.81,-6.66 -0.86,-6.93 -0.02,-6.93 0.81,-6.93 1.63,-6.73 2.45,-6.53 3.20,-6.14 3.94,-5.76 4.58,-5.20 5.21,-4.64 5.69,-3.95 6.17,-3.26 6.47,-2.47 6.77,-1.69 6.87,-0.85 6.98,-0.02 6.88,0.81 6.78,1.65 6.49,2.43 6.19,3.22 5.71,3.92 5.24,4.61 4.61,5.17 3.98,5.73 3.24,6.12 2.49,6.52 1.67,6.72 0.86,6.93 0.86,6.93 L 0.86,6.93 Z"></path></g></svg>