<svg version="1.1" xmlns="http://www.w3.org/2000/svg" viewBox="0 0 383.80816650390625 237.8056640625" width="383.80816650390625" height="237.8056640625" class="excalidraw-svg">
  <!-- svg-source:excalidraw -->
  
  <defs>
    <style class="style-fonts">
      @font-face {
        font-family: "Virgil";
        src: url("https://excalidraw.com/Virgil.woff2");
      }
      @font-face {
        font-family: "Cascadia";
        src: url("https://excalidraw.com/Cascadia.woff2");
      }
      @font-face {
        font-family: "Assistant";
        src: url("https://excalidraw.com/Assistant-Regular.woff2");
      }
    </style>
    
  </defs>
  <g transform="translate(49.11627197265625 91.46124267578125) rotate(0 142.78781127929688 27.44158935546875)" stroke="none"><path d="M-1.08 -2.04 C-0.45 -7.94, 0.7 -27.53, 1.33 -35.23 C1.95 -42.93, 1.72 -43.82, 2.67 -48.21 C3.61 -52.61, 5.56 -57.75, 7 -61.6 C8.45 -65.45, 9.65 -68.91, 11.34 -71.32 C13.04 -73.72, 14.38 -74.54, 17.19 -76.04 C20 -77.53, 22.63 -79.51, 28.2 -80.27 C33.76 -81.04, 44.71 -80.68, 50.57 -80.6 C56.43 -80.51, 60.26 -80.74, 63.35 -79.78 C66.44 -78.82, 66.94 -77.31, 69.11 -74.84 C71.28 -72.37, 74.02 -68.46, 76.36 -64.95 C78.71 -61.43, 82.03 -58.24, 83.18 -53.74 C84.33 -49.25, 83.48 -40.96, 83.28 -37.96 C83.08 -34.95, 82.31 -36.85, 81.98 -35.71 C81.65 -34.56, 81.66 -30.44, 81.31 -31.08 C80.97 -31.72, 78.66 -36.95, 79.89 -39.53 C81.12 -42.12, 86.7 -44.08, 88.7 -46.6 C90.7 -49.11, 89.86 -52.55, 91.89 -54.61 C93.91 -56.67, 96.63 -56.56, 100.85 -58.95 C105.07 -61.33, 111.89 -66.42, 117.22 -68.92 C122.55 -71.42, 128.98 -72.94, 132.83 -73.96 C136.68 -74.99, 137.45 -75.22, 140.32 -75.09 C143.18 -74.96, 146.33 -74.25, 150.02 -73.18 C153.71 -72.12, 158.86 -70.72, 162.45 -68.71 C166.05 -66.7, 169.78 -64.6, 171.62 -61.12 C173.45 -57.65, 172.64 -51.12, 173.47 -47.85 C174.3 -44.59, 175.78 -45.43, 176.59 -41.54 C177.41 -37.64, 175.38 -25.57, 178.36 -24.5 C181.33 -23.43, 188.92 -32.98, 194.44 -35.13 C199.96 -37.27, 206.51 -36.34, 211.5 -37.36 C216.49 -38.38, 219.44 -40.13, 224.36 -41.24 C229.27 -42.36, 236.32 -43.94, 241.01 -44.06 C245.71 -44.18, 248.91 -43.65, 252.52 -41.97 C256.14 -40.3, 259.68 -37.65, 262.7 -34.03 C265.73 -30.42, 268.31 -24.69, 270.66 -20.27 C273 -15.85, 275.68 -12.53, 276.77 -7.52 C277.87 -2.51, 277.5 6.1, 277.22 9.79 C276.94 13.49, 274.8 14.49, 275.1 14.64 C275.41 14.79, 277.07 11.41, 279.05 10.71 C281.03 10.01, 282.51 10.9, 286.99 10.46 C291.46 10.01, 301.3 7.54, 305.89 8.04 C310.48 8.54, 312.39 12.13, 314.54 13.45 C316.68 14.77, 317.03 14.06, 318.76 15.96 C320.49 17.86, 324.24 21.14, 324.92 24.84 C325.6 28.53, 323.45 33.99, 322.85 38.14 C322.26 42.29, 322.2 47.45, 321.35 49.72 C320.5 51.99, 319.84 49.54, 317.74 51.78 C315.64 54.02, 311.66 60.75, 308.76 63.14 C305.85 65.53, 303.22 65.59, 300.3 66.12 C297.39 66.64, 293.79 66.29, 291.28 66.3 C288.77 66.31, 286.48 65.59, 285.25 66.2 C284.01 66.82, 283.62 68.04, 283.87 70 C284.12 71.97, 288.03 73.97, 286.75 77.99 C285.47 82.02, 281.67 87.72, 276.19 94.15 C270.72 100.58, 259.92 113.29, 253.9 116.57 C247.89 119.84, 244.2 113.75, 240.1 113.81 C235.99 113.87, 232.09 117, 229.27 116.92 C226.44 116.83, 226.97 116.75, 223.13 113.32 C219.29 109.9, 210.5 98.56, 206.24 96.34 C201.98 94.12, 201.83 97.31, 197.56 100.01 C193.28 102.71, 185.75 109.09, 180.59 112.51 C175.42 115.94, 171.55 118.56, 166.58 120.55 C161.61 122.54, 155.14 124.56, 150.76 124.46 C146.38 124.35, 143.1 120.46, 140.3 119.91 C137.5 119.35, 135.76 121.73, 133.95 121.14 C132.14 120.55, 130.5 117.72, 129.45 116.37 C128.41 115.02, 128.75 114.17, 127.67 113.03 C126.6 111.89, 123.55 112.24, 122.98 109.54 C122.42 106.84, 124.24 98.72, 124.28 96.81 C124.32 94.91, 132.43 92.87, 123.21 98.11 C113.98 103.36, 80 122.16, 68.92 128.28 C57.84 134.4, 59.99 133.2, 56.74 134.82 C53.49 136.44, 53 137.76, 49.44 137.99 C45.89 138.22, 38.43 136.3, 35.42 136.18 C32.41 136.07, 32.77 138.36, 31.36 137.3 C29.96 136.24, 29.33 132.13, 27 129.8 C24.67 127.47, 18.98 124.47, 17.39 123.34 C15.8 122.21, 17.96 124.4, 17.45 123.04 C16.95 121.68, 14.8 118.85, 14.36 115.17 C13.92 111.49, 13.81 104.66, 14.82 100.96 C15.84 97.26, 19.62 93.7, 20.45 92.97 C21.28 92.23, 20.52 96.59, 19.81 96.54 C19.11 96.49, 17.92 93.63, 16.2 92.67 C14.47 91.71, 14.28 93.48, 9.46 90.79 C4.64 88.11, -6.79 80.9, -12.72 76.58 C-18.65 72.26, -22.22 68.23, -26.13 64.87 C-30.03 61.5, -34.47 58.94, -36.15 56.41 C-37.83 53.88, -35.68 53.12, -36.22 49.71 C-36.75 46.3, -38.65 39.07, -39.34 35.95 C-40.03 32.83, -41.2 33.4, -40.36 31.01 C-39.52 28.62, -36.82 23.82, -34.3 21.61 C-31.78 19.39, -27.75 18.25, -25.26 17.71 C-22.76 17.17, -21.54 18.05, -19.32 18.36 C-17.1 18.66, -13.44 18.98, -11.94 19.52 C-10.43 20.05, -10.02 21.46, -10.3 21.56 C-10.58 21.67, -11 20.44, -13.6 20.14 C-16.2 19.84, -23.04 20.47, -25.9 19.76 C-28.77 19.05, -29.25 17.09, -30.78 15.88 C-32.31 14.68, -34.88 14.95, -35.06 12.54 C-35.24 10.14, -32.03 3.59, -31.85 1.46 C-31.67 -0.66, -35.16 0.54, -33.96 -0.22 C-32.76 -0.98, -28.12 -1.59, -24.63 -3.08 C-21.14 -4.57, -15.87 -8.61, -13.02 -9.15 C-10.17 -9.69, -8.64 -7.15, -7.53 -6.34 C-6.43 -5.53, -9.15 -5.49, -6.41 -4.28 C-3.67 -3.07, 6.69 0.7, 8.91 0.94" stroke="none" stroke-width="0" fill="#e9ecef" fill-rule="evenodd"></path><path fill="#1e1e1e" d="M -3.17,0 Q -3.17,0 -3.09,-5.53 -3.02,-11.07 -2.96,-18.05 -2.91,-25.03 -2.30,-32.39 -1.70,-39.75 0.18,-46.90 2.07,-54.05 4.73,-59.59 7.38,-65.13 10.24,-68.83 13.09,-72.52 16.57,-75.17 20.05,-77.83 24.98,-79.51 29.90,-81.19 35.91,-82.06 41.92,-82.93 47.58,-82.85 53.24,-82.77 58.22,-81.09 63.20,-79.41 67.52,-76.07 71.85,-72.73 74.77,-69.22 77.69,-65.71 79.68,-62.32 81.66,-58.92 83.00,-54.96 84.35,-51.00 85.11,-47.47 85.87,-43.94 86.25,-41.34 86.63,-38.74 86.07,-35.09 85.51,-31.44 84.86,-30.26 84.21,-29.08 83.85,-28.66 83.50,-28.25 83.05,-27.93 82.60,-27.61 82.09,-27.41 81.59,-27.21 81.04,-27.13 80.50,-27.06 79.95,-27.12 79.41,-27.17 78.89,-27.36 78.38,-27.55 77.92,-27.85 77.46,-28.15 77.09,-28.56 76.72,-28.96 76.46,-29.45 76.20,-29.93 76.06,-30.46 75.92,-30.99 75.91,-31.54 75.90,-32.08 76.03,-32.62 76.15,-33.15 76.40,-33.64 76.65,-34.13 78.30,-39.01 79.95,-43.89 82.60,-47.25 85.25,-50.60 89.52,-54.33 93.79,-58.07 100.39,-62.48 106.98,-66.90 113.41,-70.13 119.83,-73.36 125.84,-74.97 131.85,-76.59 137.75,-76.91 143.66,-77.23 149.13,-75.61 154.60,-73.99 159.54,-70.44 164.47,-66.90 168.27,-62.48 172.07,-58.07 174.48,-53.86 176.89,-49.66 178.32,-46.28 179.75,-42.91 180.57,-40.04 181.39,-37.18 181.85,-35.02 182.31,-32.87 185.46,-34.81 188.61,-36.75 194.24,-38.50 199.86,-40.25 206.67,-41.61 213.47,-42.97 220.93,-43.75 228.40,-44.53 235.63,-44.40 242.87,-44.27 249.61,-41.96 256.35,-39.66 261.77,-34.84 267.20,-30.03 270.47,-24.39 273.74,-18.76 275.24,-13.51 276.74,-8.27 277.39,-4.07 278.04,0.11 278.45,3.14 278.85,6.17 278.92,8.39 278.99,10.61 278.62,12.81 278.25,15.00 278.28,15.29 278.32,15.58 278.09,16.03 277.86,16.48 277.53,16.86 277.19,17.25 276.78,17.54 276.37,17.83 275.89,18.02 275.42,18.21 274.92,18.27 274.42,18.34 273.91,18.29 273.41,18.23 272.93,18.06 272.45,17.88 272.03,17.60 271.61,17.32 271.27,16.94 270.93,16.57 270.69,16.12 270.45,15.67 270.32,15.18 270.19,14.69 270.19,14.18 270.18,13.68 270.29,13.18 270.41,12.69 272.26,10.89 274.11,9.09 277.27,8.07 280.44,7.05 284.82,6.65 289.20,6.24 293.51,6.18 297.82,6.13 302.16,6.60 306.51,7.08 310.82,9.09 315.13,11.09 318.44,14.84 321.76,18.59 323.53,24.07 325.30,29.56 325.55,35.02 325.81,40.48 324.86,44.58 323.92,48.68 320.27,52.96 316.61,57.24 311.63,60.91 306.64,64.59 302.81,66.57 298.98,68.56 296.22,69.64 293.46,70.73 291.39,71.31 289.32,71.90 287.20,72.34 285.07,72.78 284.30,72.73 283.53,72.67 283.03,72.52 282.53,72.37 282.08,72.10 281.62,71.84 281.25,71.47 280.88,71.10 280.60,70.65 280.33,70.21 280.17,69.71 280.01,69.21 279.97,68.69 279.93,68.16 280.02,67.65 280.11,67.13 280.33,66.65 280.54,66.17 280.86,65.76 281.18,65.34 281.59,65.01 282.00,64.69 282.47,64.47 282.95,64.25 283.46,64.15 283.98,64.05 284.50,64.08 285.03,64.11 287.53,67.09 290.03,70.07 290.01,72.29 289.98,74.51 288.57,78.30 287.15,82.10 284.59,86.34 282.04,90.58 274.87,98.21 267.70,105.84 262.12,109.52 256.54,113.20 251.22,114.99 245.91,116.77 241.33,117.14 236.75,117.50 232.30,116.46 227.84,115.41 224.16,113.65 220.48,111.89 217.61,110.12 214.74,108.36 212.49,106.84 210.23,105.33 207.72,103.80 205.20,102.28 201.56,104.72 197.92,107.16 195.10,108.99 192.28,110.82 189.52,112.65 186.76,114.49 183.67,116.35 180.57,118.21 177.71,119.83 174.84,121.45 171.98,122.64 169.12,123.82 163.38,124.45 157.65,125.07 152.90,125.18 148.16,125.29 144.13,124.91 140.09,124.52 136.57,123.45 133.04,122.37 130.37,120.79 127.69,119.20 125.55,116.80 123.40,114.39 122.00,111.75 120.60,109.10 119.83,106.94 119.07,104.77 118.45,101.85 117.83,98.92 119.97,100.47 122.10,102.01 116.58,105.17 111.06,108.33 105.86,111.32 100.65,114.31 95.09,117.59 89.53,120.86 84.47,123.69 79.42,126.52 72.71,129.64 65.99,132.76 61.31,134.50 56.62,136.25 52.63,137.19 48.65,138.14 44.97,138.62 41.30,139.09 38.50,139.24 35.71,139.39 33.10,138.95 30.49,138.51 28.10,137.56 25.70,136.61 23.43,135.06 21.15,133.52 19.43,131.94 17.70,130.35 16.32,128.44 14.94,126.52 13.84,123.88 12.74,121.24 12.14,118.16 11.55,115.09 11.30,112.23 11.06,109.38 10.91,107.12 10.76,104.85 10.90,101.38 11.04,97.91 12.32,95.05 13.60,92.20 16.42,90.62 19.24,89.04 19.95,88.89 20.66,88.74 21.39,88.72 22.12,88.70 22.84,88.86 23.55,89.02 24.21,89.35 24.86,89.68 25.42,90.15 25.98,90.62 26.41,91.22 26.84,91.81 27.11,92.49 27.39,93.17 27.49,93.89 27.59,94.62 27.52,95.35 27.45,96.08 27.20,96.77 26.96,97.46 26.56,98.07 26.15,98.68 25.62,99.18 25.08,99.67 24.44,100.03 23.80,100.38 23.09,100.57 22.38,100.76 17.11,99.72 11.84,98.67 7.65,95.86 3.46,93.05 -1.37,89.41 -6.21,85.76 -10.68,82.15 -15.15,78.54 -19.01,75.18 -22.86,71.82 -26.71,68.00 -30.56,64.17 -33.54,60.20 -36.53,56.24 -38.22,52.53 -39.92,48.82 -40.71,44.88 -41.50,40.93 -41.54,37.25 -41.58,33.57 -40.85,30.41 -40.13,27.25 -38.98,24.68 -37.83,22.12 -36.53,20.19 -35.23,18.27 -33.20,16.72 -31.18,15.17 -27.36,14.35 -23.54,13.54 -21.15,13.23 -18.75,12.92 -15.31,13.02 -11.88,13.11 -9.43,14.54 -6.99,15.97 -6.52,19.29 -6.05,22.61 -8.76,24.88 -11.48,27.16 -13.78,27.45 -16.08,27.73 -18.86,27.84 -21.65,27.94 -25.76,26.96 -29.87,25.98 -33.11,23.67 -36.36,21.37 -37.74,18.50 -39.12,15.64 -39.75,11.97 -40.37,8.30 -40.32,5.26 -40.28,2.21 -38.98,-0.98 -37.68,-4.19 -34.78,-6.47 -31.88,-8.75 -28.50,-10.20 -25.13,-11.66 -21.44,-12.72 -17.76,-13.78 -15.14,-14.21 -12.52,-14.65 -9.17,-14.41 -5.81,-14.17 -3.94,-12.86 -2.07,-11.54 0.14,-10.81 2.37,-10.07 6.67,-8.77 10.98,-7.47 11.87,-6.71 12.76,-5.96 13.36,-4.95 13.97,-3.95 14.22,-2.81 14.47,-1.67 14.34,-0.51 14.22,0.65 13.72,1.71 13.23,2.77 12.43,3.62 11.62,4.46 10.59,5.01 9.56,5.56 8.40,5.75 7.25,5.94 6.10,5.75 4.94,5.56 3.91,5.01 2.88,4.46 2.07,3.61 1.27,2.76 0.78,1.70 0.29,0.64 0.16,-0.51 0.04,-1.67 0.29,-2.82 0.54,-3.96 1.14,-4.96 1.75,-5.96 2.64,-6.72 3.53,-7.47 4.62,-7.91 5.70,-8.34 6.87,-8.40 8.04,-8.46 9.16,-8.15 10.29,-7.84 11.26,-7.18 12.23,-6.52 12.93,-5.59 13.64,-4.66 14.01,-3.55 14.38,-2.44 14.38,-1.28 14.38,-0.11 14.01,0.99 13.64,2.10 12.93,3.03 12.22,3.96 11.25,4.61 10.28,5.27 9.16,5.58 8.03,5.89 6.86,5.83 5.69,5.77 4.61,5.33 3.52,4.90 3.52,4.90 3.53,4.90 0.95,4.24 -1.62,3.59 -3.58,2.77 -5.55,1.96 -7.47,0.38 -9.40,-1.20 -11.90,-1.01 -14.40,-0.83 -17.31,0.01 -20.22,0.86 -22.70,1.91 -25.18,2.96 -26.32,5.08 -27.47,7.21 -27.08,10.23 -26.69,13.25 -24.18,14.44 -21.67,15.63 -18.25,16.11 -14.83,16.60 -15.02,19.75 -15.22,22.90 -18.60,22.84 -21.98,22.78 -25.19,23.34 -28.40,23.90 -30.58,26.68 -32.76,29.46 -33.61,31.62 -34.46,33.79 -34.65,36.78 -34.83,39.77 -34.34,43.02 -33.84,46.27 -32.66,49.32 -31.47,52.36 -28.68,55.80 -25.88,59.24 -22.06,62.67 -18.23,66.10 -14.28,69.05 -10.33,72.00 -5.71,75.08 -1.10,78.17 3.76,81.05 8.64,83.93 12.30,85.57 15.95,87.21 18.30,87.97 20.66,88.74 21.39,88.72 22.12,88.70 22.84,88.86 23.55,89.02 24.21,89.35 24.86,89.68 25.42,90.15 25.98,90.62 26.41,91.22 26.84,91.81 27.11,92.49 27.39,93.17 27.49,93.89 27.59,94.62 27.52,95.35 27.45,96.08 27.20,96.77 26.96,97.46 26.56,98.07 26.15,98.68 25.62,99.18 25.08,99.67 24.44,100.03 23.80,100.38 23.09,100.57 22.38,100.76 21.97,101.08 21.55,101.40 21.45,105.01 21.34,108.61 21.49,110.97 21.63,113.32 21.96,115.51 22.29,117.69 23.44,120.72 24.60,123.74 27.04,126.29 29.48,128.84 32.68,130.43 35.87,132.03 38.25,132.26 40.63,132.49 43.95,132.25 47.26,132.01 50.82,131.25 54.38,130.49 58.77,128.69 63.16,126.89 69.50,123.70 75.84,120.51 80.64,117.46 85.44,114.41 90.76,110.79 96.07,107.16 100.94,103.71 105.80,100.25 109.41,97.47 113.01,94.69 115.62,93.14 118.24,91.58 120.66,91.44 123.09,91.29 125.58,94.62 128.07,97.95 128.12,100.08 128.18,102.21 129.17,105.67 130.15,109.13 132.85,112.19 135.55,115.25 138.19,116.27 140.82,117.30 144.27,117.62 147.72,117.95 152.10,117.49 156.49,117.03 161.19,116.15 165.89,115.27 168.18,114.48 170.47,113.69 173.15,112.18 175.83,110.67 178.68,108.78 181.54,106.89 184.23,104.98 186.92,103.07 189.81,100.95 192.69,98.83 195.66,96.97 198.63,95.11 201.40,94.23 204.17,93.36 207.32,94.30 210.48,95.24 212.66,97.28 214.84,99.33 216.73,100.99 218.61,102.66 220.98,104.45 223.35,106.24 226.34,107.86 229.34,109.49 232.84,110.40 236.33,111.31 240.08,110.97 243.83,110.64 248.25,109.04 252.68,107.44 257.42,104.08 262.15,100.71 268.41,93.64 274.67,86.57 276.47,82.66 278.26,78.75 280.90,75.71 283.53,72.67 283.03,72.52 282.53,72.37 282.08,72.10 281.63,71.84 281.25,71.47 280.88,71.10 280.60,70.65 280.33,70.21 280.17,69.71 280.01,69.21 279.97,68.69 279.93,68.16 280.02,67.65 280.11,67.13 280.33,66.65 280.54,66.17 280.86,65.76 281.18,65.34 281.59,65.01 282.00,64.69 282.47,64.47 282.95,64.25 283.46,64.15 283.98,64.05 284.50,64.08 285.02,64.11 285.39,64.30 285.75,64.49 288.65,64.44 291.54,64.39 293.96,63.90 296.38,63.41 299.81,61.69 303.24,59.98 307.72,56.64 312.20,53.31 315.15,50.09 318.11,46.86 319.04,43.77 319.98,40.68 319.74,36.00 319.51,31.32 318.19,26.96 316.87,22.60 314.47,19.85 312.08,17.10 308.92,15.64 305.76,14.17 301.97,13.95 298.19,13.73 294.26,14.09 290.33,14.44 286.58,15.16 282.83,15.87 280.57,15.72 278.32,15.58 278.09,16.03 277.86,16.48 277.53,16.86 277.19,17.25 276.78,17.54 276.37,17.83 275.89,18.02 275.42,18.21 274.92,18.27 274.42,18.34 273.91,18.29 273.41,18.23 272.93,18.06 272.45,17.88 272.03,17.60 271.61,17.32 271.27,16.94 270.93,16.57 270.69,16.12 270.45,15.67 270.32,15.18 270.19,14.69 270.19,14.18 270.18,13.68 270.29,13.18 270.41,12.69 270.65,12.20 270.89,11.71 271.66,9.14 272.43,6.58 272.45,3.76 272.47,0.93 271.94,-2.91 271.41,-6.77 270.12,-11.38 268.83,-15.99 266.05,-20.89 263.26,-25.80 258.76,-29.94 254.25,-34.09 248.49,-36.06 242.73,-38.02 235.96,-37.98 229.18,-37.93 222.11,-36.96 215.03,-35.99 208.75,-34.41 202.47,-32.84 197.39,-30.80 192.30,-28.77 188.93,-27.01 185.56,-25.24 181.88,-24.50 178.20,-23.75 176.40,-26.53 174.60,-29.31 174.65,-32.54 174.70,-35.77 174.39,-38.30 174.07,-40.82 173.12,-43.89 172.16,-46.97 170.01,-50.73 167.87,-54.49 164.50,-58.44 161.14,-62.38 156.99,-65.45 152.83,-68.52 148.36,-69.92 143.89,-71.31 138.69,-70.96 133.49,-70.60 128.16,-69.07 122.84,-67.53 116.92,-64.32 111.01,-61.11 105.02,-56.77 99.04,-52.42 95.59,-48.96 92.15,-45.49 90.17,-42.56 88.19,-39.64 86.90,-37.13 85.62,-34.63 84.91,-31.86 84.21,-29.08 83.85,-28.66 83.50,-28.25 83.05,-27.93 82.60,-27.61 82.10,-27.41 81.59,-27.21 81.04,-27.13 80.50,-27.06 79.95,-27.12 79.41,-27.17 78.89,-27.36 78.38,-27.55 77.92,-27.85 77.46,-28.15 77.09,-28.56 76.72,-28.96 76.46,-29.45 76.20,-29.93 76.06,-30.46 75.92,-30.99 75.91,-31.54 75.90,-32.08 76.03,-32.62 76.15,-33.15 76.40,-33.64 76.64,-34.13 76.90,-34.33 77.16,-34.54 78.28,-36.42 79.40,-38.30 79.46,-40.56 79.53,-42.82 79.11,-46.01 78.69,-49.19 77.62,-52.70 76.56,-56.20 75.07,-59.28 73.59,-62.36 71.06,-65.46 68.53,-68.57 64.94,-71.49 61.35,-74.40 57.22,-75.90 53.08,-77.39 47.88,-77.47 42.68,-77.54 37.16,-76.75 31.63,-75.96 27.46,-74.61 23.28,-73.26 20.30,-71.21 17.32,-69.16 14.81,-65.95 12.30,-62.75 9.87,-57.68 7.44,-52.61 5.69,-45.96 3.95,-39.30 3.43,-32.16 2.91,-25.03 2.96,-18.05 3.02,-11.07 3.09,-5.53 3.17,0 3.12,0.37 3.07,0.75 2.94,1.11 2.80,1.47 2.59,1.78 2.37,2.10 2.08,2.35 1.80,2.61 1.46,2.78 1.12,2.96 0.75,3.05 0.38,3.14 -0.00,3.14 -0.38,3.14 -0.75,3.05 -1.12,2.96 -1.46,2.78 -1.80,2.61 -2.08,2.35 -2.37,2.10 -2.59,1.78 -2.80,1.47 -2.94,1.11 -3.07,0.75 -3.12,0.37 -3.17,-0.00 -3.17,-0.00 L -3.17,0 Z"></path></g></svg>