<svg version="1.1" xmlns="http://www.w3.org/2000/svg" viewBox="0 0 125.32117272047617 196.3883084176598" width="125.32117272047617" height="196.3883084176598" class="excalidraw-svg">
  <!-- svg-source:excalidraw -->
  
  <defs>
    <style class="style-fonts">
      @font-face {
        font-family: "Virgil";
        src: url("https://excalidraw.com/Virgil.woff2");
      }
      @font-face {
        font-family: "Cascadia";
        src: url("https://excalidraw.com/Cascadia.woff2");
      }
      @font-face {
        font-family: "Assistant";
        src: url("https://excalidraw.com/Assistant-Regular.woff2");
      }
    </style>
    
  </defs>
  <g transform="translate(53.34554255598624 12.451686778751537) rotate(0 9.315043804251843 85.74246743007836)" stroke="none"><path d="M-2.45 3.95 C-6.33 9.97, -18.07 23.67, -23.83 32.57 C-29.58 41.47, -33.32 49.12, -36.98 57.36 C-40.65 65.6, -44.15 74.21, -45.81 82 C-47.47 89.79, -47.33 98.73, -46.94 104.1 C-46.55 109.47, -43.6 111.28, -43.47 114.24 C-43.35 117.2, -48.66 114.99, -46.19 121.84 C-43.72 128.7, -34.85 148.17, -28.67 155.36 C-22.48 162.55, -13.69 162.08, -9.1 164.97 C-4.51 167.85, -4.84 171.36, -1.11 172.68 C2.61 174.01, 7.88 173.22, 13.24 172.91 C18.6 172.6, 26.93 172.45, 31.03 170.82 C35.13 169.18, 34.95 165.6, 37.82 163.1 C40.7 160.6, 44.17 158.2, 48.29 155.81 C52.4 153.41, 59.91 151.86, 62.5 148.75 C65.09 145.64, 62.8 140.79, 63.82 137.13 C64.85 133.48, 68.21 132, 68.64 126.83 C69.07 121.66, 68.72 114.07, 66.41 106.12 C64.11 98.16, 58.08 87.32, 54.79 79.13 C51.5 70.94, 49.65 63.79, 46.66 56.97 C43.68 50.16, 44.39 46.62, 36.89 38.22 C29.4 29.83, 7.82 13.18, 1.71 6.58 C-4.4 -0.01, 0.18 0.5, 0.24 -1.35" stroke="none" stroke-width="0" fill="#00eeff" fill-rule="evenodd"></path><path fill="#1e1e1e" d="M 1.20,0.99 Q 1.20,0.99 -0.87,3.46 -2.95,5.92 -4.95,8.50 -6.95,11.08 -9.14,14.16 -11.34,17.24 -13.71,20.73 -16.09,24.22 -18.15,27.54 -20.21,30.86 -21.98,34.04 -23.75,37.22 -25.49,40.74 -27.23,44.25 -28.89,48.07 -30.55,51.89 -31.84,55.08 -33.13,58.26 -34.21,60.94 -35.29,63.62 -36.58,67.21 -37.86,70.79 -39.19,75.06 -40.51,79.33 -41.47,83.25 -42.43,87.18 -43.09,90.88 -43.75,94.58 -44.11,97.81 -44.48,101.03 -44.64,103.66 -44.79,106.29 -44.84,108.33 -44.90,110.37 -44.82,111.86 -44.74,113.36 -44.61,114.59 -44.48,115.82 -44.23,116.87 -43.97,117.93 -43.53,118.94 -43.09,119.94 -42.42,121.26 -41.75,122.58 -40.84,124.40 -39.92,126.21 -38.73,128.44 -37.55,130.67 -36.12,133.20 -34.68,135.73 -33.02,138.46 -31.35,141.18 -29.62,143.94 -27.89,146.69 -26.20,149.28 -24.50,151.87 -22.86,154.18 -21.22,156.49 -19.86,158.28 -18.50,160.08 -17.35,161.34 -16.20,162.60 -15.22,163.54 -14.25,164.48 -12.73,165.71 -11.22,166.93 -9.71,167.76 -8.20,168.59 -6.64,169.52 -5.09,170.46 -3.68,171.16 -2.27,171.85 -1.08,172.26 0.09,172.66 1.36,173.00 2.62,173.33 4.15,173.63 5.68,173.94 7.27,174.15 8.85,174.37 10.29,174.45 11.73,174.53 13.19,174.55 14.66,174.57 16.14,174.43 17.62,174.28 19.19,173.96 20.77,173.64 22.55,173.07 24.33,172.49 26.45,171.63 28.56,170.77 30.84,169.59 33.13,168.40 35.31,167.04 37.49,165.67 39.85,163.74 42.22,161.80 44.58,159.61 46.93,157.43 49.08,155.10 51.23,152.77 53.21,150.37 55.19,147.97 56.62,145.68 58.06,143.40 59.28,141.11 60.50,138.83 61.31,135.50 62.12,132.16 62.56,128.72 62.99,125.27 63.18,121.85 63.36,118.44 63.38,115.53 63.39,112.62 62.91,108.99 62.44,105.36 61.50,101.14 60.56,96.92 59.41,93.02 58.26,89.11 56.96,85.24 55.65,81.38 54.23,77.66 52.81,73.94 51.31,70.46 49.81,66.98 48.53,64.22 47.25,61.47 46.23,59.43 45.21,57.38 43.94,55.13 42.67,52.88 41.26,50.58 39.85,48.27 38.76,46.70 37.67,45.12 36.40,43.42 35.13,41.73 34.08,40.59 33.02,39.45 32.20,38.66 31.38,37.87 30.56,37.13 29.75,36.40 28.85,35.60 27.95,34.80 27.09,34.01 26.23,33.23 25.30,32.29 24.37,31.36 23.31,30.20 22.25,29.03 21.11,27.73 19.98,26.44 18.71,24.99 17.44,23.55 16.08,21.97 14.72,20.40 13.30,18.74 11.87,17.07 10.35,15.30 8.82,13.53 7.46,11.88 6.09,10.23 5.04,9.06 3.99,7.89 2.89,6.62 1.79,5.34 0.99,4.08 0.18,2.81 -0.40,1.70 -1.00,0.58 -2.23,-2.22 -3.46,-5.04 -3.44,-5.48 -3.43,-5.92 -3.28,-6.33 -3.13,-6.74 -2.85,-7.08 -2.58,-7.43 -2.21,-7.66 -1.84,-7.90 -1.41,-8.01 -0.98,-8.11 -0.55,-8.08 -0.11,-8.04 0.29,-7.87 0.69,-7.70 1.02,-7.40 1.35,-7.11 1.56,-6.72 1.78,-6.34 1.86,-5.91 1.95,-5.48 1.89,-5.04 1.83,-4.61 1.63,-4.21 1.44,-3.82 1.13,-3.51 0.81,-3.20 0.42,-3.00 0.03,-2.80 -0.40,-2.75 -0.84,-2.69 -1.27,-2.77 -1.70,-2.85 -2.08,-3.07 -2.47,-3.28 -2.76,-3.61 -3.05,-3.94 -3.23,-4.34 -3.40,-4.75 -3.44,-5.19 -3.47,-5.62 -3.37,-6.05 -3.26,-6.48 -3.02,-6.85 -2.79,-7.22 -2.44,-7.50 -2.10,-7.77 -1.69,-7.92 -1.27,-8.07 -0.83,-8.09 -0.40,-8.10 0.02,-7.97 0.44,-7.84 0.79,-7.58 1.15,-7.33 1.41,-6.97 1.66,-6.61 1.79,-6.19 1.92,-5.77 1.92,-5.77 1.92,-5.77 2.79,-3.62 3.65,-1.48 4.02,-0.34 4.40,0.79 4.86,1.99 5.31,3.19 5.97,4.47 6.63,5.74 7.53,6.98 8.44,8.21 9.84,9.78 11.24,11.34 12.84,13.02 14.44,14.70 15.97,16.24 17.50,17.78 18.98,19.23 20.47,20.67 21.88,22.06 23.30,23.44 24.46,24.69 25.63,25.93 26.68,27.07 27.73,28.22 28.57,29.17 29.41,30.12 30.15,30.98 30.90,31.83 31.75,32.78 32.61,33.73 33.34,34.64 34.07,35.56 34.75,36.52 35.43,37.47 36.38,38.77 37.32,40.07 38.66,41.82 40.00,43.58 41.04,45.24 42.09,46.90 43.52,49.25 44.95,51.59 46.26,53.90 47.56,56.21 48.60,58.28 49.63,60.36 50.93,63.15 52.23,65.94 53.75,69.47 55.27,73.00 56.71,76.77 58.15,80.54 59.47,84.45 60.78,88.37 61.96,92.36 63.13,96.34 64.09,100.68 65.06,105.02 65.55,108.82 66.04,112.63 66.03,115.61 66.02,118.58 65.83,122.09 65.64,125.60 65.18,129.21 64.73,132.81 63.81,136.44 62.90,140.08 61.64,142.47 60.38,144.85 58.86,147.29 57.34,149.73 55.33,152.20 53.33,154.68 51.13,157.11 48.93,159.55 46.55,161.83 44.16,164.12 41.69,166.22 39.23,168.33 37.00,169.85 34.77,171.36 32.42,172.73 30.07,174.11 27.90,175.19 25.74,176.27 23.72,177.10 21.71,177.93 19.89,178.35 18.07,178.77 16.32,178.95 14.57,179.12 13.00,179.08 11.43,179.04 9.87,178.92 8.30,178.81 6.58,178.61 4.85,178.40 3.10,178.10 1.34,177.79 -0.07,177.35 -1.50,176.92 -2.85,176.36 -4.20,175.81 -5.72,175.07 -7.24,174.33 -8.94,173.47 -10.64,172.60 -11.55,171.97 -12.46,171.34 -13.95,169.91 -15.44,168.48 -16.12,167.63 -16.80,166.78 -17.66,165.66 -18.53,164.55 -19.61,163.15 -20.69,161.75 -22.09,159.94 -23.50,158.12 -25.20,155.79 -26.89,153.46 -28.64,150.88 -30.39,148.30 -32.18,145.56 -33.97,142.83 -35.73,140.11 -37.49,137.39 -39.04,134.90 -40.58,132.42 -41.92,130.25 -43.26,128.08 -44.39,126.26 -45.52,124.44 -46.26,122.88 -47.01,121.31 -47.40,119.91 -47.80,118.51 -47.90,117.21 -48.00,115.90 -47.93,114.60 -47.85,113.30 -47.72,111.79 -47.59,110.28 -47.50,108.20 -47.42,106.13 -47.26,103.43 -47.10,100.73 -46.72,97.43 -46.34,94.12 -45.67,90.34 -44.99,86.55 -44.01,82.55 -43.03,78.55 -41.69,74.22 -40.35,69.90 -39.05,66.27 -37.75,62.64 -36.67,59.95 -35.60,57.27 -34.30,54.05 -33.00,50.83 -31.32,46.95 -29.64,43.06 -27.87,39.49 -26.11,35.91 -24.32,32.67 -22.53,29.43 -20.45,26.05 -18.38,22.67 -16.01,19.15 -13.64,15.62 -11.44,12.47 -9.24,9.32 -7.25,6.67 -5.25,4.02 -3.23,1.51 -1.20,-0.99 -1.06,-1.12 -0.93,-1.25 -0.76,-1.34 -0.60,-1.44 -0.42,-1.49 -0.24,-1.54 -0.05,-1.54 0.13,-1.55 0.31,-1.51 0.50,-1.47 0.67,-1.39 0.84,-1.31 0.98,-1.19 1.13,-1.07 1.24,-0.92 1.35,-0.77 1.42,-0.60 1.50,-0.42 1.53,-0.24 1.56,-0.05 1.54,0.13 1.52,0.32 1.46,0.49 1.40,0.67 1.30,0.83 1.20,0.99 1.20,0.99 L 1.20,0.99 Z"></path></g></svg>