<svg version="1.1" xmlns="http://www.w3.org/2000/svg" viewBox="0 0 1110.8731689453125 50.510009765625" width="1110.8731689453125" height="50.510009765625" class="excalidraw-svg">
  <!-- svg-source:excalidraw -->
  
  <defs>
    <style class="style-fonts">
      @font-face {
        font-family: "Virgil";
        src: url("https://excalidraw.com/Virgil.woff2");
      }
      @font-face {
        font-family: "Cascadia";
        src: url("https://excalidraw.com/Cascadia.woff2");
      }
      @font-face {
        font-family: "Assistant";
        src: url("https://excalidraw.com/Assistant-Regular.woff2");
      }
    </style>
    
  </defs>
  <g transform="translate(10.17999267578125 30.58184814453125) rotate(0 404.22943115234375 -4.103424072265625)" stroke="none"><path fill="#1e1e1e" d="M -0.79,-3.02 Q -0.79,-3.02 3.59,-4.11 7.99,-5.20 15.08,-6.96 22.18,-8.72 31.95,-10.78 41.72,-12.85 53.09,-14.66 64.46,-16.47 76.10,-17.49 87.74,-18.50 100.05,-18.93 112.37,-19.36 125.14,-19.53 137.92,-19.71 151.58,-19.78 165.24,-19.85 178.92,-19.88 192.61,-19.91 205.23,-19.59 217.86,-19.28 229.99,-18.47 242.13,-17.65 253.48,-16.55 264.83,-15.44 275.41,-14.21 285.98,-12.97 295.40,-11.78 304.81,-10.59 313.83,-9.53 322.85,-8.48 332.17,-7.66 341.49,-6.85 352.54,-6.37 363.60,-5.89 375.64,-5.69 387.68,-5.48 399.29,-5.76 410.89,-6.04 424.11,-7.25 437.33,-8.46 451.80,-10.11 466.28,-11.76 479.35,-13.11 492.43,-14.45 504.64,-15.65 516.85,-16.84 529.06,-17.75 541.27,-18.66 551.40,-19.16 561.53,-19.65 570.00,-19.97 578.47,-20.29 586.01,-20.42 593.56,-20.56 599.27,-20.62 604.97,-20.67 609.56,-20.60 614.14,-20.53 618.35,-20.26 622.55,-19.98 626.35,-19.62 630.14,-19.26 633.44,-18.91 636.74,-18.55 639.69,-18.18 642.65,-17.82 645.50,-17.40 648.36,-16.98 651.37,-16.32 654.38,-15.66 657.57,-14.70 660.77,-13.75 663.85,-12.75 666.94,-11.76 669.69,-10.89 672.45,-10.03 674.93,-9.29 677.42,-8.55 679.80,-7.83 682.18,-7.12 684.55,-6.40 686.91,-5.69 689.22,-5.06 691.53,-4.44 693.87,-3.83 696.21,-3.23 698.67,-2.61 701.13,-1.99 703.67,-1.44 706.20,-0.89 708.75,-0.35 711.31,0.17 713.84,0.69 716.38,1.21 718.85,1.71 721.32,2.21 723.73,2.63 726.14,3.04 728.58,3.32 731.02,3.59 733.60,3.83 736.18,4.06 738.85,4.24 741.52,4.43 744.28,4.52 747.04,4.62 749.91,4.68 752.78,4.74 755.61,4.77 758.43,4.80 760.96,4.67 763.49,4.54 765.92,4.18 768.36,3.82 770.99,3.30 773.62,2.77 776.65,2.17 779.69,1.56 783.08,0.97 786.48,0.37 789.51,-0.28 792.55,-0.95 795.07,-1.68 797.59,-2.42 801.96,-4.02 806.32,-5.63 807.13,-5.79 807.93,-5.95 808.74,-5.85 809.56,-5.74 810.30,-5.38 811.04,-5.02 811.62,-4.45 812.21,-3.87 812.58,-3.14 812.95,-2.41 813.07,-1.59 813.18,-0.78 813.04,0.02 812.89,0.82 812.49,1.54 812.09,2.26 811.48,2.81 810.88,3.37 810.13,3.70 809.38,4.03 808.56,4.10 807.74,4.17 806.94,3.98 806.14,3.79 805.45,3.35 804.75,2.92 804.23,2.28 803.71,1.65 803.42,0.88 803.13,0.11 803.10,-0.70 803.08,-1.52 803.31,-2.31 803.55,-3.10 804.02,-3.77 804.49,-4.44 805.16,-4.92 805.82,-5.41 806.60,-5.65 807.38,-5.90 808.20,-5.88 809.03,-5.87 809.80,-5.59 810.57,-5.32 811.22,-4.81 811.86,-4.30 812.31,-3.61 812.76,-2.92 812.96,-2.13 813.16,-1.33 813.10,-0.51 813.04,0.30 812.73,1.05 812.41,1.81 811.86,2.43 811.32,3.04 810.61,3.45 809.90,3.86 809.90,3.86 809.90,3.86 807.18,4.77 804.47,5.68 802.31,6.27 800.15,6.85 797.41,7.56 794.67,8.28 791.54,9.03 788.41,9.78 785.11,10.55 781.82,11.33 778.74,12.06 775.66,12.79 772.72,13.40 769.78,14.01 766.87,14.40 763.95,14.79 761.17,14.90 758.38,15.01 755.52,15.01 752.67,15.01 749.71,15.00 746.76,15.00 743.80,14.95 740.84,14.89 738.04,14.72 735.24,14.55 732.52,14.31 729.80,14.06 727.04,13.73 724.27,13.40 721.71,12.91 719.14,12.43 716.69,11.88 714.23,11.33 711.69,10.78 709.15,10.22 706.55,9.65 703.96,9.07 701.25,8.45 698.55,7.83 696.02,7.13 693.49,6.44 691.10,5.71 688.71,4.99 686.28,4.19 683.85,3.40 681.53,2.55 679.21,1.69 676.88,0.81 674.55,-0.05 672.11,-0.97 669.66,-1.89 666.98,-2.89 664.30,-3.89 661.32,-4.93 658.33,-5.97 655.37,-6.94 652.41,-7.91 649.65,-8.72 646.89,-9.52 644.15,-10.20 641.40,-10.88 638.58,-11.56 635.75,-12.23 632.59,-12.88 629.44,-13.54 625.81,-14.09 622.17,-14.64 618.11,-14.96 614.06,-15.28 609.54,-15.35 605.03,-15.42 599.34,-15.36 593.65,-15.31 586.16,-15.17 578.66,-15.04 570.22,-14.72 561.78,-14.41 551.72,-13.91 541.66,-13.42 529.51,-12.52 517.36,-11.62 505.17,-10.42 492.97,-9.23 479.92,-7.88 466.87,-6.54 452.34,-4.88 437.81,-3.23 424.41,-2.01 411.01,-0.79 399.30,-0.51 387.60,-0.23 375.48,-0.43 363.37,-0.64 352.20,-1.12 341.03,-1.61 331.63,-2.43 322.24,-3.25 313.19,-4.31 304.15,-5.37 294.76,-6.55 285.37,-7.74 274.85,-8.96 264.32,-10.19 253.05,-11.29 241.78,-12.38 229.75,-13.18 217.73,-13.99 205.17,-14.29 192.62,-14.60 178.94,-14.56 165.27,-14.52 151.63,-14.44 138.00,-14.35 125.28,-14.16 112.56,-13.96 100.39,-13.52 88.22,-13.07 76.78,-12.04 65.34,-11.01 54.12,-9.17 42.90,-7.34 33.25,-5.23 23.60,-3.12 16.56,-1.27 9.52,0.57 5.16,1.79 0.79,3.02 0.42,3.07 0.05,3.12 -0.32,3.08 -0.69,3.04 -1.05,2.91 -1.40,2.79 -1.71,2.58 -2.03,2.37 -2.28,2.09 -2.54,1.81 -2.72,1.48 -2.90,1.15 -2.99,0.79 -3.09,0.42 -3.10,0.05 -3.10,-0.32 -3.02,-0.69 -2.93,-1.05 -2.77,-1.39 -2.60,-1.73 -2.35,-2.01 -2.11,-2.30 -1.80,-2.52 -1.49,-2.74 -1.14,-2.88 -0.79,-3.02 -0.79,-3.02 L -0.79,-3.02 Z"></path></g><g transform="translate(819.538818359375 28.7818603515625) rotate(0 140.66717529296875 -8.600616455078125)" stroke="none"><path fill="#1e1e1e" d="M -0.36,-3.10 Q -0.36,-3.10 4.04,-3.55 8.46,-4.00 13.52,-5.13 18.58,-6.26 24.63,-7.89 30.68,-9.51 36.96,-11.23 43.24,-12.95 49.33,-14.46 55.42,-15.96 61.12,-17.11 66.82,-18.26 71.98,-19.06 77.14,-19.85 82.14,-20.31 87.14,-20.76 92.28,-20.95 97.43,-21.14 102.78,-21.22 108.14,-21.30 113.11,-21.33 118.08,-21.37 122.48,-21.38 126.88,-21.39 130.99,-21.43 135.11,-21.47 139.09,-21.52 143.07,-21.58 147.14,-21.53 151.21,-21.48 155.03,-21.35 158.85,-21.23 162.41,-21.06 165.97,-20.89 169.62,-20.59 173.27,-20.28 176.86,-19.85 180.46,-19.43 184.17,-18.80 187.89,-18.17 191.84,-17.32 195.79,-16.47 199.80,-15.55 203.81,-14.63 207.64,-13.84 211.47,-13.05 215.13,-12.34 218.78,-11.63 222.44,-10.92 226.09,-10.22 229.44,-9.59 232.78,-8.96 235.61,-8.40 238.43,-7.85 240.81,-7.34 243.20,-6.83 246.84,-5.94 250.49,-5.05 252.98,-4.63 255.48,-4.21 259.12,-4.14 262.75,-4.07 265.67,-4.17 268.58,-4.27 271.26,-4.38 273.95,-4.49 277.59,-4.49 281.24,-4.49 282.19,-4.27 283.14,-4.05 283.98,-3.53 284.81,-3.02 285.44,-2.26 286.06,-1.51 286.42,-0.60 286.77,0.31 286.81,1.28 286.85,2.26 286.58,3.20 286.31,4.15 285.75,4.95 285.19,5.75 284.41,6.34 283.62,6.92 282.69,7.23 281.76,7.53 280.78,7.52 279.80,7.51 278.87,7.18 277.95,6.86 277.18,6.26 276.40,5.66 275.86,4.84 275.32,4.03 275.07,3.08 274.82,2.13 274.88,1.16 274.94,0.18 275.32,-0.72 275.69,-1.62 276.33,-2.36 276.97,-3.10 277.82,-3.60 278.66,-4.09 279.62,-4.29 280.58,-4.49 281.55,-4.38 282.53,-4.26 283.41,-3.84 284.30,-3.42 285.00,-2.74 285.70,-2.06 286.15,-1.19 286.60,-0.32 286.75,0.64 286.90,1.61 286.73,2.58 286.56,3.54 286.09,4.40 285.62,5.26 284.90,5.93 284.19,6.59 283.29,6.99 282.40,7.40 281.42,7.49 280.45,7.59 280.45,7.59 280.45,7.59 278.43,7.49 276.41,7.40 273.86,7.29 271.30,7.18 268.41,7.03 265.52,6.88 262.01,6.61 258.49,6.35 255.91,6.07 253.33,5.78 250.41,4.80 247.50,3.82 244.23,2.46 240.97,1.10 238.78,0.33 236.59,-0.43 233.95,-1.23 231.30,-2.04 228.03,-2.82 224.76,-3.61 221.11,-4.37 217.46,-5.13 213.81,-5.92 210.17,-6.70 206.31,-7.48 202.45,-8.27 198.45,-9.06 194.44,-9.85 190.57,-10.58 186.70,-11.31 183.11,-11.96 179.53,-12.60 176.07,-13.12 172.60,-13.65 169.04,-14.07 165.49,-14.50 162.02,-14.86 158.54,-15.23 154.82,-15.50 151.10,-15.77 147.08,-15.87 143.07,-15.97 139.09,-16.02 135.12,-16.07 131.01,-16.09 126.89,-16.12 122.51,-16.10 118.12,-16.08 113.17,-16.05 108.22,-16.01 102.93,-15.92 97.63,-15.84 92.63,-15.65 87.63,-15.45 82.79,-15.00 77.96,-14.55 72.93,-13.76 67.90,-12.97 62.32,-11.82 56.74,-10.67 50.73,-9.15 44.72,-7.62 38.44,-5.85 32.17,-4.08 26.03,-2.35 19.89,-0.63 14.52,0.64 9.16,1.92 4.76,2.51 0.36,3.10 -0.01,3.10 -0.38,3.10 -0.75,3.00 -1.11,2.91 -1.45,2.74 -1.78,2.56 -2.06,2.31 -2.34,2.06 -2.55,1.75 -2.77,1.44 -2.90,1.08 -3.03,0.73 -3.08,0.36 -3.12,-0.01 -3.07,-0.38 -3.03,-0.75 -2.89,-1.11 -2.76,-1.46 -2.54,-1.77 -2.33,-2.08 -2.04,-2.32 -1.76,-2.57 -1.43,-2.75 -1.09,-2.92 -0.73,-3.01 -0.36,-3.10 -0.36,-3.10 L -0.36,-3.10 Z"></path></g></svg>