<svg version="1.1" xmlns="http://www.w3.org/2000/svg" viewBox="0 0 457.94000244140625 471.54124450683594" width="457.94000244140625" height="471.54124450683594" class="excalidraw-svg">
  <!-- svg-source:excalidraw -->
  
  <defs>
    <style class="style-fonts">
      @font-face {
        font-family: "Virgil";
        src: url("https://excalidraw.com/Virgil.woff2");
      }
      @font-face {
        font-family: "Cascadia";
        src: url("https://excalidraw.com/Cascadia.woff2");
      }
      @font-face {
        font-family: "Assistant";
        src: url("https://excalidraw.com/Assistant-Regular.woff2");
      }
    </style>
    
  </defs>
  <g transform="translate(197.97625732421875 137.67625427246094) rotate(0 15.51092529296875 108.89999389648438)" stroke="none"><path d="M0.99 -0.55 C-0.91 -0.57, -8.66 0.37, -12.81 1.2 C-16.95 2.03, -20.45 3.67, -23.89 4.44 C-27.32 5.2, -29.71 4.36, -33.41 5.81 C-37.1 7.25, -42.13 10.49, -46.05 13.12 C-49.96 15.74, -52.97 17.17, -56.91 21.55 C-60.86 25.93, -65.84 34.18, -69.72 39.4 C-73.61 44.62, -77.41 47.84, -80.22 52.87 C-83.03 57.9, -84.85 64.31, -86.6 69.6 C-88.36 74.89, -90.55 78.97, -90.74 84.62 C-90.93 90.27, -88.75 98.88, -87.76 103.5 C-86.78 108.12, -85.7 108.82, -84.84 112.35 C-83.98 115.88, -85.33 118.81, -82.61 124.68 C-79.89 130.56, -73.42 140.6, -68.5 147.59 C-63.58 154.59, -59.16 160.23, -53.1 166.66 C-47.05 173.08, -39.61 180.41, -32.18 186.12 C-24.74 191.83, -16.47 196.39, -8.48 200.92 C-0.49 205.45, 8.88 210.75, 15.76 213.3 C22.64 215.86, 28.19 215.55, 32.81 216.26 C37.42 216.98, 38.25 218.37, 43.45 217.58 C48.65 216.78, 58.69 213.89, 64.01 211.51 C69.32 209.12, 71.78 206.53, 75.35 203.26 C78.92 199.99, 82.11 196.81, 85.41 191.88 C88.71 186.94, 92.11 180.37, 95.14 173.63 C98.18 166.89, 99.89 163.48, 103.64 151.43 C107.39 139.38, 114.92 112.8, 117.63 101.36 C120.34 89.92, 119.53 90.04, 119.93 82.81 C120.33 75.58, 120.77 64.13, 120.03 58 C119.29 51.87, 117.22 49.17, 115.5 46.04 C113.77 42.9, 112.55 41.46, 109.69 39.2 C106.83 36.94, 101.94 35.23, 98.35 32.5 C94.77 29.77, 93.99 25.69, 88.19 22.8 C82.39 19.92, 73.76 18.34, 63.56 15.18 C53.37 12.02, 35.82 6.03, 27.02 3.86 C18.22 1.7, 14.9 2, 10.78 2.18 C6.67 2.36, 4.24 4.64, 2.32 4.95" stroke="none" stroke-width="0" fill="#ff0000" fill-rule="evenodd"></path><path fill="#1e1e1e" d="M 0.88,9.45 Q 0.88,9.45 -5.84,9.94 -12.56,10.44 -17.75,11.89 -22.95,13.34 -28.07,15.56 -33.19,17.79 -37.75,20.63 -42.32,23.48 -46.53,26.91 -50.74,30.33 -54.68,34.19 -58.63,38.05 -61.61,41.80 -64.58,45.56 -66.88,49.29 -69.17,53.03 -71.96,60.33 -74.75,67.63 -75.93,74.25 -77.11,80.87 -77.30,88.55 -77.49,96.24 -75.23,104.68 -72.97,113.13 -70.83,118.27 -68.69,123.41 -66.13,128.27 -63.58,133.12 -60.69,137.95 -57.81,142.78 -55.05,146.82 -52.30,150.86 -46.40,157.85 -40.51,164.84 -36.36,169.25 -32.22,173.66 -28.41,177.04 -24.61,180.43 -21.03,183.12 -17.46,185.81 -10.84,189.74 -4.22,193.68 1.01,196.14 6.24,198.61 12.68,201.02 19.12,203.42 24.06,204.22 29.01,205.01 33.97,205.08 38.92,205.14 45.07,203.18 51.21,201.21 56.62,198.67 62.02,196.12 66.66,193.03 71.29,189.94 75.40,185.27 79.51,180.59 82.85,174.36 86.19,168.13 87.93,164.18 89.67,160.23 92.02,153.58 94.38,146.93 96.11,140.27 97.85,133.60 99.85,125.78 101.85,117.96 102.98,112.78 104.11,107.59 105.03,102.88 105.95,98.17 106.50,92.98 107.04,87.80 107.16,81.59 107.28,75.39 107.15,69.58 107.02,63.77 105.49,58.54 103.95,53.31 99.88,49.50 95.82,45.69 90.87,42.90 85.92,40.10 81.27,37.99 76.62,35.88 72.27,34.29 67.92,32.70 63.08,31.17 58.23,29.63 53.54,28.25 48.85,26.87 43.95,25.57 39.05,24.27 34.46,23.22 29.87,22.17 25.76,20.89 21.65,19.60 17.00,19.10 12.36,18.59 7.97,18.76 3.58,18.92 1.90,18.92 0.22,18.93 -2.22,18.53 -4.67,18.12 -6.87,16.96 -9.06,15.80 -10.77,13.99 -12.47,12.19 -13.52,9.94 -14.56,7.68 -14.83,5.22 -15.10,2.75 -14.56,0.32 -14.03,-2.09 -12.75,-4.22 -11.47,-6.35 -9.58,-7.96 -7.68,-9.57 -5.38,-10.48 -3.07,-11.40 -0.59,-11.54 1.88,-11.67 4.27,-11.01 6.67,-10.34 8.72,-8.95 10.78,-7.55 12.28,-5.58 13.78,-3.60 14.58,-1.25 15.37,1.10 15.37,3.58 15.37,6.06 14.57,8.42 13.78,10.77 12.28,12.75 10.77,14.72 8.72,16.12 6.66,17.51 4.27,18.17 1.88,18.84 -0.59,18.70 -3.07,18.57 -5.38,17.65 -7.69,16.73 -9.58,15.12 -11.47,13.51 -12.75,11.38 -14.03,9.26 -14.56,6.83 -15.10,4.41 -14.83,1.94 -14.56,-0.52 -13.52,-2.78 -12.47,-5.03 -10.76,-6.83 -9.06,-8.63 -6.86,-9.80 -4.67,-10.96 -2.22,-11.36 0.22,-11.76 0.22,-11.76 0.22,-11.76 5.88,-11.70 11.54,-11.65 15.91,-11.19 20.27,-10.73 24.50,-10.13 28.73,-9.52 32.95,-8.07 37.17,-6.62 41.69,-5.45 46.22,-4.27 50.85,-3.01 55.47,-1.74 60.15,-0.22 64.82,1.28 69.11,2.72 73.40,4.16 77.60,5.72 81.79,7.27 86.55,9.48 91.30,11.68 95.15,13.57 99.00,15.46 104.06,18.49 109.12,21.52 112.66,24.23 116.20,26.93 119.97,30.92 123.74,34.90 126.32,39.59 128.89,44.27 130.45,49.71 132.02,55.15 132.62,62.44 133.23,69.73 133.10,76.11 132.96,82.49 132.42,90.02 131.89,97.54 130.73,102.99 129.57,108.43 128.19,113.55 126.80,118.67 124.96,125.34 123.12,132.01 121.14,139.21 119.16,146.41 117.91,150.52 116.66,154.62 113.69,162.08 110.73,169.54 108.73,174.03 106.74,178.52 104.62,182.51 102.50,186.50 99.80,190.61 97.10,194.72 93.85,198.47 90.61,202.23 87.28,204.95 83.94,207.66 78.39,211.83 72.84,216.00 66.12,220.04 59.40,224.09 53.65,226.22 47.90,228.35 39.86,228.96 31.82,229.56 25.11,228.48 18.40,227.40 11.30,225.02 4.20,222.64 -3.04,219.05 -10.29,215.46 -16.28,211.68 -22.26,207.90 -26.29,205.04 -30.32,202.19 -34.31,198.94 -38.31,195.68 -42.53,191.86 -46.75,188.04 -51.53,183.42 -56.30,178.81 -60.25,174.37 -64.20,169.93 -66.89,166.16 -69.59,162.39 -72.48,157.97 -75.37,153.54 -78.64,148.34 -81.91,143.13 -85.03,137.58 -88.15,132.04 -90.92,126.09 -93.69,120.14 -95.86,113.89 -98.02,107.65 -98.91,101.99 -99.79,96.33 -99.71,91.41 -99.63,86.49 -99.09,81.76 -98.54,77.02 -96.34,68.72 -94.14,60.42 -92.36,56.14 -90.58,51.85 -88.05,47.02 -85.52,42.18 -82.38,37.73 -79.23,33.28 -75.41,28.94 -71.59,24.59 -66.96,20.20 -62.33,15.81 -57.12,11.74 -51.92,7.66 -46.18,4.27 -40.45,0.88 -34.09,-1.80 -27.73,-4.48 -21.02,-6.21 -14.31,-7.93 -7.59,-8.69 -0.88,-9.45 0.26,-9.42 1.40,-9.38 2.51,-9.08 3.61,-8.78 4.61,-8.22 5.61,-7.66 6.44,-6.87 7.28,-6.09 7.90,-5.13 8.52,-4.17 8.90,-3.09 9.27,-2.01 9.38,-0.87 9.49,0.26 9.32,1.39 9.15,2.52 8.71,3.58 8.28,4.64 7.60,5.56 6.92,6.49 6.05,7.22 5.17,7.96 4.14,8.46 3.11,8.96 1.99,9.21 0.87,9.45 0.88,9.45 L 0.88,9.45 Z"></path></g><g transform="translate(63.39251708984375 62.38563537597656) rotate(0 22.342498779296875 20.205001831054688)" stroke="none"><path fill="#1e1e1e" d="M 6.73,-7.75 Q 6.73,-7.75 11.34,-3.60 15.94,0.53 19.91,3.89 23.87,7.24 29.61,11.91 35.34,16.57 38.60,19.40 41.87,22.22 45.24,25.80 48.62,29.37 47.44,28.62 46.26,27.87 48.13,28.51 49.99,29.14 51.56,30.34 53.13,31.54 54.24,33.17 55.34,34.81 55.87,36.71 56.39,38.61 56.28,40.58 56.17,42.56 55.44,44.39 54.70,46.22 53.42,47.72 52.14,49.22 50.45,50.24 48.75,51.25 46.82,51.67 44.89,52.09 42.93,51.88 40.97,51.66 39.18,50.83 37.39,49.99 35.96,48.63 34.53,47.27 33.61,45.53 32.69,43.78 32.37,41.83 32.06,39.88 32.38,37.94 32.70,35.99 33.63,34.25 34.56,32.50 36.00,31.15 37.43,29.80 39.23,28.97 41.02,28.15 42.98,27.94 44.95,27.73 46.87,28.16 48.80,28.58 50.49,29.60 52.18,30.63 53.45,32.13 54.73,33.64 55.45,35.48 56.18,37.31 56.28,39.28 56.39,41.25 55.85,43.16 55.32,45.06 54.21,46.69 53.10,48.32 51.52,49.51 49.95,50.70 48.08,51.33 46.21,51.95 44.23,51.95 42.26,51.94 42.26,51.95 42.26,51.95 37.12,49.39 31.98,46.83 29.14,42.98 26.30,39.14 23.51,35.78 20.71,32.41 15.65,27.52 10.59,22.62 6.67,19.17 2.75,15.71 -1.99,11.73 -6.73,7.75 -7.56,6.83 -8.39,5.91 -8.98,4.82 -9.56,3.73 -9.87,2.53 -10.18,1.33 -10.19,0.09 -10.20,-1.14 -9.92,-2.34 -9.63,-3.55 -9.07,-4.65 -8.50,-5.75 -7.69,-6.68 -6.88,-7.62 -5.86,-8.33 -4.85,-9.04 -3.70,-9.49 -2.55,-9.94 -1.32,-10.10 -0.09,-10.26 1.13,-10.13 2.36,-9.99 3.52,-9.56 4.68,-9.13 5.71,-8.44 6.73,-7.75 6.73,-7.75 L 6.73,-7.75 Z"></path></g><g transform="translate(10.416259765625 193.5550079345703) rotate(0 39.847503662109375 -9.978744506835938)" stroke="none"><path fill="#1e1e1e" d="M -1.14,-10.36 Q -1.14,-10.36 4.92,-10.92 10.98,-11.48 15.53,-12.30 20.07,-13.11 27.48,-15.19 34.90,-17.27 40.18,-19.44 45.47,-21.61 52.36,-24.21 59.26,-26.82 66.80,-29.39 74.35,-31.95 76.33,-32.26 78.32,-32.56 80.29,-32.21 82.27,-31.86 84.03,-30.90 85.80,-29.94 87.16,-28.47 88.53,-27.00 89.35,-25.17 90.17,-23.33 90.37,-21.34 90.56,-19.34 90.11,-17.38 89.66,-15.43 88.60,-13.72 87.55,-12.01 86.00,-10.72 84.46,-9.44 82.58,-8.72 80.71,-8.00 78.70,-7.91 76.70,-7.82 74.77,-8.38 72.84,-8.94 71.19,-10.09 69.54,-11.23 68.34,-12.85 67.15,-14.46 66.53,-16.37 65.91,-18.28 65.93,-20.29 65.95,-22.29 66.62,-24.19 67.28,-26.08 68.51,-27.67 69.74,-29.25 71.42,-30.36 73.09,-31.47 75.03,-31.99 76.98,-32.50 78.98,-32.37 80.98,-32.24 82.84,-31.47 84.70,-30.71 86.21,-29.39 87.73,-28.07 88.74,-26.34 89.76,-24.61 90.17,-22.64 90.58,-20.68 90.34,-18.69 90.10,-16.69 89.23,-14.88 88.37,-13.07 86.97,-11.62 85.58,-10.18 83.79,-9.26 82.01,-8.34 82.01,-8.34 82.01,-8.34 74.25,-5.98 66.50,-3.62 61.48,-2.16 56.46,-0.70 51.31,0.82 46.16,2.36 39.37,3.92 32.59,5.49 27.98,6.42 23.37,7.36 18.29,8.09 13.22,8.82 7.18,9.59 1.14,10.36 -0.11,10.35 -1.37,10.33 -2.58,10.02 -3.80,9.70 -4.91,9.11 -6.01,8.51 -6.95,7.67 -7.88,6.82 -8.58,5.78 -9.28,4.74 -9.71,3.56 -10.15,2.38 -10.28,1.13 -10.42,-0.11 -10.26,-1.36 -10.09,-2.60 -9.63,-3.77 -9.17,-4.94 -8.45,-5.97 -7.72,-7.00 -6.77,-7.82 -5.82,-8.64 -4.70,-9.21 -3.58,-9.79 -2.36,-10.07 -1.14,-10.36 -1.14,-10.36 L -1.14,-10.36 Z"></path></g><g transform="translate(91.0675048828125 299.88438415527344) rotate(0 -24.7471923828125 0.5540771484375)" stroke="none"><path fill="#1e1e1e" d="M -0.32,9.81 Q -0.32,9.81 -7.52,9.31 -14.72,8.81 -20.05,8.91 -25.38,9.01 -32.10,9.79 -38.82,10.58 -42.77,11.48 -46.72,12.38 -48.46,12.40 -50.20,12.42 -51.86,11.88 -53.51,11.35 -54.91,10.31 -56.31,9.27 -57.30,7.84 -58.30,6.41 -58.78,4.74 -59.27,3.07 -59.20,1.33 -59.12,-0.40 -58.50,-2.03 -57.87,-3.65 -56.76,-4.99 -55.65,-6.33 -54.17,-7.25 -52.69,-8.16 -50.99,-8.56 -49.30,-8.95 -47.56,-8.79 -45.83,-8.62 -44.24,-7.91 -42.65,-7.19 -41.37,-6.01 -40.09,-4.83 -39.26,-3.30 -38.43,-1.77 -38.12,-0.06 -37.82,1.65 -38.08,3.37 -38.35,5.09 -39.14,6.64 -39.94,8.19 -41.19,9.40 -42.44,10.61 -44.01,11.36 -45.58,12.11 -47.31,12.32 -49.04,12.53 -50.75,12.18 -52.45,11.82 -53.95,10.94 -55.46,10.06 -56.60,8.75 -57.74,7.43 -58.40,5.82 -59.07,4.21 -59.18,2.48 -59.30,0.74 -58.85,-0.93 -58.41,-2.62 -57.45,-4.07 -56.48,-5.52 -55.11,-6.59 -53.74,-7.66 -52.09,-8.24 -50.45,-8.81 -50.45,-8.81 -50.45,-8.81 -48.24,-9.13 -46.03,-9.45 -40.01,-9.73 -33.99,-10.01 -29.70,-9.97 -25.41,-9.93 -19.75,-9.85 -14.10,-9.77 -6.88,-9.79 0.32,-9.81 1.49,-9.63 2.66,-9.45 3.75,-8.99 4.85,-8.54 5.80,-7.83 6.75,-7.13 7.51,-6.22 8.26,-5.30 8.78,-4.24 9.29,-3.17 9.54,-2.01 9.78,-0.85 9.74,0.32 9.70,1.50 9.38,2.64 9.06,3.78 8.48,4.81 7.89,5.84 7.08,6.70 6.26,7.56 5.27,8.20 4.27,8.84 3.15,9.22 2.03,9.61 0.85,9.71 -0.32,9.81 -0.32,9.81 L -0.32,9.81 Z"></path></g><g transform="translate(124.50811767578125 342.19004821777344) rotate(0 0 26.746856689453125)" stroke="none"><path fill="#1e1e1e" d="M 10.58,0 Q 10.58,0 10.65,4.62 10.72,9.25 11.00,15.15 11.28,21.04 11.53,26.09 11.77,31.15 12.04,35.70 12.31,40.26 12.54,45.03 12.77,49.80 12.80,51.31 12.82,52.82 12.49,54.87 12.15,56.92 11.18,58.75 10.21,60.59 8.70,62.01 7.19,63.44 5.31,64.31 3.43,65.18 1.36,65.41 -0.69,65.63 -2.72,65.19 -4.74,64.74 -6.52,63.67 -8.30,62.60 -9.65,61.02 -10.99,59.44 -11.76,57.51 -12.52,55.58 -12.64,53.51 -12.75,51.43 -12.19,49.43 -11.64,47.43 -10.47,45.72 -9.31,44.00 -7.66,42.74 -6.00,41.49 -4.04,40.82 -2.07,40.16 0.00,40.16 2.07,40.16 4.04,40.83 6.01,41.49 7.66,42.74 9.31,44.00 10.48,45.72 11.64,47.44 12.19,49.44 12.75,51.44 12.64,53.51 12.52,55.58 11.76,57.51 10.99,59.44 9.64,61.02 8.30,62.60 6.52,63.67 4.74,64.74 2.71,65.19 0.69,65.63 -1.37,65.41 -3.43,65.18 -5.31,64.31 -7.20,63.44 -8.70,62.01 -10.21,60.58 -11.18,58.75 -12.15,56.92 -12.49,54.87 -12.82,52.82 -12.82,52.82 -12.82,52.82 -12.80,51.31 -12.77,49.80 -12.54,45.03 -12.31,40.26 -12.04,35.70 -11.77,31.15 -11.53,26.09 -11.28,21.04 -11.00,15.15 -10.72,9.25 -10.65,4.62 -10.58,0 -10.42,-1.26 -10.27,-2.53 -9.82,-3.72 -9.37,-4.91 -8.64,-5.96 -7.92,-7.01 -6.96,-7.86 -6.01,-8.70 -4.88,-9.30 -3.75,-9.89 -2.51,-10.20 -1.27,-10.50 0.00,-10.50 1.27,-10.50 2.51,-10.19 3.75,-9.89 4.88,-9.30 6.01,-8.70 6.96,-7.86 7.92,-7.01 8.64,-5.96 9.37,-4.91 9.82,-3.72 10.27,-2.53 10.42,-1.26 10.58,0.00 10.58,0.00 L 10.58,0 Z"></path></g><g transform="translate(202.0037841796875 400.78562927246094) rotate(0 0 30.3778076171875)" stroke="none"><path fill="#1e1e1e" d="M 10.10,0 Q 10.10,0 10.11,5.53 10.11,11.07 10.16,16.26 10.21,21.45 10.20,27.07 10.19,32.68 10.27,37.46 10.36,42.25 10.68,48.51 11.00,54.77 11.07,57.22 11.14,59.67 10.85,61.45 10.56,63.23 9.71,64.82 8.87,66.42 7.56,67.66 6.25,68.90 4.61,69.65 2.98,70.41 1.18,70.61 -0.60,70.80 -2.36,70.41 -4.12,70.02 -5.67,69.09 -7.21,68.17 -8.38,66.79 -9.55,65.42 -10.21,63.74 -10.88,62.07 -10.98,60.27 -11.08,58.46 -10.59,56.73 -10.11,54.99 -9.10,53.50 -8.09,52.00 -6.65,50.91 -5.21,49.82 -3.51,49.25 -1.80,48.67 0.00,48.67 1.80,48.67 3.51,49.25 5.22,49.82 6.65,50.92 8.09,52.01 9.10,53.50 10.11,54.99 10.59,56.73 11.08,58.47 10.98,60.27 10.88,62.07 10.21,63.74 9.54,65.42 8.38,66.79 7.21,68.17 5.66,69.10 4.12,70.03 2.36,70.41 0.60,70.80 -1.19,70.60 -2.98,70.41 -4.62,69.65 -6.25,68.89 -7.56,67.65 -8.87,66.41 -9.71,64.82 -10.56,63.23 -10.85,61.45 -11.14,59.67 -11.14,59.67 -11.14,59.67 -11.07,57.22 -11.00,54.77 -10.68,48.51 -10.36,42.25 -10.27,37.46 -10.19,32.68 -10.20,27.07 -10.21,21.45 -10.16,16.26 -10.11,11.07 -10.11,5.53 -10.10,0 -9.95,-1.20 -9.81,-2.41 -9.37,-3.55 -8.94,-4.69 -8.25,-5.69 -7.56,-6.70 -6.65,-7.50 -5.73,-8.31 -4.66,-8.88 -3.58,-9.44 -2.40,-9.73 -1.21,-10.03 0.00,-10.03 1.21,-10.03 2.40,-9.73 3.58,-9.44 4.66,-8.88 5.74,-8.31 6.65,-7.50 7.56,-6.69 8.25,-5.69 8.94,-4.69 9.37,-3.55 9.81,-2.41 9.95,-1.20 10.10,0.00 10.10,0.00 L 10.10,0 Z"></path></g><g transform="translate(289.18560791015625 395.65000915527344) rotate(0 25.048126220703125 9.961883544921875)" stroke="none"><path fill="#1e1e1e" d="M 2.95,-9.61 Q 2.95,-9.61 8.37,-7.94 13.78,-6.27 19.27,-4.28 24.77,-2.30 29.86,-0.22 34.96,1.85 41.49,4.51 48.02,7.18 51.43,8.70 54.84,10.22 56.28,11.31 57.73,12.40 58.75,13.90 59.77,15.39 60.27,17.13 60.76,18.87 60.67,20.68 60.58,22.49 59.91,24.17 59.25,25.86 58.08,27.24 56.92,28.63 55.37,29.57 53.82,30.51 52.06,30.90 50.29,31.30 48.49,31.11 46.69,30.92 45.04,30.17 43.40,29.41 42.08,28.18 40.76,26.94 39.91,25.34 39.05,23.74 38.75,21.96 38.45,20.17 38.74,18.39 39.02,16.60 39.87,15.00 40.71,13.39 42.02,12.14 43.32,10.89 44.96,10.13 46.60,9.36 48.40,9.16 50.20,8.96 51.97,9.34 53.74,9.72 55.29,10.65 56.85,11.57 58.03,12.95 59.20,14.32 59.88,16.00 60.56,17.68 60.66,19.49 60.77,21.30 60.29,23.04 59.81,24.79 58.80,26.29 57.79,27.79 56.35,28.89 54.92,29.99 53.21,30.58 51.49,31.16 49.68,31.17 47.87,31.18 46.15,30.61 44.44,30.03 44.44,30.03 44.44,30.04 41.52,28.32 38.59,26.61 32.85,23.59 27.11,20.57 22.50,18.58 17.90,16.60 12.89,14.76 7.87,12.93 2.46,11.27 -2.95,9.61 -4.06,9.12 -5.17,8.62 -6.12,7.88 -7.08,7.13 -7.83,6.18 -8.58,5.23 -9.09,4.13 -9.59,3.02 -9.81,1.83 -10.03,0.64 -9.96,-0.56 -9.90,-1.77 -9.54,-2.93 -9.18,-4.09 -8.56,-5.13 -7.94,-6.17 -7.08,-7.03 -6.23,-7.89 -5.19,-8.52 -4.16,-9.15 -3.00,-9.52 -1.84,-9.88 -0.63,-9.96 0.57,-10.04 1.76,-9.82 2.95,-9.61 2.95,-9.61 L 2.95,-9.61 Z"></path></g><g transform="translate(347.04998779296875 342.29124450683594) rotate(0 50.44500732421875 -7.67529296875)" stroke="none"><path fill="#1e1e1e" d="M -1.20,-8.64 Q -1.20,-8.64 9.16,-9.63 19.54,-10.62 29.84,-11.99 40.15,-13.37 49.65,-14.66 59.15,-15.95 66.03,-17.25 72.92,-18.55 78.30,-19.75 83.68,-20.96 89.75,-22.32 95.81,-23.69 97.83,-23.90 99.84,-24.11 101.26,-24.00 102.68,-23.88 103.99,-23.32 105.31,-22.75 106.37,-21.80 107.43,-20.84 108.13,-19.60 108.83,-18.36 109.10,-16.96 109.37,-15.55 109.18,-14.14 108.98,-12.72 108.35,-11.45 107.71,-10.17 106.70,-9.16 105.69,-8.15 104.42,-7.52 103.14,-6.88 101.72,-6.69 100.31,-6.50 98.91,-6.77 97.50,-7.04 96.26,-7.74 95.02,-8.44 94.07,-9.51 93.11,-10.57 92.55,-11.88 91.99,-13.19 91.87,-14.62 91.76,-16.04 92.10,-17.42 92.45,-18.81 93.22,-20.01 93.99,-21.21 95.10,-22.11 96.21,-23.00 97.55,-23.49 98.89,-23.98 100.32,-24.02 101.75,-24.06 103.11,-23.64 104.48,-23.22 105.63,-22.39 106.79,-21.55 107.63,-20.39 108.46,-19.23 108.88,-17.87 109.29,-16.50 109.25,-15.08 109.21,-13.65 108.72,-12.31 108.23,-10.97 107.33,-9.86 106.44,-8.75 105.23,-7.98 104.03,-7.21 102.65,-6.87 101.26,-6.52 101.26,-6.52 101.26,-6.52 99.50,-6.41 97.74,-6.30 91.94,-6.20 86.13,-6.11 80.67,-5.53 75.21,-4.95 68.24,-3.92 61.27,-2.88 51.89,-1.10 42.51,0.67 32.10,2.76 21.70,4.85 11.45,6.74 1.20,8.64 0.15,8.66 -0.89,8.68 -1.92,8.45 -2.94,8.21 -3.88,7.74 -4.82,7.27 -5.62,6.58 -6.42,5.90 -7.04,5.05 -7.65,4.19 -8.04,3.21 -8.43,2.24 -8.58,1.20 -8.72,0.15 -8.62,-0.88 -8.51,-1.93 -8.15,-2.92 -7.80,-3.91 -7.21,-4.79 -6.63,-5.66 -5.86,-6.38 -5.08,-7.09 -4.16,-7.59 -3.24,-8.10 -2.22,-8.37 -1.20,-8.64 -1.20,-8.64 L -1.20,-8.64 Z"></path></g><g transform="translate(368.75128173828125 252.4656524658203) rotate(0 24.665618896484375 -15.755630493164062)" stroke="none"><path fill="#1e1e1e" d="M -5.27,-8.48 Q -5.27,-8.48 1.26,-12.15 7.81,-15.81 12.80,-18.99 17.79,-22.17 21.25,-24.64 24.72,-27.11 29.75,-30.87 34.77,-34.62 38.63,-37.43 42.48,-40.23 44.07,-41.05 45.66,-41.88 47.43,-42.15 49.21,-42.43 50.97,-42.12 52.74,-41.81 54.32,-40.96 55.89,-40.11 57.12,-38.79 58.34,-37.48 59.08,-35.84 59.81,-34.21 59.99,-32.42 60.17,-30.64 59.77,-28.89 59.37,-27.14 58.43,-25.62 57.49,-24.09 56.11,-22.94 54.73,-21.79 53.06,-21.14 51.39,-20.49 49.60,-20.41 47.81,-20.33 46.08,-20.83 44.36,-21.32 42.88,-22.34 41.41,-23.36 40.34,-24.80 39.26,-26.24 38.71,-27.95 38.15,-29.65 38.17,-31.44 38.18,-33.24 38.77,-34.93 39.36,-36.62 40.46,-38.04 41.56,-39.46 43.05,-40.45 44.55,-41.45 46.28,-41.91 48.01,-42.37 49.80,-42.26 51.59,-42.15 53.25,-41.47 54.91,-40.79 56.27,-39.61 57.62,-38.44 58.53,-36.89 59.44,-35.35 59.81,-33.59 60.18,-31.84 59.97,-30.06 59.76,-28.28 58.99,-26.66 58.22,-25.04 56.98,-23.74 55.73,-22.45 55.73,-22.46 55.73,-22.46 51.02,-19.74 46.31,-17.02 40.80,-13.89 35.30,-10.75 31.54,-8.55 27.78,-6.35 22.71,-3.18 17.64,-0.00 11.45,4.24 5.27,8.48 4.18,8.99 3.09,9.50 1.90,9.73 0.72,9.96 -0.47,9.91 -1.67,9.85 -2.83,9.50 -3.98,9.16 -5.02,8.55 -6.06,7.94 -6.92,7.10 -7.79,6.26 -8.42,5.23 -9.06,4.21 -9.43,3.06 -9.80,1.92 -9.89,0.72 -9.98,-0.48 -9.78,-1.66 -9.57,-2.85 -9.09,-3.96 -8.61,-5.06 -7.88,-6.02 -7.15,-6.97 -6.21,-7.73 -5.27,-8.48 -5.27,-8.48 L -5.27,-8.48 Z"></path></g><g transform="translate(370.4893798828125 131.57313537597656) rotate(0 10.64813232421875 -21.273757934570312)" stroke="none"><path fill="#1e1e1e" d="M -8.65,-4.05 Q -8.65,-4.05 -4.80,-11.21 -0.95,-18.37 1.29,-23.32 3.54,-28.26 5.33,-32.17 7.12,-36.08 9.53,-41.07 11.93,-46.07 12.81,-47.42 13.69,-48.78 14.96,-49.78 16.23,-50.78 17.75,-51.32 19.27,-51.87 20.89,-51.90 22.50,-51.93 24.05,-51.44 25.59,-50.95 26.89,-50.00 28.20,-49.04 29.13,-47.72 30.06,-46.40 30.52,-44.85 30.98,-43.30 30.92,-41.69 30.87,-40.07 30.29,-38.56 29.72,-37.05 28.70,-35.80 27.68,-34.55 26.31,-33.69 24.94,-32.83 23.37,-32.45 21.79,-32.08 20.19,-32.22 18.58,-32.37 17.10,-33.02 15.62,-33.67 14.42,-34.76 13.23,-35.85 12.45,-37.26 11.66,-38.68 11.37,-40.27 11.08,-41.86 11.31,-43.46 11.55,-45.06 12.28,-46.50 13.01,-47.94 14.16,-49.07 15.31,-50.21 16.77,-50.91 18.22,-51.62 19.83,-51.82 21.43,-52.02 23.01,-51.71 24.60,-51.39 26.00,-50.58 27.40,-49.77 28.47,-48.56 29.54,-47.35 30.16,-45.86 30.79,-44.37 30.90,-42.75 31.02,-41.14 30.62,-39.58 30.21,-38.01 30.21,-38.01 30.21,-38.01 28.59,-34.89 26.96,-31.77 23.31,-26.05 19.66,-20.34 17.19,-15.68 14.72,-11.03 11.69,-3.49 8.65,4.05 8.04,5.03 7.43,6.00 6.61,6.81 5.78,7.61 4.78,8.19 3.79,8.77 2.68,9.10 1.58,9.42 0.43,9.48 -0.71,9.53 -1.85,9.30 -2.98,9.08 -4.02,8.59 -5.06,8.10 -5.96,7.38 -6.86,6.65 -7.55,5.74 -8.25,4.82 -8.71,3.76 -9.16,2.70 -9.36,1.57 -9.55,0.43 -9.46,-0.71 -9.37,-1.86 -9.01,-2.95 -8.65,-4.05 -8.65,-4.05 L -8.65,-4.05 Z"></path></g><g transform="translate(274.375 83.58064270019531) rotate(0 -0.191253662109375 -36.790321350097656)" stroke="none"><path fill="#1e1e1e" d="M -9.54,0.12 Q -9.54,0.12 -9.21,-7.94 -8.88,-16.02 -8.84,-23.03 -8.80,-30.03 -8.81,-36.72 -8.82,-43.40 -9.02,-48.66 -9.22,-53.91 -9.71,-60.40 -10.20,-66.88 -10.25,-69.94 -10.30,-72.99 -10.04,-74.57 -9.79,-76.16 -9.03,-77.58 -8.28,-78.99 -7.12,-80.10 -5.95,-81.20 -4.49,-81.88 -3.04,-82.55 -1.44,-82.73 0.15,-82.90 1.72,-82.56 3.28,-82.21 4.66,-81.38 6.04,-80.56 7.08,-79.33 8.12,-78.11 8.71,-76.62 9.31,-75.13 9.39,-73.52 9.48,-71.92 9.05,-70.37 8.62,-68.82 7.72,-67.49 6.82,-66.16 5.54,-65.19 4.26,-64.22 2.74,-63.71 1.22,-63.19 -0.38,-63.19 -1.98,-63.19 -3.50,-63.71 -5.03,-64.22 -6.30,-65.19 -7.58,-66.16 -8.48,-67.49 -9.39,-68.82 -9.82,-70.37 -10.25,-71.92 -10.16,-73.52 -10.07,-75.12 -9.48,-76.61 -8.88,-78.11 -7.84,-79.33 -6.80,-80.56 -5.43,-81.38 -4.05,-82.21 -2.48,-82.56 -0.92,-82.90 0.67,-82.73 2.27,-82.55 3.73,-81.88 5.18,-81.21 6.35,-80.10 7.51,-79.00 8.27,-77.58 9.02,-76.16 9.28,-74.57 9.54,-72.99 9.54,-72.99 9.54,-72.99 9.49,-69.94 9.44,-66.89 8.96,-60.42 8.48,-53.94 8.30,-48.70 8.12,-43.45 8.14,-36.80 8.17,-30.14 8.31,-23.20 8.44,-16.26 8.99,-8.19 9.54,-0.12 9.41,1.01 9.29,2.15 8.90,3.23 8.50,4.31 7.86,5.27 7.22,6.22 6.37,7.00 5.52,7.77 4.51,8.32 3.50,8.87 2.39,9.16 1.27,9.45 0.12,9.47 -1.02,9.48 -2.14,9.22 -3.26,8.96 -4.28,8.44 -5.31,7.92 -6.18,7.17 -7.05,6.42 -7.72,5.48 -8.38,4.54 -8.81,3.47 -9.23,2.40 -9.38,1.26 -9.54,0.12 -9.54,0.12 L -9.54,0.12 Z"></path></g><g transform="translate(175.515625 85.78001403808594) rotate(0 -2.98126220703125 -33.516571044921875)" stroke="none"><path fill="#1e1e1e" d="M -10.06,0 Q -10.06,0 -9.98,-6.14 -9.90,-12.28 -9.71,-19.29 -9.51,-26.30 -9.71,-31.49 -9.92,-36.67 -10.77,-41.23 -11.62,-45.78 -13.27,-50.79 -14.92,-55.80 -15.26,-58.05 -15.60,-60.30 -16.44,-62.03 -17.28,-63.75 -17.53,-65.66 -17.77,-67.56 -17.40,-69.44 -17.03,-71.33 -16.07,-72.99 -15.11,-74.66 -13.68,-75.93 -12.24,-77.20 -10.47,-77.95 -8.70,-78.70 -6.79,-78.84 -4.87,-78.98 -3.01,-78.51 -1.15,-78.03 0.45,-76.99 2.06,-75.94 3.25,-74.44 4.44,-72.94 5.09,-71.13 5.74,-69.32 5.78,-67.40 5.82,-65.48 5.25,-63.65 4.67,-61.82 3.54,-60.27 2.41,-58.72 0.84,-57.61 -0.71,-56.50 -2.55,-55.95 -4.39,-55.40 -6.31,-55.46 -8.23,-55.53 -10.02,-56.20 -11.82,-56.87 -13.31,-58.09 -14.80,-59.30 -15.82,-60.92 -16.85,-62.55 -17.30,-64.41 -17.75,-66.28 -17.58,-68.19 -17.41,-70.10 -16.64,-71.86 -15.87,-73.62 -14.58,-75.04 -13.29,-76.46 -11.61,-77.40 -9.93,-78.33 -8.04,-78.68 -6.16,-79.03 -4.26,-78.76 -2.36,-78.48 -0.64,-77.62 1.06,-76.75 2.41,-75.39 3.76,-74.02 3.76,-74.02 3.76,-74.02 5.65,-66.72 7.55,-59.41 8.28,-54.02 9.01,-48.63 9.19,-42.84 9.37,-37.05 9.37,-31.73 9.37,-26.40 9.64,-19.34 9.90,-12.28 9.98,-6.14 10.06,0 9.92,1.20 9.77,2.40 9.34,3.54 8.91,4.67 8.22,5.67 7.53,6.67 6.62,7.48 5.71,8.28 4.64,8.85 3.57,9.41 2.39,9.70 1.21,9.99 -0.00,9.99 -1.21,9.99 -2.39,9.70 -3.57,9.41 -4.64,8.85 -5.72,8.28 -6.62,7.48 -7.53,6.67 -8.22,5.67 -8.91,4.67 -9.34,3.54 -9.77,2.40 -9.92,1.20 -10.06,-0.00 -10.06,-0.00 L -10.06,0 Z"></path></g><g transform="translate(161.69046705456765 207.30530250323505) rotate(0 10.388328847658869 17.893472860415415)" stroke="none"><path fill="#1e1e1e" d="M 1.16,1.97 Q 1.16,1.97 0.25,2.56 -0.66,3.16 -1.62,4.64 -2.59,6.11 -3.21,7.42 -3.82,8.73 -4.41,10.35 -5.01,11.96 -5.37,13.55 -5.74,15.14 -6.01,16.70 -6.27,18.26 -6.49,19.79 -6.72,21.32 -6.75,22.39 -6.79,23.45 -6.73,24.81 -6.68,26.17 -6.49,27.40 -6.30,28.63 -5.21,29.35 -4.11,30.07 -3.07,30.45 -2.04,30.84 -0.88,31.17 0.27,31.50 1.62,31.79 2.98,32.08 4.47,32.34 5.96,32.59 7.23,32.74 8.50,32.89 9.74,32.95 10.98,33.01 12.94,33.15 14.90,33.28 16.99,33.21 19.07,33.14 20.48,32.76 21.88,32.38 22.88,31.98 23.87,31.57 25.03,30.60 26.19,29.63 26.64,28.35 27.09,27.07 27.09,25.20 27.09,23.34 27.00,22.18 26.92,21.03 26.38,19.35 25.84,17.66 25.12,16.74 24.40,15.82 23.06,14.93 21.72,14.03 20.35,13.45 18.98,12.86 17.90,12.60 16.82,12.34 15.44,12.14 14.06,11.94 12.88,11.96 11.71,11.97 10.62,12.62 9.52,13.27 8.81,14.37 8.09,15.47 8.03,16.66 7.97,17.85 10.19,17.87 12.41,17.90 13.00,17.99 13.58,18.09 14.10,18.36 14.62,18.64 15.02,19.07 15.43,19.50 15.68,20.03 15.92,20.57 15.99,21.16 16.05,21.74 15.92,22.32 15.80,22.89 15.49,23.40 15.19,23.90 14.74,24.28 14.29,24.67 13.74,24.88 13.19,25.10 12.60,25.13 12.01,25.16 11.44,25.01 10.88,24.85 10.39,24.52 9.90,24.18 9.54,23.71 9.19,23.24 9.00,22.69 8.81,22.13 8.81,21.54 8.81,20.95 9.00,20.39 9.19,19.83 9.55,19.36 9.91,18.89 10.39,18.56 10.88,18.23 11.45,18.07 12.02,17.92 12.61,17.95 13.20,17.98 13.75,18.20 14.29,18.42 14.74,18.80 15.19,19.18 15.49,19.69 15.80,20.20 15.92,20.77 16.05,21.35 15.99,21.93 15.92,22.52 15.67,23.06 15.42,23.59 15.02,24.02 14.61,24.45 14.09,24.72 13.57,25.00 12.99,25.09 12.41,25.19 12.41,25.19 12.41,25.19 9.89,25.00 7.37,24.82 5.86,24.38 4.35,23.94 3.53,23.23 2.71,22.51 2.08,21.56 1.45,20.62 1.18,19.16 0.90,17.70 0.98,16.53 1.07,15.37 1.41,14.02 1.75,12.68 2.57,11.26 3.38,9.84 4.40,8.83 5.42,7.83 7.01,6.86 8.59,5.89 10.45,5.57 12.31,5.26 13.68,5.37 15.05,5.48 16.16,5.69 17.27,5.91 18.43,6.22 19.59,6.53 21.37,7.20 23.14,7.86 24.11,8.36 25.08,8.87 26.75,10.10 28.42,11.33 29.22,12.41 30.03,13.48 30.60,14.46 31.18,15.44 31.61,16.59 32.04,17.73 32.34,19.13 32.65,20.53 32.75,22.94 32.85,25.35 32.61,26.93 32.37,28.51 32.02,29.52 31.67,30.53 30.56,31.94 29.44,33.35 28.50,34.06 27.56,34.77 26.44,35.30 25.32,35.83 24.13,36.16 22.94,36.50 21.22,36.92 19.50,37.34 17.21,37.70 14.92,38.07 12.82,38.22 10.73,38.37 9.31,38.31 7.90,38.24 6.57,38.10 5.24,37.95 3.61,37.78 1.98,37.62 0.38,37.37 -1.21,37.13 -2.62,36.78 -4.04,36.43 -5.35,35.98 -6.66,35.52 -7.66,34.97 -8.66,34.43 -9.43,33.58 -10.20,32.73 -10.95,31.03 -11.70,29.33 -11.74,27.69 -11.78,26.05 -11.60,24.55 -11.43,23.05 -11.27,21.86 -11.11,20.68 -10.87,19.10 -10.63,17.53 -10.36,15.88 -10.09,14.22 -9.74,12.39 -9.38,10.55 -8.83,8.64 -8.29,6.73 -7.57,5.07 -6.85,3.40 -5.99,2.14 -5.13,0.88 -4.13,-0.02 -3.12,-0.92 -2.14,-1.45 -1.16,-1.97 -0.91,-2.08 -0.65,-2.19 -0.38,-2.24 -0.11,-2.28 0.16,-2.26 0.43,-2.24 0.69,-2.16 0.96,-2.07 1.19,-1.93 1.43,-1.78 1.62,-1.59 1.81,-1.39 1.95,-1.15 2.09,-0.91 2.17,-0.65 2.25,-0.38 2.27,-0.11 2.28,0.16 2.23,0.43 2.18,0.70 2.06,0.95 1.94,1.20 1.77,1.42 1.60,1.63 1.38,1.80 1.16,1.97 1.16,1.97 L 1.16,1.97 Z"></path></g><g transform="translate(260.86318322931186 206.53985633270057) rotate(0 -0.9479538544084107 17.836569647893683)" stroke="none"><path fill="#1e1e1e" d="M -0.22,2.63 Q -0.22,2.63 -1.40,2.55 -2.59,2.46 -4.23,2.47 -5.87,2.48 -7.39,2.62 -8.92,2.75 -10.23,3.32 -11.54,3.88 -12.76,4.84 -13.97,5.80 -15.46,7.37 -16.95,8.95 -17.64,9.86 -18.34,10.77 -19.18,12.28 -20.03,13.78 -20.41,15.07 -20.79,16.35 -20.79,17.43 -20.80,18.51 -20.78,19.77 -20.77,21.04 -20.49,22.35 -20.21,23.66 -19.51,24.99 -18.81,26.33 -17.51,27.24 -16.20,28.16 -14.17,29.16 -12.13,30.16 -10.90,30.66 -9.66,31.15 -8.52,31.50 -7.38,31.85 -6.05,32.17 -4.72,32.49 -3.36,32.72 -2.00,32.95 -0.92,33.02 0.14,33.09 1.29,33.12 2.44,33.16 3.62,33.17 4.80,33.19 6.68,32.94 8.55,32.70 10.35,31.78 12.16,30.85 13.79,29.57 15.41,28.30 16.21,27.34 17.01,26.39 17.63,25.22 18.26,24.05 18.62,22.92 18.98,21.79 19.11,20.19 19.25,18.59 18.95,17.50 18.66,16.40 17.70,15.65 16.74,14.89 15.20,14.59 13.66,14.28 12.18,14.21 10.69,14.14 9.49,14.15 8.29,14.17 6.74,14.18 5.19,14.19 4.06,14.29 2.94,14.38 1.65,14.84 0.37,15.29 -0.82,15.89 -2.01,16.49 -2.78,17.38 -3.54,18.27 -2.51,18.59 -1.48,18.91 -0.40,19.04 0.67,19.16 1.75,19.22 2.83,19.28 2.32,18.47 1.81,17.65 2.21,17.86 2.61,18.07 2.94,18.37 3.28,18.67 3.54,19.04 3.79,19.41 3.95,19.83 4.11,20.25 4.17,20.69 4.22,21.14 4.17,21.59 4.12,22.03 3.96,22.46 3.80,22.88 3.54,23.25 3.29,23.62 2.95,23.92 2.62,24.22 2.22,24.43 1.82,24.64 1.38,24.75 0.95,24.85 0.50,24.86 0.05,24.86 -0.38,24.75 -0.82,24.64 -1.72,23.92 -2.63,23.19 -2.87,22.64 -3.12,22.09 -3.17,21.48 -3.23,20.88 -3.09,20.29 -2.95,19.71 -2.63,19.19 -2.31,18.68 -1.84,18.30 -1.37,17.91 -0.81,17.70 -0.24,17.49 0.35,17.46 0.96,17.44 1.54,17.61 2.12,17.78 2.61,18.13 3.10,18.48 3.46,18.97 3.82,19.45 4.00,20.03 4.18,20.61 4.17,21.21 4.16,21.81 3.96,22.38 3.76,22.95 3.38,23.43 3.01,23.90 2.51,24.23 2.00,24.56 1.41,24.72 0.83,24.87 0.23,24.82 -0.37,24.78 -0.92,24.55 -1.48,24.31 -1.93,23.92 -2.39,23.52 -2.69,22.99 -2.99,22.47 -3.11,21.88 -3.23,21.29 -3.16,20.69 -3.08,20.09 -2.82,19.54 -2.56,19.00 -2.13,18.57 -1.71,18.14 -1.17,17.86 -0.63,17.59 -0.03,17.50 0.55,17.41 1.15,17.52 1.74,17.63 2.27,17.92 2.80,18.21 2.30,17.93 1.81,17.65 2.21,17.86 2.60,18.07 2.94,18.37 3.28,18.67 3.54,19.04 3.79,19.41 3.95,19.83 4.11,20.25 4.17,20.69 4.22,21.14 4.17,21.59 4.12,22.03 3.96,22.46 3.80,22.88 3.54,23.25 3.29,23.62 2.95,23.92 2.62,24.22 2.22,24.43 1.82,24.64 1.38,24.75 0.95,24.85 0.50,24.86 0.05,24.86 -0.38,24.75 -0.82,24.64 -0.14,25.60 0.54,26.56 -0.54,26.48 -1.62,26.39 -2.68,26.14 -3.73,25.89 -5.03,25.55 -6.33,25.20 -7.49,24.76 -8.65,24.31 -9.68,22.75 -10.72,21.19 -10.74,20.02 -10.76,18.84 -10.59,17.72 -10.42,16.60 -9.94,15.57 -9.46,14.55 -8.82,13.65 -8.17,12.75 -7.13,11.89 -6.10,11.03 -5.16,10.52 -4.22,10.01 -3.08,9.52 -1.95,9.04 -0.72,8.65 0.50,8.27 2.16,8.00 3.82,7.74 5.26,7.75 6.69,7.77 8.21,7.80 9.73,7.83 11.15,7.92 12.57,8.01 13.64,8.11 14.70,8.21 15.97,8.43 17.23,8.65 18.85,9.39 20.47,10.14 21.72,11.38 22.97,12.61 23.52,13.59 24.07,14.57 24.37,15.68 24.66,16.79 24.56,18.97 24.47,21.15 24.21,22.27 23.96,23.40 23.46,24.92 22.96,26.43 22.12,28.13 21.28,29.83 20.20,31.19 19.11,32.56 18.06,33.46 17.01,34.36 16.02,35.02 15.03,35.69 13.78,36.42 12.52,37.15 11.08,37.72 9.63,38.29 8.28,38.52 6.93,38.76 5.83,38.78 4.73,38.80 3.50,38.78 2.27,38.76 1.00,38.73 -0.26,38.69 -1.51,38.59 -2.75,38.49 -4.32,38.31 -5.89,38.14 -7.44,37.87 -9.00,37.59 -10.35,37.24 -11.71,36.89 -13.11,36.44 -14.52,35.99 -15.96,35.46 -17.39,34.94 -18.59,34.36 -19.79,33.79 -20.72,33.20 -21.66,32.61 -23.11,31.19 -24.56,29.78 -25.26,28.41 -25.97,27.05 -26.45,25.52 -26.94,23.99 -27.08,22.50 -27.22,21.00 -27.18,19.66 -27.14,18.31 -27.01,16.77 -26.89,15.23 -26.42,13.78 -25.95,12.33 -25.12,10.80 -24.29,9.28 -23.65,8.29 -23.01,7.30 -22.21,6.20 -21.41,5.10 -20.51,4.03 -19.62,2.97 -18.72,2.08 -17.83,1.20 -16.92,0.45 -16.00,-0.28 -15.03,-0.88 -14.06,-1.48 -13.01,-1.93 -11.96,-2.38 -10.76,-2.70 -9.55,-3.02 -7.65,-3.07 -5.74,-3.12 -3.94,-2.99 -2.14,-2.86 -0.96,-2.75 0.22,-2.63 0.53,-2.57 0.84,-2.50 1.13,-2.37 1.42,-2.23 1.66,-2.03 1.91,-1.82 2.10,-1.57 2.29,-1.31 2.42,-1.02 2.54,-0.72 2.59,-0.41 2.64,-0.09 2.62,0.21 2.59,0.53 2.49,0.84 2.38,1.14 2.21,1.41 2.04,1.68 1.81,1.90 1.58,2.12 1.30,2.28 1.03,2.43 0.72,2.52 0.41,2.61 0.09,2.62 -0.22,2.63 -0.22,2.63 L -0.22,2.63 Z"></path></g><g transform="translate(188.95170581276466 284.3549994561512) rotate(0 38.59549832957961 3.261925547137622)" stroke="none"><path fill="#1e1e1e" d="M 0.03,-1.64 Q 0.03,-1.64 3.30,-1.52 6.57,-1.40 10.51,-1.33 14.45,-1.27 20.10,-1.23 25.75,-1.20 32.03,-1.17 38.31,-1.15 43.16,-1.13 48.01,-1.12 51.85,-1.11 55.70,-1.10 58.81,-0.97 61.93,-0.84 64.36,-0.51 66.79,-0.17 68.60,0.26 70.41,0.70 71.87,1.28 73.33,1.86 74.38,2.37 75.44,2.88 76.81,3.84 78.19,4.80 78.39,5.04 78.59,5.29 78.71,5.58 78.83,5.87 78.84,6.19 78.86,6.51 78.77,6.81 78.69,7.11 78.51,7.38 78.33,7.64 78.08,7.83 77.83,8.02 77.53,8.12 77.23,8.22 76.91,8.22 76.60,8.22 76.30,8.12 76.00,8.01 75.75,7.82 75.50,7.63 75.32,7.37 75.14,7.11 75.06,6.80 74.97,6.50 74.99,6.18 75.01,5.86 75.13,5.57 75.25,5.28 75.45,5.04 75.66,4.80 75.93,4.63 76.20,4.47 76.51,4.41 76.82,4.34 77.13,4.37 77.45,4.41 77.73,4.54 78.02,4.68 78.25,4.89 78.48,5.11 78.62,5.39 78.77,5.67 78.82,5.98 78.87,6.29 78.82,6.61 78.77,6.92 78.62,7.20 78.47,7.48 78.24,7.69 78.01,7.91 77.72,8.04 77.44,8.17 77.12,8.21 76.81,8.24 76.50,8.17 76.19,8.10 75.92,7.94 75.65,7.78 75.65,7.78 75.65,7.78 73.77,6.33 71.88,4.88 70.73,4.21 69.58,3.54 68.00,3.01 66.43,2.47 64.12,2.15 61.82,1.84 58.76,1.73 55.69,1.61 51.85,1.62 48.00,1.63 43.16,1.64 38.31,1.65 32.03,1.66 25.75,1.67 20.09,1.68 14.42,1.69 10.46,1.69 6.50,1.70 3.23,1.67 -0.03,1.64 -0.23,1.61 -0.42,1.58 -0.61,1.50 -0.79,1.43 -0.95,1.31 -1.11,1.20 -1.24,1.05 -1.37,0.90 -1.45,0.72 -1.54,0.54 -1.59,0.35 -1.63,0.16 -1.62,-0.03 -1.62,-0.23 -1.57,-0.42 -1.52,-0.61 -1.42,-0.78 -1.32,-0.96 -1.19,-1.10 -1.05,-1.25 -0.89,-1.36 -0.72,-1.47 -0.54,-1.53 -0.35,-1.60 -0.15,-1.62 0.03,-1.64 0.03,-1.64 L 0.03,-1.64 Z"></path></g><g transform="translate(229.57855512647478 287.78963647542616) rotate(0 8.623860745011228 17.11235275110252)" stroke="none"><path fill="#1e1e1e" d="M 2.11,1.31 Q 2.11,1.31 1.51,2.32 0.91,3.33 0.36,4.31 -0.19,5.30 -0.65,6.28 -1.11,7.27 -1.64,8.43 -2.16,9.59 -2.69,10.79 -3.22,11.99 -3.61,13.17 -4.00,14.35 -4.33,15.64 -4.66,16.93 -4.90,18.15 -5.13,19.37 -5.26,21.23 -5.38,23.10 -5.35,24.64 -5.33,26.18 -5.20,27.59 -5.08,29.01 -4.60,30.07 -4.13,31.14 -2.65,31.15 -1.17,31.16 0.53,31.21 2.24,31.27 4.27,31.30 6.29,31.33 8.02,31.05 9.75,30.76 11.58,29.81 13.41,28.87 14.31,28.21 15.20,27.56 16.47,26.09 17.74,24.63 18.27,23.69 18.81,22.75 19.34,21.67 19.88,20.60 20.30,19.53 20.73,18.46 21.05,17.42 21.37,16.39 21.81,14.73 22.24,13.07 22.29,11.58 22.34,10.10 22.29,8.57 22.25,7.04 22.22,5.94 22.19,4.84 23.14,3.90 24.09,2.97 23.58,2.81 23.06,2.66 22.63,2.34 22.19,2.03 21.88,1.59 21.57,1.16 21.41,0.65 21.25,0.13 21.27,-0.39 21.28,-0.93 21.47,-1.43 21.65,-1.94 21.99,-2.35 22.33,-2.77 22.78,-3.06 23.23,-3.35 23.75,-3.48 24.27,-3.61 24.80,-3.56 25.34,-3.52 25.83,-3.31 26.32,-3.09 26.72,-2.74 27.12,-2.38 27.39,-1.91 27.65,-1.44 27.75,-0.92 27.85,-0.39 27.78,0.13 27.71,0.66 27.47,1.14 27.23,1.62 26.85,2.00 26.47,2.38 25.99,2.62 25.51,2.86 24.98,2.93 24.45,3.00 23.92,2.90 23.39,2.80 22.93,2.53 22.46,2.27 22.10,1.87 21.74,1.47 21.53,0.98 21.32,0.49 21.28,-0.04 21.23,-0.57 21.36,-1.09 21.49,-1.61 21.78,-2.07 22.07,-2.52 22.49,-2.85 22.91,-3.19 23.41,-3.37 23.92,-3.56 24.45,-3.57 24.99,-3.59 24.99,-3.59 24.99,-3.59 26.86,0.09 28.73,3.77 28.70,4.87 28.67,5.98 28.61,7.55 28.55,9.11 28.48,10.35 28.40,11.59 28.15,13.11 27.90,14.62 27.35,16.36 26.80,18.09 26.41,19.30 26.03,20.52 25.54,21.80 25.04,23.09 24.46,24.34 23.87,25.60 23.16,26.86 22.46,28.13 21.60,29.26 20.75,30.39 19.77,31.35 18.79,32.31 17.68,33.16 16.58,34.01 15.29,34.83 14.00,35.65 12.66,36.25 11.33,36.84 10.02,37.17 8.71,37.50 7.49,37.61 6.28,37.73 4.20,37.74 2.12,37.75 0.13,37.70 -1.85,37.64 -3.51,37.40 -5.18,37.17 -6.61,36.58 -8.04,36.00 -8.88,34.91 -9.71,33.82 -10.16,32.58 -10.61,31.35 -10.84,29.58 -11.07,27.81 -11.01,26.11 -10.95,24.40 -10.78,22.55 -10.62,20.70 -10.43,19.53 -10.25,18.36 -9.98,17.02 -9.70,15.68 -9.34,14.19 -8.98,12.69 -8.51,11.28 -8.04,9.87 -7.50,8.64 -6.96,7.41 -6.40,6.18 -5.84,4.94 -5.24,3.78 -4.65,2.62 -4.02,1.64 -3.40,0.65 -2.75,-0.33 -2.11,-1.31 -1.92,-1.54 -1.73,-1.78 -1.49,-1.96 -1.25,-2.14 -0.98,-2.26 -0.70,-2.38 -0.41,-2.43 -0.11,-2.48 0.18,-2.46 0.47,-2.43 0.76,-2.34 1.04,-2.25 1.30,-2.09 1.55,-1.93 1.76,-1.72 1.97,-1.50 2.12,-1.24 2.28,-0.99 2.36,-0.70 2.45,-0.41 2.46,-0.11 2.47,0.18 2.42,0.47 2.36,0.77 2.23,1.04 2.11,1.31 2.11,1.31 L 2.11,1.31 Z"></path></g><g transform="translate(240.80096751516123 289.8896674222747) rotate(0 -0.9106643614722145 16.01523027689302)" stroke="none"><path fill="#1e1e1e" d="M 2.44,0 Q 2.44,0 2.31,2.04 2.19,4.08 2.16,5.86 2.13,7.64 2.16,9.11 2.18,10.57 2.21,12.01 2.24,13.44 2.27,14.77 2.31,16.10 2.41,18.01 2.51,19.92 2.59,21.34 2.67,22.76 2.64,23.93 2.60,25.10 2.43,26.55 2.26,27.99 1.49,30.87 0.72,33.75 0.36,34.10 0.01,34.46 -0.43,34.68 -0.88,34.90 -1.37,34.97 -1.87,35.04 -2.36,34.95 -2.85,34.85 -3.29,34.61 -3.73,34.36 -4.06,33.99 -4.40,33.62 -4.60,33.16 -4.79,32.70 -4.84,32.20 -4.88,31.70 -4.76,31.21 -4.64,30.73 -4.37,30.30 -4.10,29.88 -3.71,29.57 -3.32,29.25 -2.85,29.08 -2.38,28.91 -1.88,28.89 -1.38,28.88 -0.90,29.02 -0.42,29.17 -0.01,29.46 0.39,29.75 0.68,30.16 0.97,30.57 1.12,31.04 1.27,31.52 1.25,32.02 1.24,32.52 1.07,33.00 0.90,33.47 0.58,33.86 0.27,34.25 -0.14,34.52 -0.56,34.79 -1.05,34.91 -1.53,35.03 -2.03,34.99 -2.53,34.95 -2.99,34.75 -3.45,34.56 -3.83,34.22 -4.20,33.89 -4.45,33.45 -4.70,33.02 -4.79,32.53 -4.89,32.03 -4.82,31.54 -4.75,31.04 -4.53,30.59 -4.31,30.14 -4.31,30.14 -4.31,30.14 -4.07,28.89 -3.83,27.64 -3.51,26.46 -3.20,25.28 -2.96,23.97 -2.72,22.65 -2.62,21.29 -2.51,19.92 -2.41,18.01 -2.31,16.10 -2.27,14.77 -2.24,13.44 -2.21,12.01 -2.18,10.57 -2.16,9.11 -2.13,7.64 -2.16,5.86 -2.19,4.08 -2.31,2.04 -2.44,0 -2.40,-0.29 -2.37,-0.58 -2.26,-0.85 -2.16,-1.13 -1.99,-1.37 -1.82,-1.61 -1.60,-1.81 -1.38,-2.00 -1.12,-2.14 -0.86,-2.28 -0.58,-2.35 -0.29,-2.42 0.00,-2.42 0.29,-2.42 0.58,-2.35 0.86,-2.28 1.12,-2.14 1.38,-2.00 1.60,-1.81 1.82,-1.61 1.99,-1.37 2.16,-1.13 2.26,-0.85 2.37,-0.58 2.40,-0.29 2.44,0.00 2.44,0.00 L 2.44,0 Z"></path></g><g transform="translate(192.73478982428537 232.12496326277835) rotate(0 19.53230454754214 1.2835805869466697)" stroke="none"><path fill="#1e1e1e" d="M 0,-2.05 Q 0,-2.05 1.58,-2.07 3.17,-2.09 5.83,-1.98 8.48,-1.88 12.07,-1.80 15.66,-1.73 18.62,-1.67 21.59,-1.61 23.90,-1.57 26.21,-1.53 28.02,-1.57 29.84,-1.61 30.98,-1.71 32.12,-1.81 33.20,-1.96 34.28,-2.10 35.68,-1.52 37.08,-0.95 38.22,-0.42 39.36,0.10 39.74,0.22 40.13,0.34 40.45,0.58 40.78,0.81 41.01,1.14 41.24,1.47 41.35,1.86 41.47,2.24 41.45,2.64 41.44,3.04 41.30,3.42 41.16,3.80 40.90,4.11 40.65,4.42 40.31,4.63 39.97,4.84 39.58,4.94 39.18,5.03 38.78,4.99 38.38,4.96 38.02,4.80 37.65,4.63 37.35,4.36 37.06,4.09 36.86,3.74 36.67,3.39 36.59,2.99 36.52,2.60 36.58,2.20 36.64,1.80 36.82,1.45 37.00,1.09 37.29,0.81 37.57,0.52 37.94,0.35 38.30,0.17 38.70,0.12 39.09,0.07 39.49,0.15 39.88,0.23 40.23,0.43 40.58,0.63 40.84,0.93 41.11,1.24 41.26,1.61 41.42,1.98 41.45,2.38 41.48,2.78 41.38,3.17 41.28,3.56 41.06,3.89 40.84,4.23 40.52,4.48 40.21,4.73 39.83,4.86 39.45,5.00 39.05,5.00 38.65,5.01 38.65,5.01 38.65,5.01 36.47,3.56 34.28,2.10 33.20,1.96 32.12,1.81 30.98,1.71 29.84,1.61 28.02,1.57 26.21,1.53 23.90,1.57 21.59,1.61 18.62,1.67 15.66,1.73 12.07,1.80 8.48,1.88 5.83,1.98 3.17,2.09 1.58,2.07 0,2.05 -0.24,2.02 -0.49,1.99 -0.72,1.90 -0.95,1.82 -1.15,1.67 -1.36,1.53 -1.52,1.35 -1.69,1.16 -1.80,0.94 -1.92,0.72 -1.98,0.48 -2.04,0.24 -2.04,-0.00 -2.04,-0.24 -1.98,-0.48 -1.92,-0.72 -1.80,-0.94 -1.69,-1.16 -1.52,-1.35 -1.36,-1.53 -1.15,-1.68 -0.95,-1.82 -0.72,-1.90 -0.49,-1.99 -0.24,-2.02 0.00,-2.05 0.00,-2.05 L 0,-2.05 Z"></path></g></svg>