<svg version="1.1" xmlns="http://www.w3.org/2000/svg" viewBox="0 0 779.8555701686403 448.03091635038993" width="779.8555701686403" height="448.03091635038993" class="excalidraw-svg">
  <!-- svg-source:excalidraw -->
  
  <defs>
    <style class="style-fonts">
      @font-face {
        font-family: "Virgil";
        src: url("https://excalidraw.com/Virgil.woff2");
      }
      @font-face {
        font-family: "Cascadia";
        src: url("https://excalidraw.com/Cascadia.woff2");
      }
      @font-face {
        font-family: "Assistant";
        src: url("https://excalidraw.com/Assistant-Regular.woff2");
      }
    </style>
    
  </defs>
  <g transform="translate(52.97914646004631 236.3473587599874) rotate(0 358.438211854297 -12.331900584792436)" stroke="none"><path d="M0.44 99.01 C0.72 99.53, -0.46 101.01, 1.03 100.95 C2.52 100.89, 6 100.42, 9.4 98.65 C12.81 96.87, 13.67 96.01, 21.44 90.29 C29.21 84.57, 42.17 76.63, 56.02 64.34 C69.88 52.04, 90.92 28.04, 104.57 16.51 C118.21 4.99, 131.06 0.59, 137.91 -4.81 C144.76 -10.21, 143.04 -11.59, 145.66 -15.88 C148.28 -20.18, 149.75 -20.17, 153.63 -30.57 C157.52 -40.98, 164.74 -66.25, 168.98 -78.29 C173.22 -90.34, 176.74 -97.77, 179.09 -102.84 C181.43 -107.91, 180.86 -106.08, 183.03 -108.71 C185.21 -111.34, 189.43 -116.09, 192.13 -118.61 C194.84 -121.13, 193.86 -123.05, 199.25 -123.85 C204.65 -124.65, 215.99 -124.7, 224.51 -123.39 C233.03 -122.09, 244.18 -116.89, 250.36 -116.02 C256.54 -115.15, 259.45 -117.16, 261.59 -118.18 C263.73 -119.2, 257.08 -110.34, 263.21 -122.13 C269.35 -133.91, 291.69 -175.34, 298.39 -188.9 C305.09 -202.46, 299.99 -198.2, 303.4 -203.47 C306.81 -208.73, 315.49 -216.97, 318.84 -220.5 C322.2 -224.04, 321.34 -224.01, 323.51 -224.68 C325.69 -225.34, 324.21 -224.25, 331.87 -224.49 C339.53 -224.74, 360.63 -226.64, 369.46 -226.16 C378.29 -225.67, 380.59 -223.17, 384.86 -221.59 C389.13 -220, 391.65 -218.15, 395.1 -216.66 C398.56 -215.18, 403.39 -215.12, 405.58 -212.66 C407.78 -210.2, 407.01 -205.25, 408.29 -201.89 C409.57 -198.54, 411.47 -198.94, 413.27 -192.52 C415.07 -186.1, 417.95 -171.14, 419.08 -163.38 C420.2 -155.62, 420.22 -151.59, 420.02 -145.96 C419.81 -140.34, 418.82 -139.58, 417.85 -129.63 C416.87 -119.68, 413.31 -93.09, 414.18 -86.25 C415.05 -79.41, 412.19 -87.87, 423.08 -88.61 C433.97 -89.36, 464.51 -90.3, 479.52 -90.69 C494.54 -91.08, 504.13 -91.72, 513.16 -90.94 C522.19 -90.15, 527.98 -87.7, 533.7 -85.99 C539.43 -84.28, 543.44 -82.34, 547.52 -80.67 C551.59 -79, 554.56 -79.41, 558.16 -75.96 C561.76 -72.51, 566.85 -64.42, 569.1 -59.95 C571.35 -55.49, 568.97 -61.04, 571.66 -49.17 C574.35 -37.3, 582.98 0.74, 585.26 11.28 C587.55 21.82, 584.66 12.52, 585.35 14.05 C586.04 15.58, 588.31 18.57, 589.41 20.46 C590.5 22.35, 584.29 23.58, 591.93 25.39 C599.57 27.21, 624.19 29.24, 635.26 31.35 C646.33 33.47, 652.34 35.34, 658.34 38.09 C664.35 40.84, 667.57 45.01, 671.29 47.85 C675 50.69, 678.4 53.09, 680.64 55.12 C682.88 57.15, 681.74 56.49, 684.75 60.03 C687.76 63.58, 694.82 68.84, 698.7 76.41 C702.57 83.99, 705.35 97.34, 707.97 105.48 C710.6 113.63, 712.55 118.55, 714.43 125.3 C716.32 132.06, 719.22 141.11, 719.28 146.03 C719.34 150.95, 716.67 152.54, 714.78 154.8 C712.88 157.07, 709.73 158.17, 707.91 159.62 C706.09 161.07, 705.24 162.72, 703.86 163.52 C702.48 164.32, 702.04 164.91, 699.65 164.41 C697.25 163.92, 693.07 161.98, 689.5 160.53 C685.93 159.08, 681.3 156.54, 678.24 155.71 C675.18 154.88, 673.22 155.16, 671.16 155.56 C669.11 155.96, 672.26 151.23, 665.89 158.11 C659.53 164.98, 639.74 189.6, 633 196.81 C626.27 204.01, 628.89 200.37, 625.51 201.34 C622.12 202.3, 617.44 204, 612.68 202.59 C607.92 201.19, 600.88 195.51, 596.94 192.91 C593 190.31, 594.86 192.75, 589.05 186.97 C583.23 181.2, 567.59 163.8, 562.03 158.26 C556.46 152.72, 559.12 154.75, 555.64 153.73 C552.16 152.71, 545.27 152.77, 541.13 152.14 C537 151.5, 540.19 150.28, 530.82 149.91 C521.46 149.54, 496.56 149.74, 484.93 149.93 C473.3 150.12, 477.41 150.75, 461.05 151.04 C444.69 151.33, 401.82 150.76, 386.77 151.67 C371.72 152.58, 381.02 151.9, 370.74 156.5 C360.46 161.09, 341.97 172.15, 325.11 179.26 C308.24 186.37, 280.98 195.5, 269.56 199.15 C258.13 202.81, 261.68 200.51, 256.57 201.19 C251.45 201.87, 243.5 203.71, 238.86 203.21 C234.22 202.72, 231.25 199.62, 228.74 198.2 C226.23 196.79, 227.92 197.27, 223.78 194.74 C219.64 192.21, 211.83 186.66, 203.89 183.01 C195.95 179.37, 184.7 176.74, 176.14 172.89 C167.59 169.03, 160.6 162.19, 152.56 159.91 C144.52 157.62, 134.06 159.61, 127.92 159.17 C121.78 158.74, 120.96 155.64, 115.72 157.29 C110.48 158.94, 100.95 166.75, 96.48 169.09 C92.01 171.44, 91.71 171.21, 88.91 171.35 C86.11 171.48, 83.24 172.4, 79.7 169.91 C76.16 167.41, 70.41 159.69, 67.66 156.38 C64.92 153.08, 63.92 152.23, 63.23 150.07 C62.54 147.92, 63.38 149.95, 63.54 143.45 C63.69 136.96, 68.1 116.37, 64.18 111.11 C60.27 105.86, 48.31 110.29, 40.02 111.94 C31.74 113.59, 19.28 120.06, 14.47 121 C9.67 121.94, 12.22 118.26, 11.18 117.56 C10.14 116.86, 9.55 117.86, 8.23 116.8 C6.91 115.75, 4.08 113.76, 3.27 111.24 C2.46 108.72, 3.42 103.27, 3.38 101.68 C3.34 100.08, 2.93 101.7, 3.02 101.67" stroke="none" stroke-width="0" fill="#ee00ff" fill-rule="evenodd"></path><path fill="#1e1e1e" d="M -0.47,98.30 Q -0.47,98.30 1.56,97.69 3.61,97.08 7.87,94.55 12.14,92.02 16.85,88.88 21.55,85.75 26.63,82.04 31.71,78.33 37.84,73.59 43.96,68.86 48.51,65.16 53.06,61.46 56.53,58.63 60.00,55.80 66.24,50.42 72.48,45.03 79.71,38.69 86.95,32.36 92.31,27.67 97.66,22.99 104.57,17.21 111.49,11.42 118.18,5.99 124.87,0.55 129.17,-3.25 133.48,-7.06 136.81,-10.37 140.14,-13.69 143.21,-17.05 146.27,-20.40 148.61,-23.50 150.95,-26.60 152.56,-29.62 154.18,-32.65 155.55,-36.02 156.92,-39.40 158.09,-43.04 159.26,-46.69 160.44,-50.66 161.62,-54.63 162.81,-58.66 163.99,-62.68 165.28,-66.90 166.57,-71.11 168.06,-75.46 169.56,-79.81 172.01,-86.09 174.46,-92.38 176.30,-96.68 178.14,-100.99 179.95,-104.33 181.75,-107.68 183.51,-110.42 185.27,-113.16 186.74,-115.15 188.22,-117.13 189.97,-118.65 191.71,-120.16 194.39,-121.28 197.07,-122.40 199.79,-123.03 202.50,-123.65 205.19,-123.92 207.88,-124.19 211.19,-124.30 214.50,-124.41 217.52,-124.45 220.54,-124.50 224.02,-124.19 227.50,-123.88 231.43,-123.19 235.36,-122.49 238.51,-121.89 241.67,-121.28 244.31,-120.81 246.96,-120.33 249.36,-120.00 251.76,-119.68 253.85,-119.74 255.93,-119.81 257.74,-120.92 259.55,-122.04 261.62,-125.04 263.70,-128.03 266.37,-133.11 269.05,-138.18 272.30,-144.57 275.55,-150.96 279.18,-158.00 282.82,-165.05 286.75,-172.37 290.69,-179.69 294.42,-186.23 298.15,-192.76 301.38,-197.91 304.62,-203.06 307.36,-207.07 310.10,-211.08 311.97,-213.80 313.84,-216.53 315.21,-218.39 316.58,-220.24 318.35,-221.93 320.12,-223.62 322.82,-224.80 325.51,-225.99 329.48,-226.48 333.45,-226.98 338.23,-227.18 343.01,-227.37 347.26,-227.45 351.52,-227.53 356.73,-227.46 361.93,-227.38 367.96,-226.77 373.99,-226.16 378.70,-225.02 383.42,-223.87 387.57,-222.10 391.73,-220.33 395.43,-217.95 399.14,-215.56 402.05,-212.32 404.97,-209.08 407.27,-204.79 409.57,-200.49 411.43,-194.96 413.30,-189.42 414.73,-182.49 416.16,-175.55 417.04,-167.56 417.93,-159.57 418.14,-150.79 418.34,-142.00 418.02,-134.04 417.71,-126.07 417.14,-119.82 416.57,-113.58 415.99,-108.76 415.40,-103.95 414.95,-100.63 414.50,-97.31 414.23,-95.17 413.97,-93.03 413.98,-91.74 413.98,-90.45 416.60,-90.20 419.22,-89.94 424.36,-89.90 429.50,-89.85 436.32,-89.99 443.13,-90.13 449.36,-90.39 455.60,-90.65 462.53,-90.87 469.46,-91.09 475.57,-91.18 481.69,-91.26 487.49,-91.29 493.30,-91.32 498.68,-91.27 504.05,-91.21 509.09,-90.88 514.13,-90.55 519.23,-89.80 524.33,-89.05 528.43,-88.07 532.53,-87.08 536.35,-85.88 540.17,-84.67 545.31,-82.08 550.45,-79.48 555.59,-74.51 560.72,-69.55 564.07,-64.31 567.42,-59.08 570.60,-48.52 573.79,-37.97 575.78,-29.78 577.76,-21.60 579.13,-15.25 580.50,-8.89 581.56,-3.57 582.62,1.74 583.48,5.78 584.35,9.83 585.58,12.75 586.81,15.68 588.52,17.69 590.24,19.70 593.77,20.94 597.30,22.18 602.22,23.26 607.14,24.33 612.68,25.30 618.21,26.27 623.73,27.17 629.24,28.07 634.90,29.40 640.55,30.73 645.76,32.13 650.96,33.53 654.91,35.20 658.85,36.86 662.77,39.34 666.70,41.82 670.36,44.80 674.01,47.77 677.47,51.25 680.94,54.73 683.94,58.48 686.94,62.22 690.01,66.61 693.07,71.00 695.88,75.48 698.68,79.95 701.12,84.41 703.56,88.87 705.79,93.55 708.03,98.23 709.45,101.48 710.86,104.72 711.89,107.34 712.91,109.96 714.02,114.17 715.13,118.38 715.94,123.57 716.74,128.77 717.16,132.93 717.57,137.08 717.75,140.04 717.93,143.00 717.64,145.80 717.36,148.59 716.61,150.88 715.86,153.16 714.98,154.86 714.10,156.56 713.02,158.02 711.95,159.47 710.65,160.73 709.35,161.99 707.69,162.97 706.02,163.95 703.99,164.47 701.95,164.99 698.15,164.40 694.35,163.80 691.58,162.82 688.81,161.84 686.66,160.94 684.50,160.05 682.81,159.45 681.11,158.86 679.66,158.58 678.21,158.30 676.77,158.35 675.32,158.41 673.44,159.38 671.55,160.34 668.28,163.29 665.01,166.24 661.17,169.97 657.34,173.70 653.61,177.31 649.87,180.91 646.27,184.40 642.67,187.89 639.87,190.61 637.07,193.32 635.02,195.23 632.96,197.14 631.60,198.39 630.25,199.64 629.21,200.51 628.18,201.37 626.14,201.88 624.10,202.39 621.95,202.52 619.80,202.65 617.47,202.57 615.14,202.50 612.91,202.10 610.67,201.71 608.29,200.88 605.90,200.05 603.56,198.94 601.22,197.83 598.68,196.28 596.14,194.74 593.56,192.85 590.99,190.96 588.71,189.03 586.43,187.10 584.22,185.01 582.01,182.91 579.94,180.78 577.87,178.64 575.70,176.41 573.53,174.18 571.51,172.13 569.50,170.09 567.82,168.35 566.14,166.61 564.38,164.95 562.63,163.28 560.93,161.89 559.23,160.50 557.37,159.36 555.51,158.23 551.69,156.76 547.87,155.30 544.33,154.31 540.80,153.32 537.58,152.71 534.37,152.11 531.06,151.85 527.75,151.60 524.32,151.49 520.89,151.38 516.88,151.33 512.87,151.29 508.26,151.27 503.65,151.25 498.84,151.24 494.03,151.23 489.07,151.26 484.12,151.29 479.73,151.57 475.34,151.84 470.95,152.22 466.57,152.60 462.70,152.81 458.83,153.01 455.55,153.09 452.27,153.18 448.87,153.22 445.46,153.25 442.86,153.27 440.26,153.28 438.80,153.40 437.34,153.52 432.97,153.49 428.61,153.46 424.02,153.44 419.43,153.42 414.68,153.41 409.94,153.39 407.11,153.38 404.28,153.37 401.48,153.36 398.67,153.35 395.10,153.47 391.52,153.59 387.37,154.24 383.22,154.90 379.27,155.92 375.31,156.95 371.74,158.28 368.17,159.61 364.62,161.15 361.08,162.69 358.37,163.95 355.66,165.21 352.39,166.60 349.12,168.00 344.83,169.82 340.55,171.64 336.45,173.48 332.36,175.31 328.91,176.81 325.45,178.30 321.92,179.67 318.38,181.04 313.60,182.82 308.81,184.60 305.21,186.05 301.62,187.49 298.69,188.76 295.77,190.03 292.85,191.27 289.93,192.52 286.99,193.65 284.06,194.78 281.50,195.77 278.95,196.76 276.40,197.70 273.85,198.65 271.40,199.42 268.96,200.18 266.51,200.79 264.06,201.40 261.68,201.81 259.31,202.22 256.97,202.44 254.63,202.67 252.10,202.76 249.57,202.86 247.07,202.89 244.58,202.93 241.85,202.78 239.13,202.63 236.38,202.13 233.64,201.63 230.40,200.36 227.15,199.10 225.12,197.98 223.08,196.87 221.50,195.89 219.92,194.90 218.56,194.00 217.20,193.10 215.73,191.97 214.27,190.85 212.75,189.65 211.23,188.44 209.86,187.40 208.49,186.36 207.28,185.52 206.06,184.67 205.06,184.07 204.05,183.47 202.95,182.96 201.84,182.44 200.36,181.90 198.89,181.36 196.69,180.55 194.49,179.74 192.06,178.85 189.62,177.96 187.60,177.20 185.57,176.44 183.02,175.39 180.46,174.35 178.76,173.59 177.05,172.83 175.57,172.08 174.09,171.33 172.46,170.40 170.82,169.48 169.06,168.48 167.31,167.47 165.64,166.46 163.97,165.45 162.48,164.56 160.99,163.68 159.71,163.04 158.43,162.40 157.38,161.94 156.33,161.49 155.32,161.16 154.31,160.84 152.86,160.58 151.41,160.32 149.37,160.10 147.34,159.87 145.25,159.74 143.15,159.60 141.27,159.57 139.39,159.54 137.75,159.57 136.10,159.60 134.84,159.68 133.59,159.75 131.90,159.76 130.22,159.76 126.60,160.00 122.98,160.23 120.35,160.89 117.71,161.54 115.32,162.51 112.92,163.49 110.92,164.57 108.93,165.66 107.58,166.58 106.24,167.49 105.12,168.29 104.00,169.08 102.55,169.86 101.10,170.64 96.81,171.01 92.52,171.39 89.82,171.23 87.12,171.07 85.13,170.71 83.14,170.35 81.05,169.31 78.95,168.27 77.46,167.25 75.96,166.22 74.77,165.24 73.59,164.25 72.50,163.34 71.41,162.43 70.40,161.64 69.39,160.85 68.47,160.11 67.56,159.36 66.74,158.56 65.92,157.76 65.21,156.87 64.50,155.97 63.91,154.95 63.33,153.93 62.88,152.95 62.42,151.97 61.98,150.35 61.54,148.74 61.27,146.83 61.01,144.93 60.92,142.77 60.83,140.61 60.81,138.57 60.79,136.54 60.83,134.41 60.88,132.28 60.94,130.09 60.99,127.90 61.01,125.88 61.03,123.86 60.98,122.17 60.93,120.48 60.85,119.15 60.76,117.81 60.56,116.23 60.36,114.65 58.70,115.03 57.05,115.41 55.30,115.45 53.55,115.50 52.28,115.48 51.01,115.47 49.59,115.43 48.16,115.40 46.76,115.38 45.36,115.35 44.27,115.40 43.18,115.46 41.49,115.72 39.81,115.99 37.56,116.48 35.30,116.96 33.90,117.29 32.50,117.62 30.87,117.97 29.23,118.31 27.78,118.64 26.32,118.97 25.21,119.31 24.10,119.64 22.43,120.16 20.75,120.68 19.33,121.11 17.90,121.54 16.81,121.90 15.72,122.25 14.43,122.37 13.14,122.49 11.99,122.42 10.84,122.36 9.85,121.81 8.87,121.27 7.41,120.05 5.95,118.84 5.06,117.62 4.18,116.41 3.52,115.15 2.86,113.90 2.41,112.21 1.96,110.51 1.89,108.84 1.81,107.17 1.59,106.00 1.36,104.82 1.23,103.42 1.10,102.02 0.80,101.54 0.50,101.06 0.37,100.50 0.24,99.95 0.29,99.39 0.34,98.82 0.57,98.30 0.80,97.78 1.19,97.36 1.57,96.94 2.07,96.67 2.57,96.39 3.13,96.29 3.69,96.19 4.25,96.27 4.81,96.36 5.32,96.61 5.82,96.87 6.22,97.28 6.62,97.68 6.87,98.20 7.11,98.71 7.18,99.27 7.25,99.84 7.14,100.39 7.03,100.95 6.74,101.44 6.46,101.93 6.03,102.31 5.60,102.68 5.08,102.90 4.55,103.12 3.99,103.16 3.42,103.20 2.87,103.06 2.32,102.92 1.84,102.60 1.37,102.29 1.02,101.85 0.67,101.40 0.48,100.86 0.29,100.33 0.28,99.76 0.27,99.19 0.44,98.65 0.61,98.11 0.95,97.65 1.29,97.19 1.75,96.87 2.22,96.54 2.76,96.38 3.31,96.22 3.87,96.24 4.44,96.26 4.97,96.46 5.51,96.66 5.94,97.03 6.38,97.39 6.38,97.39 6.38,97.39 7.32,100.94 8.26,104.49 8.46,105.74 8.67,107.00 8.71,108.25 8.75,109.49 9.09,110.69 9.44,111.89 10.15,113.08 10.86,114.26 11.69,115.18 12.53,116.10 13.81,116.21 15.09,116.32 16.13,116.01 17.18,115.71 18.26,115.52 19.34,115.33 21.00,114.96 22.66,114.60 23.88,114.27 25.10,113.94 26.53,113.57 27.96,113.20 29.53,112.74 31.10,112.28 32.51,111.87 33.93,111.46 35.30,111.10 36.66,110.74 38.75,110.43 40.85,110.12 41.90,110.02 42.96,109.91 44.16,109.88 45.36,109.84 46.76,109.82 48.16,109.80 49.59,109.76 51.01,109.73 53.29,109.73 55.57,109.73 57.05,109.79 58.52,109.86 59.76,110.02 61.01,110.17 62.17,110.73 63.33,111.29 64.04,112.76 64.76,114.23 64.66,116.02 64.57,117.81 64.49,119.14 64.41,120.48 64.37,122.16 64.32,123.85 64.36,125.86 64.39,127.87 64.47,130.05 64.56,132.22 64.68,134.29 64.80,136.36 64.96,138.27 65.11,140.18 65.44,142.15 65.76,144.11 66.10,145.72 66.45,147.34 66.84,148.66 67.24,149.98 67.86,151.57 68.48,153.16 69.50,154.62 70.52,156.08 71.32,156.89 72.13,157.71 73.09,158.62 74.05,159.54 75.06,160.55 76.07,161.56 77.02,162.54 77.98,163.53 79.15,164.50 80.33,165.47 82.06,166.29 83.79,167.11 85.52,167.46 87.25,167.80 89.72,167.85 92.20,167.89 95.84,167.53 99.48,167.18 100.78,166.58 102.08,165.99 103.29,165.34 104.50,164.70 105.97,163.86 107.44,163.03 109.56,161.80 111.68,160.57 114.25,159.43 116.82,158.29 119.74,157.45 122.65,156.60 126.44,156.17 130.22,155.75 131.91,155.76 133.60,155.77 134.86,155.85 136.12,155.93 137.78,155.98 139.44,156.03 141.34,156.05 143.24,156.07 145.41,156.04 147.57,156.02 149.88,156.05 152.19,156.09 154.04,156.44 155.89,156.79 157.06,157.33 158.22,157.86 159.24,158.49 160.27,159.11 161.55,159.91 162.84,160.70 164.28,161.64 165.71,162.58 167.31,163.56 168.92,164.54 170.73,165.49 172.54,166.44 174.17,167.37 175.79,168.29 177.11,169.10 178.43,169.91 180.01,170.70 181.59,171.48 184.11,172.42 186.64,173.37 188.68,174.01 190.72,174.66 193.18,175.40 195.64,176.13 197.98,176.77 200.33,177.40 202.08,178.04 203.83,178.67 205.09,179.40 206.35,180.14 207.34,180.92 208.33,181.70 209.49,182.66 210.66,183.63 211.98,184.73 213.30,185.83 214.82,187.03 216.34,188.24 217.73,189.37 219.11,190.50 220.33,191.50 221.55,192.50 222.95,193.54 224.35,194.57 226.23,195.61 228.11,196.66 231.12,197.85 234.13,199.05 236.70,199.53 239.27,200.01 241.91,200.16 244.54,200.31 247.01,200.27 249.47,200.23 251.92,200.14 254.38,200.05 256.62,199.84 258.86,199.63 261.15,199.24 263.43,198.85 265.80,198.26 268.17,197.68 270.55,196.93 272.94,196.18 275.47,195.25 278.00,194.31 280.56,193.32 283.11,192.33 286.00,191.21 288.90,190.10 291.81,188.86 294.73,187.62 297.68,186.34 300.64,185.05 304.26,183.59 307.89,182.14 312.66,180.36 317.43,178.58 320.92,177.24 324.41,175.89 327.84,174.40 331.28,172.91 335.40,171.06 339.52,169.21 343.80,167.39 348.08,165.57 351.32,164.19 354.55,162.82 357.29,161.54 360.02,160.27 363.63,158.70 367.25,157.13 370.94,155.75 374.64,154.38 378.72,153.32 382.80,152.25 387.11,151.58 391.43,150.90 395.05,150.77 398.67,150.63 401.48,150.63 404.28,150.62 407.11,150.61 409.94,150.59 414.68,150.58 419.43,150.56 424.02,150.54 428.61,150.51 432.97,150.48 437.33,150.45 438.79,150.55 440.25,150.66 442.84,150.64 445.43,150.63 448.82,150.59 452.21,150.55 455.45,150.47 458.70,150.38 462.52,150.18 466.34,149.99 470.76,149.60 475.18,149.22 479.64,148.94 484.11,148.67 489.07,148.63 494.03,148.60 498.84,148.61 503.66,148.62 508.28,148.64 512.90,148.66 516.94,148.71 520.98,148.75 524.47,148.87 527.96,148.98 531.41,149.25 534.85,149.52 538.18,150.16 541.51,150.79 545.16,151.82 548.82,152.84 552.85,154.41 556.88,155.98 558.89,157.22 560.89,158.46 562.67,159.91 564.44,161.37 566.24,163.07 568.03,164.78 569.71,166.50 571.38,168.23 573.41,170.28 575.44,172.32 577.61,174.56 579.79,176.79 581.82,178.87 583.85,180.96 586.01,183.00 588.17,185.04 590.39,186.90 592.60,188.76 595.09,190.56 597.57,192.37 600.00,193.82 602.43,195.27 604.63,196.29 606.84,197.30 609.00,198.02 611.17,198.74 613.18,199.04 615.19,199.34 617.37,199.33 619.55,199.31 621.48,199.13 623.40,198.96 624.86,198.75 626.32,198.54 627.32,197.97 628.31,197.40 629.70,196.27 631.10,195.15 633.11,193.24 635.13,191.34 637.91,188.61 640.69,185.87 644.27,182.35 647.85,178.84 651.54,175.20 655.24,171.57 659.06,167.74 662.89,163.91 666.46,160.64 670.03,157.38 672.59,156.12 675.15,154.86 677.08,154.91 679.01,154.96 680.61,155.43 682.22,155.91 683.91,156.59 685.61,157.28 687.71,158.09 689.82,158.89 692.34,159.72 694.87,160.55 698.04,161.05 701.22,161.55 702.78,161.19 704.35,160.84 705.72,160.15 707.09,159.46 708.29,158.46 709.48,157.46 710.53,156.29 711.59,155.11 712.48,153.71 713.38,152.32 714.07,150.31 714.75,148.31 715.03,145.73 715.30,143.15 715.13,140.25 714.96,137.34 714.55,133.26 714.15,129.17 713.37,124.11 712.59,119.05 711.53,114.98 710.46,110.91 709.46,108.34 708.46,105.77 707.06,102.57 705.66,99.37 703.46,94.74 701.25,90.12 698.85,85.73 696.46,81.34 693.69,76.92 690.92,72.51 687.91,68.18 684.89,63.86 681.98,60.22 679.07,56.58 675.71,53.19 672.35,49.80 668.82,46.92 665.30,44.04 661.56,41.66 657.82,39.28 654.05,37.67 650.28,36.07 645.11,34.68 639.95,33.29 634.38,31.97 628.82,30.66 623.29,29.76 617.76,28.86 612.17,27.88 606.58,26.90 601.48,25.77 596.39,24.64 592.38,23.07 588.37,21.49 586.39,19.11 584.40,16.73 583.09,13.56 581.78,10.39 580.91,6.32 580.04,2.25 578.98,-3.04 577.93,-8.34 576.57,-14.66 575.20,-20.98 573.23,-29.10 571.27,-37.21 568.22,-47.45 565.18,-57.69 562.02,-62.68 558.87,-67.67 554.05,-72.40 549.23,-77.14 544.30,-79.64 539.37,-82.14 535.64,-83.31 531.91,-84.49 527.93,-85.44 523.94,-86.39 518.95,-87.12 513.95,-87.84 508.99,-88.15 504.03,-88.47 498.68,-88.50 493.32,-88.54 487.53,-88.48 481.74,-88.41 475.65,-88.29 469.57,-88.16 462.65,-87.88 455.74,-87.61 449.48,-87.27 443.22,-86.93 436.37,-86.68 429.52,-86.44 424.24,-86.34 418.95,-86.24 416.76,-86.38 414.57,-86.52 413.17,-87.27 411.78,-88.03 411.34,-89.30 410.90,-90.57 411.13,-91.96 411.36,-93.35 411.63,-95.51 411.89,-97.66 412.34,-100.96 412.79,-104.27 413.37,-109.04 413.96,-113.81 414.52,-120.00 415.08,-126.18 415.40,-134.06 415.72,-141.94 415.52,-150.61 415.32,-159.28 414.45,-167.15 413.59,-175.02 412.20,-181.81 410.80,-188.59 409.03,-193.93 407.25,-199.26 405.12,-203.31 402.99,-207.35 400.34,-210.36 397.69,-213.37 394.19,-215.65 390.69,-217.92 386.74,-219.62 382.79,-221.32 378.26,-222.44 373.72,-223.55 367.81,-224.15 361.89,-224.76 356.73,-224.83 351.57,-224.91 347.34,-224.83 343.12,-224.75 338.44,-224.56 333.76,-224.37 330.13,-223.97 326.51,-223.56 324.19,-222.62 321.88,-221.68 320.29,-220.18 318.69,-218.68 317.35,-216.86 316.01,-215.04 314.14,-212.32 312.27,-209.59 309.55,-205.63 306.84,-201.67 303.64,-196.56 300.43,-191.46 296.72,-184.95 293.00,-178.45 289.08,-171.15 285.15,-163.85 281.52,-156.81 277.89,-149.76 274.63,-143.36 271.37,-136.95 268.60,-131.73 265.84,-126.51 263.39,-123.17 260.94,-119.83 258.55,-118.53 256.16,-117.22 253.78,-117.15 251.41,-117.07 248.95,-117.41 246.50,-117.75 243.83,-118.22 241.17,-118.70 238.04,-119.30 234.90,-119.91 231.09,-120.59 227.27,-121.27 223.92,-121.57 220.58,-121.87 217.58,-121.83 214.58,-121.78 211.36,-121.68 208.13,-121.57 205.61,-121.33 203.08,-121.09 200.57,-120.53 198.05,-119.96 195.72,-119.05 193.38,-118.15 191.85,-116.85 190.32,-115.56 188.90,-113.65 187.48,-111.74 185.77,-109.08 184.06,-106.43 182.31,-103.19 180.56,-99.96 178.73,-95.69 176.91,-91.42 174.48,-85.19 172.04,-78.96 170.56,-74.65 169.08,-70.34 167.80,-66.14 166.51,-61.94 165.33,-57.91 164.14,-53.88 162.95,-49.89 161.76,-45.89 160.56,-42.15 159.36,-38.41 157.93,-34.91 156.50,-31.41 154.77,-28.21 153.05,-25.02 150.63,-21.82 148.22,-18.63 145.11,-15.23 142.00,-11.82 138.61,-8.45 135.22,-5.08 130.88,-1.24 126.54,2.60 119.86,8.02 113.18,13.45 106.29,19.21 99.41,24.98 94.05,29.67 88.70,34.35 81.46,40.70 74.22,47.05 67.96,52.46 61.69,57.88 58.23,60.72 54.77,63.55 50.20,67.28 45.63,71.02 39.49,75.79 33.35,80.56 28.24,84.32 23.13,88.09 18.37,91.30 13.62,94.51 9.07,97.21 4.53,99.92 2.50,100.60 0.47,101.28 0.28,101.32 0.10,101.35 -0.08,101.34 -0.27,101.33 -0.45,101.27 -0.63,101.22 -0.79,101.12 -0.95,101.03 -1.09,100.89 -1.22,100.76 -1.32,100.60 -1.42,100.44 -1.47,100.26 -1.53,100.08 -1.54,99.89 -1.55,99.70 -1.52,99.52 -1.49,99.33 -1.41,99.16 -1.34,98.99 -1.22,98.84 -1.11,98.69 -0.96,98.58 -0.81,98.46 -0.64,98.38 -0.47,98.30 -0.47,98.30 L -0.47,98.30 Z"></path></g><g transform="translate(310.7048312419012 173.20398073755757) rotate(0 -3.621645169757471 8.815202670448258)" stroke="none"><path fill="#1e1e1e" d="M 8.46,5.21 Q 8.46,5.21 7.46,7.20 6.45,9.20 5.42,13.69 4.40,18.19 4.29,18.45 4.18,18.71 3.69,20.50 3.20,22.29 2.16,23.83 1.12,25.37 -0.34,26.50 -1.82,27.63 -3.58,28.22 -5.34,28.82 -7.19,28.83 -9.05,28.83 -10.81,28.24 -12.57,27.66 -14.06,26.54 -15.54,25.42 -16.58,23.88 -17.63,22.35 -18.13,20.56 -18.63,18.77 -18.54,16.92 -18.44,15.06 -17.76,13.33 -17.08,11.61 -15.88,10.19 -14.68,8.77 -13.09,7.81 -11.50,6.84 -9.69,6.44 -7.88,6.04 -6.03,6.23 -4.18,6.43 -2.49,7.20 -0.81,7.98 0.53,9.25 1.89,10.53 2.76,12.17 3.64,13.80 3.94,15.64 4.25,17.47 3.95,19.30 3.65,21.14 2.79,22.78 1.92,24.42 0.58,25.70 -0.76,26.98 -2.44,27.77 -4.13,28.55 -5.97,28.76 -7.82,28.96 -9.63,28.57 -11.45,28.17 -13.04,27.22 -14.64,26.27 -15.84,24.85 -17.05,23.44 -17.74,21.72 -18.43,19.99 -18.54,18.14 -18.64,16.29 -18.64,16.29 -18.64,16.29 -17.05,11.39 -15.46,6.50 -13.29,2.44 -11.12,-1.62 -9.79,-3.41 -8.46,-5.21 -7.71,-6.15 -6.97,-7.08 -6.02,-7.82 -5.07,-8.55 -3.97,-9.03 -2.87,-9.51 -1.69,-9.72 -0.51,-9.92 0.67,-9.84 1.87,-9.76 3.01,-9.39 4.15,-9.03 5.17,-8.40 6.19,-7.77 7.03,-6.92 7.87,-6.06 8.48,-5.03 9.10,-4.00 9.44,-2.85 9.79,-1.71 9.85,-0.51 9.91,0.68 9.69,1.86 9.46,3.03 8.96,4.12 8.46,5.21 8.46,5.21 L 8.46,5.21 Z"></path></g><g transform="translate(423.15973363277766 158.88560749667317) rotate(0 -5.642191937307189 12.763276733641248)" stroke="none"><path fill="#1e1e1e" d="M 9.14,4.13 Q 9.14,4.13 8.13,6.84 7.12,9.55 5.40,13.70 3.67,17.86 1.28,24.98 -1.10,32.10 -2.44,33.53 -3.78,34.96 -5.51,35.89 -7.23,36.82 -9.17,37.15 -11.10,37.48 -13.03,37.17 -14.97,36.87 -16.71,35.96 -18.45,35.05 -19.80,33.64 -21.16,32.22 -21.99,30.45 -22.83,28.68 -23.05,26.73 -23.27,24.78 -22.87,22.86 -22.46,20.95 -21.46,19.26 -20.46,17.58 -18.97,16.30 -17.48,15.02 -15.67,14.28 -13.85,13.55 -11.89,13.43 -9.94,13.31 -8.05,13.82 -6.15,14.34 -4.52,15.43 -2.90,16.52 -1.70,18.07 -0.50,19.62 0.12,21.48 0.76,23.33 0.77,25.29 0.78,27.25 0.17,29.11 -0.44,30.97 -1.61,32.54 -2.79,34.11 -4.40,35.22 -6.02,36.33 -7.91,36.86 -9.79,37.40 -11.75,37.30 -13.71,37.21 -15.53,36.50 -17.36,35.78 -18.86,34.52 -20.36,33.26 -21.38,31.59 -22.40,29.91 -22.83,28.00 -23.27,26.09 -23.07,24.14 -22.87,22.19 -22.05,20.41 -21.24,18.62 -21.24,18.63 -21.24,18.63 -21.03,17.49 -20.81,16.36 -18.84,12.53 -16.87,8.69 -14.37,4.83 -11.87,0.97 -10.51,-1.57 -9.14,-4.13 -8.52,-5.16 -7.89,-6.19 -7.03,-7.05 -6.17,-7.90 -5.14,-8.53 -4.10,-9.15 -2.95,-9.51 -1.79,-9.87 -0.58,-9.94 0.61,-10.01 1.80,-9.79 2.99,-9.57 4.10,-9.08 5.20,-8.58 6.15,-7.83 7.10,-7.08 7.85,-6.13 8.59,-5.18 9.09,-4.07 9.58,-2.97 9.80,-1.78 10.01,-0.59 9.94,0.61 9.86,1.82 9.50,2.97 9.14,4.13 9.14,4.13 L 9.14,4.13 Z"></path></g><g transform="translate(229.3293233828059 244.0458831283786) rotate(0 131.45681543706343 13.175403847205757)" stroke="none"><path fill="#1e1e1e" d="M 0,-1.59 Q 0,-1.59 1.67,-1.65 3.35,-1.70 6.26,-1.65 9.17,-1.59 13.10,-1.56 17.04,-1.52 20.74,-1.49 24.43,-1.46 28.41,-1.44 32.38,-1.42 37.43,-1.40 42.48,-1.39 47.25,-1.38 52.02,-1.37 55.97,-1.36 59.92,-1.35 63.74,-1.34 67.55,-1.34 70.57,-1.29 73.58,-1.24 77.66,-1.05 81.74,-0.86 86.03,-0.61 90.33,-0.36 93.58,-0.07 96.82,0.22 100.35,0.58 103.88,0.95 106.99,1.23 110.10,1.52 113.35,1.78 116.60,2.04 119.88,2.28 123.16,2.53 125.77,2.70 128.38,2.87 131.09,3.01 133.80,3.16 136.30,3.24 138.80,3.33 140.93,3.37 143.07,3.40 146.40,3.42 149.74,3.44 153.32,3.44 156.89,3.45 159.75,3.45 162.62,3.46 165.64,3.46 168.67,3.46 171.24,3.46 173.80,3.46 177.11,3.46 180.42,3.46 184.02,3.46 187.63,3.46 190.08,3.46 192.53,3.46 195.62,3.46 198.71,3.46 201.90,3.42 205.09,3.38 207.66,3.28 210.22,3.18 213.32,3.05 216.41,2.92 219.18,2.81 221.95,2.69 224.62,2.65 227.29,2.60 230.02,2.58 232.76,2.56 234.72,2.51 236.69,2.47 238.99,2.48 241.29,2.48 243.68,2.49 246.06,2.49 247.86,2.51 249.65,2.52 251.67,2.78 253.70,3.03 255.49,3.34 257.29,3.66 258.51,3.88 259.72,4.11 261.26,4.47 262.80,4.83 263.83,5.72 264.86,6.60 265.06,8.14 265.26,9.67 264.61,11.49 263.95,13.31 263.07,15.16 262.18,17.01 261.56,17.97 260.95,18.93 260.25,19.80 259.55,20.66 258.79,21.42 258.03,22.17 257.10,22.85 256.17,23.53 254.25,24.34 252.34,25.15 250.47,25.66 248.60,26.18 246.37,26.47 244.14,26.76 241.96,27.00 239.78,27.23 237.65,27.40 235.53,27.57 233.44,27.64 231.35,27.71 229.04,27.70 226.72,27.69 224.66,27.68 222.59,27.68 220.57,27.68 218.54,27.68 216.62,27.70 214.70,27.72 212.71,27.61 210.71,27.50 208.50,27.21 206.29,26.93 204.62,26.79 202.96,26.66 201.59,26.60 200.22,26.54 198.53,26.34 196.85,26.14 194.84,25.84 192.84,25.53 190.78,25.26 188.72,24.98 186.86,24.78 185.00,24.58 183.45,24.50 181.90,24.41 180.05,24.23 178.20,24.05 176.44,23.88 174.69,23.70 173.18,23.62 171.68,23.54 169.85,23.35 168.01,23.17 166.41,23.04 164.81,22.91 163.63,22.92 162.46,22.92 160.48,23.01 158.51,23.10 156.30,23.17 154.08,23.24 152.65,23.23 151.22,23.23 149.53,23.18 147.85,23.14 146.25,23.11 144.64,23.09 143.16,23.09 141.68,23.10 140.35,23.12 139.01,23.14 137.67,23.15 136.33,23.17 134.91,23.17 133.48,23.18 131.62,23.10 129.77,23.02 127.81,22.94 125.86,22.85 123.97,22.80 122.08,22.75 120.11,22.70 118.13,22.65 116.30,22.73 114.47,22.80 112.51,22.91 110.55,23.02 108.32,23.14 106.10,23.25 103.64,23.46 101.17,23.66 98.93,23.89 96.69,24.13 94.31,24.39 91.93,24.66 89.55,24.94 87.18,25.22 85.35,25.49 83.51,25.76 81.61,26.00 79.70,26.23 77.90,26.47 76.09,26.71 74.36,26.91 72.63,27.11 70.67,27.23 68.71,27.36 67.04,27.52 65.38,27.68 63.47,27.80 61.55,27.91 59.98,28.02 58.41,28.13 57.02,28.22 55.64,28.31 54.14,28.36 52.64,28.41 51.10,28.43 49.55,28.46 48.21,28.51 46.87,28.55 45.65,28.59 44.43,28.63 43.32,28.59 42.22,28.56 40.31,28.30 38.41,28.04 37.28,27.83 36.14,27.62 34.90,27.33 33.66,27.04 32.49,26.73 31.32,26.41 30.21,26.04 29.10,25.68 27.54,25.16 25.97,24.64 24.54,24.08 23.11,23.53 21.73,23.01 20.34,22.50 18.94,21.90 17.55,21.31 16.50,20.85 15.45,20.39 14.43,19.79 13.41,19.19 12.28,18.29 11.16,17.38 10.27,16.64 9.38,15.90 8.45,14.93 7.52,13.96 6.60,13.15 5.68,12.33 4.85,11.55 4.03,10.77 3.06,10.11 2.10,9.45 0.49,8.44 -1.10,7.43 -1.47,6.97 -1.83,6.52 -2.04,5.96 -2.24,5.41 -2.26,4.82 -2.27,4.24 -2.10,3.67 -1.93,3.11 -1.58,2.63 -1.24,2.15 -0.76,1.81 -0.29,1.47 0.27,1.30 0.83,1.12 1.42,1.14 2.01,1.15 2.56,1.36 3.11,1.56 3.57,1.93 4.03,2.30 4.34,2.79 4.66,3.29 4.80,3.86 4.95,4.43 4.90,5.02 4.85,5.60 4.62,6.14 4.39,6.68 3.99,7.12 3.60,7.56 3.09,7.85 2.58,8.14 2.00,8.25 1.42,8.36 0.84,8.28 0.25,8.20 -0.26,7.94 -0.79,7.68 -1.21,7.26 -1.62,6.85 -1.88,6.32 -2.15,5.79 -2.22,5.21 -2.30,4.63 -2.19,4.05 -2.08,3.47 -1.79,2.96 -1.50,2.45 -1.07,2.05 -0.63,1.66 -0.09,1.43 0.44,1.20 1.03,1.15 1.62,1.10 2.19,1.24 2.76,1.38 3.25,1.70 3.75,2.02 3.75,2.02 3.75,2.02 5.17,2.85 6.59,3.68 7.60,4.46 8.60,5.25 9.45,6.12 10.30,6.99 11.31,7.94 12.33,8.90 13.03,9.75 13.72,10.60 14.61,11.45 15.50,12.31 16.28,13.05 17.05,13.78 18.04,14.44 19.04,15.09 20.24,15.68 21.45,16.27 22.74,16.85 24.03,17.43 25.39,18.06 26.75,18.70 28.02,19.27 29.30,19.84 31.04,20.53 32.79,21.21 33.85,21.53 34.91,21.85 36.07,22.14 37.22,22.43 39.19,22.89 41.16,23.35 42.82,23.68 44.47,24.01 45.67,24.07 46.86,24.13 48.20,24.18 49.54,24.22 51.08,24.24 52.61,24.26 54.09,24.29 55.57,24.32 56.93,24.36 58.28,24.40 59.80,24.40 61.32,24.41 63.23,24.27 65.13,24.13 66.80,24.06 68.47,23.99 70.40,23.84 72.33,23.70 74.03,23.60 75.72,23.49 77.54,23.32 79.36,23.15 81.25,22.96 83.14,22.77 84.99,22.59 86.83,22.41 89.20,22.10 91.58,21.78 93.96,21.47 96.33,21.15 98.60,20.84 100.86,20.53 103.34,20.23 105.83,19.93 108.05,19.68 110.27,19.44 112.28,19.24 114.28,19.04 116.20,18.93 118.12,18.81 120.10,18.74 122.08,18.68 123.97,18.63 125.86,18.58 127.81,18.49 129.77,18.41 131.62,18.33 133.48,18.25 134.91,18.26 136.33,18.26 137.67,18.27 139.01,18.29 140.35,18.31 141.68,18.33 143.16,18.34 144.64,18.34 146.25,18.32 147.86,18.29 149.54,18.25 151.22,18.20 152.66,18.20 154.09,18.20 155.28,18.23 156.46,18.26 158.47,18.39 160.49,18.51 161.59,18.61 162.69,18.71 163.95,18.85 165.20,18.98 166.79,19.17 168.37,19.36 170.19,19.52 172.02,19.68 173.55,19.86 175.09,20.04 176.81,20.25 178.54,20.46 180.39,20.63 182.24,20.81 183.81,21.02 185.38,21.22 187.23,21.45 189.07,21.67 191.17,21.84 193.28,22.01 195.32,22.21 197.36,22.41 198.98,22.67 200.60,22.92 201.98,23.15 203.35,23.38 204.99,23.65 206.63,23.91 208.76,24.11 210.90,24.32 212.80,24.43 214.70,24.55 216.61,24.56 218.53,24.57 220.55,24.55 222.56,24.54 224.61,24.49 226.66,24.45 228.91,24.34 231.16,24.24 233.13,24.09 235.11,23.94 237.12,23.63 239.14,23.31 241.21,22.85 243.27,22.40 245.19,21.86 247.12,21.32 248.56,20.82 249.99,20.33 251.43,19.50 252.86,18.68 254.03,17.82 255.19,16.96 256.24,15.68 257.29,14.39 258.21,12.71 259.14,11.02 260.15,9.90 261.17,8.78 259.96,8.20 258.76,7.61 257.71,7.21 256.65,6.81 254.98,6.42 253.30,6.03 251.40,5.76 249.51,5.50 247.79,5.35 246.06,5.20 243.68,5.21 241.29,5.21 239.00,5.23 236.70,5.24 234.74,5.21 232.78,5.19 230.05,5.21 227.33,5.23 224.69,5.27 222.05,5.32 219.29,5.43 216.52,5.54 213.42,5.67 210.32,5.81 207.72,5.91 205.12,6.00 201.92,6.04 198.71,6.09 195.62,6.09 192.53,6.09 190.08,6.09 187.63,6.09 184.02,6.09 180.42,6.09 177.11,6.09 173.80,6.09 171.23,6.09 168.67,6.08 165.64,6.08 162.61,6.08 159.75,6.08 156.89,6.08 153.31,6.07 149.73,6.06 146.38,6.05 143.02,6.03 140.87,5.99 138.71,5.96 136.18,5.87 133.66,5.78 130.93,5.64 128.21,5.49 125.59,5.32 122.97,5.15 119.68,4.91 116.39,4.66 113.12,4.40 109.86,4.14 106.73,3.86 103.61,3.57 100.10,3.21 96.59,2.85 93.38,2.56 90.18,2.27 85.90,2.03 81.62,1.79 77.58,1.61 73.54,1.42 70.55,1.38 67.55,1.34 63.74,1.34 59.92,1.35 55.97,1.36 52.02,1.37 47.25,1.38 42.48,1.39 37.43,1.40 32.38,1.42 28.41,1.44 24.43,1.46 20.74,1.49 17.04,1.52 13.10,1.56 9.17,1.59 6.26,1.65 3.35,1.70 1.67,1.65 0,1.59 -0.19,1.57 -0.38,1.55 -0.56,1.48 -0.74,1.41 -0.90,1.30 -1.05,1.19 -1.18,1.05 -1.31,0.90 -1.40,0.73 -1.49,0.56 -1.53,0.37 -1.58,0.19 -1.58,-0.00 -1.58,-0.19 -1.53,-0.37 -1.49,-0.56 -1.40,-0.73 -1.31,-0.90 -1.18,-1.05 -1.05,-1.19 -0.90,-1.30 -0.74,-1.41 -0.56,-1.48 -0.38,-1.55 -0.19,-1.57 0.00,-1.59 0.00,-1.59 L 0,-1.59 Z"></path></g><g transform="translate(99.5244836281588 304.2692977022094) rotate(0 -32.53459417874069 -12.008277590892703)" stroke="none"><path fill="#1e1e1e" d="M -0.98,1.21 Q -0.98,1.21 -3.00,-0.46 -5.03,-2.14 -7.24,-3.74 -9.46,-5.33 -12.04,-6.97 -14.63,-8.61 -17.47,-10.23 -20.32,-11.84 -23.17,-13.26 -26.03,-14.68 -29.11,-15.92 -32.20,-17.17 -35.23,-18.19 -38.25,-19.21 -41.69,-20.06 -45.13,-20.91 -48.40,-21.45 -51.66,-22.00 -53.87,-22.23 -56.08,-22.47 -57.76,-22.48 -59.45,-22.50 -62.12,-22.53 -64.80,-22.56 -65.05,-22.61 -65.30,-22.65 -65.52,-22.77 -65.74,-22.90 -65.91,-23.08 -66.08,-23.27 -66.19,-23.50 -66.29,-23.73 -66.31,-23.99 -66.33,-24.24 -66.28,-24.48 -66.22,-24.73 -66.08,-24.95 -65.95,-25.16 -65.75,-25.32 -65.56,-25.48 -65.32,-25.57 -65.08,-25.66 -64.83,-25.67 -64.58,-25.68 -64.33,-25.61 -64.09,-25.54 -63.88,-25.39 -63.68,-25.25 -63.53,-25.04 -63.38,-24.84 -63.30,-24.60 -63.22,-24.35 -63.23,-24.10 -63.23,-23.85 -63.32,-23.61 -63.40,-23.37 -63.56,-23.17 -63.71,-22.97 -63.93,-22.83 -64.14,-22.70 -64.38,-22.63 -64.63,-22.57 -64.88,-22.59 -65.13,-22.60 -65.37,-22.70 -65.60,-22.80 -65.79,-22.97 -65.98,-23.13 -66.11,-23.35 -66.24,-23.57 -66.29,-23.82 -66.34,-24.07 -66.31,-24.32 -66.27,-24.57 -66.16,-24.80 -66.05,-25.03 -65.88,-25.21 -65.70,-25.39 -65.47,-25.50 -65.25,-25.62 -65.00,-25.66 -64.75,-25.69 -64.75,-25.69 -64.75,-25.69 -62.01,-25.58 -59.27,-25.46 -57.54,-25.28 -55.80,-25.10 -53.51,-24.86 -51.23,-24.62 -47.86,-24.06 -44.50,-23.49 -40.95,-22.62 -37.40,-21.75 -34.30,-20.71 -31.20,-19.67 -28.01,-18.40 -24.82,-17.12 -21.89,-15.69 -18.96,-14.25 -16.05,-12.63 -13.13,-11.00 -10.46,-9.35 -7.79,-7.69 -5.47,-6.08 -3.15,-4.46 -1.08,-2.84 0.98,-1.21 1.11,-1.08 1.24,-0.94 1.33,-0.78 1.43,-0.61 1.48,-0.43 1.54,-0.25 1.54,-0.07 1.55,0.11 1.52,0.30 1.48,0.48 1.40,0.65 1.32,0.82 1.20,0.97 1.08,1.12 0.93,1.23 0.78,1.34 0.61,1.42 0.44,1.49 0.25,1.52 0.07,1.56 -0.11,1.54 -0.30,1.53 -0.48,1.47 -0.66,1.41 -0.82,1.31 -0.98,1.21 -0.98,1.21 L -0.98,1.21 Z"></path></g><g transform="translate(22.97481681598856 269.13990874313333) rotate(0 0.16340703004038915 13.943239107328026)" stroke="none"><path fill="#1e1e1e" d="M 1.97,-1.58 Q 1.97,-1.58 2.99,-0.24 4.01,1.10 4.79,2.09 5.57,3.09 6.61,4.34 7.65,5.59 8.37,6.48 9.08,7.38 10.06,8.16 11.04,8.94 11.47,9.25 11.90,9.56 12.27,9.68 12.64,9.80 12.97,10.01 13.30,10.22 13.57,10.49 13.85,10.77 14.04,11.11 14.24,11.45 14.35,11.82 14.46,12.19 14.48,12.58 14.50,12.97 14.43,13.36 14.35,13.74 14.19,14.09 14.02,14.44 13.78,14.75 13.53,15.05 13.22,15.29 12.91,15.53 12.56,15.68 12.20,15.84 11.82,15.90 11.43,15.97 11.04,15.94 10.65,15.91 9.44,16.64 8.23,17.37 7.17,17.93 6.11,18.50 5.00,19.15 3.88,19.80 2.55,20.59 1.22,21.39 -0.26,22.28 -1.75,23.17 -2.75,23.90 -3.76,24.63 -4.92,25.64 -6.09,26.66 -7.33,28.15 -8.57,29.64 -8.90,29.98 -9.23,30.31 -9.65,30.53 -10.08,30.74 -10.54,30.81 -11.01,30.88 -11.48,30.79 -11.94,30.71 -12.36,30.48 -12.77,30.25 -13.09,29.90 -13.41,29.55 -13.60,29.12 -13.79,28.69 -13.84,28.22 -13.88,27.75 -13.77,27.28 -13.66,26.82 -13.41,26.42 -13.16,26.02 -12.79,25.72 -12.43,25.42 -11.98,25.26 -11.54,25.09 -11.07,25.07 -10.59,25.05 -10.14,25.19 -9.69,25.32 -9.30,25.59 -8.91,25.87 -8.63,26.25 -8.35,26.63 -8.21,27.08 -8.07,27.53 -8.08,28.01 -8.08,28.48 -8.24,28.92 -8.40,29.37 -8.70,29.74 -8.99,30.11 -9.38,30.37 -9.78,30.63 -10.24,30.75 -10.70,30.87 -11.17,30.83 -11.64,30.80 -12.08,30.62 -12.51,30.43 -12.87,30.12 -13.22,29.81 -13.46,29.40 -13.70,28.99 -13.79,28.53 -13.88,28.06 -13.83,27.59 -13.77,27.12 -13.56,26.70 -13.35,26.27 -13.35,26.27 -13.35,26.27 -11.55,24.27 -9.74,22.27 -8.35,21.24 -6.96,20.20 -5.90,19.43 -4.84,18.66 -3.44,17.58 -2.04,16.50 -0.73,15.53 0.57,14.56 1.73,13.77 2.89,12.98 4.07,12.23 5.25,11.49 7.04,10.67 8.83,9.85 10.37,9.70 11.90,9.56 12.27,9.68 12.64,9.80 12.97,10.01 13.30,10.22 13.57,10.49 13.85,10.77 14.04,11.11 14.24,11.45 14.35,11.82 14.46,12.19 14.48,12.58 14.50,12.97 14.43,13.35 14.35,13.74 14.19,14.09 14.02,14.44 13.78,14.75 13.53,15.05 13.22,15.29 12.91,15.53 12.56,15.68 12.20,15.84 11.82,15.90 11.43,15.97 11.04,15.94 10.65,15.91 10.38,15.84 10.11,15.76 9.06,15.08 8.02,14.40 7.15,13.69 6.27,12.98 5.47,11.98 4.67,10.97 4.04,9.91 3.42,8.85 2.50,7.46 1.58,6.08 0.89,5.12 0.21,4.15 -0.88,2.87 -1.97,1.58 -2.13,1.32 -2.30,1.06 -2.39,0.77 -2.49,0.48 -2.51,0.18 -2.53,-0.12 -2.48,-0.42 -2.43,-0.72 -2.30,-1.00 -2.18,-1.28 -2.00,-1.52 -1.81,-1.77 -1.57,-1.96 -1.33,-2.15 -1.06,-2.28 -0.78,-2.41 -0.48,-2.47 -0.18,-2.53 0.12,-2.51 0.42,-2.50 0.72,-2.41 1.01,-2.32 1.27,-2.17 1.54,-2.01 1.75,-1.80 1.97,-1.58 1.97,-1.58 L 1.97,-1.58 Z"></path></g><g transform="translate(10 282.969630825138) rotate(0 9.785720049814472 0.22446769237933495)" stroke="none"><path fill="#1e1e1e" d="M -0.05,-2.54 Q -0.05,-2.54 1.63,-2.52 3.31,-2.51 4.67,-2.54 6.03,-2.56 7.24,-2.60 8.45,-2.63 10.07,-2.72 11.69,-2.81 12.88,-2.87 14.08,-2.94 15.42,-2.82 16.77,-2.71 18.23,-2.59 19.69,-2.47 20.18,-2.37 20.66,-2.27 21.08,-2.01 21.50,-1.76 21.82,-1.39 22.15,-1.01 22.33,-0.55 22.51,-0.10 22.54,0.39 22.57,0.88 22.44,1.35 22.31,1.83 22.03,2.24 21.76,2.65 21.37,2.95 20.98,3.25 20.51,3.41 20.04,3.57 19.55,3.57 19.06,3.57 18.59,3.41 18.12,3.26 17.73,2.96 17.33,2.66 17.06,2.26 16.78,1.85 16.64,1.37 16.51,0.90 16.54,0.41 16.56,-0.08 16.74,-0.53 16.92,-0.99 17.24,-1.37 17.56,-1.75 17.98,-2.00 18.40,-2.26 18.88,-2.37 19.36,-2.47 19.85,-2.42 20.34,-2.37 20.79,-2.16 21.24,-1.96 21.60,-1.62 21.96,-1.28 22.19,-0.85 22.42,-0.41 22.51,0.06 22.59,0.55 22.51,1.04 22.43,1.52 22.20,1.96 21.97,2.40 21.62,2.74 21.26,3.08 20.81,3.29 20.36,3.49 19.87,3.55 19.38,3.60 19.39,3.60 19.39,3.60 16.84,3.31 14.30,3.01 13.00,2.79 11.70,2.58 10.09,2.50 8.48,2.41 7.28,2.39 6.08,2.37 4.75,2.37 3.41,2.37 1.73,2.46 0.05,2.54 -0.25,2.51 -0.55,2.48 -0.84,2.37 -1.13,2.27 -1.39,2.10 -1.64,1.93 -1.85,1.71 -2.06,1.48 -2.21,1.21 -2.36,0.94 -2.44,0.65 -2.51,0.35 -2.52,0.05 -2.53,-0.25 -2.46,-0.55 -2.39,-0.85 -2.25,-1.12 -2.12,-1.40 -1.92,-1.63 -1.72,-1.87 -1.47,-2.05 -1.22,-2.22 -0.94,-2.34 -0.65,-2.45 -0.35,-2.50 -0.05,-2.54 -0.05,-2.54 L -0.05,-2.54 Z"></path></g><g transform="translate(656.346306204982 258.0488568035503) rotate(0 18.624519224463825 -10.993242941763015)" stroke="none"><path fill="#1e1e1e" d="M -1.37,-1.33 Q -1.37,-1.33 -0.41,-2.39 0.53,-3.44 1.61,-4.48 2.70,-5.51 4.12,-6.60 5.54,-7.69 7.53,-8.99 9.53,-10.29 11.21,-11.40 12.89,-12.51 15.05,-13.63 17.20,-14.76 19.59,-15.90 21.99,-17.04 23.46,-17.82 24.93,-18.60 26.45,-19.33 27.97,-20.06 29.37,-20.73 30.77,-21.40 33.59,-22.65 36.41,-23.90 36.74,-23.96 37.08,-24.03 37.41,-23.98 37.75,-23.93 38.05,-23.78 38.35,-23.63 38.59,-23.39 38.83,-23.15 38.97,-22.85 39.12,-22.54 39.17,-22.21 39.21,-21.87 39.15,-21.54 39.08,-21.21 38.91,-20.92 38.75,-20.62 38.49,-20.40 38.24,-20.17 37.93,-20.04 37.62,-19.91 37.28,-19.88 36.95,-19.86 36.62,-19.94 36.29,-20.02 36.01,-20.21 35.72,-20.39 35.51,-20.65 35.30,-20.92 35.19,-21.24 35.07,-21.55 35.06,-21.89 35.06,-22.23 35.16,-22.55 35.26,-22.87 35.46,-23.15 35.65,-23.42 35.93,-23.62 36.20,-23.81 36.53,-23.91 36.85,-24.01 37.19,-24.00 37.53,-23.99 37.84,-23.87 38.16,-23.75 38.42,-23.54 38.68,-23.33 38.87,-23.04 39.05,-22.75 39.13,-22.43 39.21,-22.10 39.18,-21.76 39.15,-21.43 39.01,-21.12 38.88,-20.81 38.65,-20.56 38.43,-20.30 38.13,-20.14 37.84,-19.97 37.84,-19.97 37.84,-19.97 35.06,-18.96 32.28,-17.94 30.86,-17.38 29.43,-16.81 27.92,-16.18 26.40,-15.55 24.89,-14.89 23.39,-14.23 21.10,-13.04 18.81,-11.84 16.87,-10.70 14.93,-9.56 13.32,-8.39 11.72,-7.22 9.91,-5.81 8.10,-4.39 6.81,-3.38 5.52,-2.36 4.47,-1.49 3.43,-0.61 2.40,0.36 1.37,1.33 1.19,1.48 1.01,1.62 0.80,1.72 0.59,1.82 0.36,1.86 0.13,1.91 -0.09,1.89 -0.32,1.88 -0.54,1.82 -0.76,1.75 -0.96,1.63 -1.16,1.52 -1.32,1.36 -1.49,1.19 -1.61,1.00 -1.73,0.80 -1.80,0.58 -1.88,0.36 -1.89,0.13 -1.91,-0.09 -1.87,-0.32 -1.83,-0.54 -1.74,-0.76 -1.65,-0.97 -1.51,-1.15 -1.37,-1.33 -1.37,-1.33 L -1.37,-1.33 Z"></path></g><g transform="translate(704.225629878976 215.08902728717248) rotate(0 -1.3683262348740755 17.33185856352287)" stroke="none"><path fill="#1e1e1e" d="M 2.35,0.97 Q 2.35,0.97 1.54,2.67 0.73,4.38 0.09,5.74 -0.54,7.10 -0.96,8.09 -1.39,9.07 -1.99,10.55 -2.60,12.03 -3.17,13.29 -3.73,14.56 -4.29,15.69 -4.84,16.82 -5.30,17.87 -5.75,18.93 -6.25,20.00 -6.75,21.07 -7.77,20.00 -8.78,18.92 -7.22,19.97 -5.66,21.03 -4.58,21.85 -3.49,22.68 -2.40,23.47 -1.31,24.27 -0.28,24.97 0.75,25.67 1.70,26.31 2.66,26.94 3.88,27.64 5.09,28.35 6.33,28.87 7.57,29.38 8.91,30.72 10.26,32.07 10.61,32.47 10.96,32.88 11.16,33.37 11.36,33.86 11.40,34.40 11.43,34.93 11.29,35.45 11.16,35.96 10.86,36.41 10.56,36.85 10.14,37.18 9.72,37.50 9.22,37.68 8.71,37.85 8.18,37.86 7.65,37.86 7.14,37.70 6.63,37.53 6.20,37.21 5.78,36.90 5.47,36.46 5.17,36.02 5.02,35.51 4.87,34.99 4.90,34.46 4.92,33.93 5.11,33.43 5.31,32.93 5.65,32.52 5.99,32.11 6.44,31.83 6.90,31.55 7.42,31.43 7.94,31.31 8.47,31.37 9.00,31.42 9.49,31.64 9.97,31.86 10.36,32.22 10.76,32.58 11.01,33.05 11.26,33.52 11.36,34.05 11.45,34.57 11.37,35.10 11.28,35.63 11.04,36.10 10.79,36.58 10.41,36.95 10.03,37.32 9.54,37.55 9.06,37.77 8.53,37.84 8.00,37.90 7.48,37.79 6.96,37.68 6.50,37.41 6.04,37.14 6.04,37.14 6.04,37.14 5.02,36.05 3.99,34.96 3.00,34.39 2.01,33.81 0.67,32.96 -0.65,32.11 -1.62,31.51 -2.59,30.91 -3.71,30.24 -4.82,29.56 -6.02,28.84 -7.22,28.11 -8.40,27.39 -9.57,26.66 -11.08,25.67 -12.59,24.67 -13.45,23.26 -14.31,21.86 -14.01,20.55 -13.71,19.24 -12.96,18.31 -12.21,17.37 -11.61,16.41 -11.00,15.45 -10.45,14.46 -9.89,13.46 -9.27,12.56 -8.65,11.66 -8.01,10.69 -7.38,9.73 -6.61,8.33 -5.83,6.93 -5.33,5.99 -4.83,5.04 -4.22,3.81 -3.61,2.57 -2.98,0.80 -2.35,-0.97 -2.20,-1.24 -2.05,-1.50 -1.84,-1.73 -1.62,-1.95 -1.37,-2.12 -1.11,-2.28 -0.82,-2.38 -0.53,-2.48 -0.22,-2.51 0.07,-2.54 0.37,-2.49 0.68,-2.45 0.96,-2.33 1.24,-2.21 1.49,-2.03 1.74,-1.85 1.94,-1.61 2.13,-1.38 2.27,-1.10 2.40,-0.83 2.46,-0.53 2.53,-0.23 2.52,0.07 2.51,0.38 2.43,0.67 2.35,0.97 2.35,0.97 L 2.35,0.97 Z"></path></g><g transform="translate(718.1465276710603 225.98766959709542) rotate(0 -10.731782361486466 5.266979067014006)" stroke="none"><path fill="#1e1e1e" d="M 0.73,2.54 Q 0.73,2.54 -0.60,2.91 -1.95,3.29 -2.99,3.70 -4.03,4.10 -5.70,4.90 -7.37,5.70 -8.83,6.46 -10.29,7.22 -11.60,7.95 -12.92,8.69 -14.06,9.34 -15.21,9.99 -16.36,10.68 -17.52,11.37 -18.98,12.47 -20.43,13.56 -20.94,13.62 -21.46,13.69 -21.96,13.58 -22.47,13.48 -22.92,13.22 -23.37,12.96 -23.71,12.57 -24.05,12.18 -24.24,11.70 -24.44,11.22 -24.48,10.71 -24.51,10.19 -24.38,9.69 -24.25,9.19 -23.97,8.76 -23.68,8.32 -23.27,8.01 -22.87,7.69 -22.38,7.51 -21.89,7.34 -21.37,7.34 -20.86,7.33 -20.36,7.49 -19.87,7.64 -19.45,7.95 -19.04,8.26 -18.74,8.68 -18.45,9.11 -18.30,9.60 -18.15,10.10 -18.18,10.62 -18.20,11.14 -18.38,11.62 -18.57,12.10 -18.90,12.50 -19.23,12.90 -19.66,13.17 -20.10,13.45 -20.61,13.56 -21.11,13.68 -21.63,13.63 -22.14,13.58 -22.61,13.37 -23.09,13.16 -23.47,12.81 -23.85,12.46 -24.10,12.01 -24.35,11.55 -24.44,11.04 -24.53,10.53 -24.45,10.02 -24.37,9.51 -24.14,9.05 -23.90,8.59 -23.53,8.23 -23.16,7.87 -22.69,7.65 -22.23,7.42 -22.23,7.42 -22.23,7.42 -20.69,6.28 -19.16,5.13 -18.03,4.55 -16.90,3.98 -15.58,3.35 -14.25,2.71 -12.77,2.03 -11.29,1.35 -9.61,0.65 -7.93,-0.04 -6.90,-0.45 -5.88,-0.86 -4.64,-1.30 -3.41,-1.74 -2.07,-2.14 -0.73,-2.54 -0.42,-2.59 -0.10,-2.64 0.21,-2.61 0.52,-2.59 0.83,-2.49 1.13,-2.38 1.40,-2.21 1.67,-2.04 1.89,-1.81 2.11,-1.58 2.27,-1.31 2.43,-1.03 2.52,-0.72 2.61,-0.42 2.62,-0.10 2.63,0.21 2.57,0.52 2.50,0.83 2.37,1.12 2.23,1.41 2.03,1.66 1.83,1.90 1.57,2.09 1.32,2.29 1.02,2.41 0.73,2.54 0.73,2.54 L 0.73,2.54 Z"></path></g></svg>