<svg version="1.1" xmlns="http://www.w3.org/2000/svg" viewBox="0 0 736.876423708594 317.0582252654171" width="736.876423708594" height="317.0582252654171" class="excalidraw-svg">
  <!-- svg-source:excalidraw -->
  
  <defs>
    <style class="style-fonts">
      @font-face {
        font-family: "Virgil";
        src: url("https://excalidraw.com/Virgil.woff2");
      }
      @font-face {
        font-family: "Cascadia";
        src: url("https://excalidraw.com/Cascadia.woff2");
      }
      @font-face {
        font-family: "Assistant";
        src: url("https://excalidraw.com/Assistant-Regular.woff2");
      }
    </style>
    
  </defs>
  <g transform="translate(10 236.34735875998746) rotate(0 358.438211854297 -77.81824612727891)" stroke="none"><path d="M1.52 0.69 C2.62 0.75, 3.51 2.33, 6.2 0.67 C8.88 -0.99, 10.04 -4.99, 17.63 -9.26 C25.22 -13.52, 32.19 -13.89, 51.73 -24.91 C71.27 -35.93, 119.49 -65.94, 134.85 -75.37 C150.21 -84.8, 140.09 -79.17, 143.9 -81.47 C147.72 -83.77, 153.19 -82.33, 157.73 -89.16 C162.28 -96, 167.77 -113.71, 171.18 -122.49 C174.6 -131.26, 174.98 -136.68, 178.2 -141.84 C181.42 -146.99, 186.29 -151.67, 190.52 -153.42 C194.74 -155.17, 197.61 -151.77, 203.57 -152.32 C209.52 -152.88, 218.38 -157.11, 226.23 -156.74 C234.08 -156.37, 244.93 -150.84, 250.67 -150.12 C256.42 -149.4, 258.46 -151.77, 260.7 -152.4 C262.95 -153.03, 258.28 -145.46, 264.17 -153.92 C270.06 -162.38, 287.16 -191.83, 296.06 -203.14 C304.95 -214.44, 313.16 -217.68, 317.54 -221.76 C321.92 -225.84, 320.18 -227.02, 322.33 -227.64 C324.48 -228.26, 322.58 -225.36, 330.42 -225.47 C338.25 -225.59, 360.93 -228.54, 369.35 -228.33 C377.77 -228.12, 376.1 -225.59, 380.92 -224.21 C385.74 -222.84, 394.35 -221.84, 398.26 -220.1 C402.17 -218.35, 403.06 -215.31, 404.37 -213.73 C405.68 -212.15, 404.5 -212.06, 406.12 -210.63 C407.75 -209.19, 412.56 -209.4, 414.13 -205.13 C415.7 -200.85, 414.93 -190.86, 415.54 -184.96 C416.14 -179.06, 417.27 -174.29, 417.76 -169.72 C418.25 -165.15, 419.76 -164.24, 418.49 -157.54 C417.22 -150.83, 394.2 -133.81, 410.14 -129.48 C426.07 -125.15, 494.15 -131.34, 514.1 -131.55 C534.05 -131.76, 524.93 -131.34, 529.83 -130.73 C534.74 -130.11, 538.65 -129.22, 543.52 -127.87 C548.4 -126.52, 555.39 -125.46, 559.09 -122.61 C562.79 -119.76, 563.54 -113.56, 565.74 -110.78 C567.94 -108, 569.72 -114.09, 572.3 -105.94 C574.87 -97.8, 579.52 -69.73, 581.18 -61.93 C582.85 -54.12, 581.24 -60.28, 582.28 -59.11 C583.32 -57.94, 585.78 -55.68, 587.41 -54.91 C589.05 -54.14, 583.52 -55.43, 592.07 -54.48 C600.62 -53.53, 627.72 -51.28, 638.74 -49.23 C649.77 -47.18, 651.72 -44.76, 658.2 -42.19 C664.68 -39.61, 672.92 -36, 677.63 -33.78 C682.33 -31.57, 683.47 -32.33, 686.41 -28.9 C689.36 -25.47, 690.93 -18.51, 695.29 -13.19 C699.64 -7.87, 709.24 -1.82, 712.54 3.02 C715.84 7.86, 714.76 11.07, 715.1 15.83 C715.44 20.6, 714.67 28, 714.59 31.62 C714.52 35.24, 715.43 36.07, 714.64 37.55 C713.85 39.03, 711.71 39.3, 709.85 40.48 C707.98 41.65, 706.54 44.44, 703.45 44.61 C700.35 44.78, 695.27 42.07, 691.3 41.5 C687.33 40.93, 682.64 41.29, 679.63 41.2 C676.62 41.1, 681.99 36.18, 673.26 40.93 C664.53 45.68, 637.87 65.25, 627.24 69.72 C616.62 74.2, 614.4 68.49, 609.52 67.76 C604.63 67.03, 601.79 66.65, 597.94 65.34 C594.09 64.03, 592.9 63.79, 586.4 59.92 C579.9 56.05, 564.59 45.97, 558.95 42.11 C553.32 38.24, 557.23 37.58, 552.56 36.75 C547.89 35.91, 541.69 37.09, 530.94 37.1 C520.18 37.11, 499.7 36.62, 488.02 36.82 C476.34 37.02, 477.59 38.66, 460.85 38.29 C444.11 37.93, 402.97 34, 387.57 34.64 C372.18 35.29, 378.52 39.1, 368.49 42.17 C358.46 45.25, 343.56 48.99, 327.39 53.09 C311.22 57.2, 283.44 64.03, 271.46 66.83 C259.49 69.62, 260.85 69.24, 255.54 69.86 C250.22 70.47, 244.11 70.43, 239.57 70.49 C235.02 70.56, 231.35 70.74, 228.27 70.25 C225.2 69.76, 225.1 70.21, 221.12 67.53 C217.13 64.86, 211.86 57.25, 204.36 54.2 C196.86 51.15, 184.6 51.55, 176.1 49.22 C167.61 46.89, 162.77 41.21, 153.36 40.22 C143.95 39.23, 128.78 41.89, 119.67 43.27 C110.56 44.66, 104.13 47.48, 98.7 48.53 C93.28 49.58, 89.93 49.99, 87.1 49.58 C84.26 49.17, 85.21 47.92, 81.71 46.09 C78.2 44.26, 68.68 40.51, 66.05 38.6 C63.43 36.69, 66.43 35.81, 65.96 34.61 C65.5 33.41, 63.64 35.67, 63.28 31.4 C62.92 27.13, 67.49 12.37, 63.8 9 C60.12 5.62, 49.47 10.76, 41.19 11.16 C32.9 11.57, 19.57 11.03, 14.1 11.45 C8.64 11.87, 10.08 14.19, 8.38 13.68 C6.69 13.18, 4.25 10.24, 3.93 8.41 C3.61 6.58, 6.32 3.79, 6.47 2.72 C6.62 1.65, 5.02 2.11, 4.85 1.98" stroke="none" stroke-width="0" fill="#ee00ff" fill-rule="evenodd"></path><path fill="#1e1e1e" d="M -0.33,-1.52 Q -0.33,-1.52 1.70,-1.95 3.74,-2.37 8.03,-4.12 12.32,-5.88 17.03,-8.05 21.74,-10.22 26.82,-12.79 31.90,-15.36 38.02,-18.64 44.15,-21.92 48.70,-24.48 53.25,-27.05 56.72,-29.01 60.18,-30.97 66.42,-34.71 72.66,-38.44 79.90,-42.84 87.13,-47.24 92.49,-50.49 97.85,-53.74 104.76,-57.75 111.67,-61.76 118.36,-65.54 125.06,-69.31 129.36,-71.95 133.66,-74.59 136.99,-76.89 140.32,-79.19 143.39,-81.52 146.45,-83.85 148.78,-85.99 151.11,-88.14 152.70,-90.21 154.30,-92.29 155.65,-94.61 157.01,-96.92 158.16,-99.43 159.32,-101.94 160.49,-104.68 161.67,-107.43 162.86,-110.22 164.05,-113.02 165.33,-115.95 166.62,-118.87 168.12,-121.90 169.62,-124.94 172.08,-129.31 174.54,-133.68 176.39,-136.68 178.23,-139.68 180.05,-142.02 181.87,-144.36 183.64,-146.28 185.41,-148.19 186.87,-149.60 188.33,-151.01 190.07,-152.11 191.82,-153.21 194.50,-153.97 197.18,-154.72 199.88,-155.14 202.58,-155.56 205.24,-155.73 207.91,-155.90 211.21,-155.97 214.51,-156.04 217.53,-156.07 220.55,-156.09 224.01,-155.88 227.47,-155.66 231.38,-155.18 235.30,-154.69 238.44,-154.27 241.59,-153.84 244.24,-153.51 246.89,-153.18 249.30,-152.95 251.71,-152.72 253.85,-152.77 255.99,-152.82 257.86,-153.60 259.72,-154.39 261.79,-156.46 263.85,-158.53 266.50,-162.03 269.16,-165.53 272.41,-169.96 275.66,-174.39 279.29,-179.28 282.93,-184.17 286.87,-189.26 290.81,-194.34 294.54,-198.88 298.27,-203.42 301.51,-207.00 304.76,-210.58 307.50,-213.37 310.25,-216.16 312.12,-218.05 313.99,-219.94 315.33,-221.27 316.66,-222.61 318.44,-223.80 320.22,-225.00 322.92,-225.80 325.62,-226.61 329.56,-226.93 333.50,-227.26 338.26,-227.38 343.02,-227.51 347.28,-227.56 351.53,-227.61 356.73,-227.55 361.93,-227.49 367.94,-227.07 373.95,-226.64 378.64,-225.85 383.33,-225.05 387.46,-223.83 391.59,-222.60 395.27,-220.95 398.96,-219.30 401.88,-217.05 404.80,-214.80 407.13,-211.78 409.46,-208.77 411.35,-204.89 413.24,-201.00 414.69,-196.14 416.13,-191.28 417.03,-185.70 417.92,-180.11 418.13,-173.97 418.34,-167.83 418.02,-162.27 417.71,-156.72 417.14,-152.35 416.57,-147.99 415.98,-144.64 415.39,-141.28 414.94,-138.97 414.48,-136.66 414.33,-135.16 414.17,-133.67 416.68,-133.01 419.19,-132.34 424.35,-132.28 429.50,-132.21 436.32,-132.28 443.14,-132.35 449.38,-132.52 455.62,-132.68 462.55,-132.82 469.48,-132.95 475.59,-133.00 481.69,-133.05 487.50,-133.07 493.30,-133.08 498.68,-133.03 504.05,-132.99 509.08,-132.76 514.10,-132.52 519.19,-132.00 524.27,-131.48 528.36,-130.80 532.44,-130.12 536.25,-129.28 540.06,-128.44 545.17,-126.65 550.29,-124.85 555.42,-121.41 560.54,-117.96 563.91,-114.31 567.28,-110.65 570.51,-103.26 573.74,-95.87 575.73,-90.17 577.72,-84.47 579.10,-80.05 580.47,-75.63 581.53,-71.93 582.59,-68.23 583.45,-65.43 584.31,-62.63 585.52,-60.67 586.72,-58.70 588.40,-57.35 590.09,-55.99 593.63,-55.14 597.17,-54.28 602.12,-53.52 607.06,-52.77 612.60,-52.10 618.14,-51.43 623.66,-50.80 629.18,-50.18 634.82,-49.25 640.46,-48.33 645.66,-47.36 650.86,-46.39 654.78,-45.24 658.70,-44.09 662.62,-42.37 666.53,-40.66 670.18,-38.60 673.83,-36.53 677.29,-34.12 680.76,-31.70 683.77,-29.10 686.78,-26.49 689.85,-23.44 692.92,-20.38 695.73,-17.27 698.54,-14.16 700.99,-11.06 703.44,-7.95 705.68,-4.69 707.93,-1.43 709.35,0.82 710.77,3.08 711.81,4.90 712.86,6.73 713.98,9.69 715.11,12.66 715.93,16.31 716.74,19.96 717.16,22.87 717.58,25.78 717.77,27.85 717.97,29.93 717.73,31.96 717.49,34.00 716.77,35.72 716.06,37.45 715.14,38.74 714.21,40.03 713.09,41.10 711.96,42.17 710.62,43.08 709.29,43.99 707.60,44.67 705.91,45.36 703.90,45.69 701.89,46.02 698.15,45.56 694.41,45.09 691.67,44.38 688.93,43.67 686.78,43.02 684.63,42.38 682.94,41.98 681.24,41.58 679.78,41.39 678.31,41.21 676.79,41.25 675.27,41.30 673.32,41.95 671.36,42.60 668.08,44.63 664.80,46.66 660.98,49.23 657.15,51.81 653.42,54.30 649.68,56.79 646.08,59.20 642.48,61.61 639.68,63.49 636.89,65.37 634.83,66.69 632.78,68.01 631.43,68.93 630.08,69.85 629.04,70.48 628.00,71.11 626.00,71.45 624.00,71.80 621.89,71.87 619.77,71.94 617.46,71.86 615.15,71.79 612.95,71.50 610.75,71.22 608.39,70.64 606.03,70.05 603.71,69.28 601.38,68.50 598.85,67.43 596.31,66.35 593.74,65.04 591.18,63.73 588.89,62.39 586.61,61.04 584.40,59.59 582.19,58.13 580.12,56.65 578.05,55.16 575.88,53.61 573.71,52.06 571.69,50.64 569.68,49.22 567.99,48.03 566.30,46.83 564.55,45.67 562.80,44.51 561.09,43.57 559.37,42.63 557.52,41.84 555.66,41.05 551.82,40.01 547.99,38.98 544.44,38.29 540.89,37.59 537.66,37.16 534.44,36.74 531.11,36.55 527.78,36.37 524.35,36.29 520.91,36.21 516.89,36.18 512.88,36.14 508.26,36.13 503.65,36.11 498.84,36.11 494.03,36.10 489.07,36.12 484.12,36.14 479.72,36.33 475.31,36.52 470.93,36.79 466.54,37.05 462.67,37.19 458.81,37.33 455.54,37.39 452.26,37.45 448.86,37.48 445.46,37.50 442.86,37.51 440.26,37.52 438.80,37.64 437.34,37.75 432.97,37.73 428.61,37.70 424.02,37.68 419.43,37.65 414.68,37.64 409.94,37.62 407.11,37.61 404.28,37.60 401.48,37.59 398.67,37.58 395.09,37.66 391.51,37.74 387.33,38.20 383.16,38.65 379.18,39.37 375.21,40.08 371.63,41.01 368.04,41.93 364.49,43.00 360.93,44.07 358.22,44.95 355.51,45.82 352.24,46.79 348.98,47.75 344.69,49.02 340.41,50.28 336.31,51.56 332.21,52.83 328.76,53.87 325.31,54.90 321.78,55.85 318.25,56.80 313.46,58.03 308.68,59.27 305.08,60.27 301.48,61.28 298.55,62.16 295.63,63.04 292.71,63.91 289.78,64.77 286.85,65.55 283.92,66.34 281.37,67.02 278.82,67.71 276.27,68.37 273.72,69.02 271.28,69.55 268.84,70.08 266.40,70.50 263.97,70.92 261.60,71.20 259.24,71.49 256.92,71.64 254.59,71.79 252.07,71.86 249.55,71.92 247.06,71.95 244.58,71.98 241.86,71.87 239.15,71.77 236.43,71.42 233.72,71.08 230.50,70.21 227.28,69.33 225.26,68.57 223.24,67.81 221.67,67.17 220.09,66.53 218.74,65.94 217.38,65.36 215.91,64.61 214.44,63.86 212.91,63.04 211.38,62.23 210.01,61.52 208.64,60.82 207.44,60.26 206.23,59.69 205.24,59.29 204.25,58.89 203.15,58.54 202.05,58.19 200.55,57.80 199.06,57.41 196.85,56.80 194.64,56.18 192.20,55.53 189.76,54.87 187.74,54.32 185.71,53.77 183.16,53.03 180.61,52.28 178.91,51.78 177.22,51.28 175.75,50.78 174.28,50.29 172.64,49.66 171.00,49.03 169.23,48.34 167.47,47.65 165.80,46.95 164.13,46.26 162.64,45.66 161.15,45.06 159.88,44.63 158.61,44.21 157.57,43.91 156.53,43.60 154.02,43.19 151.51,42.77 149.44,42.56 147.37,42.36 145.27,42.23 143.17,42.10 141.28,42.07 139.40,42.04 137.75,42.07 136.10,42.10 134.85,42.17 133.59,42.24 131.90,42.25 130.22,42.25 126.58,42.38 122.93,42.52 120.26,42.95 117.58,43.39 115.17,44.05 112.75,44.72 110.75,45.46 108.74,46.21 107.39,46.88 106.04,47.55 104.91,48.14 103.78,48.72 102.35,49.28 100.92,49.83 96.69,50.05 92.47,50.27 89.80,50.13 87.14,50.00 85.19,49.75 83.24,49.51 81.18,48.81 79.11,48.10 77.63,47.42 76.14,46.75 74.96,46.09 73.78,45.44 72.69,44.83 71.61,44.23 70.61,43.70 69.62,43.18 67.89,42.13 66.16,41.09 64.80,39.71 63.45,38.33 62.45,36.43 61.44,34.53 61.08,33.11 60.71,31.70 60.51,30.13 60.30,28.56 60.21,27.08 60.13,25.61 60.11,24.10 60.09,22.59 60.10,21.06 60.11,19.52 60.11,18.12 60.11,16.71 60.08,15.53 60.06,14.36 59.98,12.72 59.90,11.09 58.48,11.56 57.05,12.04 55.30,12.05 53.55,12.05 52.28,12.02 51.01,11.98 49.59,11.93 48.16,11.88 46.76,11.84 45.36,11.80 44.25,11.82 43.15,11.85 41.43,12.04 39.71,12.22 38.65,12.36 37.59,12.50 36.35,12.69 35.12,12.88 33.71,13.09 32.31,13.31 30.68,13.52 29.06,13.74 27.60,13.96 26.15,14.18 25.03,14.41 23.90,14.65 22.23,15.03 20.55,15.40 19.17,15.72 17.80,16.03 16.70,16.29 15.60,16.55 14.36,16.65 13.13,16.75 11.22,16.38 9.32,16.01 7.85,15.17 6.38,14.34 5.45,13.45 4.51,12.57 3.80,11.64 3.09,10.72 2.52,9.27 1.95,7.81 1.85,6.50 1.74,5.19 1.49,4.04 1.23,2.89 1.38,2.81 1.53,2.73 1.15,2.30 0.76,1.88 0.53,1.35 0.29,0.82 0.24,0.25 0.19,-0.32 0.32,-0.88 0.46,-1.44 0.77,-1.92 1.07,-2.41 1.52,-2.78 1.96,-3.14 2.50,-3.35 3.04,-3.55 3.62,-3.57 4.19,-3.59 4.75,-3.42 5.30,-3.26 5.77,-2.93 6.24,-2.59 6.58,-2.13 6.92,-1.66 7.09,-1.11 7.27,-0.57 7.26,0.00 7.25,0.58 7.05,1.12 6.86,1.66 6.50,2.11 6.14,2.57 5.66,2.88 5.18,3.19 4.62,3.34 4.06,3.48 3.49,3.44 2.91,3.40 2.38,3.17 1.85,2.95 1.42,2.57 0.98,2.19 0.70,1.69 0.41,1.19 0.30,0.62 0.18,0.06 0.26,-0.50 0.33,-1.07 0.58,-1.59 0.83,-2.11 1.24,-2.52 1.64,-2.93 2.16,-3.19 2.67,-3.45 3.24,-3.53 3.81,-3.62 4.38,-3.51 4.94,-3.41 5.45,-3.13 5.95,-2.85 5.95,-2.85 5.95,-2.85 7.09,-0.09 8.23,2.66 8.49,3.79 8.74,4.93 8.95,6.16 9.16,7.40 9.91,8.30 10.67,9.19 11.60,9.75 12.54,10.31 13.77,10.35 15.00,10.38 16.14,10.24 17.28,10.10 18.41,9.98 19.54,9.87 21.20,9.63 22.86,9.39 24.06,9.17 25.27,8.94 26.70,8.67 28.13,8.41 29.71,8.07 31.29,7.73 32.70,7.43 34.12,7.13 35.46,6.87 36.81,6.61 38.01,6.45 39.21,6.29 41.10,6.16 42.99,6.04 44.18,6.00 45.36,5.97 46.76,5.93 48.16,5.89 49.59,5.84 51.01,5.78 52.28,5.75 53.55,5.71 55.31,5.72 57.06,5.73 58.22,5.77 59.38,5.80 60.62,5.97 61.86,6.14 63.24,7.09 64.63,8.03 65.03,9.56 65.43,11.08 65.36,12.71 65.28,14.35 65.26,15.52 65.24,16.69 65.25,18.08 65.26,19.47 65.31,20.96 65.35,22.46 65.41,23.86 65.47,25.26 65.55,26.52 65.64,27.79 66.09,30.11 66.54,32.43 67.13,33.82 67.72,35.21 68.42,36.20 69.12,37.19 70.51,38.29 71.91,39.38 72.88,40.04 73.84,40.70 74.86,41.43 75.88,42.15 76.83,42.87 77.79,43.58 78.98,44.29 80.17,45.00 81.93,45.58 83.69,46.17 85.46,46.42 87.23,46.66 89.74,46.67 92.24,46.68 95.95,46.38 99.66,46.09 100.98,45.69 102.31,45.30 103.51,44.88 104.71,44.46 106.17,43.92 107.63,43.38 109.74,42.52 111.85,41.66 114.40,40.86 116.95,40.05 119.83,39.45 122.70,38.85 126.46,38.52 130.22,38.19 131.91,38.20 133.60,38.21 134.86,38.28 136.12,38.36 137.78,38.40 139.43,38.45 141.33,38.45 143.23,38.46 145.38,38.40 147.54,38.35 149.81,38.32 152.08,38.30 153.89,38.52 155.70,38.74 156.86,39.12 158.02,39.51 159.05,39.95 160.08,40.40 161.38,40.97 162.68,41.54 164.12,42.20 165.56,42.87 167.16,43.56 168.76,44.25 170.56,44.91 172.36,45.58 173.98,46.23 175.60,46.89 176.93,47.48 178.27,48.07 179.85,48.64 181.44,49.21 183.97,49.84 186.50,50.47 188.54,50.90 190.58,51.33 193.04,51.80 195.50,52.27 197.83,52.66 200.16,53.05 201.89,53.48 203.62,53.90 204.89,54.42 206.15,54.94 207.15,55.49 208.16,56.05 209.33,56.74 210.51,57.43 211.83,58.22 213.15,59.00 214.66,59.86 216.17,60.71 217.55,61.53 218.92,62.34 220.15,63.08 221.37,63.81 222.78,64.57 224.19,65.33 226.08,66.07 227.98,66.80 231.02,67.64 234.05,68.48 236.65,68.81 239.25,69.14 241.90,69.25 244.55,69.35 247.02,69.33 249.48,69.30 251.95,69.24 254.42,69.17 256.67,69.03 258.93,68.88 261.23,68.61 263.52,68.33 265.90,67.92 268.29,67.52 270.68,67.00 273.07,66.47 275.60,65.82 278.13,65.18 280.69,64.49 283.25,63.80 286.14,63.02 289.04,62.25 291.95,61.39 294.87,60.53 297.82,59.64 300.77,58.75 304.40,57.74 308.02,56.73 312.79,55.49 317.56,54.26 321.06,53.32 324.55,52.39 327.99,51.35 331.43,50.32 335.55,49.04 339.66,47.75 343.95,46.49 348.23,45.23 351.46,44.27 354.70,43.31 357.43,42.43 360.17,41.54 363.77,40.45 367.38,39.36 371.06,38.41 374.74,37.46 378.80,36.73 382.87,35.99 387.15,35.52 391.44,35.05 395.06,34.96 398.67,34.87 401.48,34.86 404.28,34.85 407.11,34.84 409.94,34.82 414.68,34.81 419.43,34.79 424.02,34.77 428.61,34.74 432.97,34.71 437.33,34.68 438.79,34.79 440.25,34.89 442.84,34.88 445.44,34.87 448.83,34.85 452.22,34.82 455.47,34.76 458.72,34.70 462.55,34.56 466.38,34.43 470.79,34.16 475.20,33.89 479.65,33.70 484.11,33.51 489.07,33.49 494.03,33.46 498.84,33.47 503.66,33.47 508.28,33.49 512.90,33.50 516.93,33.53 520.97,33.56 524.45,33.64 527.93,33.71 531.36,33.89 534.78,34.08 538.10,34.51 541.41,34.94 545.05,35.64 548.70,36.35 552.72,37.42 556.74,38.50 558.74,39.35 560.75,40.21 562.51,41.24 564.27,42.27 566.07,43.45 567.87,44.63 569.53,45.84 571.20,47.05 573.23,48.47 575.26,49.89 577.43,51.44 579.61,52.99 581.63,54.43 583.66,55.88 585.82,57.29 587.98,58.70 590.20,59.99 592.42,61.28 594.90,62.53 597.39,63.78 599.83,64.78 602.27,65.79 604.49,66.49 606.71,67.19 608.90,67.69 611.09,68.18 613.14,68.37 615.18,68.57 617.38,68.54 619.59,68.50 621.54,68.36 623.50,68.22 625.99,67.70 628.48,67.19 629.88,66.45 631.28,65.71 633.30,64.39 635.32,63.07 638.10,61.16 640.88,59.26 644.46,56.81 648.04,54.36 651.73,51.83 655.43,49.29 659.26,46.62 663.09,43.95 666.66,41.66 670.22,39.38 672.71,38.48 675.20,37.59 677.06,37.63 678.91,37.67 680.50,38.01 682.08,38.35 683.78,38.84 685.48,39.33 687.59,39.86 689.70,40.40 692.25,40.94 694.81,41.48 698.04,41.78 701.27,42.08 702.87,41.80 704.46,41.52 705.81,41.05 707.15,40.57 708.31,39.91 709.47,39.25 710.47,38.51 711.48,37.76 712.33,36.90 713.19,36.03 713.91,34.78 714.63,33.53 714.94,31.84 715.26,30.14 715.11,28.15 714.96,26.15 714.55,23.34 714.15,20.53 713.38,17.06 712.62,13.60 711.57,10.82 710.52,8.04 709.53,6.26 708.55,4.48 707.16,2.27 705.77,0.05 703.57,-3.13 701.37,-6.33 698.98,-9.37 696.60,-12.40 693.83,-15.46 691.07,-18.52 688.06,-21.52 685.06,-24.51 682.16,-27.03 679.25,-29.55 675.89,-31.90 672.53,-34.25 669.00,-36.25 665.47,-38.25 661.71,-39.91 657.96,-41.57 654.17,-42.69 650.38,-43.81 645.21,-44.77 640.04,-45.74 634.46,-46.65 628.88,-47.57 623.35,-48.19 617.83,-48.82 612.24,-49.50 606.66,-50.18 601.59,-50.95 596.52,-51.73 592.52,-52.83 588.51,-53.92 586.51,-55.61 584.50,-57.31 583.15,-59.58 581.81,-61.84 580.94,-64.67 580.06,-67.50 579.01,-71.18 577.96,-74.85 576.60,-79.22 575.24,-83.60 573.28,-89.21 571.32,-94.82 568.31,-101.87 565.31,-108.91 562.18,-112.34 559.05,-115.78 554.22,-119.07 549.39,-122.36 544.44,-124.10 539.48,-125.84 535.74,-126.66 532.00,-127.47 528.00,-128.13 524.00,-128.80 518.99,-129.30 513.98,-129.80 509.01,-130.01 504.03,-130.23 498.68,-130.24 493.32,-130.26 487.52,-130.21 481.73,-130.16 475.64,-130.06 469.55,-129.97 462.64,-129.76 455.72,-129.55 449.46,-129.30 443.21,-129.04 436.36,-128.85 429.52,-128.65 424.25,-128.55 418.99,-128.44 416.85,-128.50 414.71,-128.56 413.23,-129.19 411.76,-129.82 411.25,-130.95 410.74,-132.08 410.95,-133.14 411.16,-134.20 411.54,-135.68 411.91,-137.17 412.35,-139.45 412.80,-141.74 413.38,-145.04 413.96,-148.33 414.52,-152.60 415.08,-156.87 415.40,-162.30 415.71,-167.74 415.52,-173.72 415.33,-179.70 414.47,-185.12 413.61,-190.54 412.24,-195.20 410.86,-199.86 409.11,-203.52 407.36,-207.18 405.26,-209.96 403.16,-212.73 400.51,-214.82 397.87,-216.90 394.35,-218.48 390.83,-220.07 386.85,-221.25 382.88,-222.44 378.32,-223.21 373.76,-223.98 367.83,-224.40 361.90,-224.81 356.73,-224.86 351.56,-224.91 347.33,-224.84 343.10,-224.78 338.41,-224.64 333.72,-224.50 330.06,-224.20 326.40,-223.90 324.09,-223.23 321.78,-222.56 320.20,-221.54 318.61,-220.53 317.24,-219.31 315.86,-218.09 313.99,-216.20 312.12,-214.31 309.41,-211.57 306.71,-208.82 303.50,-205.29 300.30,-201.75 296.59,-197.24 292.89,-192.73 288.96,-187.67 285.04,-182.61 281.41,-177.72 277.78,-172.83 274.52,-168.38 271.26,-163.94 268.47,-160.29 265.68,-156.65 263.23,-154.32 260.77,-151.99 258.43,-151.09 256.10,-150.20 253.78,-150.15 251.46,-150.10 249.01,-150.33 246.57,-150.56 243.90,-150.89 241.24,-151.22 238.11,-151.64 234.97,-152.05 231.14,-152.52 227.30,-152.99 223.94,-153.20 220.58,-153.41 217.57,-153.37 214.57,-153.33 211.33,-153.25 208.10,-153.17 205.55,-152.99 203.01,-152.81 200.48,-152.40 197.94,-151.99 195.61,-151.34 193.28,-150.69 191.74,-149.84 190.20,-148.99 188.77,-147.70 187.34,-146.40 185.64,-144.58 183.94,-142.75 182.20,-140.52 180.47,-138.30 178.65,-135.34 176.83,-132.39 174.40,-128.08 171.98,-123.77 170.50,-120.79 169.03,-117.81 167.75,-114.90 166.46,-111.99 165.27,-109.19 164.08,-106.40 162.89,-103.61 161.70,-100.83 160.49,-98.21 159.27,-95.59 157.83,-93.14 156.38,-90.69 154.64,-88.44 152.89,-86.20 150.47,-83.98 148.04,-81.76 144.93,-79.39 141.82,-77.03 138.43,-74.69 135.04,-72.35 130.69,-69.68 126.35,-67.01 119.67,-63.24 113.00,-59.48 106.11,-55.48 99.22,-51.47 93.87,-48.22 88.52,-44.97 81.28,-40.56 74.04,-36.15 67.77,-32.39 61.51,-28.63 58.05,-26.66 54.58,-24.69 50.01,-22.10 45.44,-19.51 39.30,-16.19 33.16,-12.88 28.05,-10.26 22.94,-7.64 18.19,-5.41 13.44,-3.17 8.92,-1.29 4.40,0.58 2.36,1.05 0.33,1.52 0.14,1.54 -0.03,1.56 -0.22,1.53 -0.41,1.51 -0.58,1.43 -0.76,1.36 -0.91,1.25 -1.06,1.14 -1.18,1.00 -1.31,0.85 -1.39,0.68 -1.47,0.51 -1.51,0.33 -1.55,0.14 -1.55,-0.03 -1.54,-0.22 -1.49,-0.40 -1.44,-0.59 -1.35,-0.75 -1.26,-0.92 -1.13,-1.05 -1.00,-1.19 -0.85,-1.30 -0.69,-1.40 -0.51,-1.46 -0.33,-1.52 -0.33,-1.52 L -0.33,-1.52 Z"></path></g><g transform="translate(229.90121906747743 145.82316153364883) rotate(0 -3.621645169757471 8.815202670448258)" stroke="none"><path fill="#1e1e1e" d="M 8.46,5.21 Q 8.46,5.21 7.46,7.20 6.45,9.20 5.42,13.69 4.40,18.19 4.29,18.45 4.18,18.71 3.69,20.50 3.20,22.29 2.16,23.83 1.12,25.37 -0.34,26.50 -1.82,27.63 -3.58,28.22 -5.34,28.82 -7.19,28.83 -9.05,28.83 -10.81,28.24 -12.57,27.66 -14.06,26.54 -15.54,25.42 -16.58,23.88 -17.63,22.35 -18.13,20.56 -18.63,18.77 -18.54,16.92 -18.44,15.06 -17.76,13.33 -17.08,11.61 -15.88,10.19 -14.68,8.77 -13.09,7.81 -11.50,6.84 -9.69,6.44 -7.88,6.04 -6.03,6.23 -4.18,6.43 -2.49,7.20 -0.81,7.98 0.53,9.25 1.89,10.53 2.76,12.17 3.64,13.80 3.94,15.64 4.25,17.47 3.95,19.30 3.65,21.14 2.79,22.78 1.92,24.42 0.58,25.70 -0.76,26.98 -2.44,27.77 -4.13,28.55 -5.97,28.76 -7.82,28.96 -9.63,28.57 -11.45,28.17 -13.04,27.22 -14.64,26.27 -15.84,24.85 -17.05,23.44 -17.74,21.72 -18.43,19.99 -18.54,18.14 -18.64,16.29 -18.64,16.29 -18.64,16.29 -17.05,11.39 -15.46,6.50 -13.29,2.44 -11.12,-1.62 -9.79,-3.41 -8.46,-5.21 -7.71,-6.15 -6.97,-7.08 -6.02,-7.82 -5.07,-8.55 -3.97,-9.03 -2.87,-9.51 -1.69,-9.72 -0.51,-9.92 0.67,-9.84 1.87,-9.76 3.01,-9.39 4.15,-9.03 5.17,-8.40 6.19,-7.77 7.03,-6.92 7.87,-6.06 8.48,-5.03 9.10,-4.00 9.44,-2.85 9.79,-1.71 9.85,-0.51 9.91,0.68 9.69,1.86 9.46,3.03 8.96,4.12 8.46,5.21 8.46,5.21 L 8.46,5.21 Z"></path></g><g transform="translate(382.99484647684574 138.25892334594784) rotate(0 -5.642191937307189 12.763276733641248)" stroke="none"><path fill="#1e1e1e" d="M 9.14,4.13 Q 9.14,4.13 8.13,6.84 7.12,9.55 5.40,13.70 3.67,17.86 1.28,24.98 -1.10,32.10 -2.44,33.53 -3.78,34.96 -5.51,35.89 -7.23,36.82 -9.17,37.15 -11.10,37.48 -13.03,37.17 -14.97,36.87 -16.71,35.96 -18.45,35.05 -19.80,33.64 -21.16,32.22 -21.99,30.45 -22.83,28.68 -23.05,26.73 -23.27,24.78 -22.87,22.86 -22.46,20.95 -21.46,19.26 -20.46,17.58 -18.97,16.30 -17.48,15.02 -15.67,14.28 -13.85,13.55 -11.89,13.43 -9.94,13.31 -8.05,13.82 -6.15,14.34 -4.52,15.43 -2.90,16.52 -1.70,18.07 -0.50,19.62 0.12,21.48 0.76,23.33 0.77,25.29 0.78,27.25 0.17,29.11 -0.44,30.97 -1.61,32.54 -2.79,34.11 -4.40,35.22 -6.02,36.33 -7.91,36.86 -9.79,37.40 -11.75,37.30 -13.71,37.21 -15.53,36.50 -17.36,35.78 -18.86,34.52 -20.36,33.26 -21.38,31.59 -22.40,29.91 -22.83,28.00 -23.27,26.09 -23.07,24.14 -22.87,22.19 -22.05,20.41 -21.24,18.62 -21.24,18.63 -21.24,18.63 -21.03,17.49 -20.81,16.36 -18.84,12.53 -16.87,8.69 -14.37,4.83 -11.87,0.97 -10.51,-1.57 -9.14,-4.13 -8.52,-5.16 -7.89,-6.19 -7.03,-7.05 -6.17,-7.90 -5.14,-8.53 -4.10,-9.15 -2.95,-9.51 -1.79,-9.87 -0.58,-9.94 0.61,-10.01 1.80,-9.79 2.99,-9.57 4.10,-9.08 5.20,-8.58 6.15,-7.83 7.10,-7.08 7.85,-6.13 8.59,-5.18 9.09,-4.07 9.58,-2.97 9.80,-1.78 10.01,-0.59 9.94,0.61 9.86,1.82 9.50,2.97 9.14,4.13 9.14,4.13 L 9.14,4.13 Z"></path></g><g transform="translate(154.92629790655963 224.4670983420404) rotate(0 131.45681543706343 13.175403847205757)" stroke="none"><path fill="#1e1e1e" d="M 0,-1.59 Q 0,-1.59 1.67,-1.65 3.35,-1.70 6.26,-1.65 9.17,-1.59 13.10,-1.56 17.04,-1.52 20.74,-1.49 24.43,-1.46 28.41,-1.44 32.38,-1.42 37.43,-1.40 42.48,-1.39 47.25,-1.38 52.02,-1.37 55.97,-1.36 59.92,-1.35 63.74,-1.34 67.55,-1.34 70.57,-1.29 73.58,-1.24 77.66,-1.05 81.74,-0.86 86.03,-0.61 90.33,-0.36 93.58,-0.07 96.82,0.22 100.35,0.58 103.88,0.95 106.99,1.23 110.10,1.52 113.35,1.78 116.60,2.04 119.88,2.28 123.16,2.53 125.77,2.70 128.38,2.87 131.09,3.01 133.80,3.16 136.30,3.24 138.80,3.33 140.93,3.37 143.07,3.40 146.40,3.42 149.74,3.44 153.32,3.44 156.89,3.45 159.75,3.45 162.62,3.46 165.64,3.46 168.67,3.46 171.24,3.46 173.80,3.46 177.11,3.46 180.42,3.46 184.02,3.46 187.63,3.46 190.08,3.46 192.53,3.46 195.62,3.46 198.71,3.46 201.90,3.42 205.09,3.38 207.66,3.28 210.22,3.18 213.32,3.05 216.41,2.92 219.18,2.81 221.95,2.69 224.62,2.65 227.29,2.60 230.02,2.58 232.76,2.56 234.72,2.51 236.69,2.47 238.99,2.48 241.29,2.48 243.68,2.49 246.06,2.49 247.86,2.51 249.65,2.52 251.67,2.78 253.70,3.03 255.49,3.34 257.29,3.66 258.51,3.88 259.72,4.11 261.26,4.47 262.80,4.83 263.83,5.72 264.86,6.60 265.06,8.14 265.26,9.67 264.61,11.49 263.95,13.31 263.07,15.16 262.18,17.01 261.56,17.97 260.95,18.93 260.25,19.80 259.55,20.66 258.79,21.42 258.03,22.17 257.10,22.85 256.17,23.53 254.25,24.34 252.34,25.15 250.47,25.66 248.60,26.18 246.37,26.47 244.14,26.76 241.96,27.00 239.78,27.23 237.65,27.40 235.53,27.57 233.44,27.64 231.35,27.71 229.04,27.70 226.72,27.69 224.66,27.68 222.59,27.68 220.57,27.68 218.54,27.68 216.62,27.70 214.70,27.72 212.71,27.61 210.71,27.50 208.50,27.21 206.29,26.93 204.62,26.79 202.96,26.66 201.59,26.60 200.22,26.54 198.53,26.34 196.85,26.14 194.84,25.84 192.84,25.53 190.78,25.26 188.72,24.98 186.86,24.78 185.00,24.58 183.45,24.50 181.90,24.41 180.05,24.23 178.20,24.05 176.44,23.88 174.69,23.70 173.18,23.62 171.68,23.54 169.85,23.35 168.01,23.17 166.41,23.04 164.81,22.91 163.63,22.92 162.46,22.92 160.48,23.01 158.51,23.10 156.30,23.17 154.08,23.24 152.65,23.23 151.22,23.23 149.53,23.18 147.85,23.14 146.25,23.11 144.64,23.09 143.16,23.09 141.68,23.10 140.35,23.12 139.01,23.14 137.67,23.15 136.33,23.17 134.91,23.17 133.48,23.18 131.62,23.10 129.77,23.02 127.81,22.94 125.86,22.85 123.97,22.80 122.08,22.75 120.11,22.70 118.13,22.65 116.30,22.73 114.47,22.80 112.51,22.91 110.55,23.02 108.32,23.14 106.10,23.25 103.64,23.46 101.17,23.66 98.93,23.89 96.69,24.13 94.31,24.39 91.93,24.66 89.55,24.94 87.18,25.22 85.35,25.49 83.51,25.76 81.61,26.00 79.70,26.23 77.90,26.47 76.09,26.71 74.36,26.91 72.63,27.11 70.67,27.23 68.71,27.36 67.04,27.52 65.38,27.68 63.47,27.80 61.55,27.91 59.98,28.02 58.41,28.13 57.02,28.22 55.64,28.31 54.14,28.36 52.64,28.41 51.10,28.43 49.55,28.46 48.21,28.51 46.87,28.55 45.65,28.59 44.43,28.63 43.32,28.59 42.22,28.56 40.31,28.30 38.41,28.04 37.28,27.83 36.14,27.62 34.90,27.33 33.66,27.04 32.49,26.73 31.32,26.41 30.21,26.04 29.10,25.68 27.54,25.16 25.97,24.64 24.54,24.08 23.11,23.53 21.73,23.01 20.34,22.50 18.94,21.90 17.55,21.31 16.50,20.85 15.45,20.39 14.43,19.79 13.41,19.19 12.28,18.29 11.16,17.38 10.27,16.64 9.38,15.90 8.45,14.93 7.52,13.96 6.60,13.15 5.68,12.33 4.85,11.55 4.03,10.77 3.06,10.11 2.10,9.45 0.49,8.44 -1.10,7.43 -1.47,6.97 -1.83,6.52 -2.04,5.96 -2.24,5.41 -2.26,4.82 -2.27,4.24 -2.10,3.67 -1.93,3.11 -1.58,2.63 -1.24,2.15 -0.76,1.81 -0.29,1.47 0.27,1.30 0.83,1.12 1.42,1.14 2.01,1.15 2.56,1.36 3.11,1.56 3.57,1.93 4.03,2.30 4.34,2.79 4.66,3.29 4.80,3.86 4.95,4.43 4.90,5.02 4.85,5.60 4.62,6.14 4.39,6.68 3.99,7.12 3.60,7.56 3.09,7.85 2.58,8.14 2.00,8.25 1.42,8.36 0.84,8.28 0.25,8.20 -0.26,7.94 -0.79,7.68 -1.21,7.26 -1.62,6.85 -1.88,6.32 -2.15,5.79 -2.22,5.21 -2.30,4.63 -2.19,4.05 -2.08,3.47 -1.79,2.96 -1.50,2.45 -1.07,2.05 -0.63,1.66 -0.09,1.43 0.44,1.20 1.03,1.15 1.62,1.10 2.19,1.24 2.76,1.38 3.25,1.70 3.75,2.02 3.75,2.02 3.75,2.02 5.17,2.85 6.59,3.68 7.60,4.46 8.60,5.25 9.45,6.12 10.30,6.99 11.31,7.94 12.33,8.90 13.03,9.75 13.72,10.60 14.61,11.45 15.50,12.31 16.28,13.05 17.05,13.78 18.04,14.44 19.04,15.09 20.24,15.68 21.45,16.27 22.74,16.85 24.03,17.43 25.39,18.06 26.75,18.70 28.02,19.27 29.30,19.84 31.04,20.53 32.79,21.21 33.85,21.53 34.91,21.85 36.07,22.14 37.22,22.43 39.19,22.89 41.16,23.35 42.82,23.68 44.47,24.01 45.67,24.07 46.86,24.13 48.20,24.18 49.54,24.22 51.08,24.24 52.61,24.26 54.09,24.29 55.57,24.32 56.93,24.36 58.28,24.40 59.80,24.40 61.32,24.41 63.23,24.27 65.13,24.13 66.80,24.06 68.47,23.99 70.40,23.84 72.33,23.70 74.03,23.60 75.72,23.49 77.54,23.32 79.36,23.15 81.25,22.96 83.14,22.77 84.99,22.59 86.83,22.41 89.20,22.10 91.58,21.78 93.96,21.47 96.33,21.15 98.60,20.84 100.86,20.53 103.34,20.23 105.83,19.93 108.05,19.68 110.27,19.44 112.28,19.24 114.28,19.04 116.20,18.93 118.12,18.81 120.10,18.74 122.08,18.68 123.97,18.63 125.86,18.58 127.81,18.49 129.77,18.41 131.62,18.33 133.48,18.25 134.91,18.26 136.33,18.26 137.67,18.27 139.01,18.29 140.35,18.31 141.68,18.33 143.16,18.34 144.64,18.34 146.25,18.32 147.86,18.29 149.54,18.25 151.22,18.20 152.66,18.20 154.09,18.20 155.28,18.23 156.46,18.26 158.47,18.39 160.49,18.51 161.59,18.61 162.69,18.71 163.95,18.85 165.20,18.98 166.79,19.17 168.37,19.36 170.19,19.52 172.02,19.68 173.55,19.86 175.09,20.04 176.81,20.25 178.54,20.46 180.39,20.63 182.24,20.81 183.81,21.02 185.38,21.22 187.23,21.45 189.07,21.67 191.17,21.84 193.28,22.01 195.32,22.21 197.36,22.41 198.98,22.67 200.60,22.92 201.98,23.15 203.35,23.38 204.99,23.65 206.63,23.91 208.76,24.11 210.90,24.32 212.80,24.43 214.70,24.55 216.61,24.56 218.53,24.57 220.55,24.55 222.56,24.54 224.61,24.49 226.66,24.45 228.91,24.34 231.16,24.24 233.13,24.09 235.11,23.94 237.12,23.63 239.14,23.31 241.21,22.85 243.27,22.40 245.19,21.86 247.12,21.32 248.56,20.82 249.99,20.33 251.43,19.50 252.86,18.68 254.03,17.82 255.19,16.96 256.24,15.68 257.29,14.39 258.21,12.71 259.14,11.02 260.15,9.90 261.17,8.78 259.96,8.20 258.76,7.61 257.71,7.21 256.65,6.81 254.98,6.42 253.30,6.03 251.40,5.76 249.51,5.50 247.79,5.35 246.06,5.20 243.68,5.21 241.29,5.21 239.00,5.23 236.70,5.24 234.74,5.21 232.78,5.19 230.05,5.21 227.33,5.23 224.69,5.27 222.05,5.32 219.29,5.43 216.52,5.54 213.42,5.67 210.32,5.81 207.72,5.91 205.12,6.00 201.92,6.04 198.71,6.09 195.62,6.09 192.53,6.09 190.08,6.09 187.63,6.09 184.02,6.09 180.42,6.09 177.11,6.09 173.80,6.09 171.23,6.09 168.67,6.08 165.64,6.08 162.61,6.08 159.75,6.08 156.89,6.08 153.31,6.07 149.73,6.06 146.38,6.05 143.02,6.03 140.87,5.99 138.71,5.96 136.18,5.87 133.66,5.78 130.93,5.64 128.21,5.49 125.59,5.32 122.97,5.15 119.68,4.91 116.39,4.66 113.12,4.40 109.86,4.14 106.73,3.86 103.61,3.57 100.10,3.21 96.59,2.85 93.38,2.56 90.18,2.27 85.90,2.03 81.62,1.79 77.58,1.61 73.54,1.42 70.55,1.38 67.55,1.34 63.74,1.34 59.92,1.35 55.97,1.36 52.02,1.37 47.25,1.38 42.48,1.39 37.43,1.40 32.38,1.42 28.41,1.44 24.43,1.46 20.74,1.49 17.04,1.52 13.10,1.56 9.17,1.59 6.26,1.65 3.35,1.70 1.67,1.65 0,1.59 -0.19,1.57 -0.38,1.55 -0.56,1.48 -0.74,1.41 -0.90,1.30 -1.05,1.19 -1.18,1.05 -1.31,0.90 -1.40,0.73 -1.49,0.56 -1.53,0.37 -1.58,0.19 -1.58,-0.00 -1.58,-0.19 -1.53,-0.37 -1.49,-0.56 -1.40,-0.73 -1.31,-0.90 -1.18,-1.05 -1.05,-1.19 -0.90,-1.30 -0.74,-1.41 -0.56,-1.48 -0.38,-1.55 -0.19,-1.57 0.00,-1.59 0.00,-1.59 L 0,-1.59 Z"></path></g><g transform="translate(151.8152803675224 157.8916316864516) rotate(0 -32.53459417874069 -12.008277590892703)" stroke="none"><path fill="#1e1e1e" d="M -0.98,1.21 Q -0.98,1.21 -3.00,-0.46 -5.03,-2.14 -7.24,-3.74 -9.46,-5.33 -12.04,-6.97 -14.63,-8.61 -17.47,-10.23 -20.32,-11.84 -23.17,-13.26 -26.03,-14.68 -29.11,-15.92 -32.20,-17.17 -35.23,-18.19 -38.25,-19.21 -41.69,-20.06 -45.13,-20.91 -48.40,-21.45 -51.66,-22.00 -53.87,-22.23 -56.08,-22.47 -57.76,-22.48 -59.45,-22.50 -62.12,-22.53 -64.80,-22.56 -65.05,-22.61 -65.30,-22.65 -65.52,-22.77 -65.74,-22.90 -65.91,-23.08 -66.08,-23.27 -66.19,-23.50 -66.29,-23.73 -66.31,-23.99 -66.33,-24.24 -66.28,-24.48 -66.22,-24.73 -66.08,-24.95 -65.95,-25.16 -65.75,-25.32 -65.56,-25.48 -65.32,-25.57 -65.08,-25.66 -64.83,-25.67 -64.58,-25.68 -64.33,-25.61 -64.09,-25.54 -63.88,-25.39 -63.68,-25.25 -63.53,-25.04 -63.38,-24.84 -63.30,-24.60 -63.22,-24.35 -63.23,-24.10 -63.23,-23.85 -63.32,-23.61 -63.40,-23.37 -63.56,-23.17 -63.71,-22.97 -63.93,-22.83 -64.14,-22.70 -64.38,-22.63 -64.63,-22.57 -64.88,-22.59 -65.13,-22.60 -65.37,-22.70 -65.60,-22.80 -65.79,-22.97 -65.98,-23.13 -66.11,-23.35 -66.24,-23.57 -66.29,-23.82 -66.34,-24.07 -66.31,-24.32 -66.27,-24.57 -66.16,-24.80 -66.05,-25.03 -65.88,-25.21 -65.70,-25.39 -65.47,-25.50 -65.25,-25.62 -65.00,-25.66 -64.75,-25.69 -64.75,-25.69 -64.75,-25.69 -62.01,-25.58 -59.27,-25.46 -57.54,-25.28 -55.80,-25.10 -53.51,-24.86 -51.23,-24.62 -47.86,-24.06 -44.50,-23.49 -40.95,-22.62 -37.40,-21.75 -34.30,-20.71 -31.20,-19.67 -28.01,-18.40 -24.82,-17.12 -21.89,-15.69 -18.96,-14.25 -16.05,-12.63 -13.13,-11.00 -10.46,-9.35 -7.79,-7.69 -5.47,-6.08 -3.15,-4.46 -1.08,-2.84 0.98,-1.21 1.11,-1.08 1.24,-0.94 1.33,-0.78 1.43,-0.61 1.48,-0.43 1.54,-0.25 1.54,-0.07 1.55,0.11 1.52,0.30 1.48,0.48 1.40,0.65 1.32,0.82 1.20,0.97 1.08,1.12 0.93,1.23 0.78,1.34 0.61,1.42 0.44,1.49 0.25,1.52 0.07,1.56 -0.11,1.54 -0.30,1.53 -0.48,1.47 -0.66,1.41 -0.82,1.31 -0.98,1.21 -0.98,1.21 L -0.98,1.21 Z"></path></g><g transform="translate(75.26561355535216 122.7622427273754) rotate(0 0.16340703004038915 13.943239107327997)" stroke="none"><path fill="#1e1e1e" d="M 1.97,-1.58 Q 1.97,-1.58 2.99,-0.24 4.01,1.10 4.79,2.09 5.57,3.09 6.61,4.34 7.65,5.59 8.37,6.48 9.08,7.38 10.06,8.16 11.04,8.94 11.47,9.25 11.90,9.56 12.27,9.68 12.64,9.80 12.97,10.01 13.30,10.22 13.57,10.49 13.85,10.77 14.04,11.11 14.24,11.45 14.35,11.82 14.46,12.19 14.48,12.58 14.50,12.97 14.43,13.36 14.35,13.74 14.19,14.09 14.02,14.44 13.78,14.75 13.53,15.05 13.22,15.29 12.91,15.53 12.56,15.68 12.20,15.84 11.82,15.90 11.43,15.97 11.04,15.94 10.65,15.91 9.44,16.64 8.23,17.37 7.17,17.93 6.11,18.50 5.00,19.15 3.88,19.80 2.55,20.59 1.22,21.39 -0.26,22.28 -1.75,23.17 -2.75,23.90 -3.76,24.63 -4.92,25.64 -6.09,26.66 -7.33,28.15 -8.57,29.64 -8.90,29.98 -9.23,30.31 -9.65,30.53 -10.08,30.74 -10.54,30.81 -11.01,30.88 -11.48,30.79 -11.94,30.71 -12.36,30.48 -12.77,30.25 -13.09,29.90 -13.41,29.55 -13.60,29.12 -13.79,28.69 -13.84,28.22 -13.88,27.75 -13.77,27.28 -13.66,26.82 -13.41,26.42 -13.16,26.02 -12.79,25.72 -12.43,25.42 -11.98,25.26 -11.54,25.09 -11.07,25.07 -10.59,25.05 -10.14,25.19 -9.69,25.32 -9.30,25.59 -8.91,25.87 -8.63,26.25 -8.35,26.63 -8.21,27.08 -8.07,27.53 -8.08,28.01 -8.08,28.48 -8.24,28.92 -8.40,29.37 -8.70,29.74 -8.99,30.11 -9.38,30.37 -9.78,30.63 -10.24,30.75 -10.70,30.87 -11.17,30.83 -11.64,30.80 -12.08,30.62 -12.51,30.43 -12.87,30.12 -13.22,29.81 -13.46,29.40 -13.70,28.99 -13.79,28.53 -13.88,28.06 -13.83,27.59 -13.77,27.12 -13.56,26.70 -13.35,26.27 -13.35,26.27 -13.35,26.27 -11.55,24.27 -9.74,22.27 -8.35,21.24 -6.96,20.20 -5.90,19.43 -4.84,18.66 -3.44,17.58 -2.04,16.50 -0.73,15.53 0.57,14.56 1.73,13.77 2.89,12.98 4.07,12.23 5.25,11.49 7.04,10.67 8.83,9.85 10.37,9.70 11.90,9.56 12.27,9.68 12.64,9.80 12.97,10.01 13.30,10.22 13.57,10.49 13.85,10.77 14.04,11.11 14.24,11.45 14.35,11.82 14.46,12.19 14.48,12.58 14.50,12.97 14.43,13.35 14.35,13.74 14.19,14.09 14.02,14.44 13.78,14.75 13.53,15.05 13.22,15.29 12.91,15.53 12.56,15.68 12.20,15.84 11.82,15.90 11.43,15.97 11.04,15.94 10.65,15.91 10.38,15.84 10.11,15.76 9.06,15.08 8.02,14.40 7.15,13.69 6.27,12.98 5.47,11.98 4.67,10.97 4.04,9.91 3.42,8.85 2.50,7.46 1.58,6.08 0.89,5.12 0.21,4.15 -0.88,2.87 -1.97,1.58 -2.13,1.32 -2.30,1.06 -2.39,0.77 -2.49,0.48 -2.51,0.18 -2.53,-0.12 -2.48,-0.42 -2.43,-0.72 -2.30,-1.00 -2.18,-1.28 -2.00,-1.52 -1.81,-1.77 -1.57,-1.96 -1.33,-2.15 -1.06,-2.28 -0.78,-2.41 -0.48,-2.47 -0.18,-2.53 0.12,-2.51 0.42,-2.50 0.72,-2.41 1.01,-2.32 1.27,-2.17 1.54,-2.01 1.75,-1.80 1.97,-1.58 1.97,-1.58 L 1.97,-1.58 Z"></path></g><g transform="translate(62.2907967393636 136.59196480938004) rotate(0 9.785720049814472 0.22446769237930653)" stroke="none"><path fill="#1e1e1e" d="M -0.05,-2.54 Q -0.05,-2.54 1.63,-2.52 3.31,-2.51 4.67,-2.54 6.03,-2.56 7.24,-2.60 8.45,-2.63 10.07,-2.72 11.69,-2.81 12.88,-2.87 14.08,-2.94 15.42,-2.82 16.77,-2.71 18.23,-2.59 19.69,-2.47 20.18,-2.37 20.66,-2.27 21.08,-2.01 21.50,-1.76 21.82,-1.39 22.15,-1.01 22.33,-0.55 22.51,-0.10 22.54,0.39 22.57,0.88 22.44,1.35 22.31,1.83 22.03,2.24 21.76,2.65 21.37,2.95 20.98,3.25 20.51,3.41 20.04,3.57 19.55,3.57 19.06,3.57 18.59,3.41 18.12,3.26 17.73,2.96 17.33,2.66 17.06,2.26 16.78,1.85 16.64,1.37 16.51,0.90 16.54,0.41 16.56,-0.08 16.74,-0.53 16.92,-0.99 17.24,-1.37 17.56,-1.75 17.98,-2.00 18.40,-2.26 18.88,-2.37 19.36,-2.47 19.85,-2.42 20.34,-2.37 20.79,-2.16 21.24,-1.96 21.60,-1.62 21.96,-1.28 22.19,-0.85 22.42,-0.41 22.51,0.06 22.59,0.55 22.51,1.04 22.43,1.52 22.20,1.96 21.97,2.40 21.62,2.74 21.26,3.08 20.81,3.29 20.36,3.49 19.87,3.55 19.38,3.60 19.39,3.60 19.39,3.60 16.84,3.31 14.30,3.01 13.00,2.79 11.70,2.58 10.09,2.50 8.48,2.41 7.28,2.39 6.08,2.37 4.75,2.37 3.41,2.37 1.73,2.46 0.05,2.54 -0.25,2.51 -0.55,2.48 -0.84,2.37 -1.13,2.27 -1.39,2.10 -1.64,1.93 -1.85,1.71 -2.06,1.48 -2.21,1.21 -2.36,0.94 -2.44,0.65 -2.51,0.35 -2.52,0.05 -2.53,-0.25 -2.46,-0.55 -2.39,-0.85 -2.25,-1.12 -2.12,-1.40 -1.92,-1.63 -1.72,-1.87 -1.47,-2.05 -1.22,-2.22 -0.94,-2.34 -0.65,-2.45 -0.35,-2.50 -0.05,-2.54 -0.05,-2.54 L -0.05,-2.54 Z"></path></g><g transform="translate(587.0641213844998 148.1918295200589) rotate(0 18.624519224463825 -10.993242941762986)" stroke="none"><path fill="#1e1e1e" d="M -1.37,-1.33 Q -1.37,-1.33 -0.41,-2.39 0.53,-3.44 1.61,-4.48 2.70,-5.51 4.12,-6.60 5.54,-7.69 7.53,-8.99 9.53,-10.29 11.21,-11.40 12.89,-12.51 15.05,-13.63 17.20,-14.76 19.59,-15.90 21.99,-17.04 23.46,-17.82 24.93,-18.60 26.45,-19.33 27.97,-20.06 29.37,-20.73 30.77,-21.40 33.59,-22.65 36.41,-23.90 36.74,-23.96 37.08,-24.03 37.41,-23.98 37.75,-23.93 38.05,-23.78 38.35,-23.63 38.59,-23.39 38.83,-23.15 38.97,-22.85 39.12,-22.54 39.17,-22.21 39.21,-21.87 39.15,-21.54 39.08,-21.21 38.91,-20.92 38.75,-20.62 38.49,-20.40 38.24,-20.17 37.93,-20.04 37.62,-19.91 37.28,-19.88 36.95,-19.86 36.62,-19.94 36.29,-20.02 36.01,-20.21 35.72,-20.39 35.51,-20.65 35.30,-20.92 35.19,-21.24 35.07,-21.55 35.06,-21.89 35.06,-22.23 35.16,-22.55 35.26,-22.87 35.46,-23.15 35.65,-23.42 35.93,-23.62 36.20,-23.81 36.53,-23.91 36.85,-24.01 37.19,-24.00 37.53,-23.99 37.84,-23.87 38.16,-23.75 38.42,-23.54 38.68,-23.33 38.87,-23.04 39.05,-22.75 39.13,-22.43 39.21,-22.10 39.18,-21.76 39.15,-21.43 39.01,-21.12 38.88,-20.81 38.65,-20.56 38.43,-20.30 38.13,-20.14 37.84,-19.97 37.84,-19.97 37.84,-19.97 35.06,-18.96 32.28,-17.94 30.86,-17.38 29.43,-16.81 27.92,-16.18 26.40,-15.55 24.89,-14.89 23.39,-14.23 21.10,-13.04 18.81,-11.84 16.87,-10.70 14.93,-9.56 13.32,-8.39 11.72,-7.22 9.91,-5.81 8.10,-4.39 6.81,-3.38 5.52,-2.36 4.47,-1.49 3.43,-0.61 2.40,0.36 1.37,1.33 1.19,1.48 1.01,1.62 0.80,1.72 0.59,1.82 0.36,1.86 0.13,1.91 -0.09,1.89 -0.32,1.88 -0.54,1.82 -0.76,1.75 -0.96,1.63 -1.16,1.52 -1.32,1.36 -1.49,1.19 -1.61,1.00 -1.73,0.80 -1.80,0.58 -1.88,0.36 -1.89,0.13 -1.91,-0.09 -1.87,-0.32 -1.83,-0.54 -1.74,-0.76 -1.65,-0.97 -1.51,-1.15 -1.37,-1.33 -1.37,-1.33 L -1.37,-1.33 Z"></path></g><g transform="translate(634.9434450584937 105.23200000368121) rotate(0 -1.3683262348740755 17.3318585635229)" stroke="none"><path fill="#1e1e1e" d="M 2.35,0.97 Q 2.35,0.97 1.54,2.67 0.73,4.38 0.09,5.74 -0.54,7.10 -0.96,8.09 -1.39,9.07 -1.99,10.55 -2.60,12.03 -3.17,13.29 -3.73,14.56 -4.29,15.69 -4.84,16.82 -5.30,17.87 -5.75,18.93 -6.25,20.00 -6.75,21.07 -7.77,20.00 -8.78,18.92 -7.22,19.97 -5.66,21.03 -4.58,21.85 -3.49,22.68 -2.40,23.47 -1.31,24.27 -0.28,24.97 0.75,25.67 1.70,26.31 2.66,26.94 3.88,27.64 5.09,28.35 6.33,28.87 7.57,29.38 8.91,30.72 10.26,32.07 10.61,32.47 10.96,32.88 11.16,33.37 11.36,33.86 11.40,34.40 11.43,34.93 11.29,35.45 11.16,35.96 10.86,36.41 10.56,36.85 10.14,37.18 9.72,37.50 9.22,37.68 8.71,37.85 8.18,37.86 7.65,37.86 7.14,37.70 6.63,37.53 6.20,37.21 5.78,36.90 5.47,36.46 5.17,36.02 5.02,35.51 4.87,34.99 4.90,34.46 4.92,33.93 5.11,33.43 5.31,32.93 5.65,32.52 5.99,32.11 6.44,31.83 6.90,31.55 7.42,31.43 7.94,31.31 8.47,31.37 9.00,31.42 9.49,31.64 9.97,31.86 10.36,32.22 10.76,32.58 11.01,33.05 11.26,33.52 11.36,34.05 11.45,34.57 11.37,35.10 11.28,35.63 11.04,36.10 10.79,36.58 10.41,36.95 10.03,37.32 9.54,37.55 9.06,37.77 8.53,37.84 8.00,37.90 7.48,37.79 6.96,37.68 6.50,37.41 6.04,37.14 6.04,37.14 6.04,37.14 5.02,36.05 3.99,34.96 3.00,34.39 2.01,33.81 0.67,32.96 -0.65,32.11 -1.62,31.51 -2.59,30.91 -3.71,30.24 -4.82,29.56 -6.02,28.84 -7.22,28.11 -8.40,27.39 -9.57,26.66 -11.08,25.67 -12.59,24.67 -13.45,23.26 -14.31,21.86 -14.01,20.55 -13.71,19.24 -12.96,18.31 -12.21,17.37 -11.61,16.41 -11.00,15.45 -10.45,14.46 -9.89,13.46 -9.27,12.56 -8.65,11.66 -8.01,10.69 -7.38,9.73 -6.61,8.33 -5.83,6.93 -5.33,5.99 -4.83,5.04 -4.22,3.81 -3.61,2.57 -2.98,0.80 -2.35,-0.97 -2.20,-1.24 -2.05,-1.50 -1.84,-1.73 -1.62,-1.95 -1.37,-2.12 -1.11,-2.28 -0.82,-2.38 -0.53,-2.48 -0.22,-2.51 0.07,-2.54 0.37,-2.49 0.68,-2.45 0.96,-2.33 1.24,-2.21 1.49,-2.03 1.74,-1.85 1.94,-1.61 2.13,-1.38 2.27,-1.10 2.40,-0.83 2.46,-0.53 2.53,-0.23 2.52,0.07 2.51,0.38 2.43,0.67 2.35,0.97 2.35,0.97 L 2.35,0.97 Z"></path></g><g transform="translate(648.864342850578 116.13064231360414) rotate(0 -10.731782361486466 5.266979067014034)" stroke="none"><path fill="#1e1e1e" d="M 0.73,2.54 Q 0.73,2.54 -0.60,2.91 -1.95,3.29 -2.99,3.70 -4.03,4.10 -5.70,4.90 -7.37,5.70 -8.83,6.46 -10.29,7.22 -11.60,7.95 -12.92,8.69 -14.06,9.34 -15.21,9.99 -16.36,10.68 -17.52,11.37 -18.98,12.47 -20.43,13.56 -20.94,13.62 -21.46,13.69 -21.96,13.58 -22.47,13.48 -22.92,13.22 -23.37,12.96 -23.71,12.57 -24.05,12.18 -24.24,11.70 -24.44,11.22 -24.48,10.71 -24.51,10.19 -24.38,9.69 -24.25,9.19 -23.97,8.76 -23.68,8.32 -23.27,8.01 -22.87,7.69 -22.38,7.51 -21.89,7.34 -21.37,7.34 -20.86,7.33 -20.36,7.49 -19.87,7.64 -19.45,7.95 -19.04,8.26 -18.74,8.68 -18.45,9.11 -18.30,9.60 -18.15,10.10 -18.18,10.62 -18.20,11.14 -18.38,11.62 -18.57,12.10 -18.90,12.50 -19.23,12.90 -19.66,13.17 -20.10,13.45 -20.61,13.56 -21.11,13.68 -21.63,13.63 -22.14,13.58 -22.61,13.37 -23.09,13.16 -23.47,12.81 -23.85,12.46 -24.10,12.01 -24.35,11.55 -24.44,11.04 -24.53,10.53 -24.45,10.02 -24.37,9.51 -24.14,9.05 -23.90,8.59 -23.53,8.23 -23.16,7.87 -22.69,7.65 -22.23,7.42 -22.23,7.42 -22.23,7.42 -20.69,6.28 -19.16,5.13 -18.03,4.55 -16.90,3.98 -15.58,3.35 -14.25,2.71 -12.77,2.03 -11.29,1.35 -9.61,0.65 -7.93,-0.04 -6.90,-0.45 -5.88,-0.86 -4.64,-1.30 -3.41,-1.74 -2.07,-2.14 -0.73,-2.54 -0.42,-2.59 -0.10,-2.64 0.21,-2.61 0.52,-2.59 0.83,-2.49 1.13,-2.38 1.40,-2.21 1.67,-2.04 1.89,-1.81 2.11,-1.58 2.27,-1.31 2.43,-1.03 2.52,-0.72 2.61,-0.42 2.62,-0.10 2.63,0.21 2.57,0.52 2.50,0.83 2.37,1.12 2.23,1.41 2.03,1.66 1.83,1.90 1.57,2.09 1.32,2.29 1.02,2.41 0.73,2.54 0.73,2.54 L 0.73,2.54 Z"></path></g></svg>