<svg version="1.1" xmlns="http://www.w3.org/2000/svg" viewBox="0 0 736.876423708594 260.0435869602676" width="736.876423708594" height="260.0435869602676" class="excalidraw-svg">
  <!-- svg-source:excalidraw -->
  
  <defs>
    <style class="style-fonts">
      @font-face {
        font-family: "Virgil";
        src: url("https://excalidraw.com/Virgil.woff2");
      }
      @font-face {
        font-family: "Cascadia";
        src: url("https://excalidraw.com/Cascadia.woff2");
      }
      @font-face {
        font-family: "Assistant";
        src: url("https://excalidraw.com/Assistant-Regular.woff2");
      }
    </style>
    
  </defs>
  <g transform="translate(10 236.3473587599874) rotate(0 358.438211854297 -106.3255652798536)" stroke="none"><path d="M0.02 -43.11 C1.7 -43.29, 6.03 -41.79, 9.24 -42.85 C12.45 -43.91, 11.48 -46.32, 19.28 -49.47 C27.08 -52.62, 37 -52.8, 56.03 -61.74 C75.07 -70.69, 118.19 -94.92, 133.49 -103.13 C148.8 -111.33, 144.17 -109.02, 147.88 -110.97 C151.58 -112.91, 151.81 -109.72, 155.72 -114.79 C159.62 -119.85, 167.02 -134.77, 171.31 -141.37 C175.59 -147.97, 177.72 -150.5, 181.42 -154.36 C185.12 -158.22, 190.11 -162.13, 193.5 -164.53 C196.9 -166.93, 196.21 -168.49, 201.78 -168.77 C207.35 -169.06, 218.59 -166.62, 226.92 -166.24 C235.24 -165.87, 246.37 -166.45, 251.73 -166.51 C257.1 -166.57, 256.98 -166.14, 259.11 -166.63 C261.25 -167.11, 257.76 -162.96, 264.54 -169.4 C271.31 -175.83, 290.22 -196.31, 299.77 -205.25 C309.31 -214.19, 316.68 -219.29, 321.82 -223.04 C326.95 -226.79, 322.3 -227.49, 330.58 -227.76 C338.87 -228.02, 362.75 -225.38, 371.52 -224.65 C380.3 -223.91, 378.57 -224.21, 383.24 -223.35 C387.92 -222.48, 395.99 -220.02, 399.57 -219.43 C403.16 -218.85, 402.41 -221.67, 404.75 -219.82 C407.09 -217.96, 411.59 -213.19, 413.6 -208.3 C415.62 -203.41, 416.46 -194.94, 416.85 -190.49 C417.25 -186.04, 415.9 -184.92, 415.99 -181.6 C416.08 -178.28, 418.07 -176.21, 417.39 -170.57 C416.7 -164.93, 395.77 -151.55, 411.89 -147.74 C428.02 -143.94, 494.23 -147.6, 514.13 -147.76 C534.03 -147.92, 525.72 -148.83, 531.29 -148.7 C536.87 -148.58, 543.58 -148.2, 547.55 -146.98 C551.52 -145.77, 552.03 -143.68, 555.13 -141.42 C558.22 -139.15, 563.05 -135.42, 566.11 -133.4 C569.18 -131.38, 570.51 -135.7, 573.51 -129.3 C576.51 -122.9, 582.5 -101.35, 584.1 -94.99 C585.7 -88.64, 582.4 -92.35, 583.12 -91.17 C583.83 -89.99, 586.79 -88.84, 588.4 -87.91 C590.01 -86.97, 584.63 -86.36, 592.77 -85.54 C600.91 -84.73, 626.47 -84.04, 637.24 -83.03 C648 -82.01, 650.76 -81.52, 657.38 -79.46 C663.99 -77.41, 670.66 -74.29, 676.91 -70.71 C683.16 -67.12, 689.17 -63.12, 694.88 -57.96 C700.58 -52.79, 707.77 -44.52, 711.16 -39.71 C714.55 -34.89, 714.13 -33.19, 715.23 -29.08 C716.32 -24.97, 718.26 -17.53, 717.73 -15.03 C717.2 -12.52, 714.33 -15.25, 712.03 -14.04 C709.73 -12.84, 707.51 -8.4, 703.93 -7.8 C700.36 -7.21, 694.32 -9.58, 690.57 -10.5 C686.82 -11.41, 684.66 -13.17, 681.45 -13.3 C678.24 -13.43, 680.44 -15.7, 671.33 -11.26 C662.23 -6.82, 637.05 9.24, 626.8 13.32 C616.55 17.41, 614.38 13.97, 609.84 13.27 C605.3 12.57, 603.09 10.53, 599.57 9.12 C596.04 7.7, 594.83 8.04, 588.68 4.77 C582.52 1.51, 568.61 -8.05, 562.62 -10.49 C556.62 -12.93, 558.19 -9.12, 552.7 -9.87 C547.22 -10.63, 540.5 -14.03, 529.69 -15 C518.88 -15.97, 512.1 -16.11, 487.84 -15.68 C463.58 -15.25, 404.11 -12.9, 384.11 -12.39 C364.11 -11.89, 377.42 -14.47, 367.82 -12.66 C358.22 -10.85, 342.85 -6.05, 326.52 -1.55 C310.18 2.94, 284.26 11.52, 269.8 14.3 C255.34 17.08, 246.57 15.13, 239.77 15.13 C232.98 15.12, 235.01 16.22, 229.03 14.26 C223.06 12.31, 212.82 6.59, 203.92 3.4 C195.02 0.21, 184.35 -2.39, 175.65 -4.88 C166.95 -7.36, 161.02 -10.82, 151.71 -11.53 C142.4 -12.24, 128.84 -10.65, 119.76 -9.13 C110.69 -7.61, 102.8 -3.25, 97.24 -2.42 C91.67 -1.59, 89.32 -3.79, 86.39 -4.16 C83.46 -4.53, 82.68 -3.65, 79.67 -4.64 C76.66 -5.63, 70.55 -7.97, 68.36 -10.08 C66.17 -12.19, 67.64 -15.55, 66.52 -17.31 C65.39 -19.07, 62.59 -17.79, 61.58 -20.63 C60.58 -23.47, 63.92 -31.44, 60.46 -34.33 C57 -37.21, 49 -38.23, 40.84 -37.93 C32.68 -37.64, 17.73 -32.68, 11.47 -32.56 C5.21 -32.44, 4.62 -35.58, 3.27 -37.2 C1.92 -38.82, 3.42 -41.57, 3.38 -42.28 C3.34 -43, 2.93 -41.59, 3.02 -41.48" stroke="none" stroke-width="0" fill="#ee00ff" fill-rule="evenodd"></path><path fill="#1e1e1e" d="M -0.27,-44.98 Q -0.27,-44.98 1.76,-45.32 3.80,-45.67 8.11,-47.08 12.42,-48.49 17.13,-50.24 21.84,-51.99 26.92,-54.07 32.00,-56.14 38.12,-58.79 44.25,-61.44 48.80,-63.51 53.35,-65.58 56.82,-67.16 60.29,-68.75 66.53,-71.77 72.77,-74.79 80.00,-78.34 87.24,-81.89 92.59,-84.51 97.95,-87.14 104.86,-90.38 111.77,-93.63 118.46,-96.67 125.16,-99.72 129.46,-101.86 133.76,-103.99 137.10,-105.85 140.43,-107.71 143.49,-109.59 146.56,-111.47 148.89,-113.20 151.22,-114.93 152.80,-116.61 154.38,-118.28 155.73,-120.14 157.08,-122.00 158.22,-124.01 159.37,-126.02 160.54,-128.23 161.72,-130.45 162.90,-132.71 164.09,-134.96 165.38,-137.33 166.67,-139.70 168.18,-142.16 169.68,-144.61 172.14,-148.15 174.61,-151.70 176.46,-154.12 178.31,-156.55 180.13,-158.45 181.96,-160.36 183.74,-161.91 185.51,-163.46 186.96,-164.63 188.40,-165.81 190.15,-166.72 191.89,-167.62 194.56,-168.21 197.24,-168.81 199.92,-169.13 202.61,-169.46 205.27,-169.59 207.93,-169.72 211.22,-169.77 214.51,-169.82 217.53,-169.83 220.55,-169.85 224.00,-169.67 227.45,-169.49 231.36,-169.10 235.27,-168.71 238.41,-168.37 241.56,-168.02 244.21,-167.75 246.86,-167.49 249.27,-167.30 251.69,-167.11 253.85,-167.15 256.00,-167.19 257.91,-167.83 259.81,-168.47 261.88,-170.14 263.95,-171.82 266.60,-174.64 269.25,-177.46 272.50,-181.04 275.74,-184.61 279.38,-188.57 283.02,-192.52 286.96,-196.63 290.90,-200.74 294.63,-204.41 298.37,-208.08 301.61,-210.98 304.86,-213.88 307.60,-216.13 310.35,-218.38 312.22,-219.91 314.09,-221.44 315.42,-222.55 316.75,-223.66 318.52,-224.65 320.29,-225.63 322.98,-226.26 325.67,-226.90 329.59,-227.15 333.51,-227.40 338.27,-227.49 343.03,-227.58 347.28,-227.62 351.53,-227.65 356.73,-227.60 361.93,-227.55 367.93,-227.20 373.93,-226.85 378.61,-226.21 383.29,-225.57 387.40,-224.58 391.52,-223.59 395.20,-222.26 398.87,-220.93 401.78,-219.11 404.69,-217.29 407.03,-214.85 409.37,-212.40 411.28,-209.24 413.18,-206.08 414.65,-202.12 416.11,-198.16 417.01,-193.62 417.92,-189.07 418.13,-184.07 418.34,-179.08 418.02,-174.56 417.70,-170.05 417.13,-166.50 416.56,-162.96 415.97,-160.24 415.38,-157.51 414.97,-155.63 414.56,-153.75 414.42,-152.53 414.27,-151.32 416.72,-151.06 419.17,-150.81 424.34,-150.73 429.50,-150.66 436.33,-150.70 443.15,-150.74 449.39,-150.85 455.63,-150.97 462.55,-151.08 469.48,-151.18 475.59,-151.21 481.70,-151.24 487.50,-151.25 493.30,-151.26 498.68,-151.22 504.05,-151.18 509.07,-150.99 514.09,-150.80 519.17,-150.37 524.25,-149.95 528.32,-149.40 532.40,-148.85 536.20,-148.17 540.00,-147.49 545.11,-146.05 550.21,-144.60 555.32,-141.82 560.44,-139.04 563.81,-136.08 567.19,-133.12 570.44,-127.11 573.69,-121.11 575.69,-116.49 577.69,-111.87 579.07,-108.29 580.45,-104.71 581.51,-101.72 582.57,-98.72 583.43,-96.47 584.28,-94.21 585.46,-92.67 586.64,-91.12 588.32,-90.04 590.00,-88.96 593.56,-88.26 597.11,-87.56 602.07,-86.95 607.02,-86.34 612.57,-85.80 618.11,-85.25 623.63,-84.75 629.15,-84.24 634.79,-83.50 640.42,-82.75 645.62,-81.97 650.82,-81.18 654.73,-80.26 658.64,-79.33 662.54,-77.95 666.44,-76.56 670.08,-74.90 673.73,-73.24 677.19,-71.28 680.65,-69.33 683.66,-67.23 686.67,-65.12 689.75,-62.65 692.82,-60.18 695.63,-57.67 698.45,-55.15 700.89,-52.64 703.34,-50.13 705.60,-47.49 707.85,-44.85 709.27,-43.02 710.70,-41.18 711.79,-39.74 712.88,-38.30 714.02,-35.86 715.15,-33.42 715.97,-30.43 716.79,-27.44 717.20,-25.07 717.61,-22.69 717.88,-21.00 718.14,-19.31 717.93,-17.56 717.71,-15.81 716.96,-14.29 716.20,-12.78 715.22,-11.67 714.25,-10.57 713.08,-9.68 711.92,-8.78 710.57,-8.04 709.21,-7.30 707.52,-6.76 705.83,-6.22 703.85,-5.98 701.86,-5.73 698.15,-6.14 694.44,-6.55 691.71,-7.15 688.98,-7.75 686.84,-8.29 684.70,-8.83 683.00,-9.15 681.31,-9.46 679.83,-9.61 678.36,-9.75 676.81,-9.71 675.26,-9.68 673.26,-9.16 671.27,-8.65 667.98,-7.02 664.68,-5.38 660.86,-3.31 657.03,-1.24 653.30,0.75 649.57,2.76 645.97,4.70 642.37,6.65 639.57,8.16 636.77,9.68 634.72,10.74 632.67,11.80 631.31,12.57 629.96,13.34 628.93,13.86 627.89,14.39 625.93,14.67 623.96,14.94 621.86,14.98 619.75,15.03 617.45,14.96 615.15,14.88 612.96,14.64 610.78,14.41 608.44,13.93 606.09,13.46 603.78,12.83 601.46,12.20 598.93,11.33 596.40,10.46 593.84,9.40 591.27,8.34 589.00,7.25 586.72,6.17 584.51,4.99 582.30,3.81 580.23,2.61 578.16,1.41 575.99,0.16 573.82,-1.09 571.80,-2.24 569.78,-3.38 568.08,-4.32 566.38,-5.26 564.62,-6.18 562.86,-7.10 561.15,-7.85 559.44,-8.60 557.58,-9.25 555.71,-9.89 551.88,-10.74 548.04,-11.59 544.49,-12.17 540.93,-12.74 537.70,-13.10 534.47,-13.45 531.13,-13.60 527.80,-13.76 524.35,-13.83 520.91,-13.89 516.89,-13.93 512.88,-13.96 508.26,-13.97 503.65,-13.99 498.84,-13.99 494.03,-14.00 489.07,-13.98 484.12,-13.97 479.71,-13.82 475.30,-13.66 470.91,-13.45 466.52,-13.24 462.66,-13.13 458.80,-13.01 455.53,-12.97 452.26,-12.92 448.86,-12.90 445.46,-12.88 442.86,-12.87 440.26,-12.86 438.80,-12.75 437.34,-12.63 432.97,-12.66 428.61,-12.69 424.02,-12.71 419.43,-12.73 414.68,-12.75 409.94,-12.76 407.11,-12.78 404.28,-12.79 401.48,-12.80 398.67,-12.80 395.09,-12.74 391.50,-12.68 387.31,-12.31 383.13,-11.94 379.15,-11.37 375.17,-10.79 371.57,-10.04 367.98,-9.29 364.42,-8.42 360.87,-7.56 358.15,-6.85 355.44,-6.14 352.17,-5.36 348.91,-4.58 344.62,-3.57 340.34,-2.55 336.24,-1.51 332.14,-0.48 328.69,0.35 325.24,1.18 321.71,1.95 318.18,2.71 313.40,3.71 308.62,4.71 305.02,5.52 301.41,6.33 298.49,7.05 295.56,7.76 292.64,8.46 289.72,9.15 286.79,9.79 283.86,10.42 281.31,10.97 278.75,11.53 276.21,12.06 273.66,12.59 271.23,13.02 268.79,13.44 266.36,13.78 263.92,14.12 261.57,14.35 259.21,14.58 256.89,14.70 254.57,14.82 252.06,14.88 249.54,14.93 247.06,14.95 244.57,14.97 241.87,14.89 239.16,14.80 236.45,14.53 233.75,14.25 230.55,13.54 227.35,12.84 225.33,12.24 223.32,11.64 221.75,11.15 220.19,10.65 218.84,10.20 217.49,9.75 216.03,9.16 214.56,8.57 213.03,7.92 211.50,7.27 210.13,6.72 208.76,6.16 207.56,5.72 206.36,5.27 204.27,4.68 202.17,4.09 200.66,3.76 199.15,3.44 196.93,2.91 194.71,2.38 192.27,1.83 189.83,1.28 187.80,0.82 185.78,0.37 183.23,-0.23 180.68,-0.85 178.99,-1.24 177.30,-1.64 175.84,-2.02 174.39,-2.40 172.75,-2.90 171.11,-3.40 169.34,-3.96 167.56,-4.52 165.90,-5.08 164.23,-5.63 162.75,-6.10 161.26,-6.58 159.99,-6.92 158.72,-7.25 156.66,-7.66 154.60,-8.06 153.08,-8.23 151.56,-8.40 149.47,-8.60 147.39,-8.79 145.28,-8.92 143.17,-9.05 141.29,-9.07 139.40,-9.10 137.75,-9.07 136.11,-9.04 134.85,-8.97 133.59,-8.90 131.90,-8.90 130.22,-8.89 126.56,-8.81 122.91,-8.72 120.22,-8.38 117.52,-8.04 115.10,-7.51 112.67,-6.98 110.66,-6.39 108.64,-5.79 107.29,-5.22 105.93,-4.66 104.79,-4.16 103.66,-3.67 102.24,-3.21 100.82,-2.76 96.63,-2.61 92.45,-2.46 89.80,-2.58 87.15,-2.70 85.21,-2.90 83.28,-3.09 81.24,-3.65 79.20,-4.21 77.73,-4.74 76.26,-5.26 75.09,-5.77 73.92,-6.28 72.84,-6.75 71.76,-7.23 70.77,-7.64 69.77,-8.05 68.06,-8.87 66.34,-9.69 64.97,-10.81 63.60,-11.92 62.55,-13.52 61.49,-15.11 61.08,-16.32 60.67,-17.52 60.42,-18.85 60.18,-20.17 60.06,-21.41 59.95,-22.65 59.91,-23.90 59.87,-25.14 59.86,-26.39 59.85,-27.65 59.83,-28.78 59.82,-29.92 59.77,-31.63 59.72,-33.33 58.39,-33.15 57.05,-32.97 55.30,-32.98 53.55,-32.99 52.28,-33.03 51.01,-33.07 49.59,-33.13 48.16,-33.19 46.76,-33.24 45.36,-33.28 44.25,-33.26 43.13,-33.25 41.40,-33.09 39.67,-32.94 38.59,-32.84 37.52,-32.73 36.27,-32.58 35.03,-32.43 33.62,-32.27 32.22,-32.10 30.60,-31.94 28.97,-31.78 27.52,-31.61 26.07,-31.44 24.94,-31.24 23.81,-31.05 22.13,-30.74 20.46,-30.42 19.10,-30.16 17.75,-29.89 16.64,-29.67 15.54,-29.45 14.33,-29.36 13.12,-29.28 11.34,-29.54 9.57,-29.81 8.11,-30.47 6.66,-31.14 5.71,-31.86 4.76,-32.58 3.65,-33.91 2.55,-35.25 2.17,-36.73 1.78,-38.22 1.81,-39.35 1.83,-40.48 1.40,-40.87 0.97,-41.25 0.68,-41.76 0.40,-42.26 0.29,-42.82 0.18,-43.39 0.26,-43.96 0.34,-44.53 0.59,-45.05 0.85,-45.56 1.26,-45.97 1.66,-46.38 2.18,-46.64 2.70,-46.89 3.27,-46.97 3.84,-47.05 4.40,-46.94 4.97,-46.83 5.47,-46.55 5.97,-46.26 6.36,-45.84 6.74,-45.41 6.97,-44.88 7.20,-44.35 7.25,-43.77 7.29,-43.20 7.15,-42.64 7.02,-42.08 6.71,-41.59 6.40,-41.11 5.95,-40.75 5.50,-40.39 4.96,-40.19 4.41,-39.99 3.84,-39.97 3.26,-39.96 2.71,-40.13 2.16,-40.30 1.69,-40.63 1.22,-40.97 0.89,-41.44 0.55,-41.90 0.38,-42.45 0.21,-43.01 0.23,-43.58 0.24,-44.16 0.44,-44.70 0.64,-45.24 1.00,-45.69 1.36,-46.14 1.85,-46.45 2.33,-46.76 2.89,-46.90 3.45,-47.04 4.03,-46.99 4.60,-46.94 5.13,-46.72 5.66,-46.49 5.66,-46.49 5.66,-46.49 7.09,-43.65 8.51,-40.80 8.54,-39.70 8.57,-38.60 9.50,-37.65 10.43,-36.70 11.48,-36.22 12.54,-35.73 13.80,-35.69 15.05,-35.65 16.19,-35.76 17.33,-35.86 18.48,-35.94 19.63,-36.03 21.29,-36.21 22.95,-36.39 24.15,-36.57 25.35,-36.75 26.78,-36.97 28.22,-37.19 29.80,-37.48 31.38,-37.77 32.79,-38.02 34.21,-38.27 35.54,-38.48 36.88,-38.70 38.07,-38.83 39.25,-38.96 41.13,-39.07 43.00,-39.17 44.18,-39.20 45.36,-39.23 46.76,-39.28 48.16,-39.32 49.59,-39.38 51.01,-39.44 53.29,-39.50 55.57,-39.55 57.04,-39.54 58.51,-39.52 59.69,-39.45 60.87,-39.38 62.03,-39.05 63.19,-38.73 64.35,-37.27 65.51,-35.81 65.56,-34.57 65.61,-33.34 65.57,-31.65 65.53,-29.96 65.53,-28.84 65.53,-27.72 65.55,-26.52 65.57,-25.32 65.61,-24.22 65.64,-23.11 65.87,-21.14 66.10,-19.18 66.58,-17.77 67.05,-16.36 67.99,-15.14 68.94,-13.92 70.34,-13.01 71.75,-12.10 72.72,-11.56 73.70,-11.01 74.72,-10.41 75.74,-9.81 76.70,-9.21 77.67,-8.62 78.87,-8.02 80.08,-7.42 81.86,-6.94 83.65,-6.46 85.43,-6.26 87.22,-6.06 89.74,-6.07 92.26,-6.08 96.01,-6.34 99.76,-6.60 101.09,-6.91 102.43,-7.22 103.62,-7.54 104.82,-7.86 106.27,-8.27 107.73,-8.68 109.83,-9.39 111.93,-10.09 114.47,-10.74 117.01,-11.40 119.87,-11.90 122.72,-12.40 126.47,-12.69 130.22,-12.97 131.91,-12.96 133.60,-12.96 134.86,-12.88 136.12,-12.80 137.77,-12.77 139.43,-12.73 141.33,-12.73 143.23,-12.73 145.37,-12.79 147.52,-12.86 149.78,-12.91 152.03,-12.96 153.82,-12.79 155.60,-12.62 156.75,-12.30 157.90,-11.99 158.94,-11.62 159.97,-11.24 161.27,-10.78 162.57,-10.31 164.01,-9.76 165.45,-9.21 167.06,-8.65 168.66,-8.09 170.46,-7.55 172.26,-7.01 173.87,-6.48 175.49,-5.94 176.84,-5.45 178.18,-4.95 179.77,-4.48 181.37,-4.01 183.90,-3.51 186.44,-3.01 188.47,-2.68 190.51,-2.34 192.97,-1.98 195.43,-1.62 197.75,-1.33 200.06,-1.05 201.78,-0.72 203.50,-0.39 204.76,0.03 206.02,0.45 207.02,0.91 208.03,1.37 209.21,1.94 210.39,2.51 211.71,3.15 213.04,3.80 214.54,4.50 216.05,5.20 217.43,5.88 218.81,6.56 220.05,7.17 221.28,7.78 222.70,8.42 224.11,9.06 226.01,9.67 227.92,10.28 230.97,10.96 234.02,11.63 236.63,11.91 239.24,12.18 241.90,12.26 244.55,12.35 247.02,12.32 249.49,12.30 251.96,12.25 254.44,12.20 256.70,12.08 258.96,11.96 261.26,11.74 263.56,11.52 265.95,11.19 268.34,10.86 270.73,10.44 273.13,10.01 275.66,9.49 278.19,8.96 280.75,8.41 283.31,7.85 286.21,7.22 289.11,6.60 292.02,5.90 294.94,5.21 297.89,4.49 300.84,3.77 304.46,2.95 308.08,2.14 312.86,1.14 317.63,0.14 321.12,-0.61 324.62,-1.36 328.06,-2.20 331.50,-3.03 335.61,-4.07 339.73,-5.11 344.01,-6.13 348.29,-7.15 351.53,-7.92 354.77,-8.70 357.50,-9.41 360.24,-10.13 363.84,-11.01 367.44,-11.89 371.11,-12.65 374.78,-13.42 378.84,-14.01 382.89,-14.61 387.17,-14.99 391.45,-15.37 395.06,-15.44 398.67,-15.52 401.48,-15.53 404.28,-15.54 407.11,-15.55 409.94,-15.56 414.68,-15.58 419.43,-15.60 424.02,-15.62 428.61,-15.64 432.97,-15.67 437.33,-15.71 438.79,-15.60 440.25,-15.49 442.84,-15.50 445.44,-15.51 448.83,-15.53 452.22,-15.55 455.47,-15.60 458.73,-15.65 462.56,-15.76 466.39,-15.87 470.80,-16.09 475.21,-16.30 479.66,-16.46 484.11,-16.61 489.07,-16.63 494.03,-16.65 498.84,-16.65 503.65,-16.65 508.27,-16.64 512.89,-16.63 516.93,-16.61 520.96,-16.59 524.44,-16.53 527.92,-16.48 531.34,-16.34 534.76,-16.20 538.06,-15.86 541.37,-15.52 545.01,-14.96 548.65,-14.41 552.66,-13.55 556.68,-12.70 558.68,-12.02 560.69,-11.33 562.45,-10.48 564.21,-9.64 566.00,-8.67 567.79,-7.70 569.44,-6.69 571.09,-5.69 573.12,-4.54 575.15,-3.39 577.32,-2.14 579.50,-0.90 581.53,0.26 583.56,1.43 585.72,2.57 587.88,3.71 590.10,4.75 592.32,5.79 594.81,6.80 597.30,7.81 599.74,8.62 602.19,9.43 604.42,9.99 606.65,10.56 608.85,10.95 611.06,11.35 613.12,11.50 615.18,11.65 617.39,11.61 619.61,11.57 621.57,11.44 623.54,11.31 626.07,10.91 628.59,10.51 629.99,9.94 631.39,9.37 633.41,8.30 635.43,7.22 638.21,5.68 640.99,4.14 644.57,2.15 648.15,0.17 651.85,-1.88 655.55,-3.93 659.38,-6.10 663.21,-8.27 666.77,-10.12 670.32,-11.98 672.77,-12.71 675.22,-13.44 677.04,-13.41 678.86,-13.38 680.44,-13.10 682.02,-12.82 683.72,-12.41 685.41,-12.01 687.53,-11.60 689.64,-11.18 692.21,-10.77 694.78,-10.35 698.04,-10.15 701.31,-9.94 702.92,-10.19 704.54,-10.44 705.88,-10.84 707.23,-11.23 708.37,-11.76 709.51,-12.29 711.27,-13.50 713.04,-14.71 713.72,-15.60 714.40,-16.49 714.75,-17.76 715.09,-19.02 715.00,-20.62 714.92,-22.21 714.51,-24.46 714.11,-26.71 713.34,-29.47 712.58,-32.23 711.53,-34.43 710.49,-36.64 709.56,-38.11 708.62,-39.57 707.24,-41.36 705.85,-43.14 703.66,-45.72 701.46,-48.30 699.08,-50.75 696.69,-53.20 693.93,-55.67 691.17,-58.14 688.17,-60.56 685.16,-62.97 682.26,-65.01 679.36,-67.05 676.00,-68.95 672.63,-70.85 669.10,-72.47 665.56,-74.09 661.79,-75.43 658.03,-76.78 654.23,-77.68 650.42,-78.59 645.25,-79.37 640.08,-80.15 634.49,-80.89 628.91,-81.62 623.38,-82.13 617.86,-82.64 612.28,-83.18 606.70,-83.73 601.64,-84.36 596.58,-84.99 592.59,-85.86 588.61,-86.74 586.59,-88.13 584.57,-89.51 583.21,-91.38 581.84,-93.25 580.96,-95.55 580.09,-97.84 579.04,-100.80 577.99,-103.77 576.63,-107.30 575.27,-110.82 573.32,-115.35 571.37,-119.87 568.39,-125.53 565.41,-131.18 562.28,-133.95 559.15,-136.72 554.31,-139.39 549.47,-142.05 544.50,-143.46 539.54,-144.87 535.79,-145.53 532.04,-146.19 528.03,-146.72 524.03,-147.26 519.01,-147.66 513.99,-148.06 509.01,-148.23 504.04,-148.40 498.68,-148.41 493.32,-148.42 487.52,-148.38 481.72,-148.34 475.63,-148.25 469.54,-148.16 462.63,-147.99 455.71,-147.81 449.46,-147.59 443.20,-147.38 436.36,-147.20 429.52,-147.02 424.26,-146.92 419.01,-146.81 416.89,-146.84 414.78,-146.87 413.26,-147.42 411.75,-147.98 411.41,-150.00 411.06,-152.02 411.44,-153.22 411.83,-154.41 412.32,-156.24 412.81,-158.07 413.39,-160.73 413.97,-163.38 414.53,-166.81 415.08,-170.23 415.40,-174.60 415.71,-178.97 415.52,-183.77 415.33,-188.56 414.48,-192.91 413.64,-197.26 412.28,-201.00 410.92,-204.73 409.18,-207.67 407.45,-210.60 405.36,-212.83 403.27,-215.07 400.61,-216.75 397.96,-218.44 394.43,-219.72 390.89,-221.00 386.91,-221.96 382.92,-222.92 378.35,-223.54 373.78,-224.17 367.84,-224.50 361.90,-224.83 356.73,-224.87 351.56,-224.90 347.33,-224.84 343.09,-224.79 338.40,-224.66 333.70,-224.54 330.02,-224.28 326.35,-224.03 324.03,-223.47 321.71,-222.91 320.12,-222.11 318.53,-221.30 317.14,-220.35 315.75,-219.40 313.89,-217.88 312.02,-216.35 309.31,-214.13 306.61,-211.92 303.41,-209.06 300.21,-206.21 296.50,-202.57 292.80,-198.92 288.87,-194.83 284.95,-190.74 281.32,-186.80 277.69,-182.85 274.43,-179.25 271.17,-175.65 268.37,-172.70 265.58,-169.75 263.13,-167.87 260.68,-165.99 258.38,-165.27 256.08,-164.55 253.78,-164.51 251.48,-164.47 249.04,-164.66 246.60,-164.85 243.94,-165.11 241.28,-165.38 238.14,-165.71 235.00,-166.05 231.16,-166.43 227.32,-166.80 223.95,-166.97 220.57,-167.13 217.57,-167.10 214.57,-167.06 211.32,-166.99 208.08,-166.92 205.53,-166.77 202.97,-166.61 200.43,-166.27 197.89,-165.92 195.55,-165.38 193.21,-164.84 191.67,-164.17 190.13,-163.50 188.68,-162.49 187.24,-161.48 185.54,-160.01 183.85,-158.53 182.12,-156.74 180.39,-154.96 178.58,-152.58 176.76,-150.19 174.34,-146.72 171.92,-143.24 170.45,-140.84 168.98,-138.44 167.70,-136.09 166.42,-133.74 165.23,-131.48 164.04,-129.22 162.84,-126.97 161.65,-124.72 160.43,-122.58 159.20,-120.45 157.75,-118.46 156.29,-116.46 154.54,-114.65 152.79,-112.83 150.36,-111.03 147.93,-109.23 144.82,-107.32 141.71,-105.41 138.32,-103.52 134.93,-101.63 130.59,-99.47 126.25,-97.32 119.57,-94.28 112.90,-91.23 106.01,-88.00 99.12,-84.76 93.76,-82.13 88.41,-79.50 81.17,-75.94 73.93,-72.38 67.67,-69.34 61.41,-66.30 57.94,-64.71 54.48,-63.11 49.91,-61.02 45.34,-58.92 39.20,-56.24 33.06,-53.56 27.95,-51.44 22.84,-49.32 18.09,-47.51 13.34,-45.70 8.84,-44.18 4.34,-42.66 2.30,-42.28 0.27,-41.89 0.08,-41.88 -0.10,-41.87 -0.28,-41.91 -0.47,-41.94 -0.64,-42.02 -0.81,-42.10 -0.96,-42.22 -1.11,-42.34 -1.22,-42.48 -1.34,-42.63 -1.42,-42.81 -1.49,-42.98 -1.53,-43.17 -1.56,-43.35 -1.55,-43.54 -1.54,-43.73 -1.48,-43.91 -1.42,-44.09 -1.32,-44.25 -1.22,-44.41 -1.09,-44.54 -0.96,-44.68 -0.79,-44.77 -0.63,-44.87 -0.45,-44.93 -0.27,-44.98 -0.27,-44.98 L -0.27,-44.98 Z"></path></g><g transform="translate(593.4484241553128 136.88514874876887) rotate(0 18.624519224463825 -10.993242941763)" stroke="none"><path fill="#1e1e1e" d="M -1.37,-1.33 Q -1.37,-1.33 -0.41,-2.39 0.53,-3.44 1.61,-4.48 2.70,-5.51 4.12,-6.60 5.54,-7.69 7.53,-8.99 9.53,-10.29 11.21,-11.40 12.89,-12.51 15.05,-13.63 17.20,-14.76 19.59,-15.90 21.99,-17.04 23.46,-17.82 24.93,-18.60 26.45,-19.33 27.97,-20.06 29.37,-20.73 30.77,-21.40 33.59,-22.65 36.41,-23.90 36.74,-23.96 37.08,-24.03 37.41,-23.98 37.75,-23.93 38.05,-23.78 38.35,-23.63 38.59,-23.39 38.83,-23.15 38.97,-22.85 39.12,-22.54 39.17,-22.21 39.21,-21.87 39.15,-21.54 39.08,-21.21 38.91,-20.92 38.75,-20.62 38.49,-20.40 38.24,-20.17 37.93,-20.04 37.62,-19.91 37.28,-19.88 36.95,-19.86 36.62,-19.94 36.29,-20.02 36.01,-20.21 35.72,-20.39 35.51,-20.65 35.30,-20.92 35.19,-21.24 35.07,-21.55 35.06,-21.89 35.06,-22.23 35.16,-22.55 35.26,-22.87 35.46,-23.15 35.65,-23.42 35.93,-23.62 36.20,-23.81 36.53,-23.91 36.85,-24.01 37.19,-24.00 37.53,-23.99 37.84,-23.87 38.16,-23.75 38.42,-23.54 38.68,-23.33 38.87,-23.04 39.05,-22.75 39.13,-22.43 39.21,-22.10 39.18,-21.76 39.15,-21.43 39.01,-21.12 38.88,-20.81 38.65,-20.56 38.43,-20.30 38.13,-20.14 37.84,-19.97 37.84,-19.97 37.84,-19.97 35.06,-18.96 32.28,-17.94 30.86,-17.38 29.43,-16.81 27.92,-16.18 26.40,-15.55 24.89,-14.89 23.39,-14.23 21.10,-13.04 18.81,-11.84 16.87,-10.70 14.93,-9.56 13.32,-8.39 11.72,-7.22 9.91,-5.81 8.10,-4.39 6.81,-3.38 5.52,-2.36 4.47,-1.49 3.43,-0.61 2.40,0.36 1.37,1.33 1.19,1.48 1.01,1.62 0.80,1.72 0.59,1.82 0.36,1.86 0.13,1.91 -0.09,1.89 -0.32,1.88 -0.54,1.82 -0.76,1.75 -0.96,1.63 -1.16,1.52 -1.32,1.36 -1.49,1.19 -1.61,1.00 -1.73,0.80 -1.80,0.58 -1.88,0.36 -1.89,0.13 -1.91,-0.09 -1.87,-0.32 -1.83,-0.54 -1.74,-0.76 -1.65,-0.97 -1.51,-1.15 -1.37,-1.33 -1.37,-1.33 L -1.37,-1.33 Z"></path></g><g transform="translate(641.3277478293066 93.92531923239108) rotate(0 -1.3683262348740755 17.331858563522886)" stroke="none"><path fill="#1e1e1e" d="M 2.35,0.97 Q 2.35,0.97 1.54,2.67 0.73,4.38 0.09,5.74 -0.54,7.10 -0.96,8.09 -1.39,9.07 -1.99,10.55 -2.60,12.03 -3.17,13.29 -3.73,14.56 -4.29,15.69 -4.84,16.82 -5.30,17.87 -5.75,18.93 -6.25,20.00 -6.75,21.07 -7.77,20.00 -8.78,18.92 -7.22,19.97 -5.66,21.03 -4.58,21.85 -3.49,22.68 -2.40,23.47 -1.31,24.27 -0.28,24.97 0.75,25.67 1.70,26.31 2.66,26.94 3.88,27.64 5.09,28.35 6.33,28.87 7.57,29.38 8.91,30.72 10.26,32.07 10.61,32.47 10.96,32.88 11.16,33.37 11.36,33.86 11.40,34.40 11.43,34.93 11.29,35.45 11.16,35.96 10.86,36.41 10.56,36.85 10.14,37.18 9.72,37.50 9.22,37.68 8.71,37.85 8.18,37.86 7.65,37.86 7.14,37.70 6.63,37.53 6.20,37.21 5.78,36.90 5.47,36.46 5.17,36.02 5.02,35.51 4.87,34.99 4.90,34.46 4.92,33.93 5.11,33.43 5.31,32.93 5.65,32.52 5.99,32.11 6.44,31.83 6.90,31.55 7.42,31.43 7.94,31.31 8.47,31.37 9.00,31.42 9.49,31.64 9.97,31.86 10.36,32.22 10.76,32.58 11.01,33.05 11.26,33.52 11.36,34.05 11.45,34.57 11.37,35.10 11.28,35.63 11.04,36.10 10.79,36.58 10.41,36.95 10.03,37.32 9.54,37.55 9.06,37.77 8.53,37.84 8.00,37.90 7.48,37.79 6.96,37.68 6.50,37.41 6.04,37.14 6.04,37.14 6.04,37.14 5.02,36.05 3.99,34.96 3.00,34.39 2.01,33.81 0.67,32.96 -0.65,32.11 -1.62,31.51 -2.59,30.91 -3.71,30.24 -4.82,29.56 -6.02,28.84 -7.22,28.11 -8.40,27.39 -9.57,26.66 -11.08,25.67 -12.59,24.67 -13.45,23.26 -14.31,21.86 -14.01,20.55 -13.71,19.24 -12.96,18.31 -12.21,17.37 -11.61,16.41 -11.00,15.45 -10.45,14.46 -9.89,13.46 -9.27,12.56 -8.65,11.66 -8.01,10.69 -7.38,9.73 -6.61,8.33 -5.83,6.93 -5.33,5.99 -4.83,5.04 -4.22,3.81 -3.61,2.57 -2.98,0.80 -2.35,-0.97 -2.20,-1.24 -2.05,-1.50 -1.84,-1.73 -1.62,-1.95 -1.37,-2.12 -1.11,-2.28 -0.82,-2.38 -0.53,-2.48 -0.22,-2.51 0.07,-2.54 0.37,-2.49 0.68,-2.45 0.96,-2.33 1.24,-2.21 1.49,-2.03 1.74,-1.85 1.94,-1.61 2.13,-1.38 2.27,-1.10 2.40,-0.83 2.46,-0.53 2.53,-0.23 2.52,0.07 2.51,0.38 2.43,0.67 2.35,0.97 2.35,0.97 L 2.35,0.97 Z"></path></g><g transform="translate(655.248645621391 104.82396154231401) rotate(0 -10.731782361486466 5.26697906701402)" stroke="none"><path fill="#1e1e1e" d="M 0.73,2.54 Q 0.73,2.54 -0.60,2.91 -1.95,3.29 -2.99,3.70 -4.03,4.10 -5.70,4.90 -7.37,5.70 -8.83,6.46 -10.29,7.22 -11.60,7.95 -12.92,8.69 -14.06,9.34 -15.21,9.99 -16.36,10.68 -17.52,11.37 -18.98,12.47 -20.43,13.56 -20.94,13.62 -21.46,13.69 -21.96,13.58 -22.47,13.48 -22.92,13.22 -23.37,12.96 -23.71,12.57 -24.05,12.18 -24.24,11.70 -24.44,11.22 -24.48,10.71 -24.51,10.19 -24.38,9.69 -24.25,9.19 -23.97,8.76 -23.68,8.32 -23.27,8.01 -22.87,7.69 -22.38,7.51 -21.89,7.34 -21.37,7.34 -20.86,7.33 -20.36,7.49 -19.87,7.64 -19.45,7.95 -19.04,8.26 -18.74,8.68 -18.45,9.11 -18.30,9.60 -18.15,10.10 -18.18,10.62 -18.20,11.14 -18.38,11.62 -18.57,12.10 -18.90,12.50 -19.23,12.90 -19.66,13.17 -20.10,13.45 -20.61,13.56 -21.11,13.68 -21.63,13.63 -22.14,13.58 -22.61,13.37 -23.09,13.16 -23.47,12.81 -23.85,12.46 -24.10,12.01 -24.35,11.55 -24.44,11.04 -24.53,10.53 -24.45,10.02 -24.37,9.51 -24.14,9.05 -23.90,8.59 -23.53,8.23 -23.16,7.87 -22.69,7.65 -22.23,7.42 -22.23,7.42 -22.23,7.42 -20.69,6.28 -19.16,5.13 -18.03,4.55 -16.90,3.98 -15.58,3.35 -14.25,2.71 -12.77,2.03 -11.29,1.35 -9.61,0.65 -7.93,-0.04 -6.90,-0.45 -5.88,-0.86 -4.64,-1.30 -3.41,-1.74 -2.07,-2.14 -0.73,-2.54 -0.42,-2.59 -0.10,-2.64 0.21,-2.61 0.52,-2.59 0.83,-2.49 1.13,-2.38 1.40,-2.21 1.67,-2.04 1.89,-1.81 2.11,-1.58 2.27,-1.31 2.43,-1.03 2.52,-0.72 2.61,-0.42 2.62,-0.10 2.63,0.21 2.57,0.52 2.50,0.83 2.37,1.12 2.23,1.41 2.03,1.66 1.83,1.90 1.57,2.09 1.32,2.29 1.02,2.41 0.73,2.54 0.73,2.54 L 0.73,2.54 Z"></path></g><g transform="translate(100.58612055796902 149.49847213648434) rotate(0 -32.53459417874069 -12.008277590892703)" stroke="none"><path fill="#1e1e1e" d="M -0.98,1.21 Q -0.98,1.21 -3.00,-0.46 -5.03,-2.14 -7.24,-3.74 -9.46,-5.33 -12.04,-6.97 -14.63,-8.61 -17.47,-10.23 -20.32,-11.84 -23.17,-13.26 -26.03,-14.68 -29.11,-15.92 -32.20,-17.17 -35.23,-18.19 -38.25,-19.21 -41.69,-20.06 -45.13,-20.91 -48.40,-21.45 -51.66,-22.00 -53.87,-22.23 -56.08,-22.47 -57.76,-22.48 -59.45,-22.50 -62.12,-22.53 -64.80,-22.56 -65.05,-22.61 -65.30,-22.65 -65.52,-22.77 -65.74,-22.90 -65.91,-23.08 -66.08,-23.27 -66.19,-23.50 -66.29,-23.73 -66.31,-23.99 -66.33,-24.24 -66.28,-24.48 -66.22,-24.73 -66.08,-24.95 -65.95,-25.16 -65.75,-25.32 -65.56,-25.48 -65.32,-25.57 -65.08,-25.66 -64.83,-25.67 -64.58,-25.68 -64.33,-25.61 -64.09,-25.54 -63.88,-25.39 -63.68,-25.25 -63.53,-25.04 -63.38,-24.84 -63.30,-24.60 -63.22,-24.35 -63.23,-24.10 -63.23,-23.85 -63.32,-23.61 -63.40,-23.37 -63.56,-23.17 -63.71,-22.97 -63.93,-22.83 -64.14,-22.70 -64.38,-22.63 -64.63,-22.57 -64.88,-22.59 -65.13,-22.60 -65.37,-22.70 -65.60,-22.80 -65.79,-22.97 -65.98,-23.13 -66.11,-23.35 -66.24,-23.57 -66.29,-23.82 -66.34,-24.07 -66.31,-24.32 -66.27,-24.57 -66.16,-24.80 -66.05,-25.03 -65.88,-25.21 -65.70,-25.39 -65.47,-25.50 -65.25,-25.62 -65.00,-25.66 -64.75,-25.69 -64.75,-25.69 -64.75,-25.69 -62.01,-25.58 -59.27,-25.46 -57.54,-25.28 -55.80,-25.10 -53.51,-24.86 -51.23,-24.62 -47.86,-24.06 -44.50,-23.49 -40.95,-22.62 -37.40,-21.75 -34.30,-20.71 -31.20,-19.67 -28.01,-18.40 -24.82,-17.12 -21.89,-15.69 -18.96,-14.25 -16.05,-12.63 -13.13,-11.00 -10.46,-9.35 -7.79,-7.69 -5.47,-6.08 -3.15,-4.46 -1.08,-2.84 0.98,-1.21 1.11,-1.08 1.24,-0.94 1.33,-0.78 1.43,-0.61 1.48,-0.43 1.54,-0.25 1.54,-0.07 1.55,0.11 1.52,0.30 1.48,0.48 1.40,0.65 1.32,0.82 1.20,0.97 1.08,1.12 0.93,1.23 0.78,1.34 0.61,1.42 0.44,1.49 0.25,1.52 0.07,1.56 -0.11,1.54 -0.30,1.53 -0.48,1.47 -0.66,1.41 -0.82,1.31 -0.98,1.21 -0.98,1.21 L -0.98,1.21 Z"></path></g><g transform="translate(24.036453745798553 114.36908317740813) rotate(0 0.16340703004038915 13.943239107328012)" stroke="none"><path fill="#1e1e1e" d="M 1.97,-1.58 Q 1.97,-1.58 2.99,-0.24 4.01,1.10 4.79,2.09 5.57,3.09 6.61,4.34 7.65,5.59 8.37,6.48 9.08,7.38 10.06,8.16 11.04,8.94 11.47,9.25 11.90,9.56 12.27,9.68 12.64,9.80 12.97,10.01 13.30,10.22 13.57,10.49 13.85,10.77 14.04,11.11 14.24,11.45 14.35,11.82 14.46,12.19 14.48,12.58 14.50,12.97 14.43,13.36 14.35,13.74 14.19,14.09 14.02,14.44 13.78,14.75 13.53,15.05 13.22,15.29 12.91,15.53 12.56,15.68 12.20,15.84 11.82,15.90 11.43,15.97 11.04,15.94 10.65,15.91 9.44,16.64 8.23,17.37 7.17,17.93 6.11,18.50 5.00,19.15 3.88,19.80 2.55,20.59 1.22,21.39 -0.26,22.28 -1.75,23.17 -2.75,23.90 -3.76,24.63 -4.92,25.64 -6.09,26.66 -7.33,28.15 -8.57,29.64 -8.90,29.98 -9.23,30.31 -9.65,30.53 -10.08,30.74 -10.54,30.81 -11.01,30.88 -11.48,30.79 -11.94,30.71 -12.36,30.48 -12.77,30.25 -13.09,29.90 -13.41,29.55 -13.60,29.12 -13.79,28.69 -13.84,28.22 -13.88,27.75 -13.77,27.28 -13.66,26.82 -13.41,26.42 -13.16,26.02 -12.79,25.72 -12.43,25.42 -11.98,25.26 -11.54,25.09 -11.07,25.07 -10.59,25.05 -10.14,25.19 -9.69,25.32 -9.30,25.59 -8.91,25.87 -8.63,26.25 -8.35,26.63 -8.21,27.08 -8.07,27.53 -8.08,28.01 -8.08,28.48 -8.24,28.92 -8.40,29.37 -8.70,29.74 -8.99,30.11 -9.38,30.37 -9.78,30.63 -10.24,30.75 -10.70,30.87 -11.17,30.83 -11.64,30.80 -12.08,30.62 -12.51,30.43 -12.87,30.12 -13.22,29.81 -13.46,29.40 -13.70,28.99 -13.79,28.53 -13.88,28.06 -13.83,27.59 -13.77,27.12 -13.56,26.70 -13.35,26.27 -13.35,26.27 -13.35,26.27 -11.55,24.27 -9.74,22.27 -8.35,21.24 -6.96,20.20 -5.90,19.43 -4.84,18.66 -3.44,17.58 -2.04,16.50 -0.73,15.53 0.57,14.56 1.73,13.77 2.89,12.98 4.07,12.23 5.25,11.49 7.04,10.67 8.83,9.85 10.37,9.70 11.90,9.56 12.27,9.68 12.64,9.80 12.97,10.01 13.30,10.22 13.57,10.49 13.85,10.77 14.04,11.11 14.24,11.45 14.35,11.82 14.46,12.19 14.48,12.58 14.50,12.97 14.43,13.35 14.35,13.74 14.19,14.09 14.02,14.44 13.78,14.75 13.53,15.05 13.22,15.29 12.91,15.53 12.56,15.68 12.20,15.84 11.82,15.90 11.43,15.97 11.04,15.94 10.65,15.91 10.38,15.84 10.11,15.76 9.06,15.08 8.02,14.40 7.15,13.69 6.27,12.98 5.47,11.98 4.67,10.97 4.04,9.91 3.42,8.85 2.50,7.46 1.58,6.08 0.89,5.12 0.21,4.15 -0.88,2.87 -1.97,1.58 -2.13,1.32 -2.30,1.06 -2.39,0.77 -2.49,0.48 -2.51,0.18 -2.53,-0.12 -2.48,-0.42 -2.43,-0.72 -2.30,-1.00 -2.18,-1.28 -2.00,-1.52 -1.81,-1.77 -1.57,-1.96 -1.33,-2.15 -1.06,-2.28 -0.78,-2.41 -0.48,-2.47 -0.18,-2.53 0.12,-2.51 0.42,-2.50 0.72,-2.41 1.01,-2.32 1.27,-2.17 1.54,-2.01 1.75,-1.80 1.97,-1.58 1.97,-1.58 L 1.97,-1.58 Z"></path></g><g transform="translate(11.061636929809993 128.19880525941278) rotate(0 9.785720049814472 0.22446769237932074)" stroke="none"><path fill="#1e1e1e" d="M -0.05,-2.54 Q -0.05,-2.54 1.63,-2.52 3.31,-2.51 4.67,-2.54 6.03,-2.56 7.24,-2.60 8.45,-2.63 10.07,-2.72 11.69,-2.81 12.88,-2.87 14.08,-2.94 15.42,-2.82 16.77,-2.71 18.23,-2.59 19.69,-2.47 20.18,-2.37 20.66,-2.27 21.08,-2.01 21.50,-1.76 21.82,-1.39 22.15,-1.01 22.33,-0.55 22.51,-0.10 22.54,0.39 22.57,0.88 22.44,1.35 22.31,1.83 22.03,2.24 21.76,2.65 21.37,2.95 20.98,3.25 20.51,3.41 20.04,3.57 19.55,3.57 19.06,3.57 18.59,3.41 18.12,3.26 17.73,2.96 17.33,2.66 17.06,2.26 16.78,1.85 16.64,1.37 16.51,0.90 16.54,0.41 16.56,-0.08 16.74,-0.53 16.92,-0.99 17.24,-1.37 17.56,-1.75 17.98,-2.00 18.40,-2.26 18.88,-2.37 19.36,-2.47 19.85,-2.42 20.34,-2.37 20.79,-2.16 21.24,-1.96 21.60,-1.62 21.96,-1.28 22.19,-0.85 22.42,-0.41 22.51,0.06 22.59,0.55 22.51,1.04 22.43,1.52 22.20,1.96 21.97,2.40 21.62,2.74 21.26,3.08 20.81,3.29 20.36,3.49 19.87,3.55 19.38,3.60 19.39,3.60 19.39,3.60 16.84,3.31 14.30,3.01 13.00,2.79 11.70,2.58 10.09,2.50 8.48,2.41 7.28,2.39 6.08,2.37 4.75,2.37 3.41,2.37 1.73,2.46 0.05,2.54 -0.25,2.51 -0.55,2.48 -0.84,2.37 -1.13,2.27 -1.39,2.10 -1.64,1.93 -1.85,1.71 -2.06,1.48 -2.21,1.21 -2.36,0.94 -2.44,0.65 -2.51,0.35 -2.52,0.05 -2.53,-0.25 -2.46,-0.55 -2.39,-0.85 -2.25,-1.12 -2.12,-1.40 -1.92,-1.63 -1.72,-1.87 -1.47,-2.05 -1.22,-2.22 -0.94,-2.34 -0.65,-2.45 -0.35,-2.50 -0.05,-2.54 -0.05,-2.54 L -0.05,-2.54 Z"></path></g><g transform="translate(293.92264517901503 113.38016173866095) rotate(0 -3.621645169757471 8.815202670448258)" stroke="none"><path fill="#1e1e1e" d="M 8.46,5.21 Q 8.46,5.21 7.46,7.20 6.45,9.20 5.42,13.69 4.40,18.19 4.29,18.45 4.18,18.71 3.69,20.50 3.20,22.29 2.16,23.83 1.12,25.37 -0.34,26.50 -1.82,27.63 -3.58,28.22 -5.34,28.82 -7.19,28.83 -9.05,28.83 -10.81,28.24 -12.57,27.66 -14.06,26.54 -15.54,25.42 -16.58,23.88 -17.63,22.35 -18.13,20.56 -18.63,18.77 -18.54,16.92 -18.44,15.06 -17.76,13.33 -17.08,11.61 -15.88,10.19 -14.68,8.77 -13.09,7.81 -11.50,6.84 -9.69,6.44 -7.88,6.04 -6.03,6.23 -4.18,6.43 -2.49,7.20 -0.81,7.98 0.53,9.25 1.89,10.53 2.76,12.17 3.64,13.80 3.94,15.64 4.25,17.47 3.95,19.30 3.65,21.14 2.79,22.78 1.92,24.42 0.58,25.70 -0.76,26.98 -2.44,27.77 -4.13,28.55 -5.97,28.76 -7.82,28.96 -9.63,28.57 -11.45,28.17 -13.04,27.22 -14.64,26.27 -15.84,24.85 -17.05,23.44 -17.74,21.72 -18.43,19.99 -18.54,18.14 -18.64,16.29 -18.64,16.29 -18.64,16.29 -17.05,11.39 -15.46,6.50 -13.29,2.44 -11.12,-1.62 -9.79,-3.41 -8.46,-5.21 -7.71,-6.15 -6.97,-7.08 -6.02,-7.82 -5.07,-8.55 -3.97,-9.03 -2.87,-9.51 -1.69,-9.72 -0.51,-9.92 0.67,-9.84 1.87,-9.76 3.01,-9.39 4.15,-9.03 5.17,-8.40 6.19,-7.77 7.03,-6.92 7.87,-6.06 8.48,-5.03 9.10,-4.00 9.44,-2.85 9.79,-1.71 9.85,-0.51 9.91,0.68 9.69,1.86 9.46,3.03 8.96,4.12 8.46,5.21 8.46,5.21 L 8.46,5.21 Z"></path></g><g transform="translate(406.3775475698917 99.06178849777643) rotate(0 -5.642191937307189 12.763276733641248)" stroke="none"><path fill="#1e1e1e" d="M 9.14,4.13 Q 9.14,4.13 8.13,6.84 7.12,9.55 5.40,13.70 3.67,17.86 1.28,24.98 -1.10,32.10 -2.44,33.53 -3.78,34.96 -5.51,35.89 -7.23,36.82 -9.17,37.15 -11.10,37.48 -13.03,37.17 -14.97,36.87 -16.71,35.96 -18.45,35.05 -19.80,33.64 -21.16,32.22 -21.99,30.45 -22.83,28.68 -23.05,26.73 -23.27,24.78 -22.87,22.86 -22.46,20.95 -21.46,19.26 -20.46,17.58 -18.97,16.30 -17.48,15.02 -15.67,14.28 -13.85,13.55 -11.89,13.43 -9.94,13.31 -8.05,13.82 -6.15,14.34 -4.52,15.43 -2.90,16.52 -1.70,18.07 -0.50,19.62 0.12,21.48 0.76,23.33 0.77,25.29 0.78,27.25 0.17,29.11 -0.44,30.97 -1.61,32.54 -2.79,34.11 -4.40,35.22 -6.02,36.33 -7.91,36.86 -9.79,37.40 -11.75,37.30 -13.71,37.21 -15.53,36.50 -17.36,35.78 -18.86,34.52 -20.36,33.26 -21.38,31.59 -22.40,29.91 -22.83,28.00 -23.27,26.09 -23.07,24.14 -22.87,22.19 -22.05,20.41 -21.24,18.62 -21.24,18.63 -21.24,18.63 -21.03,17.49 -20.81,16.36 -18.84,12.53 -16.87,8.69 -14.37,4.83 -11.87,0.97 -10.51,-1.57 -9.14,-4.13 -8.52,-5.16 -7.89,-6.19 -7.03,-7.05 -6.17,-7.90 -5.14,-8.53 -4.10,-9.15 -2.95,-9.51 -1.79,-9.87 -0.58,-9.94 0.61,-10.01 1.80,-9.79 2.99,-9.57 4.10,-9.08 5.20,-8.58 6.15,-7.83 7.10,-7.08 7.85,-6.13 8.59,-5.18 9.09,-4.07 9.58,-2.97 9.80,-1.78 10.01,-0.59 9.94,0.61 9.86,1.82 9.50,2.97 9.14,4.13 9.14,4.13 L 9.14,4.13 Z"></path></g><g transform="translate(212.54713731991978 184.22206412948185) rotate(0 131.45681543706343 13.175403847205757)" stroke="none"><path fill="#1e1e1e" d="M 0,-1.59 Q 0,-1.59 1.67,-1.65 3.35,-1.70 6.26,-1.65 9.17,-1.59 13.10,-1.56 17.04,-1.52 20.74,-1.49 24.43,-1.46 28.41,-1.44 32.38,-1.42 37.43,-1.40 42.48,-1.39 47.25,-1.38 52.02,-1.37 55.97,-1.36 59.92,-1.35 63.74,-1.34 67.55,-1.34 70.57,-1.29 73.58,-1.24 77.66,-1.05 81.74,-0.86 86.03,-0.61 90.33,-0.36 93.58,-0.07 96.82,0.22 100.35,0.58 103.88,0.95 106.99,1.23 110.10,1.52 113.35,1.78 116.60,2.04 119.88,2.28 123.16,2.53 125.77,2.70 128.38,2.87 131.09,3.01 133.80,3.16 136.30,3.24 138.80,3.33 140.93,3.37 143.07,3.40 146.40,3.42 149.74,3.44 153.32,3.44 156.89,3.45 159.75,3.45 162.62,3.46 165.64,3.46 168.67,3.46 171.24,3.46 173.80,3.46 177.11,3.46 180.42,3.46 184.02,3.46 187.63,3.46 190.08,3.46 192.53,3.46 195.62,3.46 198.71,3.46 201.90,3.42 205.09,3.38 207.66,3.28 210.22,3.18 213.32,3.05 216.41,2.92 219.18,2.81 221.95,2.69 224.62,2.65 227.29,2.60 230.02,2.58 232.76,2.56 234.72,2.51 236.69,2.47 238.99,2.48 241.29,2.48 243.68,2.49 246.06,2.49 247.86,2.51 249.65,2.52 251.67,2.78 253.70,3.03 255.49,3.34 257.29,3.66 258.51,3.88 259.72,4.11 261.26,4.47 262.80,4.83 263.83,5.72 264.86,6.60 265.06,8.14 265.26,9.67 264.61,11.49 263.95,13.31 263.07,15.16 262.18,17.01 261.56,17.97 260.95,18.93 260.25,19.80 259.55,20.66 258.79,21.42 258.03,22.17 257.10,22.85 256.17,23.53 254.25,24.34 252.34,25.15 250.47,25.66 248.60,26.18 246.37,26.47 244.14,26.76 241.96,27.00 239.78,27.23 237.65,27.40 235.53,27.57 233.44,27.64 231.35,27.71 229.04,27.70 226.72,27.69 224.66,27.68 222.59,27.68 220.57,27.68 218.54,27.68 216.62,27.70 214.70,27.72 212.71,27.61 210.71,27.50 208.50,27.21 206.29,26.93 204.62,26.79 202.96,26.66 201.59,26.60 200.22,26.54 198.53,26.34 196.85,26.14 194.84,25.84 192.84,25.53 190.78,25.26 188.72,24.98 186.86,24.78 185.00,24.58 183.45,24.50 181.90,24.41 180.05,24.23 178.20,24.05 176.44,23.88 174.69,23.70 173.18,23.62 171.68,23.54 169.85,23.35 168.01,23.17 166.41,23.04 164.81,22.91 163.63,22.92 162.46,22.92 160.48,23.01 158.51,23.10 156.30,23.17 154.08,23.24 152.65,23.23 151.22,23.23 149.53,23.18 147.85,23.14 146.25,23.11 144.64,23.09 143.16,23.09 141.68,23.10 140.35,23.12 139.01,23.14 137.67,23.15 136.33,23.17 134.91,23.17 133.48,23.18 131.62,23.10 129.77,23.02 127.81,22.94 125.86,22.85 123.97,22.80 122.08,22.75 120.11,22.70 118.13,22.65 116.30,22.73 114.47,22.80 112.51,22.91 110.55,23.02 108.32,23.14 106.10,23.25 103.64,23.46 101.17,23.66 98.93,23.89 96.69,24.13 94.31,24.39 91.93,24.66 89.55,24.94 87.18,25.22 85.35,25.49 83.51,25.76 81.61,26.00 79.70,26.23 77.90,26.47 76.09,26.71 74.36,26.91 72.63,27.11 70.67,27.23 68.71,27.36 67.04,27.52 65.38,27.68 63.47,27.80 61.55,27.91 59.98,28.02 58.41,28.13 57.02,28.22 55.64,28.31 54.14,28.36 52.64,28.41 51.10,28.43 49.55,28.46 48.21,28.51 46.87,28.55 45.65,28.59 44.43,28.63 43.32,28.59 42.22,28.56 40.31,28.30 38.41,28.04 37.28,27.83 36.14,27.62 34.90,27.33 33.66,27.04 32.49,26.73 31.32,26.41 30.21,26.04 29.10,25.68 27.54,25.16 25.97,24.64 24.54,24.08 23.11,23.53 21.73,23.01 20.34,22.50 18.94,21.90 17.55,21.31 16.50,20.85 15.45,20.39 14.43,19.79 13.41,19.19 12.28,18.29 11.16,17.38 10.27,16.64 9.38,15.90 8.45,14.93 7.52,13.96 6.60,13.15 5.68,12.33 4.85,11.55 4.03,10.77 3.06,10.11 2.10,9.45 0.49,8.44 -1.10,7.43 -1.47,6.97 -1.83,6.52 -2.04,5.96 -2.24,5.41 -2.26,4.82 -2.27,4.24 -2.10,3.67 -1.93,3.11 -1.58,2.63 -1.24,2.15 -0.76,1.81 -0.29,1.47 0.27,1.30 0.83,1.12 1.42,1.14 2.01,1.15 2.56,1.36 3.11,1.56 3.57,1.93 4.03,2.30 4.34,2.79 4.66,3.29 4.80,3.86 4.95,4.43 4.90,5.02 4.85,5.60 4.62,6.14 4.39,6.68 3.99,7.12 3.60,7.56 3.09,7.85 2.58,8.14 2.00,8.25 1.42,8.36 0.84,8.28 0.25,8.20 -0.26,7.94 -0.79,7.68 -1.21,7.26 -1.62,6.85 -1.88,6.32 -2.15,5.79 -2.22,5.21 -2.30,4.63 -2.19,4.05 -2.08,3.47 -1.79,2.96 -1.50,2.45 -1.07,2.05 -0.63,1.66 -0.09,1.43 0.44,1.20 1.03,1.15 1.62,1.10 2.19,1.24 2.76,1.38 3.25,1.70 3.75,2.02 3.75,2.02 3.75,2.02 5.17,2.85 6.59,3.68 7.60,4.46 8.60,5.25 9.45,6.12 10.30,6.99 11.31,7.94 12.33,8.90 13.03,9.75 13.72,10.60 14.61,11.45 15.50,12.31 16.28,13.05 17.05,13.78 18.04,14.44 19.04,15.09 20.24,15.68 21.45,16.27 22.74,16.85 24.03,17.43 25.39,18.06 26.75,18.70 28.02,19.27 29.30,19.84 31.04,20.53 32.79,21.21 33.85,21.53 34.91,21.85 36.07,22.14 37.22,22.43 39.19,22.89 41.16,23.35 42.82,23.68 44.47,24.01 45.67,24.07 46.86,24.13 48.20,24.18 49.54,24.22 51.08,24.24 52.61,24.26 54.09,24.29 55.57,24.32 56.93,24.36 58.28,24.40 59.80,24.40 61.32,24.41 63.23,24.27 65.13,24.13 66.80,24.06 68.47,23.99 70.40,23.84 72.33,23.70 74.03,23.60 75.72,23.49 77.54,23.32 79.36,23.15 81.25,22.96 83.14,22.77 84.99,22.59 86.83,22.41 89.20,22.10 91.58,21.78 93.96,21.47 96.33,21.15 98.60,20.84 100.86,20.53 103.34,20.23 105.83,19.93 108.05,19.68 110.27,19.44 112.28,19.24 114.28,19.04 116.20,18.93 118.12,18.81 120.10,18.74 122.08,18.68 123.97,18.63 125.86,18.58 127.81,18.49 129.77,18.41 131.62,18.33 133.48,18.25 134.91,18.26 136.33,18.26 137.67,18.27 139.01,18.29 140.35,18.31 141.68,18.33 143.16,18.34 144.64,18.34 146.25,18.32 147.86,18.29 149.54,18.25 151.22,18.20 152.66,18.20 154.09,18.20 155.28,18.23 156.46,18.26 158.47,18.39 160.49,18.51 161.59,18.61 162.69,18.71 163.95,18.85 165.20,18.98 166.79,19.17 168.37,19.36 170.19,19.52 172.02,19.68 173.55,19.86 175.09,20.04 176.81,20.25 178.54,20.46 180.39,20.63 182.24,20.81 183.81,21.02 185.38,21.22 187.23,21.45 189.07,21.67 191.17,21.84 193.28,22.01 195.32,22.21 197.36,22.41 198.98,22.67 200.60,22.92 201.98,23.15 203.35,23.38 204.99,23.65 206.63,23.91 208.76,24.11 210.90,24.32 212.80,24.43 214.70,24.55 216.61,24.56 218.53,24.57 220.55,24.55 222.56,24.54 224.61,24.49 226.66,24.45 228.91,24.34 231.16,24.24 233.13,24.09 235.11,23.94 237.12,23.63 239.14,23.31 241.21,22.85 243.27,22.40 245.19,21.86 247.12,21.32 248.56,20.82 249.99,20.33 251.43,19.50 252.86,18.68 254.03,17.82 255.19,16.96 256.24,15.68 257.29,14.39 258.21,12.71 259.14,11.02 260.15,9.90 261.17,8.78 259.96,8.20 258.76,7.61 257.71,7.21 256.65,6.81 254.98,6.42 253.30,6.03 251.40,5.76 249.51,5.50 247.79,5.35 246.06,5.20 243.68,5.21 241.29,5.21 239.00,5.23 236.70,5.24 234.74,5.21 232.78,5.19 230.05,5.21 227.33,5.23 224.69,5.27 222.05,5.32 219.29,5.43 216.52,5.54 213.42,5.67 210.32,5.81 207.72,5.91 205.12,6.00 201.92,6.04 198.71,6.09 195.62,6.09 192.53,6.09 190.08,6.09 187.63,6.09 184.02,6.09 180.42,6.09 177.11,6.09 173.80,6.09 171.23,6.09 168.67,6.08 165.64,6.08 162.61,6.08 159.75,6.08 156.89,6.08 153.31,6.07 149.73,6.06 146.38,6.05 143.02,6.03 140.87,5.99 138.71,5.96 136.18,5.87 133.66,5.78 130.93,5.64 128.21,5.49 125.59,5.32 122.97,5.15 119.68,4.91 116.39,4.66 113.12,4.40 109.86,4.14 106.73,3.86 103.61,3.57 100.10,3.21 96.59,2.85 93.38,2.56 90.18,2.27 85.90,2.03 81.62,1.79 77.58,1.61 73.54,1.42 70.55,1.38 67.55,1.34 63.74,1.34 59.92,1.35 55.97,1.36 52.02,1.37 47.25,1.38 42.48,1.39 37.43,1.40 32.38,1.42 28.41,1.44 24.43,1.46 20.74,1.49 17.04,1.52 13.10,1.56 9.17,1.59 6.26,1.65 3.35,1.70 1.67,1.65 0,1.59 -0.19,1.57 -0.38,1.55 -0.56,1.48 -0.74,1.41 -0.90,1.30 -1.05,1.19 -1.18,1.05 -1.31,0.90 -1.40,0.73 -1.49,0.56 -1.53,0.37 -1.58,0.19 -1.58,-0.00 -1.58,-0.19 -1.53,-0.37 -1.49,-0.56 -1.40,-0.73 -1.31,-0.90 -1.18,-1.05 -1.05,-1.19 -0.90,-1.30 -0.74,-1.41 -0.56,-1.48 -0.38,-1.55 -0.19,-1.57 0.00,-1.59 0.00,-1.59 L 0,-1.59 Z"></path></g></svg>