<svg version="1.1" xmlns="http://www.w3.org/2000/svg" viewBox="0 0 361.04307562494796 727.8434388149346" width="361.04307562494796" height="727.8434388149346" class="excalidraw-svg">
  <!-- svg-source:excalidraw -->
  
  <defs>
    <style class="style-fonts">
      @font-face {
        font-family: "Virgil";
        src: url("https://excalidraw.com/Virgil.woff2");
      }
      @font-face {
        font-family: "Cascadia";
        src: url("https://excalidraw.com/Cascadia.woff2");
      }
      @font-face {
        font-family: "Assistant";
        src: url("https://excalidraw.com/Assistant-Regular.woff2");
      }
    </style>
    
  </defs>
  <g transform="translate(227.2821468303564 27.77969605245471) rotate(0 -16.607437364441665 114.8631593272568)" stroke="none"><path fill="#1e1e1e" d="M -0.32,8.34 Q -0.32,8.34 -5.64,8.33 -10.96,8.31 -17.36,8.22 -23.75,8.12 -30.97,7.88 -38.18,7.65 -44.56,7.99 -50.93,8.32 -56.99,9.53 -63.06,10.73 -69.02,12.83 -74.98,14.93 -80.84,17.88 -86.71,20.82 -92.53,24.44 -98.35,28.05 -103.54,32.08 -108.74,36.10 -113.23,40.36 -117.72,44.62 -121.52,48.97 -125.31,53.33 -128.30,57.64 -131.29,61.96 -133.70,66.36 -136.11,70.77 -138.07,75.40 -140.03,80.04 -141.62,85.06 -143.22,90.07 -144.26,95.32 -145.31,100.56 -145.88,105.99 -146.45,111.42 -146.71,116.84 -146.97,122.26 -146.92,127.34 -146.87,132.42 -146.28,137.10 -145.69,141.78 -144.37,146.35 -143.05,150.92 -141.17,155.63 -139.29,160.34 -137.16,164.78 -135.02,169.23 -132.73,173.38 -130.43,177.54 -127.86,181.53 -125.29,185.53 -122.58,189.06 -119.87,192.59 -114.19,198.38 -108.51,204.17 -99.97,210.64 -91.44,217.11 -84.54,221.41 -77.65,225.72 -72.02,228.18 -66.38,230.65 -61.32,232.23 -56.27,233.82 -51.46,234.82 -46.65,235.82 -41.84,236.37 -37.03,236.91 -31.79,237.16 -26.54,237.40 -20.81,237.33 -15.08,237.25 -9.31,236.51 -3.54,235.77 2.22,234.25 8.00,232.73 13.41,230.69 18.83,228.66 23.85,226.22 28.87,223.77 37.06,219.05 45.25,214.33 53.91,207.66 62.57,201.00 68.44,195.89 74.31,190.78 78.71,186.39 83.12,182.01 86.65,178.13 90.18,174.25 93.23,170.52 96.28,166.79 98.81,163.23 101.34,159.67 104.58,153.27 107.83,146.86 109.41,140.01 110.99,133.15 111.56,128.37 112.14,123.58 112.59,117.77 113.03,111.95 113.19,105.68 113.35,99.41 112.85,93.60 112.34,87.79 111.20,82.27 110.06,76.76 108.47,71.35 106.87,65.95 104.90,60.93 102.93,55.91 100.74,51.55 98.56,47.20 96.24,43.34 93.93,39.48 91.44,35.69 88.96,31.90 86.46,28.44 83.95,24.97 79.25,19.04 74.55,13.12 70.70,8.98 66.85,4.85 62.81,2.46 58.78,0.08 53.69,-1.18 48.60,-2.45 43.96,-3.21 39.32,-3.96 34.43,-4.25 29.53,-4.53 24.14,-4.55 18.75,-4.57 12.55,-4.07 6.35,-3.57 0.41,-2.22 -5.51,-0.87 -11.62,0.80 -17.73,2.49 -22.63,4.09 -27.52,5.69 -29.63,6.00 -31.73,6.31 -33.82,5.93 -35.92,5.56 -37.78,4.53 -39.65,3.51 -41.08,1.94 -42.52,0.37 -43.39,-1.56 -44.25,-3.51 -44.45,-5.63 -44.64,-7.74 -44.16,-9.81 -43.67,-11.88 -42.54,-13.69 -41.42,-15.50 -39.77,-16.85 -38.13,-18.20 -36.14,-18.96 -34.15,-19.71 -32.03,-19.80 -29.90,-19.88 -27.86,-19.28 -25.82,-18.68 -24.08,-17.45 -22.34,-16.23 -21.08,-14.52 -19.81,-12.81 -19.17,-10.78 -18.52,-8.75 -18.55,-6.63 -18.58,-4.50 -19.30,-2.49 -20.01,-0.49 -21.32,1.18 -22.63,2.85 -24.41,4.01 -26.19,5.18 -28.25,5.72 -30.31,6.26 -32.43,6.11 -34.55,5.96 -36.52,5.14 -38.48,4.32 -40.08,2.92 -41.68,1.52 -42.75,-0.31 -43.82,-2.15 -44.24,-4.24 -44.67,-6.32 -44.40,-8.43 -44.14,-10.54 -43.22,-12.46 -42.29,-14.38 -40.81,-15.90 -39.32,-17.42 -37.42,-18.39 -35.53,-19.35 -35.53,-19.35 -35.53,-19.35 -30.01,-21.08 -24.49,-22.82 -18.18,-24.49 -11.87,-26.17 -4.48,-27.79 2.90,-29.41 8.04,-30.15 13.19,-30.89 19.01,-30.83 24.84,-30.78 31.05,-30.45 37.26,-30.13 43.34,-29.19 49.42,-28.25 54.74,-26.85 60.05,-25.46 65.06,-23.43 70.07,-21.40 74.79,-18.14 79.51,-14.88 83.73,-10.25 87.95,-5.61 92.19,0.27 96.43,6.16 98.83,9.68 101.23,13.19 103.79,17.14 106.34,21.09 108.88,25.37 111.41,29.65 113.83,34.21 116.25,38.77 118.57,43.88 120.90,49.00 123.07,54.76 125.24,60.52 127.06,66.66 128.87,72.81 130.26,79.34 131.65,85.88 132.39,92.64 133.12,99.41 133.28,106.26 133.44,113.11 133.19,119.66 132.93,126.21 132.17,131.98 131.41,137.75 130.15,142.66 128.88,147.57 127.13,151.78 125.37,155.99 123.12,159.81 120.87,163.64 118.16,167.28 115.45,170.93 112.20,174.61 108.95,178.30 105.24,182.01 101.53,185.71 97.46,189.36 93.39,193.02 88.63,197.18 83.87,201.34 77.95,206.90 72.03,212.47 63.11,220.29 54.20,228.12 45.54,234.32 36.88,240.51 31.09,243.22 25.30,245.94 19.08,248.25 12.87,250.57 5.93,252.51 -0.99,254.45 -7.88,255.43 -14.77,256.40 -21.21,256.52 -27.66,256.64 -33.67,256.22 -39.68,255.81 -45.34,254.89 -50.99,253.96 -56.53,252.48 -62.08,251.00 -67.77,248.95 -73.46,246.89 -79.69,244.18 -85.92,241.47 -94.25,237.78 -102.59,234.09 -109.37,230.06 -116.15,226.04 -119.91,222.81 -123.67,219.58 -127.07,216.09 -130.47,212.59 -133.59,208.80 -136.70,205.01 -139.75,200.73 -142.80,196.45 -145.63,191.79 -148.47,187.12 -150.88,182.40 -153.30,177.68 -155.56,172.63 -157.82,167.57 -160.02,161.81 -162.22,156.06 -163.76,149.95 -165.30,143.84 -165.79,138.06 -166.28,132.27 -166.14,126.71 -166.00,121.15 -165.59,115.23 -165.19,109.30 -164.43,102.99 -163.68,96.68 -162.29,90.42 -160.90,84.15 -158.83,78.28 -156.77,72.42 -154.15,67.03 -151.54,61.64 -148.37,56.64 -145.21,51.63 -141.43,46.85 -137.66,42.06 -133.20,37.38 -128.75,32.70 -123.62,28.07 -118.50,23.45 -112.71,19.00 -106.92,14.55 -100.52,10.42 -94.12,6.29 -87.31,2.79 -80.51,-0.71 -73.41,-3.21 -66.30,-5.72 -59.07,-7.11 -51.84,-8.51 -44.90,-8.87 -37.96,-9.23 -30.74,-9.27 -23.51,-9.32 -16.89,-9.23 -10.27,-9.15 -4.97,-8.75 0.32,-8.34 1.32,-8.18 2.31,-8.02 3.24,-7.63 4.17,-7.23 4.97,-6.63 5.78,-6.03 6.42,-5.25 7.05,-4.47 7.49,-3.56 7.92,-2.65 8.12,-1.66 8.32,-0.67 8.28,0.32 8.24,1.33 7.96,2.30 7.68,3.26 7.18,4.14 6.68,5.01 5.98,5.74 5.28,6.46 4.43,7.00 3.58,7.54 2.63,7.86 1.67,8.18 0.67,8.26 -0.33,8.34 -0.32,8.34 L -0.32,8.34 Z"></path></g><g transform="translate(126.58859941822084 258.32870384663283) rotate(0 21.898587587581687 156.43980988268024)" stroke="none"><path fill="#1e1e1e" d="M 6.47,2.20 Q 6.47,2.20 3.41,10.54 0.35,18.89 -3.33,27.02 -7.02,35.15 -11.18,43.11 -15.33,51.08 -20.02,59.47 -24.70,67.86 -29.51,76.45 -34.32,85.04 -39.08,93.38 -43.84,101.73 -48.35,109.45 -52.86,117.16 -56.59,123.94 -60.32,130.72 -63.15,136.35 -65.97,141.98 -68.04,146.56 -70.10,151.15 -71.68,155.11 -73.27,159.07 -75.33,165.08 -77.40,171.09 -78.76,176.21 -80.11,181.34 -80.96,185.77 -81.80,190.20 -82.83,194.64 -83.86,199.08 -84.12,203.48 -84.37,207.88 -85.12,212.12 -85.87,216.36 -86.97,221.55 -88.07,226.73 -88.69,231.27 -89.32,235.80 -84.25,238.26 -79.18,240.73 -73.15,244.32 -67.12,247.91 -58.48,252.29 -49.83,256.68 -39.85,260.93 -29.88,265.18 -19.18,269.13 -8.48,273.08 2.04,276.49 12.58,279.90 22.51,282.80 32.44,285.70 41.30,288.18 50.15,290.66 57.28,292.34 64.41,294.03 70.01,295.14 75.61,296.25 80.32,297.19 85.03,298.14 91.95,299.50 98.87,300.86 103.36,301.57 107.84,302.29 112.17,299.71 116.49,297.14 120.23,289.87 123.98,282.60 125.81,277.99 127.65,273.39 129.18,268.52 130.70,263.64 131.89,258.25 133.08,252.86 134.06,246.75 135.04,240.63 135.74,233.98 136.45,227.32 137.04,215.93 137.63,204.54 137.53,195.58 137.42,186.63 136.71,178.87 135.99,171.11 134.90,164.11 133.80,157.11 132.65,150.56 131.50,144.01 130.45,138.45 129.41,132.88 128.53,128.31 127.65,123.73 126.96,119.23 126.26,114.74 125.16,107.10 124.06,99.46 123.17,92.34 122.28,85.21 121.48,78.20 120.67,71.20 119.89,62.06 119.10,52.92 118.14,46.20 117.18,39.48 116.19,34.55 115.19,29.62 114.37,24.66 113.56,19.70 113.22,14.65 112.89,9.60 113.20,7.51 113.52,5.43 114.49,3.55 115.45,1.68 116.96,0.21 118.48,-1.24 120.38,-2.15 122.28,-3.06 124.38,-3.31 126.47,-3.56 128.53,-3.14 130.60,-2.71 132.41,-1.64 134.23,-0.58 135.62,1.01 137.00,2.60 137.80,4.54 138.61,6.49 138.74,8.60 138.88,10.70 138.34,12.74 137.80,14.77 136.64,16.53 135.48,18.29 133.81,19.59 132.15,20.88 130.16,21.58 128.17,22.27 126.06,22.30 123.96,22.32 121.95,21.67 119.95,21.02 118.25,19.77 116.56,18.51 115.36,16.78 114.16,15.05 113.57,13.03 112.98,11.00 113.07,8.90 113.16,6.79 113.92,4.82 114.68,2.86 116.02,1.23 117.37,-0.38 119.16,-1.49 120.95,-2.59 123.01,-3.07 125.06,-3.55 127.16,-3.34 129.26,-3.14 131.18,-2.28 133.10,-1.41 134.65,0.01 136.20,1.44 137.20,3.29 138.21,5.14 138.58,7.22 138.94,9.29 138.94,9.29 138.94,9.29 138.91,13.31 138.88,17.33 139.07,21.61 139.25,25.89 139.72,31.35 140.18,36.81 140.76,43.82 141.35,50.84 142.17,60.17 142.99,69.49 143.27,76.53 143.55,83.58 143.75,90.69 143.95,97.81 144.16,105.37 144.37,112.92 144.56,117.22 144.74,121.51 145.05,126.04 145.35,130.57 145.92,136.11 146.48,141.65 147.41,148.27 148.34,154.89 149.42,162.15 150.51,169.40 151.66,177.55 152.82,185.70 153.82,195.13 154.82,204.56 155.38,216.60 155.94,228.63 155.70,235.92 155.46,243.21 154.80,250.10 154.13,257.00 152.99,263.46 151.85,269.92 150.22,275.68 148.58,281.43 146.57,286.84 144.56,292.24 142.20,297.30 139.85,302.36 137.11,306.83 134.37,311.29 129.90,316.12 125.42,320.95 119.66,322.38 113.91,323.80 108.47,322.74 103.02,321.68 98.47,320.04 93.91,318.40 87.36,315.90 80.82,313.39 76.40,311.82 71.99,310.25 66.59,308.51 61.19,306.77 54.10,304.86 47.01,302.95 38.01,300.86 29.01,298.76 18.78,296.36 8.55,293.95 -2.42,291.19 -13.40,288.43 -24.68,285.33 -35.96,282.24 -46.79,279.06 -57.61,275.89 -67.50,272.77 -77.39,269.65 -85.25,266.67 -93.11,263.70 -98.22,260.75 -103.32,257.79 -106.96,254.64 -110.60,251.50 -113.70,244.32 -116.79,237.14 -116.36,232.47 -115.92,227.81 -114.50,222.23 -113.08,216.65 -111.48,211.43 -109.88,206.21 -109.23,202.00 -108.58,197.78 -107.11,193.65 -105.63,189.52 -103.75,185.01 -101.87,180.50 -99.98,176.03 -98.09,171.56 -96.12,167.72 -94.15,163.87 -90.79,157.92 -87.42,151.97 -85.08,148.10 -82.73,144.22 -79.92,139.91 -77.10,135.60 -73.67,130.30 -70.23,125.01 -66.23,118.36 -62.24,111.71 -57.82,104.03 -53.40,96.35 -48.74,87.99 -44.09,79.64 -39.39,71.02 -34.70,62.39 -30.25,54.09 -25.80,45.78 -22.00,38.03 -18.21,30.29 -14.99,22.52 -11.78,14.76 -9.13,6.28 -6.47,-2.20 -6.12,-2.94 -5.76,-3.68 -5.23,-4.32 -4.71,-4.95 -4.05,-5.45 -3.38,-5.94 -2.62,-6.26 -1.86,-6.58 -1.05,-6.70 -0.23,-6.83 0.58,-6.76 1.40,-6.69 2.18,-6.43 2.96,-6.16 3.66,-5.72 4.35,-5.27 4.92,-4.67 5.49,-4.08 5.89,-3.36 6.30,-2.64 6.53,-1.85 6.75,-1.06 6.78,-0.23 6.81,0.58 6.64,1.39 6.47,2.20 6.47,2.20 L 6.47,2.20 Z"></path></g><g transform="translate(221.51113173385738 156.0120240824658) rotate(0 -0.17232435863783735 0)" stroke="none"><path fill="#1e1e1e" d="M -0.19,8.93 Q -0.19,8.93 -1.62,8.69 -3.04,8.46 -4.32,7.78 -5.60,7.10 -6.59,6.06 -7.59,5.01 -8.19,3.70 -8.80,2.38 -8.95,0.95 -9.11,-0.48 -8.80,-1.89 -8.49,-3.30 -7.74,-4.54 -7.00,-5.78 -5.90,-6.71 -4.80,-7.65 -3.45,-8.18 -2.11,-8.72 -0.67,-8.80 0.76,-8.87 2.16,-8.49 3.55,-8.10 4.74,-7.29 5.94,-6.48 6.81,-5.33 7.69,-4.18 8.15,-2.81 8.61,-1.44 8.61,0.00 8.61,1.44 8.15,2.81 7.69,4.18 6.81,5.33 5.94,6.48 4.74,7.29 3.55,8.10 2.15,8.49 0.76,8.87 -0.67,8.80 -2.11,8.72 -3.46,8.18 -4.80,7.65 -5.90,6.71 -7.00,5.78 -7.75,4.54 -8.49,3.30 -8.80,1.89 -9.11,0.48 -8.95,-0.95 -8.80,-2.39 -8.19,-3.70 -7.58,-5.01 -6.59,-6.06 -5.60,-7.11 -4.32,-7.78 -3.04,-8.46 -1.62,-8.69 -0.19,-8.93 -0.19,-8.93 -0.19,-8.93 0.87,-8.82 1.94,-8.71 2.95,-8.35 3.97,-7.99 4.87,-7.40 5.77,-6.81 6.50,-6.02 7.23,-5.23 7.75,-4.29 8.28,-3.35 8.56,-2.31 8.84,-1.27 8.86,-0.19 8.88,0.88 8.65,1.93 8.42,2.98 7.94,3.94 7.46,4.91 6.76,5.73 6.07,6.55 5.19,7.18 4.32,7.81 3.32,8.22 2.32,8.62 1.26,8.77 0.19,8.93 -0.00,8.93 L -0.19,8.93 Z"></path></g><g transform="translate(310.8456076514344 152.34573460228467) rotate(0 0.00004999999998744897 0.00004999999998744897)" stroke="none"><path fill="#1e1e1e" d="M 6.28,-6.28 Q 6.28,-6.28 7.11,-5.11 7.95,-3.94 8.37,-2.57 8.80,-1.19 8.76,0.23 8.72,1.67 8.22,3.02 7.73,4.37 6.83,5.49 5.93,6.61 4.72,7.38 3.50,8.15 2.11,8.50 0.72,8.85 -0.71,8.73 -2.14,8.61 -3.46,8.05 -4.78,7.48 -5.85,6.52 -6.92,5.56 -7.63,4.31 -8.33,3.06 -8.60,1.65 -8.87,0.23 -8.68,-1.18 -8.49,-2.60 -7.85,-3.89 -7.21,-5.18 -6.19,-6.19 -5.18,-7.21 -3.89,-7.85 -2.60,-8.49 -1.18,-8.68 0.24,-8.87 1.65,-8.60 3.06,-8.33 4.31,-7.62 5.56,-6.92 6.52,-5.85 7.48,-4.78 8.05,-3.46 8.62,-2.14 8.73,-0.70 8.85,0.72 8.50,2.11 8.15,3.51 7.38,4.72 6.61,5.93 5.48,6.83 4.36,7.73 3.02,8.22 1.67,8.72 0.23,8.76 -1.20,8.80 -2.57,8.37 -3.94,7.95 -5.11,7.11 -6.28,6.27 -6.28,6.27 -6.28,6.28 -6.94,5.43 -7.60,4.59 -8.04,3.61 -8.48,2.64 -8.67,1.58 -8.86,0.53 -8.80,-0.53 -8.73,-1.60 -8.41,-2.62 -8.09,-3.64 -7.54,-4.56 -6.99,-5.47 -6.23,-6.23 -5.47,-6.99 -4.56,-7.54 -3.64,-8.10 -2.62,-8.41 -1.60,-8.73 -0.53,-8.80 0.53,-8.86 1.59,-8.67 2.64,-8.48 3.61,-8.04 4.59,-7.60 5.43,-6.94 6.28,-6.28 6.28,-6.28 L 6.28,-6.28 Z"></path></g><g transform="translate(193.5900600334353 282.6690375034341) rotate(0 63.03064436824661 89.7405782279525)" stroke="none"><path fill="#1e1e1e" d="M 8.59,0 Q 8.59,0 8.43,7.34 8.28,14.68 7.88,23.73 7.47,32.78 7.17,41.85 6.87,50.92 6.65,59.77 6.43,68.62 6.52,76.02 6.61,83.43 6.97,88.69 7.33,93.95 7.99,100.37 8.65,106.79 15.81,109.51 22.98,112.23 29.36,115.34 35.75,118.46 43.42,122.72 51.10,126.98 59.41,131.59 67.71,136.19 75.64,140.71 83.57,145.23 90.15,148.92 96.73,152.62 101.99,155.42 107.26,158.22 111.62,160.56 115.98,162.90 121.27,165.69 126.56,168.48 129.03,169.72 131.50,170.97 132.36,171.78 133.23,172.60 133.88,173.60 134.53,174.61 134.92,175.73 135.31,176.86 135.42,178.05 135.53,179.24 135.35,180.42 135.17,181.60 134.71,182.70 134.25,183.81 133.55,184.77 132.84,185.73 131.92,186.49 131.01,187.26 129.93,187.78 128.86,188.30 127.69,188.55 126.53,188.80 125.33,188.77 124.14,188.73 122.99,188.41 121.84,188.09 120.80,187.50 119.76,186.92 117.47,183.05 115.18,179.18 114.90,177.60 114.62,176.01 114.86,174.42 115.10,172.83 115.84,171.40 116.58,169.97 117.74,168.85 118.89,167.73 120.34,167.04 121.80,166.35 123.39,166.16 124.99,165.96 126.57,166.29 128.14,166.62 129.53,167.43 130.92,168.25 131.98,169.46 133.03,170.68 133.64,172.17 134.26,173.65 134.36,175.26 134.47,176.87 134.05,178.42 133.64,179.98 132.75,181.32 131.86,182.66 130.59,183.65 129.32,184.64 127.80,185.17 126.28,185.70 124.68,185.72 123.07,185.73 121.54,185.24 120.01,184.74 118.71,183.78 117.42,182.82 116.50,181.50 115.59,180.18 115.14,178.63 114.69,177.09 114.76,175.48 114.83,173.87 115.41,172.37 115.99,170.87 117.01,169.63 118.04,168.39 119.41,167.55 120.78,166.70 122.35,166.34 123.92,165.98 125.52,166.13 127.12,166.29 128.59,166.95 130.06,167.61 131.24,168.70 132.42,169.80 133.19,171.21 133.96,172.62 133.96,172.62 133.96,172.62 132.73,171.79 131.49,170.97 132.36,171.78 133.23,172.60 133.88,173.60 134.53,174.60 134.92,175.73 135.31,176.86 135.42,178.05 135.53,179.24 135.35,180.42 135.17,181.60 134.71,182.70 134.26,183.80 133.55,184.77 132.84,185.73 131.92,186.49 131.01,187.26 129.93,187.78 128.86,188.30 127.69,188.55 126.53,188.80 125.33,188.77 124.14,188.73 122.99,188.41 121.84,188.09 120.80,187.51 119.76,186.92 118.04,185.44 116.32,183.96 111.85,180.38 107.39,176.81 103.48,174.04 99.58,171.27 94.69,168.09 89.80,164.91 83.42,161.30 77.04,157.69 68.97,153.83 60.89,149.97 52.34,146.22 43.78,142.48 35.85,139.37 27.91,136.27 21.35,133.69 14.79,131.11 9.82,128.88 4.85,126.66 -1.32,121.37 -7.51,116.09 -8.08,111.44 -8.65,106.79 -7.99,100.37 -7.33,93.95 -6.97,88.69 -6.61,83.43 -6.52,76.02 -6.43,68.62 -6.65,59.77 -6.87,50.92 -7.17,41.85 -7.47,32.78 -7.88,23.73 -8.28,14.68 -8.43,7.34 -8.59,0 -8.46,-1.02 -8.34,-2.05 -7.97,-3.02 -7.60,-3.99 -7.01,-4.84 -6.43,-5.69 -5.65,-6.38 -4.88,-7.07 -3.96,-7.55 -3.04,-8.03 -2.04,-8.28 -1.03,-8.52 0.00,-8.52 1.03,-8.52 2.04,-8.28 3.04,-8.03 3.96,-7.55 4.88,-7.07 5.65,-6.38 6.43,-5.69 7.02,-4.84 7.60,-3.99 7.97,-3.02 8.34,-2.05 8.46,-1.02 8.59,0.00 8.59,0.00 L 8.59,0 Z"></path></g><g transform="translate(74.14186779337388 538.3815243626631) rotate(0 -25.552569573168512 86.04000874319198)" stroke="none"><path fill="#1e1e1e" d="M 7.98,1.74 Q 7.98,1.74 6.25,9.01 4.52,16.28 2.34,23.74 0.16,31.20 -2.01,38.49 -4.19,45.78 -6.69,53.61 -9.20,61.45 -11.55,69.20 -13.90,76.95 -15.60,84.00 -17.29,91.06 -18.44,97.39 -19.58,103.72 -20.46,109.42 -21.33,115.12 -22.20,120.42 -23.07,125.73 -23.99,130.42 -24.91,135.10 -26.83,142.79 -28.75,150.47 -30.56,155.83 -32.38,161.19 -33.90,165.34 -35.43,169.48 -42.37,176.67 -49.31,183.87 -51.24,183.81 -53.17,183.75 -54.98,183.08 -56.79,182.41 -58.29,181.20 -59.79,179.98 -60.82,178.36 -61.86,176.73 -62.32,174.85 -62.78,172.98 -62.61,171.06 -62.45,169.14 -61.69,167.37 -60.92,165.60 -59.63,164.16 -58.33,162.73 -56.65,161.79 -54.97,160.84 -53.07,160.48 -51.18,160.13 -49.27,160.39 -47.36,160.66 -45.63,161.52 -43.90,162.38 -42.54,163.75 -41.18,165.12 -40.33,166.85 -39.48,168.58 -39.23,170.49 -38.97,172.40 -39.34,174.30 -39.71,176.19 -40.66,177.87 -41.62,179.54 -43.06,180.83 -44.50,182.11 -46.27,182.87 -48.05,183.63 -49.97,183.78 -51.89,183.93 -53.76,183.46 -55.63,182.99 -57.26,181.94 -58.88,180.90 -60.08,179.39 -61.29,177.88 -61.95,176.07 -62.61,174.26 -62.65,172.33 -62.70,170.40 -62.13,168.56 -61.56,166.72 -60.43,165.15 -59.29,163.59 -57.72,162.47 -56.15,161.35 -54.31,160.79 -52.46,160.23 -52.46,160.23 -52.47,160.23 -54.34,160.32 -56.21,160.42 -53.91,156.55 -51.61,152.68 -49.40,148.45 -47.19,144.22 -44.54,137.49 -41.90,130.76 -40.54,126.53 -39.18,122.31 -37.84,117.21 -36.51,112.12 -35.13,106.42 -33.75,100.72 -32.18,94.23 -30.62,87.74 -28.75,80.50 -26.89,73.26 -24.80,65.39 -22.71,57.52 -20.64,49.60 -18.56,41.69 -16.59,34.40 -14.61,27.11 -12.76,20.01 -10.92,12.90 -9.45,5.57 -7.98,-1.74 -7.65,-2.67 -7.33,-3.60 -6.79,-4.43 -6.25,-5.25 -5.53,-5.93 -4.81,-6.60 -3.95,-7.08 -3.09,-7.56 -2.14,-7.82 -1.19,-8.08 -0.21,-8.11 0.77,-8.13 1.73,-7.92 2.69,-7.71 3.58,-7.28 4.46,-6.84 5.22,-6.21 5.97,-5.57 6.55,-4.78 7.13,-3.98 7.50,-3.07 7.88,-2.16 8.02,-1.18 8.17,-0.21 8.07,0.76 7.98,1.74 7.98,1.74 L 7.98,1.74 Z"></path></g><g transform="translate(10 713.1510222102079) rotate(0 30.45413806373608 -0.957234913601269)" stroke="none"><path fill="#1e1e1e" d="M 0,-10.19 Q 0,-10.19 6.49,-10.03 12.99,-9.88 18.71,-9.88 24.42,-9.88 29.28,-9.99 34.14,-10.09 41.09,-10.42 48.03,-10.76 52.88,-11.12 57.72,-11.48 53.99,-8.91 50.26,-6.33 51.28,-7.89 52.31,-9.45 53.78,-10.60 55.24,-11.75 57.00,-12.37 58.76,-12.99 60.63,-13.01 62.49,-13.04 64.27,-12.46 66.04,-11.89 67.54,-10.78 69.04,-9.68 70.11,-8.15 71.18,-6.62 71.70,-4.83 72.22,-3.04 72.15,-1.17 72.07,0.68 71.40,2.42 70.74,4.16 69.55,5.60 68.36,7.04 66.78,8.02 65.19,9.00 63.38,9.43 61.56,9.85 59.70,9.68 57.85,9.50 56.14,8.74 54.44,7.98 53.07,6.72 51.70,5.45 50.80,3.82 49.91,2.18 49.58,0.34 49.26,-1.48 49.53,-3.33 49.81,-5.17 50.66,-6.83 51.51,-8.49 52.85,-9.79 54.19,-11.09 55.87,-11.90 57.55,-12.70 59.40,-12.93 61.25,-13.15 63.08,-12.78 64.91,-12.40 66.52,-11.46 68.13,-10.52 69.35,-9.12 70.58,-7.71 71.29,-5.99 72.01,-4.26 72.13,-2.40 72.26,-0.54 71.78,1.25 71.31,3.05 71.31,3.05 71.31,3.05 64.51,7.27 57.72,11.48 52.88,11.12 48.03,10.76 41.09,10.42 34.14,10.09 29.28,9.99 24.42,9.88 18.71,9.88 12.99,9.88 6.49,10.03 0,10.19 -1.21,10.04 -2.43,9.89 -3.58,9.46 -4.73,9.02 -5.74,8.32 -6.75,7.62 -7.57,6.70 -8.38,5.78 -8.95,4.70 -9.52,3.61 -9.82,2.42 -10.11,1.22 -10.11,-0.00 -10.11,-1.22 -9.82,-2.42 -9.52,-3.61 -8.95,-4.70 -8.38,-5.79 -7.57,-6.70 -6.75,-7.62 -5.74,-8.32 -4.73,-9.02 -3.58,-9.46 -2.43,-9.89 -1.21,-10.04 0.00,-10.19 0.00,-10.19 L 0,-10.19 Z"></path></g><g transform="translate(112.25126763968433 270.925673123096) rotate(0 -40.13937498016935 50.64315968874743)" stroke="none"><path fill="#1e1e1e" d="M 4.23,8.00 Q 4.23,8.00 -3.73,11.66 -11.71,15.32 -18.68,19.24 -25.65,23.17 -32.03,27.48 -38.41,31.78 -43.87,36.21 -49.32,40.65 -53.27,44.34 -57.23,48.04 -61.86,53.09 -66.50,58.15 -68.93,61.82 -71.36,65.49 -66.87,70.32 -62.38,75.15 -59.48,79.28 -56.57,83.41 -53.73,87.08 -50.88,90.74 -49.85,91.99 -48.82,93.25 -47.84,95.06 -46.87,96.86 -46.52,98.89 -46.18,100.92 -46.50,102.95 -46.82,104.98 -47.77,106.80 -48.72,108.62 -50.20,110.04 -51.68,111.46 -53.54,112.34 -55.40,113.21 -57.44,113.45 -59.48,113.69 -61.49,113.26 -63.50,112.83 -65.27,111.78 -67.03,110.73 -68.38,109.18 -69.72,107.62 -70.49,105.72 -71.26,103.81 -71.39,101.76 -71.51,99.71 -70.97,97.73 -70.44,95.74 -69.30,94.04 -68.15,92.33 -66.53,91.07 -64.90,89.82 -62.96,89.15 -61.01,88.48 -58.96,88.47 -56.90,88.45 -54.95,89.10 -53.00,89.74 -51.36,90.97 -49.71,92.21 -48.55,93.90 -47.39,95.59 -46.82,97.57 -46.26,99.55 -46.36,101.60 -46.46,103.65 -47.20,105.56 -47.95,107.48 -49.27,109.05 -50.59,110.63 -52.35,111.70 -54.10,112.77 -56.10,113.22 -58.11,113.68 -60.15,113.47 -62.20,113.26 -64.07,112.41 -65.94,111.56 -67.44,110.15 -68.94,108.75 -68.94,108.75 -68.94,108.75 -71.79,104.66 -74.64,100.56 -77.18,96.42 -79.72,92.29 -82.77,86.81 -85.81,81.33 -88.09,75.73 -90.37,70.14 -90.46,64.98 -90.55,59.83 -88.56,55.96 -86.58,52.10 -82.75,48.59 -78.91,45.08 -73.08,40.60 -67.24,36.12 -62.80,32.76 -58.35,29.40 -52.49,24.74 -46.62,20.08 -40.03,15.28 -33.44,10.49 -26.35,5.78 -19.25,1.08 -11.74,-3.46 -4.23,-8.00 -3.21,-8.39 -2.19,-8.78 -1.11,-8.92 -0.03,-9.05 1.05,-8.92 2.13,-8.80 3.15,-8.41 4.17,-8.03 5.07,-7.41 5.98,-6.80 6.70,-5.98 7.43,-5.17 7.94,-4.20 8.45,-3.24 8.72,-2.18 8.98,-1.12 8.98,-0.03 8.99,1.05 8.73,2.11 8.47,3.18 7.97,4.14 7.47,5.11 6.75,5.93 6.02,6.75 5.13,7.38 4.23,8.00 4.23,8.00 L 4.23,8.00 Z"></path></g><g transform="translate(186.61675855843987 566.2266962017789) rotate(0 -18.111066989719575 54.76832214965981)" stroke="none"><path fill="#1e1e1e" d="M 8.98,-5.03 Q 8.98,-5.03 11.86,0.26 14.73,5.56 17.12,9.55 19.51,13.54 21.82,17.29 24.12,21.04 27.73,27.51 31.35,33.99 33.97,38.53 36.58,43.07 36.34,48.02 36.10,52.97 31.65,57.96 27.20,62.96 20.15,66.91 13.10,70.86 8.73,73.31 4.36,75.76 -0.17,78.44 -4.71,81.11 -9.07,83.79 -13.44,86.46 -19.47,90.31 -25.49,94.16 -29.64,97.44 -33.79,100.71 -39.43,105.85 -45.07,110.99 -52.25,115.70 -59.44,120.42 -61.30,120.52 -63.17,120.62 -64.97,120.12 -66.77,119.61 -68.31,118.56 -69.86,117.51 -70.99,116.03 -72.12,114.54 -72.71,112.77 -73.31,110.99 -73.30,109.13 -73.30,107.26 -72.70,105.49 -72.11,103.72 -70.97,102.23 -69.84,100.74 -68.29,99.70 -66.75,98.65 -64.95,98.15 -63.15,97.65 -61.28,97.76 -59.41,97.86 -57.68,98.55 -55.94,99.25 -54.52,100.46 -53.10,101.67 -52.14,103.27 -51.18,104.87 -50.78,106.70 -50.38,108.52 -50.58,110.38 -50.78,112.24 -51.57,113.93 -52.36,115.63 -53.64,116.98 -54.93,118.34 -56.58,119.21 -58.23,120.08 -60.08,120.39 -61.92,120.69 -63.76,120.38 -65.61,120.08 -67.26,119.20 -68.91,118.32 -70.19,116.96 -71.47,115.61 -72.26,113.91 -73.04,112.21 -73.24,110.36 -73.44,108.50 -73.04,106.67 -72.63,104.85 -71.67,103.25 -70.70,101.65 -69.28,100.44 -67.85,99.23 -66.11,98.54 -64.38,97.86 -64.38,97.86 -64.38,97.86 -63.71,97.42 -63.05,96.99 -58.48,93.51 -53.92,90.03 -50.38,87.16 -46.85,84.28 -42.46,80.77 -38.06,77.26 -31.95,72.08 -25.84,66.90 -21.50,64.06 -17.15,61.21 -12.50,58.14 -7.85,55.08 -3.39,52.31 1.07,49.54 5.03,47.24 9.00,44.93 13.16,42.86 17.32,40.78 16.04,46.35 14.76,51.93 12.99,47.65 11.22,43.37 8.55,37.51 5.88,31.65 3.72,27.71 1.55,23.78 -0.69,19.62 -2.95,15.46 -5.97,10.25 -8.98,5.03 -9.45,3.88 -9.93,2.73 -10.11,1.50 -10.29,0.27 -10.18,-0.95 -10.06,-2.19 -9.65,-3.36 -9.24,-4.53 -8.57,-5.57 -7.89,-6.61 -6.98,-7.46 -6.07,-8.31 -4.99,-8.92 -3.91,-9.52 -2.71,-9.85 -1.51,-10.18 -0.27,-10.22 0.96,-10.25 2.17,-9.99 3.39,-9.72 4.50,-9.17 5.62,-8.63 6.57,-7.83 7.52,-7.03 8.25,-6.03 8.98,-5.03 8.98,-5.03 L 8.98,-5.03 Z"></path></g><g transform="translate(123.74238868934663 675.1587122238943) rotate(0 23.227136640812887 21.34236329552016)" stroke="none"><path fill="#1e1e1e" d="M 6.24,-8.32 Q 6.24,-8.32 9.58,-5.97 12.92,-3.62 17.15,-0.53 21.38,2.55 25.05,5.44 28.73,8.32 31.87,11.25 35.01,14.18 38.38,17.21 41.75,20.24 45.03,23.09 48.31,25.94 52.08,29.34 55.85,32.74 57.15,34.53 58.45,36.32 59.11,38.44 59.77,40.55 59.72,42.76 59.67,44.97 58.91,47.05 58.16,49.13 56.78,50.86 55.40,52.60 53.54,53.80 51.68,55.00 49.54,55.54 47.39,56.08 45.19,55.91 42.98,55.74 40.94,54.88 38.91,54.01 37.25,52.54 35.60,51.07 34.50,49.15 33.40,47.23 32.98,45.06 32.55,42.89 32.84,40.69 33.13,38.50 34.10,36.51 35.08,34.52 36.64,32.95 38.19,31.38 40.17,30.39 42.15,29.40 44.34,29.09 46.53,28.78 48.71,29.19 50.88,29.60 52.81,30.68 54.75,31.76 56.23,33.40 57.72,35.04 58.60,37.07 59.48,39.10 59.67,41.30 59.86,43.51 59.34,45.66 58.81,47.81 57.63,49.68 56.44,51.55 54.72,52.94 53.01,54.33 50.93,55.11 48.86,55.88 46.65,55.95 44.43,56.02 42.32,55.38 40.20,54.73 38.39,53.45 36.59,52.17 36.59,52.17 36.59,52.17 34.99,50.53 33.39,48.89 29.83,45.39 26.28,41.89 23.02,37.98 19.77,34.07 16.66,30.52 13.55,26.96 10.07,23.25 6.59,19.54 3.36,16.48 0.12,13.42 -3.06,10.87 -6.24,8.32 -7.15,7.45 -8.05,6.58 -8.72,5.52 -9.40,4.46 -9.79,3.27 -10.19,2.08 -10.29,0.83 -10.39,-0.41 -10.19,-1.65 -9.99,-2.89 -9.50,-4.04 -9.01,-5.20 -8.25,-6.20 -7.50,-7.20 -6.53,-8.00 -5.56,-8.79 -4.43,-9.33 -3.29,-9.86 -2.06,-10.12 -0.83,-10.37 0.41,-10.32 1.66,-10.27 2.87,-9.92 4.07,-9.57 5.16,-8.94 6.25,-8.32 6.24,-8.32 L 6.24,-8.32 Z"></path></g><g transform="translate(286.25582476833597 185.36458106181544) rotate(0 -35.1793443986619 24.182996191701278)" stroke="none"><path fill="#1e1e1e" d="M 0.15,10.35 Q 0.15,10.35 -5.64,10.39 -11.44,10.42 -16.82,10.48 -22.20,10.54 -27.12,10.63 -32.03,10.71 -39.32,10.99 -46.62,11.27 -50.66,13.15 -54.70,15.03 -55.82,19.60 -56.94,24.16 -53.52,27.62 -50.10,31.07 -45.80,32.61 -41.50,34.16 -40.11,34.62 -38.72,35.08 -36.75,36.15 -34.79,37.21 -33.26,38.85 -31.74,40.49 -30.82,42.53 -29.90,44.57 -29.68,46.79 -29.46,49.02 -29.96,51.20 -30.46,53.37 -31.63,55.28 -32.81,57.19 -34.52,58.62 -36.24,60.05 -38.33,60.86 -40.41,61.66 -42.65,61.76 -44.88,61.86 -47.03,61.25 -49.18,60.63 -51.02,59.35 -52.86,58.08 -54.19,56.29 -55.53,54.50 -56.22,52.37 -56.92,50.24 -56.89,48.01 -56.87,45.77 -56.14,43.66 -55.40,41.55 -54.03,39.78 -52.66,38.01 -50.80,36.78 -48.94,35.54 -46.78,34.96 -44.62,34.38 -42.39,34.53 -40.15,34.67 -38.08,35.52 -36.02,36.36 -34.32,37.83 -32.63,39.29 -31.50,41.22 -30.37,43.15 -29.91,45.33 -29.45,47.52 -29.71,49.74 -29.97,51.96 -30.93,53.98 -31.89,56.00 -33.44,57.61 -35.00,59.22 -36.98,60.25 -38.97,61.28 -41.18,61.62 -43.39,61.96 -45.59,61.58 -47.80,61.19 -47.79,61.19 -47.79,61.19 -52.40,59.40 -57.02,57.61 -61.16,55.77 -65.31,53.94 -70.57,50.57 -75.84,47.21 -78.83,43.02 -81.82,38.82 -82.48,33.53 -83.13,28.25 -82.44,23.38 -81.76,18.51 -79.77,12.41 -77.79,6.31 -74.10,0.99 -70.41,-4.32 -64.83,-7.49 -59.26,-10.66 -52.95,-10.66 -46.64,-10.66 -39.37,-10.40 -32.10,-10.14 -27.22,-10.09 -22.35,-10.03 -17.05,-10.05 -11.75,-10.07 -5.95,-10.21 -0.15,-10.35 1.08,-10.22 2.32,-10.09 3.49,-9.66 4.67,-9.24 5.71,-8.55 6.74,-7.85 7.59,-6.93 8.43,-6.01 9.03,-4.91 9.62,-3.82 9.94,-2.61 10.26,-1.40 10.28,-0.15 10.30,1.09 10.02,2.30 9.74,3.52 9.17,4.63 8.61,5.75 7.80,6.70 6.98,7.64 5.96,8.37 4.95,9.09 3.79,9.55 2.63,10.01 1.39,10.18 0.15,10.35 0.15,10.35 L 0.15,10.35 Z"></path></g></svg>