<svg version="1.1" xmlns="http://www.w3.org/2000/svg" viewBox="0 0 531.4162383673587 726.0717530114551" width="531.4162383673587" height="726.0717530114551" class="excalidraw-svg">
  <!-- svg-source:excalidraw -->
  
  <defs>
    <style class="style-fonts">
      @font-face {
        font-family: "Virgil";
        src: url("https://excalidraw.com/Virgil.woff2");
      }
      @font-face {
        font-family: "Cascadia";
        src: url("https://excalidraw.com/Cascadia.woff2");
      }
      @font-face {
        font-family: "Assistant";
        src: url("https://excalidraw.com/Assistant-Regular.woff2");
      }
    </style>
    
  </defs>
  <g transform="translate(309.65236172025874 27.77969605245471) rotate(0 -16.607437364441694 114.86315932725677)" stroke="none"><path fill="#1e1e1e" d="M -0.32,8.34 Q -0.32,8.34 -5.64,8.33 -10.96,8.31 -17.36,8.22 -23.75,8.12 -30.97,7.88 -38.18,7.65 -44.56,7.99 -50.93,8.32 -56.99,9.53 -63.06,10.73 -69.02,12.83 -74.98,14.93 -80.84,17.88 -86.71,20.82 -92.53,24.44 -98.35,28.05 -103.54,32.08 -108.74,36.10 -113.23,40.36 -117.72,44.62 -121.52,48.97 -125.31,53.33 -128.30,57.64 -131.29,61.96 -133.70,66.36 -136.11,70.77 -138.07,75.40 -140.03,80.04 -141.62,85.06 -143.22,90.07 -144.26,95.32 -145.31,100.56 -145.88,105.99 -146.45,111.42 -146.71,116.84 -146.97,122.26 -146.92,127.34 -146.87,132.42 -146.28,137.10 -145.69,141.78 -144.37,146.35 -143.05,150.92 -141.17,155.63 -139.29,160.34 -137.16,164.78 -135.02,169.23 -132.73,173.38 -130.43,177.54 -127.86,181.53 -125.29,185.53 -122.58,189.06 -119.87,192.59 -114.19,198.38 -108.51,204.17 -99.97,210.64 -91.44,217.11 -84.54,221.41 -77.65,225.72 -72.02,228.18 -66.38,230.65 -61.32,232.23 -56.27,233.82 -51.46,234.82 -46.65,235.82 -41.84,236.37 -37.03,236.91 -31.79,237.16 -26.54,237.40 -20.81,237.33 -15.08,237.25 -9.31,236.51 -3.54,235.77 2.22,234.25 8.00,232.73 13.41,230.69 18.83,228.66 23.85,226.22 28.87,223.77 37.06,219.05 45.25,214.33 53.91,207.66 62.57,201.00 68.44,195.89 74.31,190.78 78.71,186.39 83.12,182.01 86.65,178.13 90.18,174.25 93.23,170.52 96.28,166.79 98.81,163.23 101.34,159.67 104.58,153.27 107.83,146.86 109.41,140.01 110.99,133.15 111.56,128.37 112.14,123.58 112.59,117.77 113.03,111.95 113.19,105.68 113.35,99.41 112.85,93.60 112.34,87.79 111.20,82.27 110.06,76.76 108.47,71.35 106.87,65.95 104.90,60.93 102.93,55.91 100.74,51.55 98.56,47.20 96.24,43.34 93.93,39.48 91.44,35.69 88.96,31.90 86.46,28.44 83.95,24.97 79.25,19.04 74.55,13.12 70.70,8.98 66.85,4.85 62.81,2.46 58.78,0.08 53.69,-1.18 48.60,-2.45 43.96,-3.21 39.32,-3.96 34.43,-4.25 29.53,-4.53 24.14,-4.55 18.75,-4.57 12.55,-4.07 6.35,-3.57 0.41,-2.22 -5.51,-0.87 -11.62,0.80 -17.73,2.49 -22.63,4.09 -27.52,5.69 -29.63,6.00 -31.73,6.31 -33.82,5.93 -35.92,5.56 -37.78,4.53 -39.65,3.51 -41.08,1.94 -42.52,0.37 -43.39,-1.56 -44.25,-3.51 -44.45,-5.63 -44.64,-7.74 -44.16,-9.81 -43.67,-11.88 -42.54,-13.69 -41.42,-15.50 -39.77,-16.85 -38.13,-18.20 -36.14,-18.96 -34.15,-19.71 -32.03,-19.80 -29.90,-19.88 -27.86,-19.28 -25.82,-18.68 -24.08,-17.45 -22.34,-16.23 -21.08,-14.52 -19.81,-12.81 -19.17,-10.78 -18.52,-8.75 -18.55,-6.63 -18.58,-4.50 -19.30,-2.49 -20.01,-0.49 -21.32,1.18 -22.63,2.85 -24.41,4.01 -26.19,5.18 -28.25,5.72 -30.31,6.26 -32.43,6.11 -34.55,5.96 -36.52,5.14 -38.48,4.32 -40.08,2.92 -41.68,1.52 -42.75,-0.31 -43.82,-2.15 -44.24,-4.24 -44.67,-6.32 -44.40,-8.43 -44.14,-10.54 -43.22,-12.46 -42.29,-14.38 -40.81,-15.90 -39.32,-17.42 -37.42,-18.39 -35.53,-19.35 -35.53,-19.35 -35.53,-19.35 -30.01,-21.08 -24.49,-22.82 -18.18,-24.49 -11.87,-26.17 -4.48,-27.79 2.90,-29.41 8.04,-30.15 13.19,-30.89 19.01,-30.83 24.84,-30.78 31.05,-30.45 37.26,-30.13 43.34,-29.19 49.42,-28.25 54.74,-26.85 60.05,-25.46 65.06,-23.43 70.07,-21.40 74.79,-18.14 79.51,-14.88 83.73,-10.25 87.95,-5.61 92.19,0.27 96.43,6.16 98.83,9.68 101.23,13.19 103.79,17.14 106.34,21.09 108.88,25.37 111.41,29.65 113.83,34.21 116.25,38.77 118.57,43.88 120.90,49.00 123.07,54.76 125.24,60.52 127.06,66.66 128.87,72.81 130.26,79.34 131.65,85.88 132.39,92.64 133.12,99.41 133.28,106.26 133.44,113.11 133.19,119.66 132.93,126.21 132.17,131.98 131.41,137.75 130.15,142.66 128.88,147.57 127.13,151.78 125.37,155.99 123.12,159.81 120.87,163.64 118.16,167.28 115.45,170.93 112.20,174.61 108.95,178.30 105.24,182.01 101.53,185.71 97.46,189.36 93.39,193.02 88.63,197.18 83.87,201.34 77.95,206.90 72.03,212.47 63.11,220.29 54.20,228.12 45.54,234.32 36.88,240.51 31.09,243.22 25.30,245.94 19.08,248.25 12.87,250.57 5.93,252.51 -0.99,254.45 -7.88,255.43 -14.77,256.40 -21.21,256.52 -27.66,256.64 -33.67,256.22 -39.68,255.81 -45.34,254.89 -50.99,253.96 -56.53,252.48 -62.08,251.00 -67.77,248.95 -73.46,246.89 -79.69,244.18 -85.92,241.47 -94.25,237.78 -102.59,234.09 -109.37,230.06 -116.15,226.04 -119.91,222.81 -123.67,219.58 -127.07,216.09 -130.47,212.59 -133.59,208.80 -136.70,205.01 -139.75,200.73 -142.80,196.45 -145.63,191.79 -148.47,187.12 -150.88,182.40 -153.30,177.68 -155.56,172.63 -157.82,167.57 -160.02,161.81 -162.22,156.06 -163.76,149.95 -165.30,143.84 -165.79,138.06 -166.28,132.27 -166.14,126.71 -166.00,121.15 -165.59,115.23 -165.19,109.30 -164.43,102.99 -163.68,96.68 -162.29,90.42 -160.90,84.15 -158.83,78.28 -156.77,72.42 -154.15,67.03 -151.54,61.64 -148.37,56.64 -145.21,51.63 -141.43,46.85 -137.66,42.06 -133.20,37.38 -128.75,32.70 -123.62,28.07 -118.50,23.45 -112.71,19.00 -106.92,14.55 -100.52,10.42 -94.12,6.29 -87.31,2.79 -80.51,-0.71 -73.41,-3.21 -66.30,-5.72 -59.07,-7.11 -51.84,-8.51 -44.90,-8.87 -37.96,-9.23 -30.74,-9.27 -23.51,-9.32 -16.89,-9.23 -10.27,-9.15 -4.97,-8.75 0.32,-8.34 1.32,-8.18 2.31,-8.02 3.24,-7.63 4.17,-7.23 4.97,-6.63 5.78,-6.03 6.42,-5.25 7.05,-4.47 7.49,-3.56 7.92,-2.65 8.12,-1.66 8.32,-0.67 8.28,0.32 8.24,1.33 7.96,2.30 7.68,3.26 7.18,4.14 6.68,5.01 5.98,5.74 5.28,6.46 4.43,7.00 3.58,7.54 2.63,7.86 1.67,8.18 0.67,8.26 -0.33,8.34 -0.32,8.34 L -0.32,8.34 Z"></path></g><g transform="translate(195.54077048106643 265.88680844143676) rotate(0 21.898587587581687 156.43980988268027)" stroke="none"><path fill="#1e1e1e" d="M 6.47,2.20 Q 6.47,2.20 3.41,10.54 0.35,18.89 -3.33,27.02 -7.02,35.15 -11.18,43.11 -15.33,51.08 -20.02,59.47 -24.70,67.86 -29.51,76.45 -34.32,85.04 -39.08,93.38 -43.84,101.73 -48.35,109.45 -52.86,117.16 -56.59,123.94 -60.32,130.72 -63.15,136.35 -65.97,141.98 -68.04,146.56 -70.10,151.15 -71.68,155.11 -73.27,159.07 -75.33,165.08 -77.40,171.09 -78.76,176.21 -80.11,181.34 -80.96,185.77 -81.80,190.20 -82.83,194.64 -83.86,199.08 -84.12,203.48 -84.37,207.88 -85.12,212.12 -85.87,216.36 -86.97,221.55 -88.07,226.73 -88.69,231.27 -89.32,235.80 -84.25,238.26 -79.18,240.73 -73.15,244.32 -67.12,247.91 -58.48,252.29 -49.83,256.68 -39.85,260.93 -29.88,265.18 -19.18,269.13 -8.48,273.08 2.04,276.49 12.58,279.90 22.51,282.80 32.44,285.70 41.30,288.18 50.15,290.66 57.28,292.34 64.41,294.03 70.01,295.14 75.61,296.25 80.32,297.19 85.03,298.14 91.95,299.50 98.87,300.86 103.36,301.57 107.84,302.29 112.17,299.71 116.49,297.14 120.23,289.87 123.98,282.60 125.81,277.99 127.65,273.39 129.18,268.52 130.70,263.64 131.89,258.25 133.08,252.86 134.06,246.75 135.04,240.63 135.74,233.98 136.45,227.32 137.04,215.93 137.63,204.54 137.53,195.58 137.42,186.63 136.71,178.87 135.99,171.11 134.90,164.11 133.80,157.11 132.65,150.56 131.50,144.01 130.45,138.45 129.41,132.88 128.53,128.31 127.65,123.73 126.96,119.23 126.26,114.74 125.16,107.10 124.06,99.46 123.17,92.34 122.28,85.21 121.48,78.20 120.67,71.20 119.89,62.06 119.10,52.92 118.14,46.20 117.18,39.48 116.19,34.55 115.19,29.62 114.37,24.66 113.56,19.70 113.22,14.65 112.89,9.60 113.20,7.51 113.52,5.43 114.49,3.55 115.45,1.68 116.96,0.21 118.48,-1.24 120.38,-2.15 122.28,-3.06 124.38,-3.31 126.47,-3.56 128.53,-3.14 130.60,-2.71 132.41,-1.64 134.23,-0.58 135.62,1.01 137.00,2.60 137.80,4.54 138.61,6.49 138.74,8.60 138.88,10.70 138.34,12.74 137.80,14.77 136.64,16.53 135.48,18.29 133.81,19.59 132.15,20.88 130.16,21.58 128.17,22.27 126.06,22.30 123.96,22.32 121.95,21.67 119.95,21.02 118.25,19.77 116.56,18.51 115.36,16.78 114.16,15.05 113.57,13.03 112.98,11.00 113.07,8.90 113.16,6.79 113.92,4.82 114.68,2.86 116.02,1.23 117.37,-0.38 119.16,-1.49 120.95,-2.59 123.01,-3.07 125.06,-3.55 127.16,-3.34 129.26,-3.14 131.18,-2.28 133.10,-1.41 134.65,0.01 136.20,1.44 137.20,3.29 138.21,5.14 138.58,7.22 138.94,9.29 138.94,9.29 138.94,9.29 138.91,13.31 138.88,17.33 139.07,21.61 139.25,25.89 139.72,31.35 140.18,36.81 140.76,43.82 141.35,50.84 142.17,60.17 142.99,69.49 143.27,76.53 143.55,83.58 143.75,90.69 143.95,97.81 144.16,105.37 144.37,112.92 144.56,117.22 144.74,121.51 145.05,126.04 145.35,130.57 145.92,136.11 146.48,141.65 147.41,148.27 148.34,154.89 149.42,162.15 150.51,169.40 151.66,177.55 152.82,185.70 153.82,195.13 154.82,204.56 155.38,216.60 155.94,228.63 155.70,235.92 155.46,243.21 154.80,250.10 154.13,257.00 152.99,263.46 151.85,269.92 150.22,275.68 148.58,281.43 146.57,286.84 144.56,292.24 142.20,297.30 139.85,302.36 137.11,306.83 134.37,311.29 129.90,316.12 125.42,320.95 119.66,322.38 113.91,323.80 108.47,322.74 103.02,321.68 98.47,320.04 93.91,318.40 87.36,315.90 80.82,313.39 76.40,311.82 71.99,310.25 66.59,308.51 61.19,306.77 54.10,304.86 47.01,302.95 38.01,300.86 29.01,298.76 18.78,296.36 8.55,293.95 -2.42,291.19 -13.40,288.43 -24.68,285.33 -35.96,282.24 -46.79,279.06 -57.61,275.89 -67.50,272.77 -77.39,269.65 -85.25,266.67 -93.11,263.70 -98.22,260.75 -103.32,257.79 -106.96,254.64 -110.60,251.50 -113.70,244.32 -116.79,237.14 -116.36,232.47 -115.92,227.81 -114.50,222.23 -113.08,216.65 -111.48,211.43 -109.88,206.21 -109.23,202.00 -108.58,197.78 -107.11,193.65 -105.63,189.52 -103.75,185.01 -101.87,180.50 -99.98,176.03 -98.09,171.56 -96.12,167.72 -94.15,163.87 -90.79,157.92 -87.42,151.97 -85.08,148.10 -82.73,144.22 -79.92,139.91 -77.10,135.60 -73.67,130.30 -70.23,125.01 -66.23,118.36 -62.24,111.71 -57.82,104.03 -53.40,96.35 -48.74,87.99 -44.09,79.64 -39.39,71.02 -34.70,62.39 -30.25,54.09 -25.80,45.78 -22.00,38.03 -18.21,30.29 -14.99,22.52 -11.78,14.76 -9.13,6.28 -6.47,-2.20 -6.12,-2.94 -5.76,-3.68 -5.23,-4.32 -4.71,-4.95 -4.05,-5.45 -3.38,-5.94 -2.62,-6.26 -1.86,-6.58 -1.05,-6.70 -0.23,-6.83 0.58,-6.76 1.40,-6.69 2.18,-6.43 2.96,-6.16 3.66,-5.72 4.35,-5.27 4.92,-4.67 5.49,-4.08 5.89,-3.36 6.30,-2.64 6.53,-1.85 6.75,-1.06 6.78,-0.23 6.81,0.58 6.64,1.39 6.47,2.20 6.47,2.20 L 6.47,2.20 Z"></path></g><g transform="translate(296.9824782411826 114.0690824045297) rotate(0 -0.17232435863783735 0)" stroke="none"><path fill="#1e1e1e" d="M -0.19,8.93 Q -0.19,8.93 -1.62,8.69 -3.04,8.46 -4.32,7.78 -5.60,7.10 -6.59,6.06 -7.59,5.01 -8.19,3.70 -8.80,2.38 -8.95,0.95 -9.11,-0.48 -8.80,-1.89 -8.49,-3.30 -7.74,-4.54 -7.00,-5.78 -5.90,-6.71 -4.80,-7.65 -3.45,-8.18 -2.11,-8.72 -0.67,-8.80 0.76,-8.87 2.16,-8.49 3.55,-8.10 4.74,-7.29 5.94,-6.48 6.81,-5.33 7.69,-4.18 8.15,-2.81 8.61,-1.44 8.61,0.00 8.61,1.44 8.15,2.81 7.69,4.18 6.81,5.33 5.94,6.48 4.74,7.29 3.55,8.10 2.15,8.49 0.76,8.87 -0.67,8.80 -2.11,8.72 -3.46,8.18 -4.80,7.65 -5.90,6.71 -7.00,5.78 -7.75,4.54 -8.49,3.30 -8.80,1.89 -9.11,0.48 -8.95,-0.95 -8.80,-2.39 -8.19,-3.70 -7.58,-5.01 -6.59,-6.06 -5.60,-7.11 -4.32,-7.78 -3.04,-8.46 -1.62,-8.69 -0.19,-8.93 -0.19,-8.93 -0.19,-8.93 0.87,-8.82 1.94,-8.71 2.95,-8.35 3.97,-7.99 4.87,-7.40 5.77,-6.81 6.50,-6.02 7.23,-5.23 7.75,-4.29 8.28,-3.35 8.56,-2.31 8.84,-1.27 8.86,-0.19 8.88,0.88 8.65,1.93 8.42,2.98 7.94,3.94 7.46,4.91 6.76,5.73 6.07,6.55 5.19,7.18 4.32,7.81 3.32,8.22 2.32,8.62 1.26,8.77 0.19,8.93 -0.00,8.93 L -0.19,8.93 Z"></path></g><g transform="translate(378.97175881332834 121.56069549052052) rotate(0 0.00004999999998744897 0.00004999999998744897)" stroke="none"><path fill="#1e1e1e" d="M 6.28,-6.28 Q 6.28,-6.28 7.11,-5.11 7.95,-3.94 8.37,-2.57 8.80,-1.19 8.76,0.23 8.72,1.67 8.22,3.02 7.73,4.37 6.83,5.49 5.93,6.61 4.72,7.38 3.50,8.15 2.11,8.50 0.72,8.85 -0.71,8.73 -2.14,8.61 -3.46,8.05 -4.78,7.48 -5.85,6.52 -6.92,5.56 -7.63,4.31 -8.33,3.06 -8.60,1.65 -8.87,0.23 -8.68,-1.18 -8.49,-2.60 -7.85,-3.89 -7.21,-5.18 -6.19,-6.19 -5.18,-7.21 -3.89,-7.85 -2.60,-8.49 -1.18,-8.68 0.24,-8.87 1.65,-8.60 3.06,-8.33 4.31,-7.62 5.56,-6.92 6.52,-5.85 7.48,-4.78 8.05,-3.46 8.62,-2.14 8.73,-0.70 8.85,0.72 8.50,2.11 8.15,3.51 7.38,4.72 6.61,5.93 5.48,6.83 4.36,7.73 3.02,8.22 1.67,8.72 0.23,8.76 -1.20,8.80 -2.57,8.37 -3.94,7.95 -5.11,7.11 -6.28,6.27 -6.28,6.27 -6.28,6.28 -6.94,5.43 -7.60,4.59 -8.04,3.61 -8.48,2.64 -8.67,1.58 -8.86,0.53 -8.80,-0.53 -8.73,-1.60 -8.41,-2.62 -8.09,-3.64 -7.54,-4.56 -6.99,-5.47 -6.23,-6.23 -5.47,-6.99 -4.56,-7.54 -3.64,-8.10 -2.62,-8.41 -1.60,-8.73 -0.53,-8.80 0.53,-8.86 1.59,-8.67 2.64,-8.48 3.61,-8.04 4.59,-7.60 5.43,-6.94 6.28,-6.28 6.28,-6.28 L 6.28,-6.28 Z"></path></g><g transform="translate(353.2439732580071 182.53039891526305) rotate(0 -35.1793443986619 24.18299619170125)" stroke="none"><path fill="#1e1e1e" d="M 0.15,10.35 Q 0.15,10.35 -5.64,10.39 -11.44,10.42 -16.82,10.48 -22.20,10.54 -27.12,10.63 -32.03,10.71 -39.32,10.99 -46.62,11.27 -50.66,13.15 -54.70,15.03 -55.82,19.60 -56.94,24.16 -53.52,27.62 -50.10,31.07 -45.80,32.61 -41.50,34.16 -40.11,34.62 -38.72,35.08 -36.75,36.15 -34.79,37.21 -33.26,38.85 -31.74,40.49 -30.82,42.53 -29.90,44.57 -29.68,46.79 -29.46,49.02 -29.96,51.20 -30.46,53.37 -31.63,55.28 -32.81,57.19 -34.52,58.62 -36.24,60.05 -38.33,60.86 -40.41,61.66 -42.65,61.76 -44.88,61.86 -47.03,61.25 -49.18,60.63 -51.02,59.35 -52.86,58.08 -54.19,56.29 -55.53,54.50 -56.22,52.37 -56.92,50.24 -56.89,48.01 -56.87,45.77 -56.14,43.66 -55.40,41.55 -54.03,39.78 -52.66,38.01 -50.80,36.78 -48.94,35.54 -46.78,34.96 -44.62,34.38 -42.39,34.53 -40.15,34.67 -38.08,35.52 -36.02,36.36 -34.32,37.83 -32.63,39.29 -31.50,41.22 -30.37,43.15 -29.91,45.33 -29.45,47.52 -29.71,49.74 -29.97,51.96 -30.93,53.98 -31.89,56.00 -33.44,57.61 -35.00,59.22 -36.98,60.25 -38.97,61.28 -41.18,61.62 -43.39,61.96 -45.59,61.58 -47.80,61.19 -47.79,61.19 -47.79,61.19 -52.40,59.40 -57.02,57.61 -61.16,55.77 -65.31,53.94 -70.57,50.57 -75.84,47.21 -78.83,43.02 -81.82,38.82 -82.48,33.53 -83.13,28.25 -82.44,23.38 -81.76,18.51 -79.77,12.41 -77.79,6.31 -74.10,0.99 -70.41,-4.32 -64.83,-7.49 -59.26,-10.66 -52.95,-10.66 -46.64,-10.66 -39.37,-10.40 -32.10,-10.14 -27.22,-10.09 -22.35,-10.03 -17.05,-10.05 -11.75,-10.07 -5.95,-10.21 -0.15,-10.35 1.08,-10.22 2.32,-10.09 3.49,-9.66 4.67,-9.24 5.71,-8.55 6.74,-7.85 7.59,-6.93 8.43,-6.01 9.03,-4.91 9.62,-3.82 9.94,-2.61 10.26,-1.40 10.28,-0.15 10.30,1.09 10.02,2.30 9.74,3.52 9.17,4.63 8.61,5.75 7.80,6.70 6.98,7.64 5.96,8.37 4.95,9.09 3.79,9.55 2.63,10.01 1.39,10.18 0.15,10.35 0.15,10.35 L 0.15,10.35 Z"></path></g><g transform="translate(196.3717612386228 256.9313986794541) rotate(0 12.824493128814282 81.76721714186607)" stroke="none"><path fill="#1e1e1e" d="M 8.66,2.29 Q 8.66,2.29 6.73,9.07 4.79,15.85 2.57,22.73 0.34,29.61 -2.26,37.00 -4.87,44.39 -7.78,52.60 -10.70,60.81 -12.57,67.54 -14.44,74.28 -15.39,79.14 -16.34,84.01 -16.85,89.69 -17.36,95.38 -12.82,99.41 -8.28,103.44 -3.62,107.43 1.03,111.42 6.43,115.97 11.83,120.52 17.12,124.65 22.40,128.77 27.10,132.18 31.80,135.59 35.55,138.14 39.31,140.68 43.81,143.56 48.31,146.45 51.99,148.98 55.68,151.51 57.47,152.84 59.26,154.17 60.54,155.51 61.82,156.86 62.61,158.55 63.39,160.23 63.59,162.08 63.80,163.92 63.40,165.74 63.00,167.55 62.05,169.15 61.09,170.74 59.68,171.95 58.26,173.15 56.54,173.84 54.81,174.53 52.96,174.64 51.10,174.74 49.31,174.24 47.52,173.75 45.98,172.71 44.44,171.67 43.32,170.19 42.19,168.71 41.59,166.95 41.00,165.19 41.00,163.34 40.99,161.48 41.58,159.72 42.17,157.96 43.30,156.47 44.42,154.99 45.96,153.95 47.49,152.90 49.28,152.40 51.07,151.90 52.93,152.00 54.78,152.10 56.51,152.79 58.24,153.47 59.65,154.67 61.07,155.87 62.03,157.46 62.99,159.05 63.39,160.87 63.80,162.68 63.60,164.53 63.40,166.38 62.62,168.07 61.84,169.75 60.57,171.10 59.29,172.45 57.65,173.33 56.01,174.20 54.18,174.50 52.34,174.80 50.51,174.51 48.68,174.21 47.03,173.34 45.39,172.47 45.39,172.47 45.39,172.47 43.47,170.95 41.55,169.43 38.52,166.40 35.50,163.36 31.59,160.00 27.68,156.63 24.10,153.82 20.51,151.00 15.81,147.53 11.11,144.06 5.47,140.11 -0.16,136.16 -6.17,131.96 -12.19,127.76 -17.21,123.91 -22.23,120.06 -25.67,117.05 -29.12,114.04 -32.76,109.18 -36.40,104.32 -35.90,98.34 -35.40,92.37 -33.60,86.17 -31.81,79.97 -30.22,75.09 -28.62,70.21 -26.60,63.37 -24.58,56.53 -22.34,48.04 -20.11,39.54 -17.99,32.08 -15.87,24.61 -13.94,18.00 -12.01,11.40 -10.34,4.55 -8.66,-2.29 -8.26,-3.29 -7.86,-4.30 -7.23,-5.18 -6.60,-6.05 -5.78,-6.76 -4.96,-7.46 -3.99,-7.94 -3.03,-8.43 -1.97,-8.67 -0.92,-8.91 0.15,-8.89 1.23,-8.87 2.27,-8.60 3.32,-8.32 4.27,-7.80 5.21,-7.28 6.01,-6.55 6.81,-5.82 7.40,-4.92 8.00,-4.02 8.37,-3.01 8.73,-1.99 8.85,-0.91 8.96,0.15 8.81,1.22 8.66,2.29 8.66,2.29 L 8.66,2.29 Z"></path></g><g transform="translate(338.61643399491817 283.33928888137007) rotate(0 91.39990218622026 11.513348382159961)" stroke="none"><path fill="#1e1e1e" d="M 7.09,-7.24 Q 7.09,-7.24 11.23,-3.14 15.37,0.95 19.50,6.05 23.63,11.15 27.36,16.44 31.09,21.72 34.37,26.51 37.66,31.30 40.39,35.27 43.12,39.23 46.99,44.59 50.85,49.95 54.22,54.18 57.59,58.40 61.40,51.46 65.20,44.52 81.91,32.27 98.62,20.03 111.60,10.98 124.57,1.93 134.27,-4.49 143.96,-10.93 150.86,-15.45 157.76,-19.97 162.14,-23.26 166.51,-26.54 170.50,-29.81 174.49,-33.08 173.40,-37.99 172.31,-42.89 172.67,-44.53 173.02,-46.17 173.88,-47.62 174.74,-49.06 176.01,-50.15 177.29,-51.25 178.85,-51.88 180.41,-52.51 182.08,-52.60 183.76,-52.70 185.38,-52.26 187.00,-51.82 188.40,-50.88 189.79,-49.94 190.81,-48.61 191.84,-47.28 192.38,-45.69 192.92,-44.10 192.93,-42.42 192.94,-40.74 192.41,-39.14 191.88,-37.55 190.87,-36.21 189.86,-34.87 188.47,-33.92 187.09,-32.97 185.47,-32.51 183.85,-32.06 182.17,-32.14 180.50,-32.22 178.93,-32.84 177.37,-33.45 176.08,-34.54 174.80,-35.62 173.93,-37.05 173.05,-38.49 172.69,-40.13 172.32,-41.77 172.49,-43.44 172.67,-45.11 173.36,-46.64 174.06,-48.16 175.21,-49.39 176.36,-50.61 177.85,-51.41 179.33,-52.20 180.98,-52.48 182.64,-52.76 184.30,-52.49 185.96,-52.23 187.45,-51.45 188.93,-50.67 190.09,-49.45 191.25,-48.24 191.97,-46.72 192.68,-45.19 192.87,-43.52 193.06,-41.86 193.06,-41.86 193.06,-41.86 192.83,-40.35 192.60,-38.85 191.31,-31.71 190.02,-24.57 186.97,-21.48 183.93,-18.39 179.40,-16.16 174.88,-13.92 170.25,-11.25 165.63,-8.57 159.05,-3.78 152.46,1.01 143.35,7.95 134.24,14.89 122.04,24.62 109.83,34.35 93.95,47.62 78.08,60.89 71.41,67.11 64.74,73.33 59.13,76.03 53.51,78.73 49.29,77.99 45.06,77.26 41.25,73.43 37.44,69.61 35.10,65.64 32.77,61.66 29.50,55.95 26.23,50.24 23.81,46.31 21.40,42.38 18.29,37.78 15.17,33.18 11.70,28.46 8.22,23.75 4.75,19.54 1.28,15.33 -2.90,11.29 -7.09,7.24 -7.85,6.29 -8.61,5.34 -9.13,4.23 -9.64,3.12 -9.88,1.92 -10.11,0.72 -10.05,-0.49 -9.99,-1.71 -9.64,-2.88 -9.29,-4.06 -8.67,-5.11 -8.04,-6.16 -7.19,-7.03 -6.34,-7.91 -5.30,-8.55 -4.26,-9.20 -3.09,-9.57 -1.93,-9.95 -0.71,-10.04 0.50,-10.12 1.70,-9.92 2.91,-9.71 4.03,-9.22 5.15,-8.73 6.12,-7.99 7.09,-7.24 7.09,-7.24 L 7.09,-7.24 Z"></path></g><g transform="translate(161.06475210438242 522.3403408061461) rotate(0 -73.47558090608743 38.01899726366949)" stroke="none"><path fill="#1e1e1e" d="M 9.36,2.23 Q 9.36,2.23 6.59,11.38 3.82,20.53 1.28,28.38 -1.26,36.22 -3.04,42.62 -4.81,49.02 -5.93,53.99 -7.05,58.95 -8.65,65.54 -10.26,72.12 -15.82,77.75 -21.38,83.38 -25.97,84.54 -30.57,85.69 -35.57,86.12 -40.58,86.55 -46.25,86.64 -51.91,86.73 -58.62,86.21 -65.33,85.70 -73.23,83.48 -81.13,81.26 -89.19,76.94 -97.26,72.61 -104.68,67.02 -112.11,61.44 -118.18,56.08 -124.25,50.72 -128.89,46.18 -133.52,41.64 -137.11,37.62 -140.70,33.60 -143.33,30.18 -145.97,26.77 -149.26,21.52 -152.55,16.27 -154.87,10.90 -157.19,5.52 -157.31,3.81 -157.43,2.10 -156.99,0.44 -156.56,-1.21 -155.62,-2.64 -154.68,-4.08 -153.33,-5.14 -151.98,-6.20 -150.36,-6.77 -148.75,-7.34 -147.03,-7.37 -145.32,-7.40 -143.68,-6.87 -142.05,-6.35 -140.67,-5.34 -139.29,-4.32 -138.30,-2.91 -137.32,-1.51 -136.83,0.13 -136.35,1.77 -136.41,3.49 -136.48,5.20 -137.09,6.80 -137.70,8.41 -138.79,9.73 -139.88,11.06 -141.34,11.96 -142.79,12.87 -144.46,13.27 -146.13,13.66 -147.84,13.50 -149.55,13.34 -151.12,12.65 -152.68,11.95 -153.95,10.79 -155.21,9.63 -156.04,8.13 -156.86,6.62 -157.17,4.93 -157.47,3.25 -157.22,1.55 -156.97,-0.14 -156.19,-1.67 -155.41,-3.19 -154.18,-4.39 -152.95,-5.59 -151.41,-6.34 -149.86,-7.08 -148.16,-7.29 -146.46,-7.50 -144.78,-7.16 -143.10,-6.82 -141.61,-5.96 -140.13,-5.09 -139.00,-3.80 -137.87,-2.51 -137.21,-0.93 -136.55,0.64 -136.55,0.64 -136.55,0.64 -136.35,1.48 -136.14,2.32 -134.68,7.03 -133.21,11.74 -130.38,17.38 -127.54,23.02 -124.82,26.84 -122.11,30.66 -118.24,34.94 -114.38,39.23 -108.81,43.86 -103.25,48.48 -96.42,52.65 -89.59,56.81 -82.95,59.58 -76.30,62.35 -70.22,63.64 -64.14,64.93 -58.27,65.09 -52.39,65.24 -47.19,65.09 -41.98,64.93 -34.97,64.98 -27.96,65.04 -25.69,59.73 -23.41,54.43 -21.80,49.51 -20.18,44.59 -18.29,38.26 -16.40,31.93 -14.54,24.26 -12.69,16.59 -11.02,7.17 -9.36,-2.23 -8.96,-3.32 -8.56,-4.41 -7.90,-5.37 -7.25,-6.33 -6.39,-7.11 -5.52,-7.88 -4.50,-8.43 -3.48,-8.98 -2.35,-9.26 -1.23,-9.55 -0.06,-9.56 1.09,-9.56 2.22,-9.29 3.34,-9.03 4.38,-8.49 5.41,-7.96 6.28,-7.20 7.16,-6.43 7.82,-5.48 8.49,-4.53 8.91,-3.45 9.33,-2.37 9.48,-1.22 9.63,-0.06 9.49,1.08 9.36,2.23 9.36,2.23 L 9.36,2.23 Z"></path></g><g transform="translate(13.171754612940703 522.2615360829319) rotate(0 -1.5858773064703513 32.77680301420605)" stroke="none"><path fill="#1e1e1e" d="M 9.66,0.56 Q 9.66,0.56 8.87,8.19 8.07,15.82 7.76,22.66 7.46,29.49 7.46,35.33 7.47,41.17 7.66,45.48 7.85,49.79 8.25,55.14 8.65,60.48 4.96,67.88 1.26,75.28 -0.38,75.70 -2.03,76.12 -3.72,75.99 -5.42,75.86 -6.99,75.19 -8.55,74.53 -9.82,73.40 -11.10,72.27 -11.94,70.80 -12.79,69.32 -13.11,67.65 -13.44,65.98 -13.22,64.30 -13.00,62.61 -12.26,61.08 -11.51,59.56 -10.31,58.35 -9.12,57.14 -7.60,56.37 -6.08,55.61 -4.39,55.37 -2.71,55.13 -1.04,55.45 0.63,55.76 2.11,56.59 3.60,57.42 4.74,58.68 5.88,59.94 6.56,61.49 7.24,63.05 7.39,64.75 7.53,66.44 7.13,68.09 6.73,69.75 5.82,71.18 4.91,72.62 3.59,73.70 2.27,74.77 0.68,75.36 -0.90,75.96 -2.60,76.01 -4.30,76.07 -5.93,75.58 -7.56,75.09 -8.95,74.10 -10.33,73.11 -11.33,71.74 -12.33,70.36 -12.84,68.74 -13.35,67.12 -13.31,65.42 -13.27,63.72 -12.69,62.12 -12.11,60.52 -11.06,59.19 -10.00,57.85 -8.57,56.93 -7.14,56.01 -7.14,56.01 -7.14,56.01 -9.45,58.22 -11.75,60.42 -11.31,55.03 -10.87,49.64 -10.61,45.28 -10.35,40.93 -10.18,34.97 -10.01,29.02 -9.93,21.89 -9.86,14.77 -9.76,7.10 -9.66,-0.56 -9.46,-1.71 -9.25,-2.86 -8.77,-3.92 -8.29,-4.99 -7.58,-5.91 -6.86,-6.83 -5.94,-7.55 -5.02,-8.27 -3.96,-8.76 -2.89,-9.24 -1.75,-9.45 -0.60,-9.66 0.56,-9.59 1.72,-9.53 2.84,-9.18 3.95,-8.84 4.95,-8.23 5.95,-7.63 6.78,-6.81 7.61,-5.98 8.21,-4.98 8.82,-3.99 9.17,-2.87 9.52,-1.76 9.59,-0.59 9.66,0.56 9.66,0.56 L 9.66,0.56 Z"></path></g><g transform="translate(252.9383506050263 550.9410902603709) rotate(0 73.88349290796981 79.54216693920256)" stroke="none"><path fill="#1e1e1e" d="M 5.36,-5.24 Q 5.36,-5.24 14.27,4.29 23.19,13.84 32.97,24.30 42.76,34.75 53.57,46.60 64.38,58.45 74.44,69.78 84.49,81.10 92.97,90.67 101.45,100.23 108.46,107.95 115.47,115.67 120.71,121.06 125.96,126.44 130.04,130.21 134.12,133.98 139.70,138.82 145.28,143.65 148.44,146.57 151.59,149.48 151.84,150.63 152.09,151.77 152.75,152.75 153.41,153.73 153.82,154.84 154.22,155.95 154.35,157.12 154.48,158.30 154.33,159.47 154.17,160.64 153.74,161.74 153.31,162.84 152.63,163.80 151.95,164.77 151.05,165.54 150.16,166.32 149.11,166.85 148.06,167.39 146.91,167.66 145.76,167.93 144.58,167.92 143.40,167.91 142.25,167.61 141.11,167.32 140.07,166.76 139.03,166.20 138.15,165.40 137.28,164.61 138.62,165.69 139.96,166.78 138.72,165.80 137.47,164.82 136.60,163.50 135.73,162.17 135.33,160.64 134.93,159.10 135.04,157.52 135.15,155.94 135.76,154.48 136.37,153.01 137.41,151.82 138.45,150.63 139.83,149.83 141.20,149.04 142.75,148.72 144.30,148.40 145.88,148.60 147.45,148.79 148.88,149.48 150.31,150.17 151.44,151.28 152.57,152.38 153.29,153.79 154.02,155.21 154.25,156.77 154.48,158.34 154.20,159.90 153.92,161.46 153.16,162.85 152.39,164.24 151.22,165.31 150.06,166.39 148.61,167.03 147.16,167.67 145.58,167.82 144.00,167.97 142.46,167.60 140.92,167.24 139.57,166.40 138.23,165.56 137.22,164.34 136.21,163.11 135.65,161.63 135.08,160.15 135.02,158.57 134.96,156.98 135.41,155.46 135.86,153.94 136.77,152.64 137.67,151.35 138.95,150.41 140.23,149.47 141.74,148.98 143.25,148.50 144.83,148.52 146.42,148.55 149.25,150.16 152.09,151.77 152.75,152.75 153.41,153.73 153.81,154.84 154.22,155.95 154.35,157.12 154.48,158.30 154.33,159.47 154.17,160.64 153.74,161.74 153.31,162.84 152.63,163.80 151.95,164.77 151.06,165.54 150.16,166.32 149.11,166.85 148.06,167.39 146.91,167.66 145.76,167.93 144.58,167.92 143.40,167.91 142.25,167.61 141.11,167.32 140.07,166.76 139.03,166.20 138.16,165.40 137.28,164.61 138.03,163.95 138.79,163.30 135.98,159.04 133.17,154.79 128.73,148.98 124.29,143.18 120.79,138.85 117.28,134.52 112.26,128.88 107.24,123.23 100.10,115.55 92.95,107.87 84.35,98.43 75.74,88.99 65.58,77.90 55.42,66.80 44.44,55.26 33.47,43.72 23.39,33.60 13.32,23.49 3.97,14.37 -5.36,5.24 -5.91,4.53 -6.46,3.81 -6.82,2.98 -7.19,2.15 -7.34,1.26 -7.49,0.36 -7.43,-0.53 -7.36,-1.43 -7.08,-2.29 -6.81,-3.15 -6.33,-3.92 -5.85,-4.69 -5.21,-5.32 -4.56,-5.96 -3.78,-6.42 -3.00,-6.87 -2.13,-7.13 -1.26,-7.39 -0.36,-7.44 0.53,-7.48 1.42,-7.31 2.31,-7.14 3.13,-6.76 3.95,-6.38 4.66,-5.81 5.36,-5.24 5.36,-5.24 L 5.36,-5.24 Z"></path></g><g transform="translate(406.1719505497121 715.8359374894701) rotate(0 29.729449396051336 -1.0706618982947589)" stroke="none"><path fill="#1e1e1e" d="M 0.14,-10.48 Q 0.14,-10.48 4.89,-10.48 9.64,-10.48 16.96,-10.70 24.27,-10.91 30.12,-11.15 35.98,-11.39 40.38,-11.69 44.77,-12.00 49.37,-13.31 53.96,-14.63 50.51,-10.29 47.05,-5.96 47.97,-7.86 48.88,-9.76 50.35,-11.27 51.82,-12.77 53.70,-13.73 55.57,-14.69 57.66,-15.00 59.74,-15.31 61.82,-14.94 63.89,-14.57 65.74,-13.56 67.58,-12.54 69.01,-10.99 70.44,-9.44 71.29,-7.52 72.15,-5.59 72.35,-3.49 72.55,-1.39 72.06,0.65 71.58,2.70 70.47,4.49 69.35,6.28 67.73,7.62 66.10,8.96 64.13,9.71 62.16,10.46 60.06,10.54 57.95,10.63 55.93,10.03 53.91,9.44 52.18,8.23 50.46,7.02 49.21,5.33 47.96,3.63 47.31,1.62 46.67,-0.37 46.70,-2.48 46.73,-4.59 47.43,-6.57 48.14,-8.56 49.44,-10.22 50.74,-11.88 52.50,-13.03 54.26,-14.19 56.30,-14.73 58.34,-15.26 60.44,-15.11 62.54,-14.97 64.49,-14.16 66.43,-13.35 68.02,-11.96 69.60,-10.57 70.66,-8.75 71.72,-6.93 72.14,-4.87 72.57,-2.80 72.31,-0.71 72.05,1.37 72.05,1.37 72.05,1.37 63.50,6.17 54.95,10.98 50.33,11.65 45.72,12.32 40.84,12.09 35.96,11.85 30.08,11.60 24.19,11.34 16.76,11.05 9.33,10.75 4.59,10.62 -0.14,10.48 -1.40,10.31 -2.65,10.14 -3.83,9.68 -5.00,9.21 -6.03,8.48 -7.06,7.75 -7.89,6.79 -8.71,5.83 -9.28,4.70 -9.86,3.57 -10.14,2.34 -10.43,1.11 -10.41,-0.14 -10.39,-1.41 -10.07,-2.63 -9.75,-3.86 -9.15,-4.97 -8.54,-6.08 -7.69,-7.01 -6.84,-7.95 -5.79,-8.65 -4.74,-9.35 -3.55,-9.78 -2.36,-10.22 -1.10,-10.35 0.15,-10.48 0.15,-10.48 L 0.14,-10.48 Z"></path></g></svg>