<svg version="1.1" xmlns="http://www.w3.org/2000/svg" viewBox="0 0 479.3164848749565 733.4381004888834" width="479.3164848749565" height="733.4381004888834" class="excalidraw-svg">
  <!-- svg-source:excalidraw -->
  
  <defs>
    <style class="style-fonts">
      @font-face {
        font-family: "Virgil";
        src: url("https://excalidraw.com/Virgil.woff2");
      }
      @font-face {
        font-family: "Cascadia";
        src: url("https://excalidraw.com/Cascadia.woff2");
      }
      @font-face {
        font-family: "Assistant";
        src: url("https://excalidraw.com/Assistant-Regular.woff2");
      }
    </style>
    
  </defs>
  <g transform="translate(322.8330382299446 27.77969605245471) rotate(0 -16.607437364441665 114.8631593272568)" stroke="none"><path fill="#1e1e1e" d="M -0.32,8.34 Q -0.32,8.34 -5.64,8.33 -10.96,8.31 -17.36,8.22 -23.75,8.12 -30.97,7.88 -38.18,7.65 -44.56,7.99 -50.93,8.32 -56.99,9.53 -63.06,10.73 -69.02,12.83 -74.98,14.93 -80.84,17.88 -86.71,20.82 -92.53,24.44 -98.35,28.05 -103.54,32.08 -108.74,36.10 -113.23,40.36 -117.72,44.62 -121.52,48.97 -125.31,53.33 -128.30,57.64 -131.29,61.96 -133.70,66.36 -136.11,70.77 -138.07,75.40 -140.03,80.04 -141.62,85.06 -143.22,90.07 -144.26,95.32 -145.31,100.56 -145.88,105.99 -146.45,111.42 -146.71,116.84 -146.97,122.26 -146.92,127.34 -146.87,132.42 -146.28,137.10 -145.69,141.78 -144.37,146.35 -143.05,150.92 -141.17,155.63 -139.29,160.34 -137.16,164.78 -135.02,169.23 -132.73,173.38 -130.43,177.54 -127.86,181.53 -125.29,185.53 -122.58,189.06 -119.87,192.59 -114.19,198.38 -108.51,204.17 -99.97,210.64 -91.44,217.11 -84.54,221.41 -77.65,225.72 -72.02,228.18 -66.38,230.65 -61.32,232.23 -56.27,233.82 -51.46,234.82 -46.65,235.82 -41.84,236.37 -37.03,236.91 -31.79,237.16 -26.54,237.40 -20.81,237.33 -15.08,237.25 -9.31,236.51 -3.54,235.77 2.22,234.25 8.00,232.73 13.41,230.69 18.83,228.66 23.85,226.22 28.87,223.77 37.06,219.05 45.25,214.33 53.91,207.66 62.57,201.00 68.44,195.89 74.31,190.78 78.71,186.39 83.12,182.01 86.65,178.13 90.18,174.25 93.23,170.52 96.28,166.79 98.81,163.23 101.34,159.67 104.58,153.27 107.83,146.86 109.41,140.01 110.99,133.15 111.56,128.37 112.14,123.58 112.59,117.77 113.03,111.95 113.19,105.68 113.35,99.41 112.85,93.60 112.34,87.79 111.20,82.27 110.06,76.76 108.47,71.35 106.87,65.95 104.90,60.93 102.93,55.91 100.74,51.55 98.56,47.20 96.24,43.34 93.93,39.48 91.44,35.69 88.96,31.90 86.46,28.44 83.95,24.97 79.25,19.04 74.55,13.12 70.70,8.98 66.85,4.85 62.81,2.46 58.78,0.08 53.69,-1.18 48.60,-2.45 43.96,-3.21 39.32,-3.96 34.43,-4.25 29.53,-4.53 24.14,-4.55 18.75,-4.57 12.55,-4.07 6.35,-3.57 0.41,-2.22 -5.51,-0.87 -11.62,0.80 -17.73,2.49 -22.63,4.09 -27.52,5.69 -29.63,6.00 -31.73,6.31 -33.82,5.93 -35.92,5.56 -37.78,4.53 -39.65,3.51 -41.08,1.94 -42.52,0.37 -43.39,-1.56 -44.25,-3.51 -44.45,-5.63 -44.64,-7.74 -44.16,-9.81 -43.67,-11.88 -42.54,-13.69 -41.42,-15.50 -39.77,-16.85 -38.13,-18.20 -36.14,-18.96 -34.15,-19.71 -32.03,-19.80 -29.90,-19.88 -27.86,-19.28 -25.82,-18.68 -24.08,-17.45 -22.34,-16.23 -21.08,-14.52 -19.81,-12.81 -19.17,-10.78 -18.52,-8.75 -18.55,-6.63 -18.58,-4.50 -19.30,-2.49 -20.01,-0.49 -21.32,1.18 -22.63,2.85 -24.41,4.01 -26.19,5.18 -28.25,5.72 -30.31,6.26 -32.43,6.11 -34.55,5.96 -36.52,5.14 -38.48,4.32 -40.08,2.92 -41.68,1.52 -42.75,-0.31 -43.82,-2.15 -44.24,-4.24 -44.67,-6.32 -44.40,-8.43 -44.14,-10.54 -43.22,-12.46 -42.29,-14.38 -40.81,-15.90 -39.32,-17.42 -37.42,-18.39 -35.53,-19.35 -35.53,-19.35 -35.53,-19.35 -30.01,-21.08 -24.49,-22.82 -18.18,-24.49 -11.87,-26.17 -4.48,-27.79 2.90,-29.41 8.04,-30.15 13.19,-30.89 19.01,-30.83 24.84,-30.78 31.05,-30.45 37.26,-30.13 43.34,-29.19 49.42,-28.25 54.74,-26.85 60.05,-25.46 65.06,-23.43 70.07,-21.40 74.79,-18.14 79.51,-14.88 83.73,-10.25 87.95,-5.61 92.19,0.27 96.43,6.16 98.83,9.68 101.23,13.19 103.79,17.14 106.34,21.09 108.88,25.37 111.41,29.65 113.83,34.21 116.25,38.77 118.57,43.88 120.90,49.00 123.07,54.76 125.24,60.52 127.06,66.66 128.87,72.81 130.26,79.34 131.65,85.88 132.39,92.64 133.12,99.41 133.28,106.26 133.44,113.11 133.19,119.66 132.93,126.21 132.17,131.98 131.41,137.75 130.15,142.66 128.88,147.57 127.13,151.78 125.37,155.99 123.12,159.81 120.87,163.64 118.16,167.28 115.45,170.93 112.20,174.61 108.95,178.30 105.24,182.01 101.53,185.71 97.46,189.36 93.39,193.02 88.63,197.18 83.87,201.34 77.95,206.90 72.03,212.47 63.11,220.29 54.20,228.12 45.54,234.32 36.88,240.51 31.09,243.22 25.30,245.94 19.08,248.25 12.87,250.57 5.93,252.51 -0.99,254.45 -7.88,255.43 -14.77,256.40 -21.21,256.52 -27.66,256.64 -33.67,256.22 -39.68,255.81 -45.34,254.89 -50.99,253.96 -56.53,252.48 -62.08,251.00 -67.77,248.95 -73.46,246.89 -79.69,244.18 -85.92,241.47 -94.25,237.78 -102.59,234.09 -109.37,230.06 -116.15,226.04 -119.91,222.81 -123.67,219.58 -127.07,216.09 -130.47,212.59 -133.59,208.80 -136.70,205.01 -139.75,200.73 -142.80,196.45 -145.63,191.79 -148.47,187.12 -150.88,182.40 -153.30,177.68 -155.56,172.63 -157.82,167.57 -160.02,161.81 -162.22,156.06 -163.76,149.95 -165.30,143.84 -165.79,138.06 -166.28,132.27 -166.14,126.71 -166.00,121.15 -165.59,115.23 -165.19,109.30 -164.43,102.99 -163.68,96.68 -162.29,90.42 -160.90,84.15 -158.83,78.28 -156.77,72.42 -154.15,67.03 -151.54,61.64 -148.37,56.64 -145.21,51.63 -141.43,46.85 -137.66,42.06 -133.20,37.38 -128.75,32.70 -123.62,28.07 -118.50,23.45 -112.71,19.00 -106.92,14.55 -100.52,10.42 -94.12,6.29 -87.31,2.79 -80.51,-0.71 -73.41,-3.21 -66.30,-5.72 -59.07,-7.11 -51.84,-8.51 -44.90,-8.87 -37.96,-9.23 -30.74,-9.27 -23.51,-9.32 -16.89,-9.23 -10.27,-9.15 -4.97,-8.75 0.32,-8.34 1.32,-8.18 2.31,-8.02 3.24,-7.63 4.17,-7.23 4.97,-6.63 5.78,-6.03 6.42,-5.25 7.05,-4.47 7.49,-3.56 7.92,-2.65 8.12,-1.66 8.32,-0.67 8.28,0.32 8.24,1.33 7.96,2.30 7.68,3.26 7.18,4.14 6.68,5.01 5.98,5.74 5.28,6.46 4.43,7.00 3.58,7.54 2.63,7.86 1.67,8.18 0.67,8.26 -0.33,8.34 -0.32,8.34 L -0.32,8.34 Z"></path></g><g transform="translate(216.5434507637458 261.9090874819532) rotate(0 21.898587587581687 156.43980988268024)" stroke="none"><path fill="#1e1e1e" d="M 6.47,2.20 Q 6.47,2.20 3.41,10.54 0.35,18.89 -3.33,27.02 -7.02,35.15 -11.18,43.11 -15.33,51.08 -20.02,59.47 -24.70,67.86 -29.51,76.45 -34.32,85.04 -39.08,93.38 -43.84,101.73 -48.35,109.45 -52.86,117.16 -56.59,123.94 -60.32,130.72 -63.15,136.35 -65.97,141.98 -68.04,146.56 -70.10,151.15 -71.68,155.11 -73.27,159.07 -75.33,165.08 -77.40,171.09 -78.76,176.21 -80.11,181.34 -80.96,185.77 -81.80,190.20 -82.83,194.64 -83.86,199.08 -84.12,203.48 -84.37,207.88 -85.12,212.12 -85.87,216.36 -86.97,221.55 -88.07,226.73 -88.69,231.27 -89.32,235.80 -84.25,238.26 -79.18,240.73 -73.15,244.32 -67.12,247.91 -58.48,252.29 -49.83,256.68 -39.85,260.93 -29.88,265.18 -19.18,269.13 -8.48,273.08 2.04,276.49 12.58,279.90 22.51,282.80 32.44,285.70 41.30,288.18 50.15,290.66 57.28,292.34 64.41,294.03 70.01,295.14 75.61,296.25 80.32,297.19 85.03,298.14 91.95,299.50 98.87,300.86 103.36,301.57 107.84,302.29 112.17,299.71 116.49,297.14 120.23,289.87 123.98,282.60 125.81,277.99 127.65,273.39 129.18,268.52 130.70,263.64 131.89,258.25 133.08,252.86 134.06,246.75 135.04,240.63 135.74,233.98 136.45,227.32 137.04,215.93 137.63,204.54 137.53,195.58 137.42,186.63 136.71,178.87 135.99,171.11 134.90,164.11 133.80,157.11 132.65,150.56 131.50,144.01 130.45,138.45 129.41,132.88 128.53,128.31 127.65,123.73 126.96,119.23 126.26,114.74 125.16,107.10 124.06,99.46 123.17,92.34 122.28,85.21 121.48,78.20 120.67,71.20 119.89,62.06 119.10,52.92 118.14,46.20 117.18,39.48 116.19,34.55 115.19,29.62 114.37,24.66 113.56,19.70 113.22,14.65 112.89,9.60 113.20,7.51 113.52,5.43 114.49,3.55 115.45,1.68 116.96,0.21 118.48,-1.24 120.38,-2.15 122.28,-3.06 124.38,-3.31 126.47,-3.56 128.53,-3.14 130.60,-2.71 132.41,-1.64 134.23,-0.58 135.62,1.01 137.00,2.60 137.80,4.54 138.61,6.49 138.74,8.60 138.88,10.70 138.34,12.74 137.80,14.77 136.64,16.53 135.48,18.29 133.81,19.59 132.15,20.88 130.16,21.58 128.17,22.27 126.06,22.30 123.96,22.32 121.95,21.67 119.95,21.02 118.25,19.77 116.56,18.51 115.36,16.78 114.16,15.05 113.57,13.03 112.98,11.00 113.07,8.90 113.16,6.79 113.92,4.82 114.68,2.86 116.02,1.23 117.37,-0.38 119.16,-1.49 120.95,-2.59 123.01,-3.07 125.06,-3.55 127.16,-3.34 129.26,-3.14 131.18,-2.28 133.10,-1.41 134.65,0.01 136.20,1.44 137.20,3.29 138.21,5.14 138.58,7.22 138.94,9.29 138.94,9.29 138.94,9.29 138.91,13.31 138.88,17.33 139.07,21.61 139.25,25.89 139.72,31.35 140.18,36.81 140.76,43.82 141.35,50.84 142.17,60.17 142.99,69.49 143.27,76.53 143.55,83.58 143.75,90.69 143.95,97.81 144.16,105.37 144.37,112.92 144.56,117.22 144.74,121.51 145.05,126.04 145.35,130.57 145.92,136.11 146.48,141.65 147.41,148.27 148.34,154.89 149.42,162.15 150.51,169.40 151.66,177.55 152.82,185.70 153.82,195.13 154.82,204.56 155.38,216.60 155.94,228.63 155.70,235.92 155.46,243.21 154.80,250.10 154.13,257.00 152.99,263.46 151.85,269.92 150.22,275.68 148.58,281.43 146.57,286.84 144.56,292.24 142.20,297.30 139.85,302.36 137.11,306.83 134.37,311.29 129.90,316.12 125.42,320.95 119.66,322.38 113.91,323.80 108.47,322.74 103.02,321.68 98.47,320.04 93.91,318.40 87.36,315.90 80.82,313.39 76.40,311.82 71.99,310.25 66.59,308.51 61.19,306.77 54.10,304.86 47.01,302.95 38.01,300.86 29.01,298.76 18.78,296.36 8.55,293.95 -2.42,291.19 -13.40,288.43 -24.68,285.33 -35.96,282.24 -46.79,279.06 -57.61,275.89 -67.50,272.77 -77.39,269.65 -85.25,266.67 -93.11,263.70 -98.22,260.75 -103.32,257.79 -106.96,254.64 -110.60,251.50 -113.70,244.32 -116.79,237.14 -116.36,232.47 -115.92,227.81 -114.50,222.23 -113.08,216.65 -111.48,211.43 -109.88,206.21 -109.23,202.00 -108.58,197.78 -107.11,193.65 -105.63,189.52 -103.75,185.01 -101.87,180.50 -99.98,176.03 -98.09,171.56 -96.12,167.72 -94.15,163.87 -90.79,157.92 -87.42,151.97 -85.08,148.10 -82.73,144.22 -79.92,139.91 -77.10,135.60 -73.67,130.30 -70.23,125.01 -66.23,118.36 -62.24,111.71 -57.82,104.03 -53.40,96.35 -48.74,87.99 -44.09,79.64 -39.39,71.02 -34.70,62.39 -30.25,54.09 -25.80,45.78 -22.00,38.03 -18.21,30.29 -14.99,22.52 -11.78,14.76 -9.13,6.28 -6.47,-2.20 -6.12,-2.94 -5.76,-3.68 -5.23,-4.32 -4.71,-4.95 -4.05,-5.45 -3.38,-5.94 -2.62,-6.26 -1.86,-6.58 -1.05,-6.70 -0.23,-6.83 0.58,-6.76 1.40,-6.69 2.18,-6.43 2.96,-6.16 3.66,-5.72 4.35,-5.27 4.92,-4.67 5.49,-4.08 5.89,-3.36 6.30,-2.64 6.53,-1.85 6.75,-1.06 6.78,-0.23 6.81,0.58 6.64,1.39 6.47,2.20 6.47,2.20 L 6.47,2.20 Z"></path></g><g transform="translate(281.15377978514516 119.82273922288994) rotate(0 -0.17232435863783735 0)" stroke="none"><path fill="#1e1e1e" d="M -0.19,8.93 Q -0.19,8.93 -1.62,8.69 -3.04,8.46 -4.32,7.78 -5.60,7.10 -6.59,6.06 -7.59,5.01 -8.19,3.70 -8.80,2.38 -8.95,0.95 -9.11,-0.48 -8.80,-1.89 -8.49,-3.30 -7.74,-4.54 -7.00,-5.78 -5.90,-6.71 -4.80,-7.65 -3.45,-8.18 -2.11,-8.72 -0.67,-8.80 0.76,-8.87 2.16,-8.49 3.55,-8.10 4.74,-7.29 5.94,-6.48 6.81,-5.33 7.69,-4.18 8.15,-2.81 8.61,-1.44 8.61,0.00 8.61,1.44 8.15,2.81 7.69,4.18 6.81,5.33 5.94,6.48 4.74,7.29 3.55,8.10 2.15,8.49 0.76,8.87 -0.67,8.80 -2.11,8.72 -3.46,8.18 -4.80,7.65 -5.90,6.71 -7.00,5.78 -7.75,4.54 -8.49,3.30 -8.80,1.89 -9.11,0.48 -8.95,-0.95 -8.80,-2.39 -8.19,-3.70 -7.58,-5.01 -6.59,-6.06 -5.60,-7.11 -4.32,-7.78 -3.04,-8.46 -1.62,-8.69 -0.19,-8.93 -0.19,-8.93 -0.19,-8.93 0.87,-8.82 1.94,-8.71 2.95,-8.35 3.97,-7.99 4.87,-7.40 5.77,-6.81 6.50,-6.02 7.23,-5.23 7.75,-4.29 8.28,-3.35 8.56,-2.31 8.84,-1.27 8.86,-0.19 8.88,0.88 8.65,1.93 8.42,2.98 7.94,3.94 7.46,4.91 6.76,5.73 6.07,6.55 5.19,7.18 4.32,7.81 3.32,8.22 2.32,8.62 1.26,8.77 0.19,8.93 -0.00,8.93 L -0.19,8.93 Z"></path></g><g transform="translate(370.4882557027222 116.15644974270879) rotate(0 0.00005000000000165983 0.00004999999998744897)" stroke="none"><path fill="#1e1e1e" d="M 6.28,-6.28 Q 6.28,-6.28 7.11,-5.11 7.95,-3.94 8.37,-2.57 8.80,-1.19 8.76,0.23 8.72,1.67 8.22,3.02 7.73,4.37 6.83,5.49 5.93,6.61 4.72,7.38 3.50,8.15 2.11,8.50 0.72,8.85 -0.71,8.73 -2.14,8.61 -3.46,8.05 -4.78,7.48 -5.85,6.52 -6.92,5.56 -7.63,4.31 -8.33,3.06 -8.60,1.65 -8.87,0.23 -8.68,-1.18 -8.49,-2.60 -7.85,-3.89 -7.21,-5.18 -6.19,-6.19 -5.18,-7.21 -3.89,-7.85 -2.60,-8.49 -1.18,-8.68 0.24,-8.87 1.65,-8.60 3.06,-8.33 4.31,-7.62 5.56,-6.92 6.52,-5.85 7.48,-4.78 8.05,-3.46 8.62,-2.14 8.73,-0.70 8.85,0.72 8.50,2.11 8.15,3.51 7.38,4.72 6.61,5.93 5.48,6.83 4.36,7.73 3.02,8.22 1.67,8.72 0.23,8.76 -1.20,8.80 -2.57,8.37 -3.94,7.95 -5.11,7.11 -6.28,6.27 -6.28,6.27 -6.28,6.28 -6.94,5.43 -7.60,4.59 -8.04,3.61 -8.48,2.64 -8.67,1.58 -8.86,0.53 -8.80,-0.53 -8.73,-1.60 -8.41,-2.62 -8.09,-3.64 -7.54,-4.56 -6.99,-5.47 -6.23,-6.23 -5.47,-6.99 -4.56,-7.54 -3.64,-8.10 -2.62,-8.41 -1.60,-8.73 -0.53,-8.80 0.53,-8.86 1.59,-8.67 2.64,-8.48 3.61,-8.04 4.59,-7.60 5.43,-6.94 6.28,-6.28 6.28,-6.28 L 6.28,-6.28 Z"></path></g><g transform="translate(319.7646254514957 178.3884421075012) rotate(0 -35.1793443986619 24.182996191701278)" stroke="none"><path fill="#1e1e1e" d="M 0.15,10.35 Q 0.15,10.35 -5.64,10.39 -11.44,10.42 -16.82,10.48 -22.20,10.54 -27.12,10.63 -32.03,10.71 -39.32,10.99 -46.62,11.27 -50.66,13.15 -54.70,15.03 -55.82,19.60 -56.94,24.16 -53.52,27.62 -50.10,31.07 -45.80,32.61 -41.50,34.16 -40.11,34.62 -38.72,35.08 -36.75,36.15 -34.79,37.21 -33.26,38.85 -31.74,40.49 -30.82,42.53 -29.90,44.57 -29.68,46.79 -29.46,49.02 -29.96,51.20 -30.46,53.37 -31.63,55.28 -32.81,57.19 -34.52,58.62 -36.24,60.05 -38.33,60.86 -40.41,61.66 -42.65,61.76 -44.88,61.86 -47.03,61.25 -49.18,60.63 -51.02,59.35 -52.86,58.08 -54.19,56.29 -55.53,54.50 -56.22,52.37 -56.92,50.24 -56.89,48.01 -56.87,45.77 -56.14,43.66 -55.40,41.55 -54.03,39.78 -52.66,38.01 -50.80,36.78 -48.94,35.54 -46.78,34.96 -44.62,34.38 -42.39,34.53 -40.15,34.67 -38.08,35.52 -36.02,36.36 -34.32,37.83 -32.63,39.29 -31.50,41.22 -30.37,43.15 -29.91,45.33 -29.45,47.52 -29.71,49.74 -29.97,51.96 -30.93,53.98 -31.89,56.00 -33.44,57.61 -35.00,59.22 -36.98,60.25 -38.97,61.28 -41.18,61.62 -43.39,61.96 -45.59,61.58 -47.80,61.19 -47.79,61.19 -47.79,61.19 -52.40,59.40 -57.02,57.61 -61.16,55.77 -65.31,53.94 -70.57,50.57 -75.84,47.21 -78.83,43.02 -81.82,38.82 -82.48,33.53 -83.13,28.25 -82.44,23.38 -81.76,18.51 -79.77,12.41 -77.79,6.31 -74.10,0.99 -70.41,-4.32 -64.83,-7.49 -59.26,-10.66 -52.95,-10.66 -46.64,-10.66 -39.37,-10.40 -32.10,-10.14 -27.22,-10.09 -22.35,-10.03 -17.05,-10.05 -11.75,-10.07 -5.95,-10.21 -0.15,-10.35 1.08,-10.22 2.32,-10.09 3.49,-9.66 4.67,-9.24 5.71,-8.55 6.74,-7.85 7.59,-6.93 8.43,-6.01 9.03,-4.91 9.62,-3.82 9.94,-2.61 10.26,-1.40 10.28,-0.15 10.30,1.09 10.02,2.30 9.74,3.52 9.17,4.63 8.61,5.75 7.80,6.70 6.98,7.64 5.96,8.37 4.95,9.09 3.79,9.55 2.63,10.01 1.39,10.18 0.15,10.35 0.15,10.35 L 0.15,10.35 Z"></path></g><g transform="translate(275.82993142554733 293.526640222934) rotate(0 17.523763059133216 41.77397357207073)" stroke="none"><path fill="#1e1e1e" d="M 9.25,-2.71 Q 9.25,-2.71 11.07,4.75 12.90,12.22 15.16,18.71 17.42,25.20 20.05,31.44 22.69,37.68 25.25,43.01 27.82,48.35 30.04,52.66 32.26,56.98 35.72,63.37 39.18,69.76 41.66,73.86 44.14,77.96 44.75,79.58 45.35,81.20 45.41,82.92 45.46,84.65 44.97,86.30 44.47,87.95 43.47,89.36 42.47,90.77 41.07,91.78 39.68,92.80 38.03,93.31 36.38,93.83 34.66,93.79 32.93,93.75 31.31,93.17 29.68,92.58 28.33,91.51 26.98,90.43 26.04,88.98 25.11,87.53 24.68,85.86 24.26,84.19 24.39,82.47 24.52,80.75 25.19,79.16 25.86,77.57 27.01,76.28 28.16,74.99 29.65,74.13 31.15,73.27 32.84,72.94 34.54,72.60 36.25,72.83 37.96,73.05 39.51,73.81 41.06,74.57 42.29,75.78 43.52,77.00 44.29,78.54 45.07,80.08 45.31,81.79 45.55,83.50 45.23,85.20 44.92,86.89 44.08,88.40 43.23,89.91 41.96,91.07 40.68,92.23 39.10,92.92 37.51,93.61 35.79,93.75 34.07,93.90 32.40,93.50 30.72,93.09 29.26,92.17 27.80,91.24 26.71,89.90 25.62,88.57 25.63,88.57 25.63,88.57 23.36,83.36 21.10,78.15 18.44,71.36 15.78,64.57 13.94,60.08 12.10,55.58 9.65,50.00 7.20,44.43 4.23,37.83 1.27,31.23 -1.49,24.24 -4.25,17.25 -6.75,9.98 -9.25,2.71 -9.44,1.56 -9.63,0.41 -9.54,-0.73 -9.45,-1.89 -9.08,-3.00 -8.72,-4.10 -8.10,-5.08 -7.48,-6.07 -6.65,-6.88 -5.81,-7.68 -4.81,-8.27 -3.80,-8.85 -2.69,-9.18 -1.57,-9.51 -0.41,-9.56 0.74,-9.61 1.88,-9.38 3.02,-9.15 4.07,-8.66 5.12,-8.16 6.03,-7.43 6.93,-6.70 7.63,-5.77 8.33,-4.84 8.79,-3.77 9.25,-2.71 9.25,-2.71 L 9.25,-2.71 Z"></path></g><g transform="translate(309.4170921732193 372.81295309877635) rotate(0 79.94969635086858 -31.065024518933797)" stroke="none"><path fill="#1e1e1e" d="M -0.49,-7.69 Q -0.49,-7.69 7.09,-8.07 14.68,-8.45 24.50,-10.16 34.32,-11.87 46.73,-15.72 59.14,-19.57 71.24,-24.43 83.33,-29.29 93.92,-34.05 104.51,-38.81 113.18,-42.84 121.86,-46.87 128.00,-50.17 134.14,-53.48 138.63,-56.08 143.13,-58.68 147.63,-61.44 152.13,-64.20 151.30,-62.64 150.48,-61.09 150.65,-62.55 150.82,-64.01 151.44,-65.34 152.07,-66.67 153.08,-67.73 154.10,-68.79 155.40,-69.47 156.71,-70.15 158.16,-70.37 159.61,-70.60 161.06,-70.36 162.51,-70.11 163.80,-69.41 165.09,-68.72 166.10,-67.64 167.10,-66.57 167.71,-65.23 168.32,-63.89 168.47,-62.43 168.62,-60.97 168.29,-59.54 167.97,-58.11 167.20,-56.85 166.43,-55.60 165.31,-54.65 164.18,-53.71 162.81,-53.17 161.45,-52.64 159.98,-52.57 158.51,-52.50 157.10,-52.90 155.68,-53.30 154.47,-54.14 153.26,-54.97 152.38,-56.14 151.50,-57.32 151.04,-58.72 150.58,-60.11 150.59,-61.58 150.60,-63.05 151.08,-64.44 151.56,-65.83 152.45,-66.99 153.35,-68.16 154.57,-68.97 155.79,-69.79 157.21,-70.17 158.63,-70.56 160.10,-70.47 161.56,-70.38 162.92,-69.82 164.28,-69.27 165.40,-68.31 166.51,-67.35 167.26,-66.09 168.01,-64.83 168.32,-63.39 168.62,-61.95 168.62,-61.95 168.62,-61.96 163.82,-55.52 159.01,-49.09 154.10,-47.55 149.19,-46.02 144.41,-44.18 139.63,-42.35 133.20,-39.45 126.76,-36.55 118.10,-32.33 109.44,-28.12 98.74,-23.05 88.03,-17.97 75.59,-12.64 63.15,-7.31 50.11,-2.83 37.06,1.64 26.36,4.07 15.66,6.51 8.07,7.10 0.49,7.69 -0.43,7.64 -1.36,7.59 -2.25,7.31 -3.14,7.04 -3.93,6.56 -4.73,6.08 -5.39,5.43 -6.05,4.77 -6.53,3.98 -7.02,3.18 -7.30,2.30 -7.58,1.41 -7.64,0.48 -7.69,-0.43 -7.53,-1.35 -7.37,-2.26 -6.99,-3.11 -6.61,-3.96 -6.04,-4.70 -5.47,-5.43 -4.74,-6.01 -4.01,-6.58 -3.16,-6.97 -2.31,-7.35 -1.40,-7.52 -0.49,-7.69 -0.49,-7.69 L -0.49,-7.69 Z"></path></g><g transform="translate(212.30160403500372 255.3533253226459) rotate(0 -52.831288274121675 59.717691356241914)" stroke="none"><path fill="#1e1e1e" d="M 4.18,7.20 Q 4.18,7.20 -2.07,10.73 -8.33,14.27 -15.04,18.27 -21.75,22.28 -28.68,26.63 -35.61,30.98 -42.55,35.61 -49.49,40.24 -56.48,45.07 -63.48,49.90 -69.03,54.25 -74.59,58.60 -78.52,62.17 -82.45,65.74 -87.47,70.86 -92.49,75.98 -87.23,81.37 -81.97,86.77 -76.84,91.31 -71.71,95.85 -67.95,98.85 -64.19,101.84 -60.67,104.44 -57.15,107.04 -61.24,107.12 -65.32,107.21 -63.34,106.79 -61.36,106.37 -59.34,106.60 -57.33,106.84 -55.49,107.71 -53.66,108.57 -52.20,109.98 -50.73,111.38 -49.80,113.18 -48.86,114.98 -48.55,116.99 -48.24,118.99 -48.58,120.99 -48.92,122.99 -49.89,124.77 -50.85,126.56 -52.34,127.94 -53.82,129.33 -55.67,130.16 -57.52,131.00 -59.53,131.20 -61.55,131.41 -63.53,130.96 -65.51,130.50 -67.24,129.44 -68.97,128.38 -70.27,126.83 -71.57,125.27 -72.31,123.38 -73.04,121.49 -73.13,119.46 -73.23,117.44 -72.67,115.49 -72.11,113.54 -70.96,111.87 -69.81,110.20 -68.18,108.98 -66.56,107.77 -64.63,107.14 -62.70,106.50 -60.68,106.52 -58.65,106.54 -56.73,107.20 -54.81,107.86 -53.21,109.10 -51.60,110.34 -50.48,112.03 -49.35,113.72 -48.83,115.68 -48.30,117.64 -48.43,119.66 -48.55,121.69 -49.32,123.57 -50.08,125.44 -51.41,126.98 -52.74,128.51 -54.48,129.55 -56.23,130.58 -56.23,130.58 -56.22,130.58 -65.41,127.61 -74.59,124.65 -78.85,120.63 -83.11,116.61 -87.60,112.22 -92.09,107.82 -97.55,102.23 -103.01,96.63 -108.86,90.10 -114.70,83.56 -114.50,78.08 -114.30,72.60 -110.84,69.06 -107.38,65.52 -103.01,62.38 -98.65,59.25 -95.09,56.77 -91.54,54.30 -87.02,51.16 -82.50,48.02 -76.67,43.87 -70.84,39.72 -64.02,34.55 -57.19,29.37 -50.38,24.26 -43.57,19.14 -36.78,14.27 -30.00,9.39 -23.26,4.79 -16.52,0.18 -10.35,-3.50 -4.18,-7.20 -3.26,-7.59 -2.34,-7.99 -1.35,-8.15 -0.36,-8.32 0.63,-8.24 1.64,-8.16 2.59,-7.85 3.54,-7.53 4.39,-7.00 5.24,-6.46 5.94,-5.74 6.64,-5.02 7.14,-4.15 7.65,-3.28 7.93,-2.32 8.21,-1.36 8.26,-0.35 8.30,0.64 8.10,1.62 7.91,2.61 7.48,3.52 7.05,4.43 6.42,5.21 5.78,5.99 4.98,6.59 4.18,7.20 4.18,7.20 L 4.18,7.20 Z"></path></g><g transform="translate(238.6119568239037 552.487294958991) rotate(0 43.34205755967065 85.47540276494618)" stroke="none"><path fill="#1e1e1e" d="M 7.27,-2.41 Q 7.27,-2.41 9.42,3.75 11.57,9.91 14.52,17.55 17.47,25.20 21.61,34.54 25.74,43.88 29.99,53.15 34.24,62.43 38.17,71.16 42.10,79.89 45.84,88.18 49.58,96.47 52.91,103.04 56.24,109.60 59.13,114.48 62.02,119.35 64.50,123.22 66.99,127.09 70.56,131.81 74.12,136.53 77.40,139.98 80.69,143.44 83.87,146.70 87.05,149.97 89.95,153.38 92.85,156.79 95.42,160.97 97.99,165.16 98.35,166.00 98.70,166.83 98.99,168.29 99.28,169.75 99.21,171.24 99.14,172.73 98.71,174.15 98.29,175.58 97.54,176.86 96.78,178.15 95.75,179.21 94.71,180.28 93.44,181.07 92.18,181.85 90.77,182.32 89.35,182.78 87.87,182.89 86.38,183.00 84.91,182.75 83.45,182.50 82.08,181.91 80.72,181.31 79.53,180.41 78.35,179.51 77.42,178.35 76.48,177.19 75.85,175.84 75.22,174.49 77.37,177.88 79.52,181.26 77.70,180.40 75.88,179.53 74.43,178.13 72.99,176.73 72.06,174.94 71.14,173.15 70.83,171.16 70.53,169.17 70.87,167.19 71.22,165.20 72.18,163.43 73.14,161.66 74.62,160.29 76.10,158.92 77.93,158.10 79.77,157.27 81.77,157.07 83.78,156.88 85.74,157.33 87.70,157.78 89.42,158.84 91.13,159.90 92.42,161.45 93.71,162.99 94.44,164.87 95.16,166.75 95.25,168.76 95.34,170.78 94.78,172.71 94.22,174.65 93.07,176.30 91.92,177.96 90.31,179.16 88.69,180.36 86.78,180.98 84.86,181.61 82.85,181.59 80.83,181.57 78.93,180.90 77.03,180.24 75.44,179.00 73.85,177.77 72.73,176.09 71.62,174.41 71.10,172.46 70.58,170.52 70.71,168.51 70.85,166.50 71.61,164.63 72.38,162.77 73.70,161.25 75.02,159.73 76.75,158.71 78.49,157.69 80.46,157.27 82.43,156.86 84.43,157.10 86.43,157.34 86.43,157.34 86.43,157.34 92.57,162.09 98.70,166.83 98.99,168.29 99.28,169.75 99.21,171.24 99.14,172.73 98.71,174.15 98.29,175.58 97.54,176.86 96.78,178.15 95.75,179.21 94.71,180.28 93.44,181.07 92.18,181.85 90.77,182.32 89.35,182.78 87.87,182.89 86.38,183.00 84.92,182.75 83.45,182.50 82.08,181.91 80.72,181.31 79.53,180.41 78.35,179.51 77.42,178.35 76.48,177.19 75.85,175.84 75.22,174.49 74.95,173.76 74.68,173.03 72.69,168.90 70.71,164.77 67.99,160.54 65.27,156.32 62.22,151.21 59.18,146.11 56.36,140.18 53.54,134.26 51.65,129.91 49.76,125.57 47.47,120.23 45.18,114.89 42.13,108.13 39.08,101.36 35.16,93.16 31.24,84.97 27.09,76.42 22.94,67.87 18.33,58.72 13.72,49.57 9.02,40.23 4.32,30.90 0.48,22.88 -3.36,14.87 -5.31,8.64 -7.27,2.41 -7.45,1.50 -7.63,0.60 -7.59,-0.32 -7.55,-1.24 -7.29,-2.13 -7.04,-3.01 -6.57,-3.81 -6.11,-4.61 -5.47,-5.27 -4.83,-5.94 -4.05,-6.43 -3.26,-6.92 -2.39,-7.21 -1.51,-7.50 -0.59,-7.58 0.32,-7.65 1.23,-7.50 2.14,-7.35 2.99,-6.98 3.84,-6.62 4.58,-6.06 5.31,-5.51 5.90,-4.79 6.48,-4.07 6.87,-3.24 7.27,-2.40 7.27,-2.40 L 7.27,-2.41 Z"></path></g><g transform="translate(331.34222339543294 712.3876287183646) rotate(0 45.058932002101415 -0.24123010404144907)" stroke="none"><path fill="#1e1e1e" d="M 0,-9.70 Q 0,-9.70 5.98,-9.68 11.96,-9.67 18.43,-9.57 24.90,-9.47 31.71,-9.33 38.53,-9.19 45.32,-9.08 52.11,-8.97 57.98,-9.04 63.85,-9.11 68.36,-9.31 72.87,-9.51 78.82,-9.92 84.77,-10.33 83.57,-8.63 82.37,-6.94 83.63,-8.10 84.89,-9.27 86.46,-9.97 88.02,-10.67 89.73,-10.84 91.44,-11.00 93.12,-10.61 94.79,-10.22 96.25,-9.31 97.71,-8.41 98.81,-7.09 99.90,-5.76 100.52,-4.16 101.13,-2.56 101.20,-0.84 101.27,0.87 100.79,2.52 100.31,4.16 99.33,5.57 98.35,6.98 96.97,8.00 95.59,9.03 93.95,9.55 92.32,10.08 90.60,10.06 88.88,10.04 87.26,9.47 85.64,8.90 84.29,7.84 82.93,6.79 81.99,5.35 81.04,3.92 80.60,2.26 80.17,0.60 80.28,-1.11 80.40,-2.82 81.05,-4.41 81.71,-6.00 82.84,-7.29 83.97,-8.59 85.45,-9.45 86.93,-10.32 88.61,-10.67 90.30,-11.01 92.00,-10.81 93.71,-10.60 95.26,-9.86 96.81,-9.12 98.04,-7.92 99.27,-6.72 100.05,-5.19 100.84,-3.67 101.09,-1.97 101.35,-0.27 101.05,1.41 100.75,3.10 99.93,4.61 99.10,6.12 99.10,6.12 99.10,6.12 91.94,8.22 84.77,10.33 78.82,9.92 72.87,9.51 68.36,9.31 63.85,9.11 57.98,9.04 52.11,8.97 45.32,9.08 38.53,9.19 31.71,9.33 24.90,9.47 18.43,9.57 11.96,9.67 5.98,9.68 0,9.70 -1.16,9.56 -2.32,9.42 -3.41,9.01 -4.51,8.59 -5.47,7.93 -6.43,7.26 -7.21,6.39 -7.99,5.51 -8.53,4.47 -9.07,3.44 -9.35,2.30 -9.63,1.16 -9.63,-0.00 -9.63,-1.17 -9.35,-2.30 -9.07,-3.44 -8.53,-4.47 -7.99,-5.51 -7.21,-6.39 -6.43,-7.26 -5.47,-7.93 -4.51,-8.59 -3.41,-9.01 -2.32,-9.42 -1.16,-9.56 0.00,-9.70 0.00,-9.70 L 0,-9.70 Z"></path></g><g transform="translate(184.9234863590707 533.8480577106938) rotate(0 -86.49169909499346 48.23853022788575)" stroke="none"><path fill="#1e1e1e" d="M 8.03,5.05 Q 8.03,5.05 3.71,11.32 -0.60,17.60 -5.14,23.88 -9.67,30.16 -14.05,36.20 -18.43,42.23 -22.55,47.73 -26.66,53.22 -29.84,57.60 -33.03,61.98 -35.58,65.53 -38.13,69.08 -42.78,75.16 -47.43,81.24 -51.22,86.01 -55.01,90.79 -57.97,94.27 -60.93,97.75 -64.59,101.59 -68.25,105.42 -73.07,107.05 -77.90,108.69 -84.17,108.79 -90.44,108.90 -96.24,108.60 -102.05,108.30 -108.56,107.65 -115.07,106.99 -123.30,105.23 -131.53,103.46 -137.00,102.51 -142.47,101.56 -149.42,100.44 -156.37,99.32 -161.38,98.55 -166.39,97.78 -171.40,96.36 -176.41,94.93 -178.12,94.01 -179.83,93.08 -181.15,91.65 -182.47,90.23 -183.27,88.46 -184.07,86.68 -184.26,84.75 -184.45,82.81 -184.02,80.92 -183.58,79.03 -182.56,77.37 -181.54,75.71 -180.05,74.47 -178.55,73.23 -176.74,72.53 -174.93,71.82 -172.98,71.74 -171.04,71.65 -169.17,72.19 -167.31,72.73 -165.71,73.84 -164.11,74.94 -162.95,76.50 -161.79,78.06 -161.19,79.91 -160.58,81.76 -160.60,83.70 -160.62,85.65 -161.26,87.48 -161.90,89.32 -163.09,90.86 -164.29,92.39 -165.91,93.47 -167.53,94.54 -169.40,95.04 -171.28,95.54 -173.22,95.42 -175.16,95.29 -176.96,94.56 -178.76,93.82 -180.23,92.54 -181.70,91.27 -182.68,89.60 -183.67,87.92 -184.07,86.02 -184.47,84.11 -184.24,82.18 -184.01,80.25 -183.17,78.50 -182.34,76.74 -180.99,75.34 -179.64,73.95 -177.91,73.05 -176.18,72.16 -174.26,71.86 -172.34,71.57 -170.42,71.90 -168.51,72.24 -168.51,72.24 -168.51,72.24 -164.79,73.71 -161.08,75.18 -156.41,76.61 -151.75,78.05 -145.32,79.69 -138.89,81.33 -133.76,82.26 -128.62,83.19 -121.18,83.67 -113.74,84.14 -107.72,84.22 -101.70,84.30 -96.08,84.17 -90.46,84.04 -86.01,84.74 -81.56,85.45 -77.89,82.44 -74.22,79.44 -70.55,76.02 -66.88,72.60 -62.24,67.89 -57.61,63.18 -52.05,57.27 -46.49,51.37 -43.08,47.38 -39.67,43.40 -35.69,38.18 -31.72,32.97 -27.63,26.87 -23.55,20.78 -19.58,14.47 -15.60,8.16 -11.82,1.55 -8.03,-5.05 -7.31,-5.94 -6.59,-6.83 -5.67,-7.52 -4.76,-8.21 -3.71,-8.66 -2.66,-9.11 -1.53,-9.29 -0.40,-9.48 0.73,-9.39 1.87,-9.30 2.96,-8.94 4.05,-8.58 5.02,-7.97 5.98,-7.36 6.78,-6.54 7.57,-5.71 8.15,-4.72 8.72,-3.73 9.04,-2.64 9.36,-1.54 9.41,-0.39 9.46,0.74 9.23,1.86 9.01,2.98 8.52,4.02 8.03,5.05 8.03,5.05 L 8.03,5.05 Z"></path></g><g transform="translate(10 611.9402264994122) rotate(0 0 18.50295880789764)" stroke="none"><path fill="#1e1e1e" d="M 10.08,0 Q 10.08,0 10.11,5.37 10.15,10.74 10.46,18.07 10.77,25.40 11.07,31.03 11.37,36.65 11.07,38.47 10.77,40.28 9.91,41.91 9.05,43.53 7.71,44.80 6.38,46.06 4.71,46.84 3.04,47.61 1.21,47.81 -0.61,48.01 -2.41,47.61 -4.20,47.22 -5.78,46.27 -7.36,45.32 -8.55,43.92 -9.74,42.51 -10.42,40.81 -11.10,39.10 -11.20,37.26 -11.30,35.42 -10.81,33.65 -10.31,31.88 -9.28,30.35 -8.25,28.83 -6.78,27.72 -5.32,26.61 -3.58,26.02 -1.83,25.43 0.00,25.43 1.84,25.43 3.58,26.02 5.32,26.61 6.79,27.72 8.25,28.83 9.28,30.36 10.32,31.88 10.81,33.65 11.30,35.43 11.20,37.26 11.10,39.10 10.42,40.81 9.74,42.52 8.55,43.92 7.35,45.32 5.78,46.27 4.20,47.22 2.40,47.61 0.61,48.01 -1.21,47.81 -3.04,47.61 -4.71,46.84 -6.38,46.06 -7.71,44.80 -9.05,43.53 -9.91,41.91 -10.77,40.28 -11.07,38.47 -11.37,36.65 -11.37,36.65 -11.37,36.65 -11.07,31.03 -10.77,25.40 -10.46,18.07 -10.15,10.74 -10.11,5.37 -10.08,0 -9.94,-1.20 -9.79,-2.41 -9.36,-3.55 -8.93,-4.68 -8.24,-5.68 -7.55,-6.69 -6.64,-7.49 -5.73,-8.30 -4.65,-8.86 -3.57,-9.43 -2.39,-9.72 -1.21,-10.01 0.00,-10.01 1.21,-10.01 2.39,-9.72 3.57,-9.43 4.65,-8.86 5.73,-8.30 6.64,-7.49 7.55,-6.69 8.24,-5.68 8.93,-4.68 9.36,-3.55 9.79,-2.41 9.94,-1.20 10.08,0.00 10.08,0.00 L 10.08,0 Z"></path></g></svg>