<svg version="1.1" xmlns="http://www.w3.org/2000/svg" viewBox="0 0 442.5005523509996 815.1541873879297" width="442.5005523509996" height="815.1541873879297" class="excalidraw-svg">
  <!-- svg-source:excalidraw -->
  
  <defs>
    <style class="style-fonts">
      @font-face {
        font-family: "Virgil";
        src: url("https://excalidraw.com/Virgil.woff2");
      }
      @font-face {
        font-family: "Cascadia";
        src: url("https://excalidraw.com/Cascadia.woff2");
      }
      @font-face {
        font-family: "Assistant";
        src: url("https://excalidraw.com/Assistant-Regular.woff2");
      }
    </style>
    
  </defs>
  <g transform="translate(166.9758035234749 27.77969605245471) rotate(0 -16.607437364441665 114.8631593272568)" stroke="none"><path fill="#1e1e1e" d="M -0.32,8.34 Q -0.32,8.34 -5.64,8.33 -10.96,8.31 -17.36,8.22 -23.75,8.12 -30.97,7.88 -38.18,7.65 -44.56,7.99 -50.93,8.32 -56.99,9.53 -63.06,10.73 -69.02,12.83 -74.98,14.93 -80.84,17.88 -86.71,20.82 -92.53,24.44 -98.35,28.05 -103.54,32.08 -108.74,36.10 -113.23,40.36 -117.72,44.62 -121.52,48.97 -125.31,53.33 -128.30,57.64 -131.29,61.96 -133.70,66.36 -136.11,70.77 -138.07,75.40 -140.03,80.04 -141.62,85.06 -143.22,90.07 -144.26,95.32 -145.31,100.56 -145.88,105.99 -146.45,111.42 -146.71,116.84 -146.97,122.26 -146.92,127.34 -146.87,132.42 -146.28,137.10 -145.69,141.78 -144.37,146.35 -143.05,150.92 -141.17,155.63 -139.29,160.34 -137.16,164.78 -135.02,169.23 -132.73,173.38 -130.43,177.54 -127.86,181.53 -125.29,185.53 -122.58,189.06 -119.87,192.59 -114.19,198.38 -108.51,204.17 -99.97,210.64 -91.44,217.11 -84.54,221.41 -77.65,225.72 -72.02,228.18 -66.38,230.65 -61.32,232.23 -56.27,233.82 -51.46,234.82 -46.65,235.82 -41.84,236.37 -37.03,236.91 -31.79,237.16 -26.54,237.40 -20.81,237.33 -15.08,237.25 -9.31,236.51 -3.54,235.77 2.22,234.25 8.00,232.73 13.41,230.69 18.83,228.66 23.85,226.22 28.87,223.77 37.06,219.05 45.25,214.33 53.91,207.66 62.57,201.00 68.44,195.89 74.31,190.78 78.71,186.39 83.12,182.01 86.65,178.13 90.18,174.25 93.23,170.52 96.28,166.79 98.81,163.23 101.34,159.67 104.58,153.27 107.83,146.86 109.41,140.01 110.99,133.15 111.56,128.37 112.14,123.58 112.59,117.77 113.03,111.95 113.19,105.68 113.35,99.41 112.85,93.60 112.34,87.79 111.20,82.27 110.06,76.76 108.47,71.35 106.87,65.95 104.90,60.93 102.93,55.91 100.74,51.55 98.56,47.20 96.24,43.34 93.93,39.48 91.44,35.69 88.96,31.90 86.46,28.44 83.95,24.97 79.25,19.04 74.55,13.12 70.70,8.98 66.85,4.85 62.81,2.46 58.78,0.08 53.69,-1.18 48.60,-2.45 43.96,-3.21 39.32,-3.96 34.43,-4.25 29.53,-4.53 24.14,-4.55 18.75,-4.57 12.55,-4.07 6.35,-3.57 0.41,-2.22 -5.51,-0.87 -11.62,0.80 -17.73,2.49 -22.63,4.09 -27.52,5.69 -29.63,6.00 -31.73,6.31 -33.82,5.93 -35.92,5.56 -37.78,4.53 -39.65,3.51 -41.08,1.94 -42.52,0.37 -43.39,-1.56 -44.25,-3.51 -44.45,-5.63 -44.64,-7.74 -44.16,-9.81 -43.67,-11.88 -42.54,-13.69 -41.42,-15.50 -39.77,-16.85 -38.13,-18.20 -36.14,-18.96 -34.15,-19.71 -32.03,-19.80 -29.90,-19.88 -27.86,-19.28 -25.82,-18.68 -24.08,-17.45 -22.34,-16.23 -21.08,-14.52 -19.81,-12.81 -19.17,-10.78 -18.52,-8.75 -18.55,-6.63 -18.58,-4.50 -19.30,-2.49 -20.01,-0.49 -21.32,1.18 -22.63,2.85 -24.41,4.01 -26.19,5.18 -28.25,5.72 -30.31,6.26 -32.43,6.11 -34.55,5.96 -36.52,5.14 -38.48,4.32 -40.08,2.92 -41.68,1.52 -42.75,-0.31 -43.82,-2.15 -44.24,-4.24 -44.67,-6.32 -44.40,-8.43 -44.14,-10.54 -43.22,-12.46 -42.29,-14.38 -40.81,-15.90 -39.32,-17.42 -37.42,-18.39 -35.53,-19.35 -35.53,-19.35 -35.53,-19.35 -30.01,-21.08 -24.49,-22.82 -18.18,-24.49 -11.87,-26.17 -4.48,-27.79 2.90,-29.41 8.04,-30.15 13.19,-30.89 19.01,-30.83 24.84,-30.78 31.05,-30.45 37.26,-30.13 43.34,-29.19 49.42,-28.25 54.74,-26.85 60.05,-25.46 65.06,-23.43 70.07,-21.40 74.79,-18.14 79.51,-14.88 83.73,-10.25 87.95,-5.61 92.19,0.27 96.43,6.16 98.83,9.68 101.23,13.19 103.79,17.14 106.34,21.09 108.88,25.37 111.41,29.65 113.83,34.21 116.25,38.77 118.57,43.88 120.90,49.00 123.07,54.76 125.24,60.52 127.06,66.66 128.87,72.81 130.26,79.34 131.65,85.88 132.39,92.64 133.12,99.41 133.28,106.26 133.44,113.11 133.19,119.66 132.93,126.21 132.17,131.98 131.41,137.75 130.15,142.66 128.88,147.57 127.13,151.78 125.37,155.99 123.12,159.81 120.87,163.64 118.16,167.28 115.45,170.93 112.20,174.61 108.95,178.30 105.24,182.01 101.53,185.71 97.46,189.36 93.39,193.02 88.63,197.18 83.87,201.34 77.95,206.90 72.03,212.47 63.11,220.29 54.20,228.12 45.54,234.32 36.88,240.51 31.09,243.22 25.30,245.94 19.08,248.25 12.87,250.57 5.93,252.51 -0.99,254.45 -7.88,255.43 -14.77,256.40 -21.21,256.52 -27.66,256.64 -33.67,256.22 -39.68,255.81 -45.34,254.89 -50.99,253.96 -56.53,252.48 -62.08,251.00 -67.77,248.95 -73.46,246.89 -79.69,244.18 -85.92,241.47 -94.25,237.78 -102.59,234.09 -109.37,230.06 -116.15,226.04 -119.91,222.81 -123.67,219.58 -127.07,216.09 -130.47,212.59 -133.59,208.80 -136.70,205.01 -139.75,200.73 -142.80,196.45 -145.63,191.79 -148.47,187.12 -150.88,182.40 -153.30,177.68 -155.56,172.63 -157.82,167.57 -160.02,161.81 -162.22,156.06 -163.76,149.95 -165.30,143.84 -165.79,138.06 -166.28,132.27 -166.14,126.71 -166.00,121.15 -165.59,115.23 -165.19,109.30 -164.43,102.99 -163.68,96.68 -162.29,90.42 -160.90,84.15 -158.83,78.28 -156.77,72.42 -154.15,67.03 -151.54,61.64 -148.37,56.64 -145.21,51.63 -141.43,46.85 -137.66,42.06 -133.20,37.38 -128.75,32.70 -123.62,28.07 -118.50,23.45 -112.71,19.00 -106.92,14.55 -100.52,10.42 -94.12,6.29 -87.31,2.79 -80.51,-0.71 -73.41,-3.21 -66.30,-5.72 -59.07,-7.11 -51.84,-8.51 -44.90,-8.87 -37.96,-9.23 -30.74,-9.27 -23.51,-9.32 -16.89,-9.23 -10.27,-9.15 -4.97,-8.75 0.32,-8.34 1.32,-8.18 2.31,-8.02 3.24,-7.63 4.17,-7.23 4.97,-6.63 5.78,-6.03 6.42,-5.25 7.05,-4.47 7.49,-3.56 7.92,-2.65 8.12,-1.66 8.32,-0.67 8.28,0.32 8.24,1.33 7.96,2.30 7.68,3.26 7.18,4.14 6.68,5.01 5.98,5.74 5.28,6.46 4.43,7.00 3.58,7.54 2.63,7.86 1.67,8.18 0.67,8.26 -0.33,8.34 -0.32,8.34 L -0.32,8.34 Z"></path></g><g transform="translate(106.08415230965505 278.8099140371454) rotate(352.93861877670867 21.898587587581687 156.43980988268024)" stroke="none"><path fill="#1e1e1e" d="M 6.47,2.20 Q 6.47,2.20 3.41,10.54 0.35,18.89 -3.33,27.02 -7.02,35.15 -11.18,43.11 -15.33,51.08 -20.02,59.47 -24.70,67.86 -29.51,76.45 -34.32,85.04 -39.08,93.38 -43.84,101.73 -48.35,109.45 -52.86,117.16 -56.59,123.94 -60.32,130.72 -63.15,136.35 -65.97,141.98 -68.04,146.56 -70.10,151.15 -71.68,155.11 -73.27,159.07 -75.33,165.08 -77.40,171.09 -78.76,176.21 -80.11,181.34 -80.96,185.77 -81.80,190.20 -82.83,194.64 -83.86,199.08 -84.12,203.48 -84.37,207.88 -85.12,212.12 -85.87,216.36 -86.97,221.55 -88.07,226.73 -88.69,231.27 -89.32,235.80 -84.25,238.26 -79.18,240.73 -73.15,244.32 -67.12,247.91 -58.48,252.29 -49.83,256.68 -39.85,260.93 -29.88,265.18 -19.18,269.13 -8.48,273.08 2.04,276.49 12.58,279.90 22.51,282.80 32.44,285.70 41.30,288.18 50.15,290.66 57.28,292.34 64.41,294.03 70.01,295.14 75.61,296.25 80.32,297.19 85.03,298.14 91.95,299.50 98.87,300.86 103.36,301.57 107.84,302.29 112.17,299.71 116.49,297.14 120.23,289.87 123.98,282.60 125.81,277.99 127.65,273.39 129.18,268.52 130.70,263.64 131.89,258.25 133.08,252.86 134.06,246.75 135.04,240.63 135.74,233.98 136.45,227.32 137.04,215.93 137.63,204.54 137.53,195.58 137.42,186.63 136.71,178.87 135.99,171.11 134.90,164.11 133.80,157.11 132.65,150.56 131.50,144.01 130.45,138.45 129.41,132.88 128.53,128.31 127.65,123.73 126.96,119.23 126.26,114.74 125.16,107.10 124.06,99.46 123.17,92.34 122.28,85.21 121.48,78.20 120.67,71.20 119.89,62.06 119.10,52.92 118.14,46.20 117.18,39.48 116.19,34.55 115.19,29.62 114.37,24.66 113.56,19.70 113.22,14.65 112.89,9.60 113.20,7.51 113.52,5.43 114.49,3.55 115.45,1.68 116.96,0.21 118.48,-1.24 120.38,-2.15 122.28,-3.06 124.38,-3.31 126.47,-3.56 128.53,-3.14 130.60,-2.71 132.41,-1.64 134.23,-0.58 135.62,1.01 137.00,2.60 137.80,4.54 138.61,6.49 138.74,8.60 138.88,10.70 138.34,12.74 137.80,14.77 136.64,16.53 135.48,18.29 133.81,19.59 132.15,20.88 130.16,21.58 128.17,22.27 126.06,22.30 123.96,22.32 121.95,21.67 119.95,21.02 118.25,19.77 116.56,18.51 115.36,16.78 114.16,15.05 113.57,13.03 112.98,11.00 113.07,8.90 113.16,6.79 113.92,4.82 114.68,2.86 116.02,1.23 117.37,-0.38 119.16,-1.49 120.95,-2.59 123.01,-3.07 125.06,-3.55 127.16,-3.34 129.26,-3.14 131.18,-2.28 133.10,-1.41 134.65,0.01 136.20,1.44 137.20,3.29 138.21,5.14 138.58,7.22 138.94,9.29 138.94,9.29 138.94,9.29 138.91,13.31 138.88,17.33 139.07,21.61 139.25,25.89 139.72,31.35 140.18,36.81 140.76,43.82 141.35,50.84 142.17,60.17 142.99,69.49 143.27,76.53 143.55,83.58 143.75,90.69 143.95,97.81 144.16,105.37 144.37,112.92 144.56,117.22 144.74,121.51 145.05,126.04 145.35,130.57 145.92,136.11 146.48,141.65 147.41,148.27 148.34,154.89 149.42,162.15 150.51,169.40 151.66,177.55 152.82,185.70 153.82,195.13 154.82,204.56 155.38,216.60 155.94,228.63 155.70,235.92 155.46,243.21 154.80,250.10 154.13,257.00 152.99,263.46 151.85,269.92 150.22,275.68 148.58,281.43 146.57,286.84 144.56,292.24 142.20,297.30 139.85,302.36 137.11,306.83 134.37,311.29 129.90,316.12 125.42,320.95 119.66,322.38 113.91,323.80 108.47,322.74 103.02,321.68 98.47,320.04 93.91,318.40 87.36,315.90 80.82,313.39 76.40,311.82 71.99,310.25 66.59,308.51 61.19,306.77 54.10,304.86 47.01,302.95 38.01,300.86 29.01,298.76 18.78,296.36 8.55,293.95 -2.42,291.19 -13.40,288.43 -24.68,285.33 -35.96,282.24 -46.79,279.06 -57.61,275.89 -67.50,272.77 -77.39,269.65 -85.25,266.67 -93.11,263.70 -98.22,260.75 -103.32,257.79 -106.96,254.64 -110.60,251.50 -113.70,244.32 -116.79,237.14 -116.36,232.47 -115.92,227.81 -114.50,222.23 -113.08,216.65 -111.48,211.43 -109.88,206.21 -109.23,202.00 -108.58,197.78 -107.11,193.65 -105.63,189.52 -103.75,185.01 -101.87,180.50 -99.98,176.03 -98.09,171.56 -96.12,167.72 -94.15,163.87 -90.79,157.92 -87.42,151.97 -85.08,148.10 -82.73,144.22 -79.92,139.91 -77.10,135.60 -73.67,130.30 -70.23,125.01 -66.23,118.36 -62.24,111.71 -57.82,104.03 -53.40,96.35 -48.74,87.99 -44.09,79.64 -39.39,71.02 -34.70,62.39 -30.25,54.09 -25.80,45.78 -22.00,38.03 -18.21,30.29 -14.99,22.52 -11.78,14.76 -9.13,6.28 -6.47,-2.20 -6.12,-2.94 -5.76,-3.68 -5.23,-4.32 -4.71,-4.95 -4.05,-5.45 -3.38,-5.94 -2.62,-6.26 -1.86,-6.58 -1.05,-6.70 -0.23,-6.83 0.58,-6.76 1.40,-6.69 2.18,-6.43 2.96,-6.16 3.66,-5.72 4.35,-5.27 4.92,-4.67 5.49,-4.08 5.89,-3.36 6.30,-2.64 6.53,-1.85 6.75,-1.06 6.78,-0.23 6.81,0.58 6.64,1.39 6.47,2.20 6.47,2.20 L 6.47,2.20 Z"></path></g><g transform="translate(97.66512089920883 555.4485733304776) rotate(0 -11.278542999965282 121.03924515836809)" stroke="none"><path fill="#1e1e1e" d="M 5.99,-8.47 Q 5.99,-8.47 11.10,-4.67 16.22,-0.87 20.30,2.49 24.37,5.85 27.89,9.43 31.40,13.00 34.60,16.83 37.80,20.65 40.60,24.13 43.40,27.61 45.99,31.00 48.58,34.40 52.41,39.51 56.24,44.62 59.51,51.58 62.77,58.54 59.86,64.51 56.95,70.48 53.10,74.42 49.24,78.35 42.25,84.81 35.26,91.27 26.37,100.52 17.49,109.76 8.82,119.43 0.15,129.11 -7.47,137.94 -15.11,146.77 -21.83,154.64 -28.54,162.51 -33.67,168.71 -38.81,174.91 -42.55,179.90 -46.29,184.88 -49.11,188.97 -51.93,193.05 -55.81,199.16 -59.68,205.27 -62.06,209.70 -64.43,214.13 -66.74,208.69 -69.05,203.24 -63.12,203.62 -57.20,204.01 -52.15,205.80 -47.10,207.59 -41.95,209.43 -36.80,211.27 -31.62,213.25 -26.44,215.23 -21.75,217.12 -17.07,219.02 -13.06,220.69 -9.06,222.36 -2.79,224.85 3.47,227.35 7.82,229.18 12.17,231.02 13.75,232.11 15.32,233.20 16.46,234.73 17.61,236.27 18.20,238.09 18.79,239.91 18.77,241.82 18.76,243.73 18.13,245.54 17.50,247.35 16.33,248.86 15.15,250.37 13.56,251.43 11.97,252.49 10.12,252.98 8.27,253.47 6.36,253.35 4.45,253.23 2.68,252.50 0.91,251.78 -0.53,250.53 -1.97,249.27 -2.94,247.62 -3.91,245.97 -4.31,244.10 -4.70,242.23 -4.47,240.33 -4.25,238.43 -3.43,236.70 -2.61,234.97 -1.28,233.60 0.04,232.22 1.74,231.34 3.44,230.46 5.33,230.17 7.22,229.88 9.11,230.21 10.99,230.54 12.67,231.45 14.35,232.36 15.66,233.76 16.96,235.17 17.74,236.91 18.53,238.66 18.72,240.56 18.91,242.46 18.48,244.33 18.05,246.19 17.04,247.82 16.04,249.45 14.57,250.68 13.10,251.90 11.32,252.59 9.53,253.28 7.62,253.36 5.71,253.45 3.87,252.92 2.03,252.39 2.03,252.39 2.04,252.39 0.15,251.43 -1.73,250.48 -6.52,248.08 -11.31,245.69 -18.33,242.37 -25.34,239.06 -29.67,237.23 -33.99,235.41 -38.93,233.61 -43.86,231.80 -49.08,230.07 -54.31,228.34 -62.53,225.47 -70.75,222.60 -74.49,220.43 -78.23,218.27 -79.04,209.72 -79.85,201.16 -76.97,197.82 -74.10,194.48 -69.10,188.92 -64.11,183.36 -60.70,179.61 -57.29,175.87 -53.16,171.25 -49.04,166.64 -44.05,160.32 -39.06,154.01 -32.77,145.78 -26.48,137.56 -19.37,128.18 -12.26,118.81 -4.24,108.34 3.78,97.87 11.83,87.58 19.89,77.29 28.57,67.47 37.26,57.64 34.01,52.50 30.75,47.37 25.99,40.70 21.23,34.03 16.08,27.71 10.94,21.39 7.76,18.48 4.57,15.58 -0.70,12.02 -5.99,8.47 -6.91,7.63 -7.84,6.79 -8.54,5.75 -9.24,4.71 -9.67,3.54 -10.10,2.36 -10.24,1.12 -10.37,-0.11 -10.21,-1.35 -10.04,-2.59 -9.58,-3.76 -9.13,-4.92 -8.41,-5.94 -7.68,-6.97 -6.74,-7.78 -5.79,-8.60 -4.68,-9.17 -3.56,-9.74 -2.35,-10.03 -1.13,-10.31 0.11,-10.30 1.36,-10.28 2.58,-9.97 3.79,-9.66 4.89,-9.06 5.99,-8.47 5.99,-8.47 L 5.99,-8.47 Z"></path></g><g transform="translate(186.78871675337126 576.5415719572387) rotate(0 4.834908118416934 114.3063077153455)" stroke="none"><path fill="#1e1e1e" d="M 6.00,-8.17 Q 6.00,-8.17 11.72,-3.58 17.44,1.01 22.57,5.70 27.71,10.39 31.75,14.35 35.80,18.30 38.96,21.72 42.13,25.14 44.83,28.54 47.52,31.94 51.55,37.66 55.58,43.37 58.04,46.86 60.50,50.34 62.05,56.16 63.61,61.98 61.19,67.12 58.77,72.26 52.79,78.88 46.81,85.50 42.17,90.58 37.52,95.67 32.93,100.91 28.35,106.15 24.02,111.32 19.69,116.49 15.11,121.94 10.54,127.38 6.43,132.51 2.32,137.64 -0.94,142.15 -4.21,146.65 -7.23,150.92 -10.25,155.18 -12.81,159.01 -15.37,162.83 -19.18,168.95 -23.00,175.06 -25.61,179.16 -28.22,183.25 -30.55,187.24 -32.89,191.24 -34.10,184.90 -35.31,178.57 -30.89,179.59 -26.48,180.62 -22.35,182.90 -18.23,185.19 -13.58,187.81 -8.93,190.43 -4.19,193.09 0.54,195.76 4.73,198.11 8.92,200.46 15.28,204.06 21.63,207.67 25.91,210.64 30.19,213.61 33.50,216.34 36.82,219.06 38.07,220.66 39.31,222.25 39.99,224.17 40.66,226.08 40.68,228.11 40.71,230.13 40.08,232.06 39.46,233.99 38.26,235.62 37.05,237.25 35.39,238.40 33.72,239.56 31.78,240.13 29.83,240.70 27.81,240.61 25.78,240.53 23.89,239.80 22.00,239.07 20.44,237.78 18.88,236.49 17.81,234.77 16.75,233.04 16.29,231.07 15.82,229.10 16.02,227.08 16.21,225.06 17.04,223.21 17.87,221.36 19.24,219.87 20.62,218.39 22.40,217.41 24.18,216.44 26.17,216.09 28.17,215.74 30.17,216.04 32.17,216.34 33.98,217.27 35.78,218.20 37.19,219.65 38.60,221.10 39.48,222.93 40.35,224.76 40.59,226.77 40.84,228.78 40.43,230.77 40.02,232.75 38.99,234.50 37.97,236.25 36.44,237.58 34.91,238.91 33.04,239.69 31.17,240.46 29.14,240.59 27.12,240.73 25.16,240.21 23.20,239.69 21.51,238.58 19.82,237.46 19.82,237.46 19.82,237.46 18.44,236.17 17.05,234.88 13.08,231.43 9.11,227.99 3.35,224.40 -2.39,220.82 -6.39,218.61 -10.39,216.41 -15.24,213.99 -20.09,211.57 -24.90,209.20 -29.70,206.82 -37.19,202.87 -44.67,198.91 -48.25,196.01 -51.83,193.11 -51.81,184.90 -51.79,176.70 -48.94,173.27 -46.10,169.84 -43.21,166.41 -40.33,162.97 -35.86,157.15 -31.39,151.33 -28.50,147.56 -25.62,143.79 -22.39,139.63 -19.17,135.48 -15.67,130.91 -12.16,126.34 -8.17,121.08 -4.18,115.82 0.00,110.09 4.20,104.35 8.23,98.86 12.27,93.36 16.41,87.63 20.55,81.89 24.72,76.11 28.89,70.33 32.65,65.57 36.41,60.81 39.93,57.35 43.45,53.88 42.81,59.22 42.18,64.56 39.62,59.70 37.06,54.84 33.99,49.39 30.93,43.93 26.57,37.80 22.21,31.68 18.72,27.98 15.23,24.28 10.71,20.31 6.19,16.33 0.09,12.25 -6.00,8.17 -6.89,7.34 -7.78,6.50 -8.45,5.47 -9.11,4.45 -9.51,3.29 -9.91,2.14 -10.02,0.92 -10.14,-0.29 -9.95,-1.50 -9.77,-2.71 -9.31,-3.84 -8.84,-4.97 -8.11,-5.95 -7.39,-6.94 -6.45,-7.72 -5.51,-8.51 -4.42,-9.05 -3.32,-9.58 -2.12,-9.84 -0.93,-10.10 0.29,-10.06 1.51,-10.03 2.69,-9.70 3.87,-9.37 4.93,-8.77 6.00,-8.17 6.00,-8.17 L 6.00,-8.17 Z"></path></g><g transform="translate(85.80749714528537 280.9640105757319) rotate(0 0.00005000000000165983 0.00004999999998744897)" stroke="none"><path fill="#1e1e1e" d="M 6.28,-6.28 Q 6.28,-6.28 7.11,-5.11 7.95,-3.94 8.37,-2.57 8.80,-1.19 8.76,0.23 8.72,1.67 8.22,3.02 7.73,4.37 6.83,5.49 5.93,6.61 4.72,7.38 3.50,8.15 2.11,8.50 0.72,8.85 -0.71,8.73 -2.14,8.61 -3.46,8.05 -4.78,7.48 -5.85,6.52 -6.92,5.56 -7.63,4.31 -8.33,3.06 -8.60,1.65 -8.87,0.23 -8.68,-1.18 -8.49,-2.60 -7.85,-3.89 -7.21,-5.18 -6.19,-6.19 -5.18,-7.21 -3.89,-7.85 -2.60,-8.49 -1.18,-8.68 0.24,-8.87 1.65,-8.60 3.06,-8.33 4.31,-7.62 5.56,-6.92 6.52,-5.85 7.48,-4.78 8.05,-3.46 8.62,-2.14 8.73,-0.70 8.85,0.72 8.50,2.11 8.15,3.51 7.38,4.72 6.61,5.93 5.48,6.83 4.36,7.73 3.02,8.22 1.67,8.72 0.23,8.76 -1.20,8.80 -2.57,8.37 -3.94,7.95 -5.11,7.11 -6.28,6.27 -6.28,6.27 -6.28,6.28 -6.94,5.43 -7.60,4.59 -8.04,3.61 -8.48,2.64 -8.67,1.58 -8.86,0.53 -8.80,-0.53 -8.73,-1.60 -8.41,-2.62 -8.09,-3.64 -7.54,-4.56 -6.99,-5.47 -6.23,-6.23 -5.47,-6.99 -4.56,-7.54 -3.64,-8.10 -2.62,-8.41 -1.60,-8.73 -0.53,-8.80 0.53,-8.86 1.59,-8.67 2.64,-8.48 3.61,-8.04 4.59,-7.60 5.43,-6.94 6.28,-6.28 6.28,-6.28 L 6.28,-6.28 Z"></path></g><g transform="translate(127.13431454340702 284.9440908624846) rotate(0 83.57421861495868 65.42685039258197)" stroke="none"><path fill="#1e1e1e" d="M 8.74,0 Q 8.74,0 8.28,10.42 7.82,20.84 7.47,29.94 7.13,39.04 6.87,47.64 6.62,56.25 6.86,63.95 7.10,71.66 7.94,77.93 8.77,84.20 9.84,89.18 10.91,94.16 12.21,98.25 13.51,102.33 16.30,109.59 19.09,116.86 20.98,121.01 22.87,125.15 29.25,120.47 35.63,115.79 43.47,113.44 51.31,111.10 59.85,107.84 68.39,104.59 76.51,101.09 84.64,97.59 91.34,94.16 98.04,90.74 103.33,87.60 108.62,84.46 112.98,81.78 117.35,79.10 121.01,76.83 124.68,74.56 130.98,70.86 137.27,67.17 142.62,64.26 147.97,61.36 152.75,58.81 157.53,56.26 159.66,54.94 161.78,53.63 163.58,53.09 165.38,52.55 167.26,52.61 169.14,52.67 170.90,53.33 172.66,53.99 174.12,55.18 175.58,56.36 176.58,57.95 177.58,59.54 178.02,61.37 178.47,63.20 178.30,65.07 178.14,66.94 177.39,68.66 176.63,70.38 175.37,71.78 174.11,73.17 172.46,74.08 170.82,75.00 168.97,75.34 167.13,75.68 165.26,75.42 163.40,75.15 161.72,74.31 160.05,73.46 158.72,72.13 157.40,70.79 156.58,69.10 155.75,67.41 155.51,65.55 155.27,63.68 155.63,61.84 156.00,60.00 156.94,58.36 157.87,56.73 159.28,55.49 160.68,54.24 162.42,53.51 164.15,52.78 166.02,52.64 167.90,52.49 169.72,52.96 171.54,53.42 173.12,54.45 174.69,55.47 175.86,56.94 177.03,58.41 177.67,60.18 178.30,61.95 178.34,63.83 178.38,65.71 177.82,67.50 177.26,69.30 176.15,70.81 175.05,72.33 173.51,73.42 171.98,74.51 171.98,74.51 171.98,74.51 169.29,75.79 166.60,77.07 161.59,78.85 156.57,80.62 151.20,82.67 145.83,84.71 139.37,87.38 132.91,90.05 129.02,91.79 125.14,93.53 120.57,95.68 116.00,97.83 110.39,100.71 104.77,103.58 97.94,107.26 91.10,110.93 83.09,115.24 75.09,119.55 66.56,123.93 58.03,128.31 49.90,132.20 41.76,136.09 34.73,138.40 27.71,140.70 22.92,141.14 18.14,141.59 11.86,138.96 5.59,136.32 3.92,131.87 2.25,127.42 0.89,121.27 -0.47,115.11 -1.55,110.63 -2.62,106.15 -3.44,101.28 -4.26,96.41 -4.73,90.98 -5.21,85.55 -5.62,78.83 -6.04,72.10 -6.33,64.18 -6.62,56.25 -6.87,47.64 -7.13,39.04 -7.47,29.94 -7.82,20.84 -8.28,10.42 -8.74,0 -8.61,-1.04 -8.48,-2.09 -8.11,-3.07 -7.74,-4.06 -7.14,-4.93 -6.54,-5.79 -5.75,-6.49 -4.96,-7.19 -4.03,-7.68 -3.09,-8.17 -2.07,-8.42 -1.05,-8.67 0.00,-8.67 1.05,-8.67 2.07,-8.42 3.10,-8.17 4.03,-7.68 4.96,-7.19 5.75,-6.49 6.54,-5.79 7.14,-4.92 7.74,-4.06 8.11,-3.07 8.48,-2.09 8.61,-1.04 8.74,0.00 8.74,0.00 L 8.74,0 Z"></path></g><g transform="translate(219.5981242873615 255.46124660831617) rotate(0 106.45121403181906 -8.885167760608283)" stroke="none"><path fill="#1e1e1e" d="M 9.75,-0.69 Q 9.75,-0.69 10.21,3.13 10.67,6.97 14.57,10.67 18.48,14.37 22.09,17.09 25.70,19.81 33.36,16.76 41.01,13.71 51.15,10.94 61.29,8.18 74.32,3.79 87.34,-0.59 102.45,-6.33 117.56,-12.07 131.82,-17.96 146.09,-23.86 157.09,-28.75 168.09,-33.65 176.45,-37.47 184.81,-41.30 190.44,-44.34 196.07,-47.37 200.81,-50.55 205.56,-53.72 206.88,-54.47 208.21,-55.21 209.44,-55.73 210.67,-56.25 212.00,-56.35 213.34,-56.45 214.63,-56.12 215.92,-55.79 217.04,-55.06 218.17,-54.33 218.99,-53.29 219.82,-52.24 220.28,-50.98 220.73,-49.72 220.76,-48.39 220.78,-47.05 220.38,-45.78 219.98,-44.50 219.19,-43.42 218.41,-42.35 217.32,-41.57 216.23,-40.80 214.95,-40.42 213.67,-40.04 212.33,-40.08 211.00,-40.13 209.75,-40.60 208.50,-41.07 207.46,-41.91 206.43,-42.75 205.71,-43.88 205.00,-45.01 204.69,-46.31 204.38,-47.61 204.49,-48.94 204.61,-50.27 205.15,-51.50 205.68,-52.72 206.58,-53.71 207.48,-54.70 208.65,-55.34 209.82,-55.99 211.13,-56.24 212.44,-56.48 213.77,-56.29 215.09,-56.10 216.28,-55.50 217.47,-54.90 218.41,-53.94 219.35,-52.99 219.93,-51.79 220.52,-50.59 220.69,-49.27 220.86,-47.94 220.60,-46.63 220.34,-45.32 219.67,-44.16 219.01,-43.01 218.01,-42.12 217.01,-41.24 217.01,-41.24 217.01,-41.24 214.99,-40.19 212.97,-39.15 207.50,-37.12 202.03,-35.10 196.14,-32.55 190.26,-30.00 182.01,-25.81 173.76,-21.61 162.81,-16.17 151.86,-10.73 137.72,-4.13 123.57,2.47 108.64,9.15 93.72,15.83 80.86,21.48 68.01,27.12 57.87,31.55 47.73,35.97 40.07,38.88 32.40,41.78 27.22,42.65 22.04,43.53 17.33,42.59 12.62,41.66 8.06,37.44 3.50,33.21 0.15,29.79 -3.20,26.36 -6.13,22.51 -9.06,18.66 -9.32,13.53 -9.58,8.40 -9.67,4.54 -9.75,0.69 -9.70,-0.48 -9.64,-1.66 -9.30,-2.79 -8.96,-3.92 -8.36,-4.93 -7.76,-5.95 -6.93,-6.79 -6.11,-7.63 -5.10,-8.26 -4.10,-8.88 -2.98,-9.24 -1.86,-9.60 -0.68,-9.68 0.49,-9.77 1.65,-9.57 2.81,-9.37 3.89,-8.89 4.97,-8.42 5.91,-7.70 6.84,-6.98 7.58,-6.06 8.32,-5.14 8.81,-4.07 9.31,-3.00 9.53,-1.84 9.75,-0.69 9.75,-0.69 L 9.75,-0.69 Z"></path></g><g transform="translate(175.08905546804834 164.77105620339307) rotate(301.24098410300365 -0.17232435863783735 0)" stroke="none"><path fill="#1e1e1e" d="M -0.19,8.93 Q -0.19,8.93 -1.62,8.69 -3.04,8.46 -4.32,7.78 -5.60,7.10 -6.59,6.06 -7.59,5.01 -8.19,3.70 -8.80,2.38 -8.95,0.95 -9.11,-0.48 -8.80,-1.89 -8.49,-3.30 -7.74,-4.54 -7.00,-5.78 -5.90,-6.71 -4.80,-7.65 -3.45,-8.18 -2.11,-8.72 -0.67,-8.80 0.76,-8.87 2.16,-8.49 3.55,-8.10 4.74,-7.29 5.94,-6.48 6.81,-5.33 7.69,-4.18 8.15,-2.81 8.61,-1.44 8.61,0.00 8.61,1.44 8.15,2.81 7.69,4.18 6.81,5.33 5.94,6.48 4.74,7.29 3.55,8.10 2.15,8.49 0.76,8.87 -0.67,8.80 -2.11,8.72 -3.46,8.18 -4.80,7.65 -5.90,6.71 -7.00,5.78 -7.75,4.54 -8.49,3.30 -8.80,1.89 -9.11,0.48 -8.95,-0.95 -8.80,-2.39 -8.19,-3.70 -7.58,-5.01 -6.59,-6.06 -5.60,-7.11 -4.32,-7.78 -3.04,-8.46 -1.62,-8.69 -0.19,-8.93 -0.19,-8.93 -0.19,-8.93 0.87,-8.82 1.94,-8.71 2.95,-8.35 3.97,-7.99 4.87,-7.40 5.77,-6.81 6.50,-6.02 7.23,-5.23 7.75,-4.29 8.28,-3.35 8.56,-2.31 8.84,-1.27 8.86,-0.19 8.88,0.88 8.65,1.93 8.42,2.98 7.94,3.94 7.46,4.91 6.76,5.73 6.07,6.55 5.19,7.18 4.32,7.81 3.32,8.22 2.32,8.62 1.26,8.77 0.19,8.93 -0.00,8.93 L -0.19,8.93 Z"></path></g><g transform="translate(223.9342202792406 98.40879247831299) rotate(301.24098410300365 0.00004999999999988347 0.00004999999998744897)" stroke="none"><path fill="#1e1e1e" d="M 6.28,-6.28 Q 6.28,-6.28 7.11,-5.11 7.95,-3.94 8.37,-2.57 8.80,-1.19 8.76,0.23 8.72,1.67 8.22,3.02 7.73,4.37 6.83,5.49 5.93,6.61 4.72,7.38 3.50,8.15 2.11,8.50 0.72,8.85 -0.71,8.73 -2.14,8.61 -3.46,8.05 -4.78,7.48 -5.85,6.52 -6.92,5.56 -7.63,4.31 -8.33,3.06 -8.60,1.65 -8.87,0.23 -8.68,-1.18 -8.49,-2.60 -7.85,-3.89 -7.21,-5.18 -6.19,-6.19 -5.18,-7.21 -3.89,-7.85 -2.60,-8.49 -1.18,-8.68 0.24,-8.87 1.65,-8.60 3.06,-8.33 4.31,-7.62 5.56,-6.92 6.52,-5.85 7.48,-4.78 8.05,-3.46 8.62,-2.14 8.73,-0.70 8.85,0.72 8.50,2.11 8.15,3.51 7.38,4.72 6.61,5.93 5.48,6.83 4.36,7.73 3.02,8.22 1.67,8.72 0.23,8.76 -1.20,8.80 -2.57,8.37 -3.94,7.95 -5.11,7.11 -6.28,6.27 -6.28,6.27 -6.28,6.28 -6.94,5.43 -7.60,4.59 -8.04,3.61 -8.48,2.64 -8.67,1.58 -8.86,0.53 -8.80,-0.53 -8.73,-1.60 -8.41,-2.62 -8.09,-3.64 -7.54,-4.56 -6.99,-5.47 -6.23,-6.23 -5.47,-6.99 -4.56,-7.54 -3.64,-8.10 -2.62,-8.41 -1.60,-8.73 -0.53,-8.80 0.53,-8.86 1.59,-8.67 2.64,-8.48 3.61,-8.04 4.59,-7.60 5.43,-6.94 6.28,-6.28 6.28,-6.28 L 6.28,-6.28 Z"></path></g><g transform="translate(281.8112164223459 148.93094623657953) rotate(288.2456065277546 -35.1793443986619 24.18299619170125)" stroke="none"><path fill="#1e1e1e" d="M 0.15,10.35 Q 0.15,10.35 -5.64,10.39 -11.44,10.42 -16.82,10.48 -22.20,10.54 -27.12,10.63 -32.03,10.71 -39.32,10.99 -46.62,11.27 -50.66,13.15 -54.70,15.03 -55.82,19.60 -56.94,24.16 -53.52,27.62 -50.10,31.07 -45.80,32.61 -41.50,34.16 -40.11,34.62 -38.72,35.08 -36.75,36.15 -34.79,37.21 -33.26,38.85 -31.74,40.49 -30.82,42.53 -29.90,44.57 -29.68,46.79 -29.46,49.02 -29.96,51.20 -30.46,53.37 -31.63,55.28 -32.81,57.19 -34.52,58.62 -36.24,60.05 -38.33,60.86 -40.41,61.66 -42.65,61.76 -44.88,61.86 -47.03,61.25 -49.18,60.63 -51.02,59.35 -52.86,58.08 -54.19,56.29 -55.53,54.50 -56.22,52.37 -56.92,50.24 -56.89,48.01 -56.87,45.77 -56.14,43.66 -55.40,41.55 -54.03,39.78 -52.66,38.01 -50.80,36.78 -48.94,35.54 -46.78,34.96 -44.62,34.38 -42.39,34.53 -40.15,34.67 -38.08,35.52 -36.02,36.36 -34.32,37.83 -32.63,39.29 -31.50,41.22 -30.37,43.15 -29.91,45.33 -29.45,47.52 -29.71,49.74 -29.97,51.96 -30.93,53.98 -31.89,56.00 -33.44,57.61 -35.00,59.22 -36.98,60.25 -38.97,61.28 -41.18,61.62 -43.39,61.96 -45.59,61.58 -47.80,61.19 -47.79,61.19 -47.79,61.19 -52.40,59.40 -57.02,57.61 -61.16,55.77 -65.31,53.94 -70.57,50.57 -75.84,47.21 -78.83,43.02 -81.82,38.82 -82.48,33.53 -83.13,28.25 -82.44,23.38 -81.76,18.51 -79.77,12.41 -77.79,6.31 -74.10,0.99 -70.41,-4.32 -64.83,-7.49 -59.26,-10.66 -52.95,-10.66 -46.64,-10.66 -39.37,-10.40 -32.10,-10.14 -27.22,-10.09 -22.35,-10.03 -17.05,-10.05 -11.75,-10.07 -5.95,-10.21 -0.15,-10.35 1.08,-10.22 2.32,-10.09 3.49,-9.66 4.67,-9.24 5.71,-8.55 6.74,-7.85 7.59,-6.93 8.43,-6.01 9.03,-4.91 9.62,-3.82 9.94,-2.61 10.26,-1.40 10.28,-0.15 10.30,1.09 10.02,2.30 9.74,3.52 9.17,4.63 8.61,5.75 7.80,6.70 6.98,7.64 5.96,8.37 4.95,9.09 3.79,9.55 2.63,10.01 1.39,10.18 0.15,10.35 0.15,10.35 L 0.15,10.35 Z"></path></g></svg>