<svg version="1.1" xmlns="http://www.w3.org/2000/svg" viewBox="0 0 459.5689516562225 740.8875444330374" width="459.5689516562225" height="740.8875444330374" class="excalidraw-svg">
  <!-- svg-source:excalidraw -->
  
  <defs>
    <style class="style-fonts">
      @font-face {
        font-family: "Virgil";
        src: url("https://excalidraw.com/Virgil.woff2");
      }
      @font-face {
        font-family: "Cascadia";
        src: url("https://excalidraw.com/Cascadia.woff2");
      }
      @font-face {
        font-family: "Assistant";
        src: url("https://excalidraw.com/Assistant-Regular.woff2");
      }
    </style>
    
  </defs>
  <g transform="translate(305.7551698990996 27.77969605245471) rotate(0 -16.607437364441665 114.8631593272568)" stroke="none"><path fill="#1e1e1e" d="M -0.32,8.34 Q -0.32,8.34 -5.64,8.33 -10.96,8.31 -17.36,8.22 -23.75,8.12 -30.97,7.88 -38.18,7.65 -44.56,7.99 -50.93,8.32 -56.99,9.53 -63.06,10.73 -69.02,12.83 -74.98,14.93 -80.84,17.88 -86.71,20.82 -92.53,24.44 -98.35,28.05 -103.54,32.08 -108.74,36.10 -113.23,40.36 -117.72,44.62 -121.52,48.97 -125.31,53.33 -128.30,57.64 -131.29,61.96 -133.70,66.36 -136.11,70.77 -138.07,75.40 -140.03,80.04 -141.62,85.06 -143.22,90.07 -144.26,95.32 -145.31,100.56 -145.88,105.99 -146.45,111.42 -146.71,116.84 -146.97,122.26 -146.92,127.34 -146.87,132.42 -146.28,137.10 -145.69,141.78 -144.37,146.35 -143.05,150.92 -141.17,155.63 -139.29,160.34 -137.16,164.78 -135.02,169.23 -132.73,173.38 -130.43,177.54 -127.86,181.53 -125.29,185.53 -122.58,189.06 -119.87,192.59 -114.19,198.38 -108.51,204.17 -99.97,210.64 -91.44,217.11 -84.54,221.41 -77.65,225.72 -72.02,228.18 -66.38,230.65 -61.32,232.23 -56.27,233.82 -51.46,234.82 -46.65,235.82 -41.84,236.37 -37.03,236.91 -31.79,237.16 -26.54,237.40 -20.81,237.33 -15.08,237.25 -9.31,236.51 -3.54,235.77 2.22,234.25 8.00,232.73 13.41,230.69 18.83,228.66 23.85,226.22 28.87,223.77 37.06,219.05 45.25,214.33 53.91,207.66 62.57,201.00 68.44,195.89 74.31,190.78 78.71,186.39 83.12,182.01 86.65,178.13 90.18,174.25 93.23,170.52 96.28,166.79 98.81,163.23 101.34,159.67 104.58,153.27 107.83,146.86 109.41,140.01 110.99,133.15 111.56,128.37 112.14,123.58 112.59,117.77 113.03,111.95 113.19,105.68 113.35,99.41 112.85,93.60 112.34,87.79 111.20,82.27 110.06,76.76 108.47,71.35 106.87,65.95 104.90,60.93 102.93,55.91 100.74,51.55 98.56,47.20 96.24,43.34 93.93,39.48 91.44,35.69 88.96,31.90 86.46,28.44 83.95,24.97 79.25,19.04 74.55,13.12 70.70,8.98 66.85,4.85 62.81,2.46 58.78,0.08 53.69,-1.18 48.60,-2.45 43.96,-3.21 39.32,-3.96 34.43,-4.25 29.53,-4.53 24.14,-4.55 18.75,-4.57 12.55,-4.07 6.35,-3.57 0.41,-2.22 -5.51,-0.87 -11.62,0.80 -17.73,2.49 -22.63,4.09 -27.52,5.69 -29.63,6.00 -31.73,6.31 -33.82,5.93 -35.92,5.56 -37.78,4.53 -39.65,3.51 -41.08,1.94 -42.52,0.37 -43.39,-1.56 -44.25,-3.51 -44.45,-5.63 -44.64,-7.74 -44.16,-9.81 -43.67,-11.88 -42.54,-13.69 -41.42,-15.50 -39.77,-16.85 -38.13,-18.20 -36.14,-18.96 -34.15,-19.71 -32.03,-19.80 -29.90,-19.88 -27.86,-19.28 -25.82,-18.68 -24.08,-17.45 -22.34,-16.23 -21.08,-14.52 -19.81,-12.81 -19.17,-10.78 -18.52,-8.75 -18.55,-6.63 -18.58,-4.50 -19.30,-2.49 -20.01,-0.49 -21.32,1.18 -22.63,2.85 -24.41,4.01 -26.19,5.18 -28.25,5.72 -30.31,6.26 -32.43,6.11 -34.55,5.96 -36.52,5.14 -38.48,4.32 -40.08,2.92 -41.68,1.52 -42.75,-0.31 -43.82,-2.15 -44.24,-4.24 -44.67,-6.32 -44.40,-8.43 -44.14,-10.54 -43.22,-12.46 -42.29,-14.38 -40.81,-15.90 -39.32,-17.42 -37.42,-18.39 -35.53,-19.35 -35.53,-19.35 -35.53,-19.35 -30.01,-21.08 -24.49,-22.82 -18.18,-24.49 -11.87,-26.17 -4.48,-27.79 2.90,-29.41 8.04,-30.15 13.19,-30.89 19.01,-30.83 24.84,-30.78 31.05,-30.45 37.26,-30.13 43.34,-29.19 49.42,-28.25 54.74,-26.85 60.05,-25.46 65.06,-23.43 70.07,-21.40 74.79,-18.14 79.51,-14.88 83.73,-10.25 87.95,-5.61 92.19,0.27 96.43,6.16 98.83,9.68 101.23,13.19 103.79,17.14 106.34,21.09 108.88,25.37 111.41,29.65 113.83,34.21 116.25,38.77 118.57,43.88 120.90,49.00 123.07,54.76 125.24,60.52 127.06,66.66 128.87,72.81 130.26,79.34 131.65,85.88 132.39,92.64 133.12,99.41 133.28,106.26 133.44,113.11 133.19,119.66 132.93,126.21 132.17,131.98 131.41,137.75 130.15,142.66 128.88,147.57 127.13,151.78 125.37,155.99 123.12,159.81 120.87,163.64 118.16,167.28 115.45,170.93 112.20,174.61 108.95,178.30 105.24,182.01 101.53,185.71 97.46,189.36 93.39,193.02 88.63,197.18 83.87,201.34 77.95,206.90 72.03,212.47 63.11,220.29 54.20,228.12 45.54,234.32 36.88,240.51 31.09,243.22 25.30,245.94 19.08,248.25 12.87,250.57 5.93,252.51 -0.99,254.45 -7.88,255.43 -14.77,256.40 -21.21,256.52 -27.66,256.64 -33.67,256.22 -39.68,255.81 -45.34,254.89 -50.99,253.96 -56.53,252.48 -62.08,251.00 -67.77,248.95 -73.46,246.89 -79.69,244.18 -85.92,241.47 -94.25,237.78 -102.59,234.09 -109.37,230.06 -116.15,226.04 -119.91,222.81 -123.67,219.58 -127.07,216.09 -130.47,212.59 -133.59,208.80 -136.70,205.01 -139.75,200.73 -142.80,196.45 -145.63,191.79 -148.47,187.12 -150.88,182.40 -153.30,177.68 -155.56,172.63 -157.82,167.57 -160.02,161.81 -162.22,156.06 -163.76,149.95 -165.30,143.84 -165.79,138.06 -166.28,132.27 -166.14,126.71 -166.00,121.15 -165.59,115.23 -165.19,109.30 -164.43,102.99 -163.68,96.68 -162.29,90.42 -160.90,84.15 -158.83,78.28 -156.77,72.42 -154.15,67.03 -151.54,61.64 -148.37,56.64 -145.21,51.63 -141.43,46.85 -137.66,42.06 -133.20,37.38 -128.75,32.70 -123.62,28.07 -118.50,23.45 -112.71,19.00 -106.92,14.55 -100.52,10.42 -94.12,6.29 -87.31,2.79 -80.51,-0.71 -73.41,-3.21 -66.30,-5.72 -59.07,-7.11 -51.84,-8.51 -44.90,-8.87 -37.96,-9.23 -30.74,-9.27 -23.51,-9.32 -16.89,-9.23 -10.27,-9.15 -4.97,-8.75 0.32,-8.34 1.32,-8.18 2.31,-8.02 3.24,-7.63 4.17,-7.23 4.97,-6.63 5.78,-6.03 6.42,-5.25 7.05,-4.47 7.49,-3.56 7.92,-2.65 8.12,-1.66 8.32,-0.67 8.28,0.32 8.24,1.33 7.96,2.30 7.68,3.26 7.18,4.14 6.68,5.01 5.98,5.74 5.28,6.46 4.43,7.00 3.58,7.54 2.63,7.86 1.67,8.18 0.67,8.26 -0.33,8.34 -0.32,8.34 L -0.32,8.34 Z"></path></g><g transform="translate(242.2751992984809 266.99985006697597) rotate(351.5676443999889 21.898587587581687 156.43980988268024)" stroke="none"><path fill="#1e1e1e" d="M 6.47,2.20 Q 6.47,2.20 3.41,10.54 0.35,18.89 -3.33,27.02 -7.02,35.15 -11.18,43.11 -15.33,51.08 -20.02,59.47 -24.70,67.86 -29.51,76.45 -34.32,85.04 -39.08,93.38 -43.84,101.73 -48.35,109.45 -52.86,117.16 -56.59,123.94 -60.32,130.72 -63.15,136.35 -65.97,141.98 -68.04,146.56 -70.10,151.15 -71.68,155.11 -73.27,159.07 -75.33,165.08 -77.40,171.09 -78.76,176.21 -80.11,181.34 -80.96,185.77 -81.80,190.20 -82.83,194.64 -83.86,199.08 -84.12,203.48 -84.37,207.88 -85.12,212.12 -85.87,216.36 -86.97,221.55 -88.07,226.73 -88.69,231.27 -89.32,235.80 -84.25,238.26 -79.18,240.73 -73.15,244.32 -67.12,247.91 -58.48,252.29 -49.83,256.68 -39.85,260.93 -29.88,265.18 -19.18,269.13 -8.48,273.08 2.04,276.49 12.58,279.90 22.51,282.80 32.44,285.70 41.30,288.18 50.15,290.66 57.28,292.34 64.41,294.03 70.01,295.14 75.61,296.25 80.32,297.19 85.03,298.14 91.95,299.50 98.87,300.86 103.36,301.57 107.84,302.29 112.17,299.71 116.49,297.14 120.23,289.87 123.98,282.60 125.81,277.99 127.65,273.39 129.18,268.52 130.70,263.64 131.89,258.25 133.08,252.86 134.06,246.75 135.04,240.63 135.74,233.98 136.45,227.32 137.04,215.93 137.63,204.54 137.53,195.58 137.42,186.63 136.71,178.87 135.99,171.11 134.90,164.11 133.80,157.11 132.65,150.56 131.50,144.01 130.45,138.45 129.41,132.88 128.53,128.31 127.65,123.73 126.96,119.23 126.26,114.74 125.16,107.10 124.06,99.46 123.17,92.34 122.28,85.21 121.48,78.20 120.67,71.20 119.89,62.06 119.10,52.92 118.14,46.20 117.18,39.48 116.19,34.55 115.19,29.62 114.37,24.66 113.56,19.70 113.22,14.65 112.89,9.60 113.20,7.51 113.52,5.43 114.49,3.55 115.45,1.68 116.96,0.21 118.48,-1.24 120.38,-2.15 122.28,-3.06 124.38,-3.31 126.47,-3.56 128.53,-3.14 130.60,-2.71 132.41,-1.64 134.23,-0.58 135.62,1.01 137.00,2.60 137.80,4.54 138.61,6.49 138.74,8.60 138.88,10.70 138.34,12.74 137.80,14.77 136.64,16.53 135.48,18.29 133.81,19.59 132.15,20.88 130.16,21.58 128.17,22.27 126.06,22.30 123.96,22.32 121.95,21.67 119.95,21.02 118.25,19.77 116.56,18.51 115.36,16.78 114.16,15.05 113.57,13.03 112.98,11.00 113.07,8.90 113.16,6.79 113.92,4.82 114.68,2.86 116.02,1.23 117.37,-0.38 119.16,-1.49 120.95,-2.59 123.01,-3.07 125.06,-3.55 127.16,-3.34 129.26,-3.14 131.18,-2.28 133.10,-1.41 134.65,0.01 136.20,1.44 137.20,3.29 138.21,5.14 138.58,7.22 138.94,9.29 138.94,9.29 138.94,9.29 138.91,13.31 138.88,17.33 139.07,21.61 139.25,25.89 139.72,31.35 140.18,36.81 140.76,43.82 141.35,50.84 142.17,60.17 142.99,69.49 143.27,76.53 143.55,83.58 143.75,90.69 143.95,97.81 144.16,105.37 144.37,112.92 144.56,117.22 144.74,121.51 145.05,126.04 145.35,130.57 145.92,136.11 146.48,141.65 147.41,148.27 148.34,154.89 149.42,162.15 150.51,169.40 151.66,177.55 152.82,185.70 153.82,195.13 154.82,204.56 155.38,216.60 155.94,228.63 155.70,235.92 155.46,243.21 154.80,250.10 154.13,257.00 152.99,263.46 151.85,269.92 150.22,275.68 148.58,281.43 146.57,286.84 144.56,292.24 142.20,297.30 139.85,302.36 137.11,306.83 134.37,311.29 129.90,316.12 125.42,320.95 119.66,322.38 113.91,323.80 108.47,322.74 103.02,321.68 98.47,320.04 93.91,318.40 87.36,315.90 80.82,313.39 76.40,311.82 71.99,310.25 66.59,308.51 61.19,306.77 54.10,304.86 47.01,302.95 38.01,300.86 29.01,298.76 18.78,296.36 8.55,293.95 -2.42,291.19 -13.40,288.43 -24.68,285.33 -35.96,282.24 -46.79,279.06 -57.61,275.89 -67.50,272.77 -77.39,269.65 -85.25,266.67 -93.11,263.70 -98.22,260.75 -103.32,257.79 -106.96,254.64 -110.60,251.50 -113.70,244.32 -116.79,237.14 -116.36,232.47 -115.92,227.81 -114.50,222.23 -113.08,216.65 -111.48,211.43 -109.88,206.21 -109.23,202.00 -108.58,197.78 -107.11,193.65 -105.63,189.52 -103.75,185.01 -101.87,180.50 -99.98,176.03 -98.09,171.56 -96.12,167.72 -94.15,163.87 -90.79,157.92 -87.42,151.97 -85.08,148.10 -82.73,144.22 -79.92,139.91 -77.10,135.60 -73.67,130.30 -70.23,125.01 -66.23,118.36 -62.24,111.71 -57.82,104.03 -53.40,96.35 -48.74,87.99 -44.09,79.64 -39.39,71.02 -34.70,62.39 -30.25,54.09 -25.80,45.78 -22.00,38.03 -18.21,30.29 -14.99,22.52 -11.78,14.76 -9.13,6.28 -6.47,-2.20 -6.12,-2.94 -5.76,-3.68 -5.23,-4.32 -4.71,-4.95 -4.05,-5.45 -3.38,-5.94 -2.62,-6.26 -1.86,-6.58 -1.05,-6.70 -0.23,-6.83 0.58,-6.76 1.40,-6.69 2.18,-6.43 2.96,-6.16 3.66,-5.72 4.35,-5.27 4.92,-4.67 5.49,-4.08 5.89,-3.36 6.30,-2.64 6.53,-1.85 6.75,-1.06 6.78,-0.23 6.81,0.58 6.64,1.39 6.47,2.20 6.47,2.20 L 6.47,2.20 Z"></path></g><g transform="translate(216.45886452674137 269.4103625999233) rotate(0 -103.22943226337068 75.25885680362501)" stroke="none"><path fill="#1e1e1e" d="M 0,9.12 Q 0,9.12 -10.04,8.61 -20.09,8.10 -28.77,7.72 -37.45,7.34 -44.67,7.36 -51.89,7.37 -57.85,7.59 -63.82,7.80 -68.13,8.12 -72.43,8.43 -76.75,8.90 -81.07,9.38 -85.45,14.97 -89.83,20.56 -93.87,25.49 -97.91,30.41 -104.54,37.82 -111.18,45.23 -119.34,54.79 -127.50,64.36 -135.33,73.53 -143.15,82.70 -149.72,90.46 -156.28,98.22 -161.80,104.89 -167.31,111.55 -171.53,117.11 -175.76,122.66 -179.01,127.19 -182.26,131.72 -184.64,135.32 -187.01,138.91 -190.05,143.64 -193.08,148.37 -199.05,154.42 -205.02,160.48 -206.65,160.42 -208.28,160.35 -209.80,159.77 -211.32,159.19 -212.58,158.15 -213.83,157.12 -214.69,155.73 -215.55,154.35 -215.93,152.77 -216.30,151.18 -216.15,149.56 -216.00,147.94 -215.33,146.45 -214.67,144.96 -213.57,143.76 -212.47,142.56 -211.04,141.78 -209.61,141.00 -208.01,140.71 -206.40,140.42 -204.79,140.66 -203.18,140.90 -201.73,141.64 -200.28,142.39 -199.14,143.55 -198.01,144.72 -197.30,146.19 -196.60,147.65 -196.40,149.27 -196.20,150.89 -196.52,152.48 -196.85,154.08 -197.67,155.49 -198.49,156.89 -199.72,157.97 -200.94,159.04 -202.45,159.66 -203.95,160.29 -205.58,160.40 -207.20,160.51 -208.78,160.10 -210.35,159.69 -211.71,158.79 -213.07,157.90 -214.08,156.61 -215.08,155.33 -215.63,153.80 -216.17,152.26 -216.19,150.63 -216.22,149.00 -215.72,147.45 -215.22,145.90 -214.25,144.59 -213.29,143.28 -211.95,142.35 -210.62,141.41 -209.05,140.95 -207.49,140.50 -207.49,140.50 -207.49,140.50 -210.19,142.01 -212.90,143.52 -210.23,140.19 -207.56,136.86 -203.70,132.88 -199.84,128.90 -196.85,125.62 -193.86,122.35 -190.14,118.25 -186.42,114.15 -181.97,108.85 -177.52,103.55 -172.34,96.56 -167.15,89.58 -161.08,81.43 -155.00,73.28 -147.88,63.65 -140.76,54.02 -133.50,43.80 -126.23,33.59 -120.79,25.37 -115.35,17.15 -111.76,12.05 -108.18,6.96 -104.15,2.13 -100.13,-2.69 -95.86,-5.71 -91.59,-8.73 -86.33,-9.05 -81.07,-9.38 -76.75,-8.90 -72.43,-8.43 -68.13,-8.12 -63.82,-7.80 -57.85,-7.59 -51.89,-7.37 -44.67,-7.36 -37.45,-7.34 -28.77,-7.72 -20.09,-8.10 -10.04,-8.61 0,-9.12 1.09,-8.99 2.18,-8.85 3.21,-8.46 4.23,-8.07 5.14,-7.45 6.05,-6.82 6.77,-6.00 7.50,-5.18 8.01,-4.20 8.53,-3.23 8.79,-2.16 9.05,-1.09 9.05,0.00 9.05,1.10 8.79,2.16 8.53,3.23 8.01,4.20 7.50,5.18 6.77,6.00 6.04,6.82 5.14,7.45 4.23,8.07 3.21,8.46 2.18,8.85 1.09,8.99 -0.00,9.12 -0.00,9.12 L 0,9.12 Z"></path></g><g transform="translate(357.394420692192 264.35193168863367) rotate(0 44.092801970251344 96.65430918927058)" stroke="none"><path fill="#1e1e1e" d="M 8.59,-4.69 Q 8.59,-4.69 11.89,1.99 15.19,8.68 18.45,14.33 21.71,19.99 24.94,25.16 28.16,30.34 31.16,35.44 34.15,40.55 36.88,45.48 39.60,50.41 42.00,54.61 44.39,58.81 48.20,64.40 52.01,70.00 54.70,73.33 57.39,76.66 61.22,80.55 65.05,84.43 68.34,88.27 71.63,92.10 74.50,95.73 77.36,99.37 80.26,103.69 83.16,108.01 85.29,112.58 87.42,117.15 89.45,121.29 91.47,125.43 94.31,129.75 97.15,134.07 99.34,141.90 101.53,149.72 99.62,153.76 97.71,157.79 92.53,162.77 87.34,167.74 82.75,171.98 78.16,176.22 73.85,180.24 69.55,184.25 64.90,188.26 60.26,192.27 56.31,195.48 52.37,198.69 48.61,201.05 44.85,203.42 42.56,204.54 40.27,205.67 38.06,206.31 35.86,206.95 33.57,206.85 31.28,206.76 29.14,205.93 27.00,205.11 25.23,203.65 23.47,202.18 22.26,200.23 21.06,198.28 20.54,196.05 20.02,193.82 20.24,191.53 20.46,189.25 21.39,187.16 22.33,185.06 23.89,183.38 25.45,181.70 27.46,180.60 29.47,179.50 31.73,179.10 33.99,178.70 36.26,179.05 38.52,179.39 40.56,180.44 42.60,181.49 44.20,183.14 45.79,184.78 46.78,186.85 47.77,188.92 48.05,191.20 48.32,193.47 47.85,195.72 47.39,197.97 46.23,199.94 45.07,201.92 43.34,203.43 41.61,204.93 39.49,205.81 37.37,206.68 35.08,206.83 32.79,206.99 30.58,206.40 28.36,205.81 26.45,204.55 24.53,203.28 23.12,201.47 21.72,199.66 20.96,197.50 20.20,195.34 20.17,193.04 20.14,190.75 20.85,188.57 21.56,186.39 22.92,184.54 24.29,182.70 26.17,181.39 28.06,180.08 28.05,180.08 28.05,180.09 31.60,178.31 35.14,176.54 38.56,173.81 41.98,171.08 46.17,167.37 50.36,163.67 54.60,159.58 58.85,155.49 63.00,151.49 67.16,147.49 71.29,145.59 75.42,143.68 75.75,148.57 76.08,153.45 73.30,149.22 70.51,145.00 67.61,139.67 64.72,134.34 62.94,129.28 61.16,124.22 59.06,120.08 56.96,115.95 54.23,111.67 51.49,107.40 48.58,103.20 45.66,99.00 42.66,94.70 39.65,90.40 36.98,85.73 34.31,81.07 30.80,74.48 27.29,67.89 25.15,63.54 23.01,59.20 20.59,54.42 18.17,49.63 15.48,44.74 12.79,39.84 9.52,34.51 6.24,29.18 2.67,23.33 -0.90,17.47 -4.75,11.08 -8.59,4.69 -9.03,3.59 -9.47,2.50 -9.63,1.33 -9.79,0.16 -9.67,-1.01 -9.54,-2.18 -9.14,-3.29 -8.74,-4.40 -8.09,-5.39 -7.43,-6.37 -6.56,-7.17 -5.69,-7.97 -4.66,-8.53 -3.62,-9.10 -2.48,-9.40 -1.34,-9.70 -0.15,-9.72 1.02,-9.74 2.17,-9.47 3.32,-9.21 4.37,-8.68 5.43,-8.15 6.32,-7.38 7.22,-6.61 7.91,-5.65 8.59,-4.69 8.59,-4.69 L 8.59,-4.69 Z"></path></g><g transform="translate(217.92295189991074 559.7064221267267) rotate(0 115.82299987815588 85.59056115315542)" stroke="none"><path fill="#1e1e1e" d="M 6.37,-3.69 Q 6.37,-3.69 10.53,4.05 14.70,11.80 19.18,18.31 23.66,24.82 28.58,31.11 33.50,37.41 38.32,43.19 43.14,48.96 47.69,54.37 52.23,59.77 56.67,65.06 61.11,70.35 66.88,77.72 72.65,85.08 78.48,92.31 84.32,99.54 88.41,103.63 92.49,107.72 98.20,112.80 103.92,117.88 108.20,121.52 112.49,125.15 116.14,128.17 119.79,131.19 123.11,134.61 126.43,138.04 129.47,141.75 132.51,145.46 135.21,148.78 137.90,152.09 140.75,155.39 143.60,158.69 139.70,156.25 135.79,153.82 140.84,153.78 145.89,153.74 150.97,154.12 156.06,154.50 161.91,155.14 167.76,155.78 173.58,156.33 179.39,156.88 184.74,157.37 190.09,157.86 194.36,158.12 198.64,158.38 205.24,158.64 211.85,158.91 217.17,158.77 222.49,158.64 226.11,157.98 229.73,157.33 231.28,157.52 232.83,157.71 234.29,158.27 235.75,158.82 237.04,159.71 238.33,160.60 239.36,161.77 240.40,162.94 241.12,164.33 241.85,165.71 242.22,167.23 242.60,168.75 242.59,170.31 242.59,171.88 242.22,173.39 241.84,174.91 241.11,176.29 240.39,177.68 239.35,178.85 238.31,180.02 237.02,180.90 235.74,181.79 234.27,182.35 232.81,182.90 231.26,183.09 229.71,183.27 225.26,181.50 220.81,179.73 219.53,178.06 218.26,176.39 217.59,174.40 216.92,172.41 216.92,170.31 216.92,168.21 217.58,166.22 218.25,164.24 219.52,162.56 220.79,160.89 222.53,159.71 224.26,158.53 226.28,157.97 228.31,157.41 230.40,157.52 232.50,157.63 234.45,158.41 236.40,159.18 238.00,160.54 239.60,161.90 240.68,163.70 241.76,165.49 242.22,167.54 242.67,169.59 242.44,171.68 242.22,173.76 241.34,175.67 240.46,177.57 239.02,179.10 237.57,180.62 235.72,181.61 233.87,182.59 231.80,182.93 229.73,183.27 227.66,182.93 225.58,182.60 223.73,181.61 221.87,180.63 220.43,179.11 218.99,177.59 218.10,175.68 217.22,173.78 216.99,171.69 216.77,169.61 217.22,167.56 217.67,165.51 218.75,163.71 219.83,161.91 221.43,160.55 223.02,159.19 224.97,158.41 226.92,157.64 229.02,157.52 231.11,157.41 233.14,157.97 235.16,158.53 232.44,157.93 229.73,157.33 231.28,157.52 232.83,157.71 234.29,158.27 235.75,158.82 237.04,159.71 238.33,160.60 239.36,161.77 240.40,162.94 241.12,164.33 241.85,165.71 242.22,167.23 242.59,168.75 242.59,170.31 242.59,171.87 242.22,173.39 241.84,174.91 241.11,176.29 240.39,177.68 239.35,178.85 238.31,180.02 237.02,180.90 235.74,181.79 234.28,182.34 232.81,182.90 231.26,183.09 229.71,183.27 229.05,183.65 228.39,184.03 223.83,183.76 219.26,183.49 214.76,183.17 210.26,182.85 203.68,182.26 197.11,181.66 192.76,181.36 188.41,181.05 183.25,180.78 178.10,180.50 172.13,180.42 166.16,180.33 160.45,180.21 154.74,180.10 150.29,179.99 145.83,179.88 139.81,179.79 133.79,179.69 128.68,177.22 123.57,174.75 120.97,171.00 118.36,167.25 115.62,162.95 112.88,158.65 110.39,154.18 107.91,149.72 104.65,145.62 101.39,141.53 98.55,137.92 95.70,134.31 91.52,128.96 87.34,123.61 84.74,120.24 82.14,116.88 78.47,112.21 74.81,107.54 68.65,100.50 62.50,93.46 56.31,86.34 50.11,79.21 45.89,73.75 41.66,68.28 37.39,62.73 33.12,57.18 28.35,51.25 23.59,45.33 18.31,38.86 13.04,32.38 7.99,25.50 2.94,18.62 -1.71,11.16 -6.37,3.69 -6.72,2.88 -7.07,2.06 -7.21,1.18 -7.36,0.31 -7.29,-0.57 -7.22,-1.45 -6.94,-2.30 -6.66,-3.14 -6.18,-3.89 -5.71,-4.64 -5.07,-5.26 -4.43,-5.88 -3.66,-6.32 -2.90,-6.77 -2.04,-7.02 -1.19,-7.26 -0.30,-7.30 0.57,-7.34 1.44,-7.16 2.31,-6.99 3.12,-6.61 3.92,-6.23 4.61,-5.67 5.30,-5.11 5.83,-4.40 6.37,-3.69 6.37,-3.69 L 6.37,-3.69 Z"></path></g><g transform="translate(305.95939795586224 560.7409195721959) rotate(0 -89.67149899545379 82.728213738519)" stroke="none"><path fill="#1e1e1e" d="M 10.35,0 Q 10.35,0 10.49,4.03 10.62,8.07 10.93,12.96 11.23,17.85 11.54,22.15 11.85,26.44 12.18,31.15 12.52,35.86 9.82,42.46 7.12,49.06 2.50,51.55 -2.11,54.04 -10.12,56.56 -18.14,59.08 -25.61,61.17 -33.09,63.26 -42.05,65.97 -51.01,68.68 -60.67,71.87 -70.33,75.07 -79.78,78.31 -89.23,81.56 -97.99,84.52 -106.75,87.49 -114.40,90.12 -122.05,92.76 -128.50,95.29 -134.96,97.82 -140.37,100.19 -145.78,102.55 -150.04,104.58 -154.30,106.61 -160.34,109.70 -166.38,112.78 -161.65,117.85 -156.93,122.92 -154.40,126.49 -151.87,130.07 -147.61,135.83 -143.35,141.59 -140.44,145.10 -137.53,148.61 -135.81,152.89 -134.10,157.17 -133.90,160.53 -133.70,163.88 -133.96,165.90 -134.23,167.91 -135.12,169.73 -136.01,171.55 -137.44,173.00 -138.87,174.44 -140.69,175.35 -142.50,176.26 -144.51,176.54 -146.52,176.82 -148.51,176.45 -150.51,176.08 -152.28,175.09 -154.05,174.10 -155.41,172.59 -156.78,171.09 -157.59,169.23 -158.40,167.37 -158.57,165.34 -158.74,163.32 -158.26,161.35 -157.78,159.38 -156.70,157.66 -155.61,155.95 -154.04,154.67 -152.46,153.39 -150.56,152.68 -148.66,151.97 -146.63,151.91 -144.60,151.85 -142.66,152.43 -140.71,153.02 -139.06,154.20 -137.41,155.37 -136.21,157.02 -135.02,158.66 -134.42,160.60 -133.81,162.53 -133.86,164.56 -133.91,166.59 -134.60,168.50 -135.29,170.41 -136.55,172.00 -137.82,173.58 -139.52,174.68 -141.23,175.78 -143.20,176.28 -145.16,176.78 -147.19,176.63 -149.21,176.47 -151.08,175.68 -152.95,174.88 -154.46,173.53 -155.98,172.18 -156.99,170.42 -157.99,168.66 -158.38,166.67 -158.77,164.68 -158.77,164.68 -158.77,164.68 -157.96,163.94 -157.15,163.19 -159.86,159.02 -162.57,154.84 -166.52,148.92 -170.47,143.00 -173.09,139.18 -175.70,135.36 -180.30,128.27 -184.90,121.18 -186.40,114.78 -187.89,108.37 -185.79,104.19 -183.68,100.00 -178.58,97.80 -173.49,95.60 -166.91,93.52 -160.34,91.45 -155.77,89.97 -151.21,88.49 -145.52,86.56 -139.84,84.64 -133.24,82.34 -126.64,80.03 -119.17,77.21 -111.70,74.38 -103.26,70.85 -94.82,67.32 -85.70,63.27 -76.58,59.22 -67.31,54.95 -58.04,50.68 -49.49,46.54 -40.94,42.41 -33.73,38.97 -26.52,35.53 -21.02,33.29 -15.52,31.05 -9.46,29.43 -3.41,27.80 -7.96,31.83 -12.52,35.86 -12.18,31.15 -11.85,26.44 -11.54,22.15 -11.23,17.85 -10.93,12.96 -10.62,8.07 -10.49,4.03 -10.35,0 -10.20,-1.23 -10.05,-2.47 -9.61,-3.64 -9.17,-4.81 -8.46,-5.84 -7.75,-6.86 -6.81,-7.69 -5.88,-8.52 -4.77,-9.10 -3.67,-9.68 -2.46,-9.98 -1.24,-10.28 0.00,-10.28 1.24,-10.28 2.46,-9.98 3.67,-9.68 4.77,-9.10 5.88,-8.52 6.81,-7.69 7.75,-6.86 8.46,-5.83 9.17,-4.81 9.61,-3.64 10.05,-2.47 10.20,-1.23 10.35,0.00 10.35,0.00 L 10.35,0 Z"></path></g><g transform="translate(292.1764383574477 146.39006833819394) rotate(323.11566432383484 -0.17232435863783735 0)" stroke="none"><path fill="#1e1e1e" d="M -0.19,8.93 Q -0.19,8.93 -1.62,8.69 -3.04,8.46 -4.32,7.78 -5.60,7.10 -6.59,6.06 -7.59,5.01 -8.19,3.70 -8.80,2.38 -8.95,0.95 -9.11,-0.48 -8.80,-1.89 -8.49,-3.30 -7.74,-4.54 -7.00,-5.78 -5.90,-6.71 -4.80,-7.65 -3.45,-8.18 -2.11,-8.72 -0.67,-8.80 0.76,-8.87 2.16,-8.49 3.55,-8.10 4.74,-7.29 5.94,-6.48 6.81,-5.33 7.69,-4.18 8.15,-2.81 8.61,-1.44 8.61,0.00 8.61,1.44 8.15,2.81 7.69,4.18 6.81,5.33 5.94,6.48 4.74,7.29 3.55,8.10 2.15,8.49 0.76,8.87 -0.67,8.80 -2.11,8.72 -3.46,8.18 -4.80,7.65 -5.90,6.71 -7.00,5.78 -7.75,4.54 -8.49,3.30 -8.80,1.89 -9.11,0.48 -8.95,-0.95 -8.80,-2.39 -8.19,-3.70 -7.58,-5.01 -6.59,-6.06 -5.60,-7.11 -4.32,-7.78 -3.04,-8.46 -1.62,-8.69 -0.19,-8.93 -0.19,-8.93 -0.19,-8.93 0.87,-8.82 1.94,-8.71 2.95,-8.35 3.97,-7.99 4.87,-7.40 5.77,-6.81 6.50,-6.02 7.23,-5.23 7.75,-4.29 8.28,-3.35 8.56,-2.31 8.84,-1.27 8.86,-0.19 8.88,0.88 8.65,1.93 8.42,2.98 7.94,3.94 7.46,4.91 6.76,5.73 6.07,6.55 5.19,7.18 4.32,7.81 3.32,8.22 2.32,8.62 1.26,8.77 0.19,8.93 -0.00,8.93 L -0.19,8.93 Z"></path></g><g transform="translate(362.2174714251111 103.06866131481138) rotate(323.11566432383484 0.00004999999999988347 0.00004999999998744897)" stroke="none"><path fill="#1e1e1e" d="M 6.28,-6.28 Q 6.28,-6.28 7.11,-5.11 7.95,-3.94 8.37,-2.57 8.80,-1.19 8.76,0.23 8.72,1.67 8.22,3.02 7.73,4.37 6.83,5.49 5.93,6.61 4.72,7.38 3.50,8.15 2.11,8.50 0.72,8.85 -0.71,8.73 -2.14,8.61 -3.46,8.05 -4.78,7.48 -5.85,6.52 -6.92,5.56 -7.63,4.31 -8.33,3.06 -8.60,1.65 -8.87,0.23 -8.68,-1.18 -8.49,-2.60 -7.85,-3.89 -7.21,-5.18 -6.19,-6.19 -5.18,-7.21 -3.89,-7.85 -2.60,-8.49 -1.18,-8.68 0.24,-8.87 1.65,-8.60 3.06,-8.33 4.31,-7.62 5.56,-6.92 6.52,-5.85 7.48,-4.78 8.05,-3.46 8.62,-2.14 8.73,-0.70 8.85,0.72 8.50,2.11 8.15,3.51 7.38,4.72 6.61,5.93 5.48,6.83 4.36,7.73 3.02,8.22 1.67,8.72 0.23,8.76 -1.20,8.80 -2.57,8.37 -3.94,7.95 -5.11,7.11 -6.28,6.27 -6.28,6.27 -6.28,6.28 -6.94,5.43 -7.60,4.59 -8.04,3.61 -8.48,2.64 -8.67,1.58 -8.86,0.53 -8.80,-0.53 -8.73,-1.60 -8.41,-2.62 -8.09,-3.64 -7.54,-4.56 -6.99,-5.47 -6.23,-6.23 -5.47,-6.99 -4.56,-7.54 -3.64,-8.10 -2.62,-8.41 -1.60,-8.73 -0.53,-8.80 0.53,-8.86 1.59,-8.67 2.64,-8.48 3.61,-8.04 4.59,-7.60 5.43,-6.94 6.28,-6.28 6.28,-6.28 L 6.28,-6.28 Z"></path></g><g transform="translate(394.6300250609582 147.48141405190927) rotate(318.50673884304206 -35.1793443986619 24.18299619170125)" stroke="none"><path fill="#1e1e1e" d="M 0.15,10.35 Q 0.15,10.35 -5.64,10.39 -11.44,10.42 -16.82,10.48 -22.20,10.54 -27.12,10.63 -32.03,10.71 -39.32,10.99 -46.62,11.27 -50.66,13.15 -54.70,15.03 -55.82,19.60 -56.94,24.16 -53.52,27.62 -50.10,31.07 -45.80,32.61 -41.50,34.16 -40.11,34.62 -38.72,35.08 -36.75,36.15 -34.79,37.21 -33.26,38.85 -31.74,40.49 -30.82,42.53 -29.90,44.57 -29.68,46.79 -29.46,49.02 -29.96,51.20 -30.46,53.37 -31.63,55.28 -32.81,57.19 -34.52,58.62 -36.24,60.05 -38.33,60.86 -40.41,61.66 -42.65,61.76 -44.88,61.86 -47.03,61.25 -49.18,60.63 -51.02,59.35 -52.86,58.08 -54.19,56.29 -55.53,54.50 -56.22,52.37 -56.92,50.24 -56.89,48.01 -56.87,45.77 -56.14,43.66 -55.40,41.55 -54.03,39.78 -52.66,38.01 -50.80,36.78 -48.94,35.54 -46.78,34.96 -44.62,34.38 -42.39,34.53 -40.15,34.67 -38.08,35.52 -36.02,36.36 -34.32,37.83 -32.63,39.29 -31.50,41.22 -30.37,43.15 -29.91,45.33 -29.45,47.52 -29.71,49.74 -29.97,51.96 -30.93,53.98 -31.89,56.00 -33.44,57.61 -35.00,59.22 -36.98,60.25 -38.97,61.28 -41.18,61.62 -43.39,61.96 -45.59,61.58 -47.80,61.19 -47.79,61.19 -47.79,61.19 -52.40,59.40 -57.02,57.61 -61.16,55.77 -65.31,53.94 -70.57,50.57 -75.84,47.21 -78.83,43.02 -81.82,38.82 -82.48,33.53 -83.13,28.25 -82.44,23.38 -81.76,18.51 -79.77,12.41 -77.79,6.31 -74.10,0.99 -70.41,-4.32 -64.83,-7.49 -59.26,-10.66 -52.95,-10.66 -46.64,-10.66 -39.37,-10.40 -32.10,-10.14 -27.22,-10.09 -22.35,-10.03 -17.05,-10.05 -11.75,-10.07 -5.95,-10.21 -0.15,-10.35 1.08,-10.22 2.32,-10.09 3.49,-9.66 4.67,-9.24 5.71,-8.55 6.74,-7.85 7.59,-6.93 8.43,-6.01 9.03,-4.91 9.62,-3.82 9.94,-2.61 10.26,-1.40 10.28,-0.15 10.30,1.09 10.02,2.30 9.74,3.52 9.17,4.63 8.61,5.75 7.80,6.70 6.98,7.64 5.96,8.37 4.95,9.09 3.79,9.55 2.63,10.01 1.39,10.18 0.15,10.35 0.15,10.35 L 0.15,10.35 Z"></path></g></svg>