<svg version="1.1" xmlns="http://www.w3.org/2000/svg" viewBox="0 0 637.0095207356871 778.8744123304264" width="637.0095207356871" height="778.8744123304264" class="excalidraw-svg">
  <!-- svg-source:excalidraw -->
  
  <defs>
    <style class="style-fonts">
      @font-face {
        font-family: "Virgil";
        src: url("https://excalidraw.com/Virgil.woff2");
      }
      @font-face {
        font-family: "Cascadia";
        src: url("https://excalidraw.com/Cascadia.woff2");
      }
      @font-face {
        font-family: "Assistant";
        src: url("https://excalidraw.com/Assistant-Regular.woff2");
      }
    </style>
    
  </defs>
  <g transform="translate(335.76773617100616 71.91309592136327) rotate(0 -16.607437364441665 114.8631593272568)" stroke="none"><path fill="#1e1e1e" d="M -0.32,8.34 Q -0.32,8.34 -5.64,8.33 -10.96,8.31 -17.36,8.22 -23.75,8.12 -30.97,7.88 -38.18,7.65 -44.56,7.99 -50.93,8.32 -56.99,9.53 -63.06,10.73 -69.02,12.83 -74.98,14.93 -80.84,17.88 -86.71,20.82 -92.53,24.44 -98.35,28.05 -103.54,32.08 -108.74,36.10 -113.23,40.36 -117.72,44.62 -121.52,48.97 -125.31,53.33 -128.30,57.64 -131.29,61.96 -133.70,66.36 -136.11,70.77 -138.07,75.40 -140.03,80.04 -141.62,85.06 -143.22,90.07 -144.26,95.32 -145.31,100.56 -145.88,105.99 -146.45,111.42 -146.71,116.84 -146.97,122.26 -146.92,127.34 -146.87,132.42 -146.28,137.10 -145.69,141.78 -144.37,146.35 -143.05,150.92 -141.17,155.63 -139.29,160.34 -137.16,164.78 -135.02,169.23 -132.73,173.38 -130.43,177.54 -127.86,181.53 -125.29,185.53 -122.58,189.06 -119.87,192.59 -114.19,198.38 -108.51,204.17 -99.97,210.64 -91.44,217.11 -84.54,221.41 -77.65,225.72 -72.02,228.18 -66.38,230.65 -61.32,232.23 -56.27,233.82 -51.46,234.82 -46.65,235.82 -41.84,236.37 -37.03,236.91 -31.79,237.16 -26.54,237.40 -20.81,237.33 -15.08,237.25 -9.31,236.51 -3.54,235.77 2.22,234.25 8.00,232.73 13.41,230.69 18.83,228.66 23.85,226.22 28.87,223.77 37.06,219.05 45.25,214.33 53.91,207.66 62.57,201.00 68.44,195.89 74.31,190.78 78.71,186.39 83.12,182.01 86.65,178.13 90.18,174.25 93.23,170.52 96.28,166.79 98.81,163.23 101.34,159.67 104.58,153.27 107.83,146.86 109.41,140.01 110.99,133.15 111.56,128.37 112.14,123.58 112.59,117.77 113.03,111.95 113.19,105.68 113.35,99.41 112.85,93.60 112.34,87.79 111.20,82.27 110.06,76.76 108.47,71.35 106.87,65.95 104.90,60.93 102.93,55.91 100.74,51.55 98.56,47.20 96.24,43.34 93.93,39.48 91.44,35.69 88.96,31.90 86.46,28.44 83.95,24.97 79.25,19.04 74.55,13.12 70.70,8.98 66.85,4.85 62.81,2.46 58.78,0.08 53.69,-1.18 48.60,-2.45 43.96,-3.21 39.32,-3.96 34.43,-4.25 29.53,-4.53 24.14,-4.55 18.75,-4.57 12.55,-4.07 6.35,-3.57 0.41,-2.22 -5.51,-0.87 -11.62,0.80 -17.73,2.49 -22.63,4.09 -27.52,5.69 -29.63,6.00 -31.73,6.31 -33.82,5.93 -35.92,5.56 -37.78,4.53 -39.65,3.51 -41.08,1.94 -42.52,0.37 -43.39,-1.56 -44.25,-3.51 -44.45,-5.63 -44.64,-7.74 -44.16,-9.81 -43.67,-11.88 -42.54,-13.69 -41.42,-15.50 -39.77,-16.85 -38.13,-18.20 -36.14,-18.96 -34.15,-19.71 -32.03,-19.80 -29.90,-19.88 -27.86,-19.28 -25.82,-18.68 -24.08,-17.45 -22.34,-16.23 -21.08,-14.52 -19.81,-12.81 -19.17,-10.78 -18.52,-8.75 -18.55,-6.63 -18.58,-4.50 -19.30,-2.49 -20.01,-0.49 -21.32,1.18 -22.63,2.85 -24.41,4.01 -26.19,5.18 -28.25,5.72 -30.31,6.26 -32.43,6.11 -34.55,5.96 -36.52,5.14 -38.48,4.32 -40.08,2.92 -41.68,1.52 -42.75,-0.31 -43.82,-2.15 -44.24,-4.24 -44.67,-6.32 -44.40,-8.43 -44.14,-10.54 -43.22,-12.46 -42.29,-14.38 -40.81,-15.90 -39.32,-17.42 -37.42,-18.39 -35.53,-19.35 -35.53,-19.35 -35.53,-19.35 -30.01,-21.08 -24.49,-22.82 -18.18,-24.49 -11.87,-26.17 -4.48,-27.79 2.90,-29.41 8.04,-30.15 13.19,-30.89 19.01,-30.83 24.84,-30.78 31.05,-30.45 37.26,-30.13 43.34,-29.19 49.42,-28.25 54.74,-26.85 60.05,-25.46 65.06,-23.43 70.07,-21.40 74.79,-18.14 79.51,-14.88 83.73,-10.25 87.95,-5.61 92.19,0.27 96.43,6.16 98.83,9.68 101.23,13.19 103.79,17.14 106.34,21.09 108.88,25.37 111.41,29.65 113.83,34.21 116.25,38.77 118.57,43.88 120.90,49.00 123.07,54.76 125.24,60.52 127.06,66.66 128.87,72.81 130.26,79.34 131.65,85.88 132.39,92.64 133.12,99.41 133.28,106.26 133.44,113.11 133.19,119.66 132.93,126.21 132.17,131.98 131.41,137.75 130.15,142.66 128.88,147.57 127.13,151.78 125.37,155.99 123.12,159.81 120.87,163.64 118.16,167.28 115.45,170.93 112.20,174.61 108.95,178.30 105.24,182.01 101.53,185.71 97.46,189.36 93.39,193.02 88.63,197.18 83.87,201.34 77.95,206.90 72.03,212.47 63.11,220.29 54.20,228.12 45.54,234.32 36.88,240.51 31.09,243.22 25.30,245.94 19.08,248.25 12.87,250.57 5.93,252.51 -0.99,254.45 -7.88,255.43 -14.77,256.40 -21.21,256.52 -27.66,256.64 -33.67,256.22 -39.68,255.81 -45.34,254.89 -50.99,253.96 -56.53,252.48 -62.08,251.00 -67.77,248.95 -73.46,246.89 -79.69,244.18 -85.92,241.47 -94.25,237.78 -102.59,234.09 -109.37,230.06 -116.15,226.04 -119.91,222.81 -123.67,219.58 -127.07,216.09 -130.47,212.59 -133.59,208.80 -136.70,205.01 -139.75,200.73 -142.80,196.45 -145.63,191.79 -148.47,187.12 -150.88,182.40 -153.30,177.68 -155.56,172.63 -157.82,167.57 -160.02,161.81 -162.22,156.06 -163.76,149.95 -165.30,143.84 -165.79,138.06 -166.28,132.27 -166.14,126.71 -166.00,121.15 -165.59,115.23 -165.19,109.30 -164.43,102.99 -163.68,96.68 -162.29,90.42 -160.90,84.15 -158.83,78.28 -156.77,72.42 -154.15,67.03 -151.54,61.64 -148.37,56.64 -145.21,51.63 -141.43,46.85 -137.66,42.06 -133.20,37.38 -128.75,32.70 -123.62,28.07 -118.50,23.45 -112.71,19.00 -106.92,14.55 -100.52,10.42 -94.12,6.29 -87.31,2.79 -80.51,-0.71 -73.41,-3.21 -66.30,-5.72 -59.07,-7.11 -51.84,-8.51 -44.90,-8.87 -37.96,-9.23 -30.74,-9.27 -23.51,-9.32 -16.89,-9.23 -10.27,-9.15 -4.97,-8.75 0.32,-8.34 1.32,-8.18 2.31,-8.02 3.24,-7.63 4.17,-7.23 4.97,-6.63 5.78,-6.03 6.42,-5.25 7.05,-4.47 7.49,-3.56 7.92,-2.65 8.12,-1.66 8.32,-0.67 8.28,0.32 8.24,1.33 7.96,2.30 7.68,3.26 7.18,4.14 6.68,5.01 5.98,5.74 5.28,6.46 4.43,7.00 3.58,7.54 2.63,7.86 1.67,8.18 0.67,8.26 -0.33,8.34 -0.32,8.34 L -0.32,8.34 Z"></path></g><g transform="translate(310.45326297976817 306.7206745952567) rotate(344.28078782709224 21.898587587581687 156.43980988268024)" stroke="none"><path fill="#1e1e1e" d="M 6.47,2.20 Q 6.47,2.20 3.41,10.54 0.35,18.89 -3.33,27.02 -7.02,35.15 -11.18,43.11 -15.33,51.08 -20.02,59.47 -24.70,67.86 -29.51,76.45 -34.32,85.04 -39.08,93.38 -43.84,101.73 -48.35,109.45 -52.86,117.16 -56.59,123.94 -60.32,130.72 -63.15,136.35 -65.97,141.98 -68.04,146.56 -70.10,151.15 -71.68,155.11 -73.27,159.07 -75.33,165.08 -77.40,171.09 -78.76,176.21 -80.11,181.34 -80.96,185.77 -81.80,190.20 -82.83,194.64 -83.86,199.08 -84.12,203.48 -84.37,207.88 -85.12,212.12 -85.87,216.36 -86.97,221.55 -88.07,226.73 -88.69,231.27 -89.32,235.80 -84.25,238.26 -79.18,240.73 -73.15,244.32 -67.12,247.91 -58.48,252.29 -49.83,256.68 -39.85,260.93 -29.88,265.18 -19.18,269.13 -8.48,273.08 2.04,276.49 12.58,279.90 22.51,282.80 32.44,285.70 41.30,288.18 50.15,290.66 57.28,292.34 64.41,294.03 70.01,295.14 75.61,296.25 80.32,297.19 85.03,298.14 91.95,299.50 98.87,300.86 103.36,301.57 107.84,302.29 112.17,299.71 116.49,297.14 120.23,289.87 123.98,282.60 125.81,277.99 127.65,273.39 129.18,268.52 130.70,263.64 131.89,258.25 133.08,252.86 134.06,246.75 135.04,240.63 135.74,233.98 136.45,227.32 137.04,215.93 137.63,204.54 137.53,195.58 137.42,186.63 136.71,178.87 135.99,171.11 134.90,164.11 133.80,157.11 132.65,150.56 131.50,144.01 130.45,138.45 129.41,132.88 128.53,128.31 127.65,123.73 126.96,119.23 126.26,114.74 125.16,107.10 124.06,99.46 123.17,92.34 122.28,85.21 121.48,78.20 120.67,71.20 119.89,62.06 119.10,52.92 118.14,46.20 117.18,39.48 116.19,34.55 115.19,29.62 114.37,24.66 113.56,19.70 113.22,14.65 112.89,9.60 113.20,7.51 113.52,5.43 114.49,3.55 115.45,1.68 116.96,0.21 118.48,-1.24 120.38,-2.15 122.28,-3.06 124.38,-3.31 126.47,-3.56 128.53,-3.14 130.60,-2.71 132.41,-1.64 134.23,-0.58 135.62,1.01 137.00,2.60 137.80,4.54 138.61,6.49 138.74,8.60 138.88,10.70 138.34,12.74 137.80,14.77 136.64,16.53 135.48,18.29 133.81,19.59 132.15,20.88 130.16,21.58 128.17,22.27 126.06,22.30 123.96,22.32 121.95,21.67 119.95,21.02 118.25,19.77 116.56,18.51 115.36,16.78 114.16,15.05 113.57,13.03 112.98,11.00 113.07,8.90 113.16,6.79 113.92,4.82 114.68,2.86 116.02,1.23 117.37,-0.38 119.16,-1.49 120.95,-2.59 123.01,-3.07 125.06,-3.55 127.16,-3.34 129.26,-3.14 131.18,-2.28 133.10,-1.41 134.65,0.01 136.20,1.44 137.20,3.29 138.21,5.14 138.58,7.22 138.94,9.29 138.94,9.29 138.94,9.29 138.91,13.31 138.88,17.33 139.07,21.61 139.25,25.89 139.72,31.35 140.18,36.81 140.76,43.82 141.35,50.84 142.17,60.17 142.99,69.49 143.27,76.53 143.55,83.58 143.75,90.69 143.95,97.81 144.16,105.37 144.37,112.92 144.56,117.22 144.74,121.51 145.05,126.04 145.35,130.57 145.92,136.11 146.48,141.65 147.41,148.27 148.34,154.89 149.42,162.15 150.51,169.40 151.66,177.55 152.82,185.70 153.82,195.13 154.82,204.56 155.38,216.60 155.94,228.63 155.70,235.92 155.46,243.21 154.80,250.10 154.13,257.00 152.99,263.46 151.85,269.92 150.22,275.68 148.58,281.43 146.57,286.84 144.56,292.24 142.20,297.30 139.85,302.36 137.11,306.83 134.37,311.29 129.90,316.12 125.42,320.95 119.66,322.38 113.91,323.80 108.47,322.74 103.02,321.68 98.47,320.04 93.91,318.40 87.36,315.90 80.82,313.39 76.40,311.82 71.99,310.25 66.59,308.51 61.19,306.77 54.10,304.86 47.01,302.95 38.01,300.86 29.01,298.76 18.78,296.36 8.55,293.95 -2.42,291.19 -13.40,288.43 -24.68,285.33 -35.96,282.24 -46.79,279.06 -57.61,275.89 -67.50,272.77 -77.39,269.65 -85.25,266.67 -93.11,263.70 -98.22,260.75 -103.32,257.79 -106.96,254.64 -110.60,251.50 -113.70,244.32 -116.79,237.14 -116.36,232.47 -115.92,227.81 -114.50,222.23 -113.08,216.65 -111.48,211.43 -109.88,206.21 -109.23,202.00 -108.58,197.78 -107.11,193.65 -105.63,189.52 -103.75,185.01 -101.87,180.50 -99.98,176.03 -98.09,171.56 -96.12,167.72 -94.15,163.87 -90.79,157.92 -87.42,151.97 -85.08,148.10 -82.73,144.22 -79.92,139.91 -77.10,135.60 -73.67,130.30 -70.23,125.01 -66.23,118.36 -62.24,111.71 -57.82,104.03 -53.40,96.35 -48.74,87.99 -44.09,79.64 -39.39,71.02 -34.70,62.39 -30.25,54.09 -25.80,45.78 -22.00,38.03 -18.21,30.29 -14.99,22.52 -11.78,14.76 -9.13,6.28 -6.47,-2.20 -6.12,-2.94 -5.76,-3.68 -5.23,-4.32 -4.71,-4.95 -4.05,-5.45 -3.38,-5.94 -2.62,-6.26 -1.86,-6.58 -1.05,-6.70 -0.23,-6.83 0.58,-6.76 1.40,-6.69 2.18,-6.43 2.96,-6.16 3.66,-5.72 4.35,-5.27 4.92,-4.67 5.49,-4.08 5.89,-3.36 6.30,-2.64 6.53,-1.85 6.75,-1.06 6.78,-0.23 6.81,0.58 6.64,1.39 6.47,2.20 6.47,2.20 L 6.47,2.20 Z"></path></g><g transform="translate(315.57660940305504 330.0243769449287) rotate(0 -152.78830470152752 -90.83750841502524)" stroke="none"><path fill="#1e1e1e" d="M -0.42,6.23 Q -0.42,6.23 -11.76,5.32 -23.10,4.41 -36.24,1.51 -49.38,-1.38 -65.25,-7.67 -81.12,-13.96 -99.81,-23.58 -118.50,-33.19 -135.94,-43.58 -153.39,-53.97 -168.96,-64.78 -184.53,-75.58 -198.85,-86.59 -213.17,-97.59 -224.48,-106.92 -235.79,-116.25 -244.41,-123.62 -253.02,-130.98 -259.78,-136.85 -266.53,-142.71 -272.15,-147.28 -277.77,-151.84 -282.45,-155.23 -287.14,-158.62 -290.78,-161.04 -294.42,-163.46 -299.15,-166.41 -303.88,-169.36 -306.77,-171.28 -309.67,-173.20 -310.88,-174.11 -312.10,-175.03 -312.96,-176.28 -313.82,-177.54 -314.23,-179.00 -314.65,-180.47 -314.57,-181.99 -314.50,-183.51 -313.94,-184.92 -313.39,-186.34 -312.41,-187.50 -311.43,-188.67 -310.13,-189.46 -308.83,-190.25 -307.34,-190.58 -305.86,-190.92 -304.34,-190.76 -302.83,-190.60 -301.45,-189.97 -300.06,-189.34 -298.95,-188.30 -297.84,-187.26 -297.12,-185.92 -296.40,-184.58 -296.15,-183.07 -295.90,-181.57 -296.13,-180.07 -296.37,-178.57 -297.08,-177.22 -297.79,-175.87 -298.89,-174.82 -299.99,-173.77 -301.36,-173.12 -302.74,-172.48 -304.25,-172.31 -305.77,-172.13 -307.25,-172.45 -308.74,-172.77 -310.05,-173.55 -311.36,-174.33 -312.35,-175.49 -313.34,-176.64 -313.91,-178.05 -314.48,-179.46 -314.57,-180.98 -314.66,-182.50 -314.26,-183.97 -313.86,-185.44 -313.01,-186.70 -312.16,-187.97 -310.95,-188.89 -309.75,-189.82 -308.31,-190.31 -306.87,-190.80 -305.35,-190.81 -303.82,-190.82 -302.38,-190.34 -300.93,-189.86 -300.94,-189.86 -300.94,-189.86 -297.03,-186.42 -293.13,-182.98 -289.12,-178.98 -285.10,-174.98 -281.90,-171.87 -278.70,-168.76 -274.41,-164.68 -270.12,-160.60 -264.86,-155.66 -259.60,-150.71 -252.86,-144.89 -246.13,-139.06 -237.57,-131.77 -229.02,-124.48 -217.83,-115.29 -206.65,-106.10 -192.52,-95.28 -178.38,-84.46 -163.10,-73.91 -147.82,-63.35 -130.64,-53.19 -113.46,-43.03 -95.22,-33.74 -76.98,-24.44 -61.95,-18.56 -46.93,-12.67 -34.60,-10.08 -22.27,-7.50 -10.92,-6.86 0.42,-6.23 1.16,-6.09 1.90,-5.95 2.58,-5.63 3.27,-5.32 3.86,-4.85 4.45,-4.38 4.91,-3.78 5.37,-3.19 5.67,-2.50 5.97,-1.81 6.10,-1.07 6.23,-0.33 6.18,0.42 6.13,1.17 5.90,1.88 5.67,2.60 5.28,3.24 4.88,3.89 4.35,4.41 3.81,4.94 3.16,5.33 2.52,5.71 1.80,5.93 1.07,6.15 0.32,6.19 -0.42,6.23 -0.42,6.23 L -0.42,6.23 Z"></path></g><g transform="translate(402.40333554967015 297.52574671248794) rotate(0 0.00005000000000165983 0.00005000000000165983)" stroke="none"><path fill="#1e1e1e" d="M 6.28,-6.28 Q 6.28,-6.28 7.11,-5.11 7.95,-3.94 8.37,-2.57 8.80,-1.19 8.76,0.23 8.72,1.67 8.22,3.02 7.73,4.37 6.83,5.49 5.93,6.61 4.72,7.38 3.50,8.15 2.11,8.50 0.72,8.85 -0.71,8.73 -2.14,8.61 -3.46,8.05 -4.78,7.48 -5.85,6.52 -6.92,5.56 -7.63,4.31 -8.33,3.06 -8.60,1.65 -8.87,0.23 -8.68,-1.18 -8.49,-2.60 -7.85,-3.89 -7.21,-5.18 -6.19,-6.19 -5.18,-7.21 -3.89,-7.85 -2.60,-8.49 -1.18,-8.68 0.24,-8.87 1.65,-8.60 3.06,-8.33 4.31,-7.62 5.56,-6.92 6.52,-5.85 7.48,-4.78 8.05,-3.46 8.62,-2.14 8.73,-0.70 8.85,0.72 8.50,2.11 8.15,3.51 7.38,4.72 6.61,5.93 5.48,6.83 4.36,7.73 3.02,8.22 1.67,8.72 0.23,8.76 -1.20,8.80 -2.57,8.37 -3.94,7.95 -5.11,7.11 -6.28,6.27 -6.28,6.27 -6.28,6.28 -6.94,5.43 -7.60,4.59 -8.04,3.61 -8.48,2.64 -8.67,1.58 -8.86,0.53 -8.80,-0.53 -8.73,-1.60 -8.41,-2.62 -8.09,-3.64 -7.54,-4.56 -6.99,-5.47 -6.23,-6.23 -5.47,-6.99 -4.56,-7.54 -3.64,-8.10 -2.62,-8.41 -1.60,-8.73 -0.53,-8.80 0.53,-8.86 1.59,-8.67 2.64,-8.48 3.61,-8.04 4.59,-7.60 5.43,-6.94 6.28,-6.28 6.28,-6.28 L 6.28,-6.28 Z"></path></g><g transform="translate(177.12203970889504 128.2733081493393) rotate(0 -48.353433207905255 -58.99639048999427)" stroke="none"><path fill="#1e1e1e" d="M -6.49,4.89 Q -6.49,4.89 -12.29,-3.44 -18.09,-11.77 -24.07,-20.27 -30.05,-28.78 -36.38,-37.60 -42.71,-46.43 -49.10,-55.03 -55.48,-63.63 -60.66,-70.57 -65.85,-77.52 -70.26,-82.52 -74.68,-87.52 -78.54,-91.16 -82.41,-94.80 -87.92,-99.29 -93.43,-103.79 -96.96,-106.24 -100.49,-108.68 -101.53,-109.65 -102.58,-110.63 -103.61,-111.79 -104.65,-112.95 -105.26,-114.39 -105.87,-115.82 -105.99,-117.38 -106.11,-118.93 -105.73,-120.44 -105.34,-121.96 -104.50,-123.27 -103.65,-124.58 -102.43,-125.55 -101.22,-126.52 -99.75,-127.05 -98.28,-127.58 -96.73,-127.62 -95.17,-127.65 -93.68,-127.19 -92.19,-126.73 -90.93,-125.81 -89.67,-124.90 -88.76,-123.63 -87.86,-122.36 -87.41,-120.86 -86.95,-119.37 -87.00,-117.81 -87.05,-116.26 -87.60,-114.79 -88.14,-113.33 -89.12,-112.12 -90.10,-110.91 -91.42,-110.08 -92.74,-109.24 -94.25,-108.87 -95.77,-108.50 -97.32,-108.64 -98.87,-108.77 -100.30,-109.39 -101.73,-110.01 -102.89,-111.06 -104.04,-112.11 -104.81,-113.47 -105.57,-114.83 -105.85,-116.36 -106.14,-117.89 -105.92,-119.44 -105.71,-120.98 -105.01,-122.37 -104.31,-123.77 -103.20,-124.86 -102.09,-125.96 -100.70,-126.65 -99.30,-127.33 -97.75,-127.54 -96.20,-127.74 -94.67,-127.44 -93.15,-127.14 -91.79,-126.37 -90.44,-125.59 -90.44,-125.60 -90.44,-125.60 -87.51,-122.48 -84.58,-119.36 -81.04,-115.26 -77.51,-111.16 -74.74,-107.81 -71.97,-104.46 -68.36,-100.02 -64.75,-95.58 -60.66,-90.11 -56.56,-84.63 -51.20,-77.82 -45.84,-71.01 -39.16,-62.53 -32.49,-54.06 -25.82,-45.48 -19.15,-36.90 -12.73,-28.77 -6.32,-20.63 0.08,-12.76 6.49,-4.89 6.98,-4.04 7.47,-3.19 7.75,-2.25 8.02,-1.31 8.06,-0.33 8.10,0.64 7.91,1.60 7.71,2.56 7.29,3.45 6.88,4.33 6.26,5.09 5.64,5.85 4.85,6.44 4.07,7.03 3.17,7.42 2.27,7.81 1.30,7.96 0.33,8.12 -0.64,8.04 -1.61,7.97 -2.54,7.66 -3.47,7.35 -4.30,6.82 -5.13,6.30 -5.81,5.60 -6.49,4.89 -6.49,4.89 L -6.49,4.89 Z"></path></g><g transform="translate(420.55940781951904 592.0649580373492) rotate(0 103.22505645808405 84.16157534848048)" stroke="none"><path fill="#1e1e1e" d="M 4.17,-4.83 Q 4.17,-4.83 9.36,-0.66 14.55,3.51 21.77,10.21 28.98,16.91 37.94,25.39 46.90,33.88 56.46,42.83 66.02,51.78 76.23,61.02 86.45,70.27 96.36,79.33 106.28,88.39 115.29,96.84 124.30,105.29 132.06,112.67 139.82,120.06 145.97,126.01 152.12,131.97 157.26,136.71 162.40,141.46 166.72,145.39 171.05,149.32 176.26,153.69 181.47,158.06 184.49,151.76 187.50,145.47 190.85,142.00 194.21,138.53 194.61,137.88 195.02,137.23 195.86,135.52 196.69,133.81 198.03,132.46 199.37,131.10 201.07,130.25 202.77,129.39 204.65,129.12 206.54,128.86 208.41,129.20 210.28,129.55 211.95,130.48 213.61,131.41 214.89,132.81 216.17,134.22 216.93,135.97 217.69,137.71 217.86,139.61 218.02,141.51 217.58,143.36 217.13,145.21 216.11,146.82 215.10,148.43 213.62,149.63 212.14,150.83 210.36,151.50 208.58,152.16 206.67,152.23 204.77,152.29 202.95,151.74 201.12,151.19 199.57,150.09 198.02,148.99 196.90,147.45 195.78,145.91 195.21,144.09 194.64,142.28 194.68,140.37 194.72,138.47 195.37,136.68 196.01,134.89 197.20,133.40 198.38,131.91 199.98,130.87 201.58,129.84 203.42,129.37 205.27,128.90 207.17,129.04 209.07,129.18 210.82,129.93 212.57,130.67 214.00,131.93 215.42,133.20 216.37,134.85 217.31,136.50 217.68,138.37 218.05,140.23 217.81,142.12 217.56,144.01 217.56,144.01 217.56,144.01 213.32,149.83 209.09,155.66 205.41,158.40 201.73,161.14 197.12,164.94 192.50,168.74 187.03,172.17 181.55,175.60 175.63,172.53 169.72,169.46 165.54,164.06 161.36,158.67 157.64,154.27 153.92,149.88 149.30,144.80 144.67,139.71 138.51,133.82 132.36,127.93 124.59,120.63 116.82,113.32 107.81,104.98 98.79,96.65 88.82,87.71 78.85,78.76 68.47,69.58 58.08,60.41 48.36,51.62 38.63,42.83 29.55,34.66 20.47,26.49 13.05,20.18 5.62,13.87 0.72,9.35 -4.17,4.83 -4.68,4.27 -5.20,3.70 -5.57,3.02 -5.94,2.34 -6.13,1.60 -6.33,0.85 -6.34,0.08 -6.35,-0.68 -6.17,-1.43 -6.00,-2.18 -5.65,-2.86 -5.30,-3.55 -4.80,-4.14 -4.30,-4.72 -3.67,-5.16 -3.04,-5.61 -2.33,-5.89 -1.61,-6.18 -0.85,-6.28 -0.08,-6.38 0.67,-6.30 1.44,-6.22 2.16,-5.96 2.89,-5.69 3.53,-5.26 4.17,-4.83 4.17,-4.83 L 4.17,-4.83 Z"></path></g><g transform="translate(323.04601390104995 599.8674944943358) rotate(0 88.7115567107096 84.50345891804528)" stroke="none"><path fill="#1e1e1e" d="M 5.66,-3.50 Q 5.66,-3.50 10.01,3.88 14.36,11.27 20.14,19.79 25.92,28.31 32.85,38.11 39.77,47.91 47.27,58.30 54.76,68.69 61.81,78.72 68.85,88.74 74.90,97.28 80.94,105.81 86.21,112.84 91.49,119.86 96.48,126.00 101.47,132.14 106.16,137.44 110.85,142.74 114.75,146.74 118.65,150.75 123.36,155.01 128.06,159.27 123.65,160.79 119.25,162.30 121.81,158.85 124.37,155.40 129.32,149.96 134.28,144.53 138.14,140.78 142.01,137.03 145.38,134.33 148.76,131.63 152.61,129.28 156.46,126.94 160.51,124.69 164.56,122.45 166.11,130.17 167.65,137.90 166.15,136.35 164.64,134.81 163.71,132.86 162.77,130.92 162.51,128.78 162.25,126.64 162.68,124.52 163.11,122.41 164.20,120.55 165.28,118.68 166.91,117.26 168.53,115.84 170.52,115.02 172.52,114.19 174.67,114.04 176.82,113.90 178.91,114.44 180.99,114.99 182.80,116.18 184.60,117.36 185.93,119.06 187.26,120.76 187.98,122.79 188.69,124.83 188.72,126.98 188.75,129.14 188.09,131.19 187.43,133.25 186.15,134.98 184.87,136.72 183.10,137.95 181.34,139.19 179.27,139.80 177.20,140.40 175.04,140.32 172.89,140.23 170.87,139.46 168.86,138.69 167.19,137.32 165.53,135.94 164.39,134.11 163.25,132.28 162.76,130.18 162.27,128.08 162.47,125.93 162.67,123.78 163.55,121.81 164.43,119.84 165.89,118.26 167.35,116.67 169.24,115.63 171.13,114.60 173.26,114.22 175.38,113.84 177.51,114.16 179.65,114.48 181.57,115.46 183.49,116.44 183.49,116.44 183.48,116.44 186.88,124.71 190.28,132.97 186.60,137.52 182.93,142.07 178.46,144.08 173.99,146.09 169.97,147.71 165.96,149.34 161.11,151.84 156.27,154.34 152.66,157.04 149.05,159.74 143.92,164.34 138.79,168.94 134.77,171.83 130.74,174.72 123.24,172.51 115.75,170.31 111.98,164.96 108.21,159.61 104.84,155.05 101.47,150.49 97.08,144.80 92.68,139.10 87.77,132.74 82.86,126.37 77.46,119.27 72.05,112.16 65.94,103.66 59.82,95.15 52.73,85.25 45.64,75.35 38.00,65.02 30.37,54.68 23.22,44.93 16.08,35.18 9.88,26.53 3.68,17.88 -0.98,10.69 -5.66,3.50 -6.00,2.77 -6.34,2.04 -6.49,1.26 -6.64,0.47 -6.60,-0.32 -6.56,-1.13 -6.33,-1.90 -6.10,-2.67 -5.69,-3.36 -5.28,-4.05 -4.72,-4.62 -4.16,-5.20 -3.48,-5.62 -2.79,-6.04 -2.03,-6.29 -1.27,-6.54 -0.46,-6.59 0.33,-6.65 1.12,-6.51 1.91,-6.38 2.65,-6.06 3.38,-5.73 4.02,-5.24 4.66,-4.76 5.16,-4.13 5.66,-3.50 5.66,-3.50 L 5.66,-3.50 Z"></path></g><g transform="translate(362.02330923888235 211.20751767803426) rotate(0 -20.413559729817166 32.029634275611045)" stroke="none"><path fill="#1e1e1e" d="M 0,10.64 Q 0,10.64 -4.72,10.70 -9.44,10.76 -16.61,11.00 -23.78,11.24 -25.86,16.89 -27.94,22.54 -27.95,27.83 -27.95,33.13 -24.82,36.87 -21.69,40.62 -17.50,43.39 -13.30,46.15 -9.22,48.17 -5.14,50.19 -3.59,50.29 -2.04,50.39 0.10,50.64 2.26,50.89 4.22,51.81 6.18,52.74 7.74,54.24 9.31,55.74 10.31,57.66 11.31,59.58 11.65,61.72 11.99,63.86 11.62,65.99 11.26,68.13 10.23,70.04 9.20,71.95 7.62,73.43 6.04,74.91 4.06,75.80 2.09,76.70 -0.05,76.92 -2.21,77.14 -4.32,76.66 -6.44,76.18 -8.28,75.05 -10.13,73.93 -11.53,72.26 -12.92,70.60 -13.71,68.59 -14.50,66.57 -14.60,64.40 -14.70,62.24 -14.11,60.15 -13.52,58.07 -12.29,56.29 -11.06,54.50 -9.33,53.20 -7.59,51.90 -5.54,51.22 -3.48,50.54 -1.31,50.56 0.84,50.57 2.89,51.28 4.94,51.98 6.66,53.30 8.38,54.63 9.58,56.43 10.78,58.23 11.35,60.32 11.92,62.41 11.78,64.58 11.65,66.74 10.84,68.75 10.02,70.75 8.61,72.40 7.20,74.04 5.33,75.14 3.47,76.25 1.35,76.70 -0.76,77.15 -0.76,77.15 -0.76,77.15 -6.73,76.33 -12.69,75.51 -17.02,73.42 -21.34,71.33 -27.39,67.69 -33.43,64.05 -36.89,61.26 -40.36,58.48 -43.75,54.74 -47.14,51.00 -49.65,46.20 -52.16,41.40 -52.79,34.16 -53.41,26.93 -52.88,20.38 -52.36,13.83 -49.99,7.00 -47.63,0.17 -41.63,-4.87 -35.63,-9.92 -29.71,-10.58 -23.79,-11.24 -16.61,-11.00 -9.44,-10.76 -4.72,-10.70 0,-10.64 1.27,-10.49 2.54,-10.33 3.74,-9.88 4.94,-9.42 6.00,-8.69 7.06,-7.96 7.91,-7.00 8.76,-6.04 9.35,-4.91 9.95,-3.77 10.26,-2.52 10.56,-1.28 10.56,0.00 10.56,1.28 10.26,2.52 9.95,3.77 9.35,4.91 8.76,6.04 7.91,7.00 7.05,7.96 6.00,8.69 4.94,9.42 3.74,9.88 2.54,10.33 1.27,10.49 -0.00,10.64 -0.00,10.64 L 0,10.64 Z"></path></g><g transform="translate(394.3553734918273 142.4405009587615) rotate(0 0 -0.14026358467538103)" stroke="none"><path fill="#1e1e1e" d="M -8.92,-0.16 Q -8.92,-0.16 -8.68,-1.58 -8.45,-3.01 -7.77,-4.28 -7.10,-5.56 -6.05,-6.55 -5.00,-7.54 -3.69,-8.15 -2.38,-8.75 -0.95,-8.91 0.48,-9.07 1.89,-8.75 3.30,-8.44 4.53,-7.70 5.77,-6.96 6.71,-5.86 7.64,-4.76 8.17,-3.41 8.71,-2.07 8.79,-0.63 8.86,0.80 8.48,2.19 8.09,3.58 7.28,4.78 6.47,5.97 5.32,6.84 4.17,7.72 2.81,8.18 1.44,8.64 -0.00,8.64 -1.44,8.64 -2.81,8.18 -4.18,7.72 -5.32,6.84 -6.47,5.97 -7.28,4.77 -8.09,3.58 -8.48,2.19 -8.86,0.80 -8.79,-0.63 -8.71,-2.08 -8.17,-3.42 -7.64,-4.76 -6.70,-5.86 -5.77,-6.96 -4.53,-7.70 -3.30,-8.45 -1.89,-8.76 -0.48,-9.07 0.95,-8.91 2.38,-8.75 3.69,-8.15 5.00,-7.54 6.05,-6.55 7.10,-5.55 7.78,-4.28 8.45,-3.00 8.68,-1.58 8.92,-0.15 8.92,-0.15 8.92,-0.16 8.81,0.90 8.70,1.97 8.33,2.99 7.97,4.00 7.37,4.89 6.78,5.79 5.99,6.52 5.20,7.25 4.25,7.76 3.31,8.28 2.27,8.56 1.23,8.83 0.15,8.85 -0.91,8.87 -1.96,8.63 -3.01,8.39 -3.97,7.91 -4.93,7.43 -5.75,6.73 -6.57,6.03 -7.19,5.16 -7.82,4.28 -8.22,3.28 -8.62,2.29 -8.77,1.22 -8.92,0.16 -8.92,-0.00 L -8.92,-0.16 Z"></path></g><g transform="translate(319.0745900986685 140.26634405164214) rotate(0 -0.14026358467526734 0)" stroke="none"><path fill="#1e1e1e" d="M -0.16,8.92 Q -0.16,8.92 -1.58,8.68 -3.01,8.45 -4.28,7.77 -5.56,7.10 -6.55,6.05 -7.54,5.00 -8.15,3.69 -8.75,2.38 -8.91,0.95 -9.07,-0.48 -8.75,-1.89 -8.44,-3.30 -7.70,-4.53 -6.96,-5.77 -5.86,-6.71 -4.76,-7.64 -3.41,-8.17 -2.07,-8.71 -0.63,-8.79 0.80,-8.86 2.19,-8.48 3.58,-8.09 4.78,-7.28 5.97,-6.47 6.84,-5.32 7.72,-4.17 8.18,-2.81 8.64,-1.44 8.64,0.00 8.64,1.44 8.18,2.81 7.72,4.18 6.84,5.32 5.97,6.47 4.77,7.28 3.58,8.09 2.19,8.48 0.80,8.86 -0.63,8.79 -2.08,8.71 -3.42,8.17 -4.76,7.64 -5.86,6.70 -6.96,5.77 -7.70,4.53 -8.45,3.30 -8.76,1.89 -9.07,0.48 -8.91,-0.95 -8.75,-2.38 -8.15,-3.69 -7.54,-5.00 -6.55,-6.05 -5.55,-7.10 -4.28,-7.78 -3.00,-8.45 -1.58,-8.68 -0.15,-8.92 -0.15,-8.92 -0.16,-8.92 0.90,-8.81 1.97,-8.70 2.99,-8.33 4.00,-7.97 4.89,-7.37 5.79,-6.78 6.52,-5.99 7.25,-5.20 7.76,-4.25 8.28,-3.31 8.56,-2.27 8.83,-1.23 8.85,-0.15 8.87,0.91 8.63,1.96 8.39,3.01 7.91,3.97 7.43,4.93 6.73,5.75 6.03,6.57 5.16,7.19 4.28,7.82 3.28,8.22 2.29,8.62 1.22,8.77 0.16,8.92 -0.00,8.92 L -0.16,8.92 Z"></path></g></svg>