<svg version="1.1" xmlns="http://www.w3.org/2000/svg" viewBox="0 0 367.3356930188312 853.9425620888239" width="367.3356930188312" height="853.9425620888239" class="excalidraw-svg">
  <!-- svg-source:excalidraw -->
  
  <defs>
    <style class="style-fonts">
      @font-face {
        font-family: "Virgil";
        src: url("https://excalidraw.com/Virgil.woff2");
      }
      @font-face {
        font-family: "Cascadia";
        src: url("https://excalidraw.com/Cascadia.woff2");
      }
      @font-face {
        font-family: "Assistant";
        src: url("https://excalidraw.com/Assistant-Regular.woff2");
      }
    </style>
    
  </defs>
  <g transform="translate(195.680895254197 27.77969605245471) rotate(0 -16.607437364441665 114.8631593272568)" stroke="none"><path fill="#1e1e1e" d="M -0.32,8.34 Q -0.32,8.34 -5.64,8.33 -10.96,8.31 -17.36,8.22 -23.75,8.12 -30.97,7.88 -38.18,7.65 -44.56,7.99 -50.93,8.32 -56.99,9.53 -63.06,10.73 -69.02,12.83 -74.98,14.93 -80.84,17.88 -86.71,20.82 -92.53,24.44 -98.35,28.05 -103.54,32.08 -108.74,36.10 -113.23,40.36 -117.72,44.62 -121.52,48.97 -125.31,53.33 -128.30,57.64 -131.29,61.96 -133.70,66.36 -136.11,70.77 -138.07,75.40 -140.03,80.04 -141.62,85.06 -143.22,90.07 -144.26,95.32 -145.31,100.56 -145.88,105.99 -146.45,111.42 -146.71,116.84 -146.97,122.26 -146.92,127.34 -146.87,132.42 -146.28,137.10 -145.69,141.78 -144.37,146.35 -143.05,150.92 -141.17,155.63 -139.29,160.34 -137.16,164.78 -135.02,169.23 -132.73,173.38 -130.43,177.54 -127.86,181.53 -125.29,185.53 -122.58,189.06 -119.87,192.59 -114.19,198.38 -108.51,204.17 -99.97,210.64 -91.44,217.11 -84.54,221.41 -77.65,225.72 -72.02,228.18 -66.38,230.65 -61.32,232.23 -56.27,233.82 -51.46,234.82 -46.65,235.82 -41.84,236.37 -37.03,236.91 -31.79,237.16 -26.54,237.40 -20.81,237.33 -15.08,237.25 -9.31,236.51 -3.54,235.77 2.22,234.25 8.00,232.73 13.41,230.69 18.83,228.66 23.85,226.22 28.87,223.77 37.06,219.05 45.25,214.33 53.91,207.66 62.57,201.00 68.44,195.89 74.31,190.78 78.71,186.39 83.12,182.01 86.65,178.13 90.18,174.25 93.23,170.52 96.28,166.79 98.81,163.23 101.34,159.67 104.58,153.27 107.83,146.86 109.41,140.01 110.99,133.15 111.56,128.37 112.14,123.58 112.59,117.77 113.03,111.95 113.19,105.68 113.35,99.41 112.85,93.60 112.34,87.79 111.20,82.27 110.06,76.76 108.47,71.35 106.87,65.95 104.90,60.93 102.93,55.91 100.74,51.55 98.56,47.20 96.24,43.34 93.93,39.48 91.44,35.69 88.96,31.90 86.46,28.44 83.95,24.97 79.25,19.04 74.55,13.12 70.70,8.98 66.85,4.85 62.81,2.46 58.78,0.08 53.69,-1.18 48.60,-2.45 43.96,-3.21 39.32,-3.96 34.43,-4.25 29.53,-4.53 24.14,-4.55 18.75,-4.57 12.55,-4.07 6.35,-3.57 0.41,-2.22 -5.51,-0.87 -11.62,0.80 -17.73,2.49 -22.63,4.09 -27.52,5.69 -29.63,6.00 -31.73,6.31 -33.82,5.93 -35.92,5.56 -37.78,4.53 -39.65,3.51 -41.08,1.94 -42.52,0.37 -43.39,-1.56 -44.25,-3.51 -44.45,-5.63 -44.64,-7.74 -44.16,-9.81 -43.67,-11.88 -42.54,-13.69 -41.42,-15.50 -39.77,-16.85 -38.13,-18.20 -36.14,-18.96 -34.15,-19.71 -32.03,-19.80 -29.90,-19.88 -27.86,-19.28 -25.82,-18.68 -24.08,-17.45 -22.34,-16.23 -21.08,-14.52 -19.81,-12.81 -19.17,-10.78 -18.52,-8.75 -18.55,-6.63 -18.58,-4.50 -19.30,-2.49 -20.01,-0.49 -21.32,1.18 -22.63,2.85 -24.41,4.01 -26.19,5.18 -28.25,5.72 -30.31,6.26 -32.43,6.11 -34.55,5.96 -36.52,5.14 -38.48,4.32 -40.08,2.92 -41.68,1.52 -42.75,-0.31 -43.82,-2.15 -44.24,-4.24 -44.67,-6.32 -44.40,-8.43 -44.14,-10.54 -43.22,-12.46 -42.29,-14.38 -40.81,-15.90 -39.32,-17.42 -37.42,-18.39 -35.53,-19.35 -35.53,-19.35 -35.53,-19.35 -30.01,-21.08 -24.49,-22.82 -18.18,-24.49 -11.87,-26.17 -4.48,-27.79 2.90,-29.41 8.04,-30.15 13.19,-30.89 19.01,-30.83 24.84,-30.78 31.05,-30.45 37.26,-30.13 43.34,-29.19 49.42,-28.25 54.74,-26.85 60.05,-25.46 65.06,-23.43 70.07,-21.40 74.79,-18.14 79.51,-14.88 83.73,-10.25 87.95,-5.61 92.19,0.27 96.43,6.16 98.83,9.68 101.23,13.19 103.79,17.14 106.34,21.09 108.88,25.37 111.41,29.65 113.83,34.21 116.25,38.77 118.57,43.88 120.90,49.00 123.07,54.76 125.24,60.52 127.06,66.66 128.87,72.81 130.26,79.34 131.65,85.88 132.39,92.64 133.12,99.41 133.28,106.26 133.44,113.11 133.19,119.66 132.93,126.21 132.17,131.98 131.41,137.75 130.15,142.66 128.88,147.57 127.13,151.78 125.37,155.99 123.12,159.81 120.87,163.64 118.16,167.28 115.45,170.93 112.20,174.61 108.95,178.30 105.24,182.01 101.53,185.71 97.46,189.36 93.39,193.02 88.63,197.18 83.87,201.34 77.95,206.90 72.03,212.47 63.11,220.29 54.20,228.12 45.54,234.32 36.88,240.51 31.09,243.22 25.30,245.94 19.08,248.25 12.87,250.57 5.93,252.51 -0.99,254.45 -7.88,255.43 -14.77,256.40 -21.21,256.52 -27.66,256.64 -33.67,256.22 -39.68,255.81 -45.34,254.89 -50.99,253.96 -56.53,252.48 -62.08,251.00 -67.77,248.95 -73.46,246.89 -79.69,244.18 -85.92,241.47 -94.25,237.78 -102.59,234.09 -109.37,230.06 -116.15,226.04 -119.91,222.81 -123.67,219.58 -127.07,216.09 -130.47,212.59 -133.59,208.80 -136.70,205.01 -139.75,200.73 -142.80,196.45 -145.63,191.79 -148.47,187.12 -150.88,182.40 -153.30,177.68 -155.56,172.63 -157.82,167.57 -160.02,161.81 -162.22,156.06 -163.76,149.95 -165.30,143.84 -165.79,138.06 -166.28,132.27 -166.14,126.71 -166.00,121.15 -165.59,115.23 -165.19,109.30 -164.43,102.99 -163.68,96.68 -162.29,90.42 -160.90,84.15 -158.83,78.28 -156.77,72.42 -154.15,67.03 -151.54,61.64 -148.37,56.64 -145.21,51.63 -141.43,46.85 -137.66,42.06 -133.20,37.38 -128.75,32.70 -123.62,28.07 -118.50,23.45 -112.71,19.00 -106.92,14.55 -100.52,10.42 -94.12,6.29 -87.31,2.79 -80.51,-0.71 -73.41,-3.21 -66.30,-5.72 -59.07,-7.11 -51.84,-8.51 -44.90,-8.87 -37.96,-9.23 -30.74,-9.27 -23.51,-9.32 -16.89,-9.23 -10.27,-9.15 -4.97,-8.75 0.32,-8.34 1.32,-8.18 2.31,-8.02 3.24,-7.63 4.17,-7.23 4.97,-6.63 5.78,-6.03 6.42,-5.25 7.05,-4.47 7.49,-3.56 7.92,-2.65 8.12,-1.66 8.32,-0.67 8.28,0.32 8.24,1.33 7.96,2.30 7.68,3.26 7.18,4.14 6.68,5.01 5.98,5.74 5.28,6.46 4.43,7.00 3.58,7.54 2.63,7.86 1.67,8.18 0.67,8.26 -0.33,8.34 -0.32,8.34 L -0.32,8.34 Z"></path></g><g transform="translate(108.13841081907239 262.2483927211879) rotate(356.45554793064383 21.898587587581687 156.43980988268027)" stroke="none"><path fill="#1e1e1e" d="M 6.47,2.20 Q 6.47,2.20 3.41,10.54 0.35,18.89 -3.33,27.02 -7.02,35.15 -11.18,43.11 -15.33,51.08 -20.02,59.47 -24.70,67.86 -29.51,76.45 -34.32,85.04 -39.08,93.38 -43.84,101.73 -48.35,109.45 -52.86,117.16 -56.59,123.94 -60.32,130.72 -63.15,136.35 -65.97,141.98 -68.04,146.56 -70.10,151.15 -71.68,155.11 -73.27,159.07 -75.33,165.08 -77.40,171.09 -78.76,176.21 -80.11,181.34 -80.96,185.77 -81.80,190.20 -82.83,194.64 -83.86,199.08 -84.12,203.48 -84.37,207.88 -85.12,212.12 -85.87,216.36 -86.97,221.55 -88.07,226.73 -88.69,231.27 -89.32,235.80 -84.25,238.26 -79.18,240.73 -73.15,244.32 -67.12,247.91 -58.48,252.29 -49.83,256.68 -39.85,260.93 -29.88,265.18 -19.18,269.13 -8.48,273.08 2.04,276.49 12.58,279.90 22.51,282.80 32.44,285.70 41.30,288.18 50.15,290.66 57.28,292.34 64.41,294.03 70.01,295.14 75.61,296.25 80.32,297.19 85.03,298.14 91.95,299.50 98.87,300.86 103.36,301.57 107.84,302.29 112.17,299.71 116.49,297.14 120.23,289.87 123.98,282.60 125.81,277.99 127.65,273.39 129.18,268.52 130.70,263.64 131.89,258.25 133.08,252.86 134.06,246.75 135.04,240.63 135.74,233.98 136.45,227.32 137.04,215.93 137.63,204.54 137.53,195.58 137.42,186.63 136.71,178.87 135.99,171.11 134.90,164.11 133.80,157.11 132.65,150.56 131.50,144.01 130.45,138.45 129.41,132.88 128.53,128.31 127.65,123.73 126.96,119.23 126.26,114.74 125.16,107.10 124.06,99.46 123.17,92.34 122.28,85.21 121.48,78.20 120.67,71.20 119.89,62.06 119.10,52.92 118.14,46.20 117.18,39.48 116.19,34.55 115.19,29.62 114.37,24.66 113.56,19.70 113.22,14.65 112.89,9.60 113.20,7.51 113.52,5.43 114.49,3.55 115.45,1.68 116.96,0.21 118.48,-1.24 120.38,-2.15 122.28,-3.06 124.38,-3.31 126.47,-3.56 128.53,-3.14 130.60,-2.71 132.41,-1.64 134.23,-0.58 135.62,1.01 137.00,2.60 137.80,4.54 138.61,6.49 138.74,8.60 138.88,10.70 138.34,12.74 137.80,14.77 136.64,16.53 135.48,18.29 133.81,19.59 132.15,20.88 130.16,21.58 128.17,22.27 126.06,22.30 123.96,22.32 121.95,21.67 119.95,21.02 118.25,19.77 116.56,18.51 115.36,16.78 114.16,15.05 113.57,13.03 112.98,11.00 113.07,8.90 113.16,6.79 113.92,4.82 114.68,2.86 116.02,1.23 117.37,-0.38 119.16,-1.49 120.95,-2.59 123.01,-3.07 125.06,-3.55 127.16,-3.34 129.26,-3.14 131.18,-2.28 133.10,-1.41 134.65,0.01 136.20,1.44 137.20,3.29 138.21,5.14 138.58,7.22 138.94,9.29 138.94,9.29 138.94,9.29 138.91,13.31 138.88,17.33 139.07,21.61 139.25,25.89 139.72,31.35 140.18,36.81 140.76,43.82 141.35,50.84 142.17,60.17 142.99,69.49 143.27,76.53 143.55,83.58 143.75,90.69 143.95,97.81 144.16,105.37 144.37,112.92 144.56,117.22 144.74,121.51 145.05,126.04 145.35,130.57 145.92,136.11 146.48,141.65 147.41,148.27 148.34,154.89 149.42,162.15 150.51,169.40 151.66,177.55 152.82,185.70 153.82,195.13 154.82,204.56 155.38,216.60 155.94,228.63 155.70,235.92 155.46,243.21 154.80,250.10 154.13,257.00 152.99,263.46 151.85,269.92 150.22,275.68 148.58,281.43 146.57,286.84 144.56,292.24 142.20,297.30 139.85,302.36 137.11,306.83 134.37,311.29 129.90,316.12 125.42,320.95 119.66,322.38 113.91,323.80 108.47,322.74 103.02,321.68 98.47,320.04 93.91,318.40 87.36,315.90 80.82,313.39 76.40,311.82 71.99,310.25 66.59,308.51 61.19,306.77 54.10,304.86 47.01,302.95 38.01,300.86 29.01,298.76 18.78,296.36 8.55,293.95 -2.42,291.19 -13.40,288.43 -24.68,285.33 -35.96,282.24 -46.79,279.06 -57.61,275.89 -67.50,272.77 -77.39,269.65 -85.25,266.67 -93.11,263.70 -98.22,260.75 -103.32,257.79 -106.96,254.64 -110.60,251.50 -113.70,244.32 -116.79,237.14 -116.36,232.47 -115.92,227.81 -114.50,222.23 -113.08,216.65 -111.48,211.43 -109.88,206.21 -109.23,202.00 -108.58,197.78 -107.11,193.65 -105.63,189.52 -103.75,185.01 -101.87,180.50 -99.98,176.03 -98.09,171.56 -96.12,167.72 -94.15,163.87 -90.79,157.92 -87.42,151.97 -85.08,148.10 -82.73,144.22 -79.92,139.91 -77.10,135.60 -73.67,130.30 -70.23,125.01 -66.23,118.36 -62.24,111.71 -57.82,104.03 -53.40,96.35 -48.74,87.99 -44.09,79.64 -39.39,71.02 -34.70,62.39 -30.25,54.09 -25.80,45.78 -22.00,38.03 -18.21,30.29 -14.99,22.52 -11.78,14.76 -9.13,6.28 -6.47,-2.20 -6.12,-2.94 -5.76,-3.68 -5.23,-4.32 -4.71,-4.95 -4.05,-5.45 -3.38,-5.94 -2.62,-6.26 -1.86,-6.58 -1.05,-6.70 -0.23,-6.83 0.58,-6.76 1.40,-6.69 2.18,-6.43 2.96,-6.16 3.66,-5.72 4.35,-5.27 4.92,-4.67 5.49,-4.08 5.89,-3.36 6.30,-2.64 6.53,-1.85 6.75,-1.06 6.78,-0.23 6.81,0.58 6.64,1.39 6.47,2.20 6.47,2.20 L 6.47,2.20 Z"></path></g><g transform="translate(158.78067435408147 124.81016463316155) rotate(0 0.00005000000000165983 0.00004999999998744897)" stroke="none"><path fill="#1e1e1e" d="M 6.28,-6.28 Q 6.28,-6.28 7.11,-5.11 7.95,-3.94 8.37,-2.57 8.80,-1.19 8.76,0.23 8.72,1.67 8.22,3.02 7.73,4.37 6.83,5.49 5.93,6.61 4.72,7.38 3.50,8.15 2.11,8.50 0.72,8.85 -0.71,8.73 -2.14,8.61 -3.46,8.05 -4.78,7.48 -5.85,6.52 -6.92,5.56 -7.63,4.31 -8.33,3.06 -8.60,1.65 -8.87,0.23 -8.68,-1.18 -8.49,-2.60 -7.85,-3.89 -7.21,-5.18 -6.19,-6.19 -5.18,-7.21 -3.89,-7.85 -2.60,-8.49 -1.18,-8.68 0.24,-8.87 1.65,-8.60 3.06,-8.33 4.31,-7.62 5.56,-6.92 6.52,-5.85 7.48,-4.78 8.05,-3.46 8.62,-2.14 8.73,-0.70 8.85,0.72 8.50,2.11 8.15,3.51 7.38,4.72 6.61,5.93 5.48,6.83 4.36,7.73 3.02,8.22 1.67,8.72 0.23,8.76 -1.20,8.80 -2.57,8.37 -3.94,7.95 -5.11,7.11 -6.28,6.27 -6.28,6.27 -6.28,6.28 -6.94,5.43 -7.60,4.59 -8.04,3.61 -8.48,2.64 -8.67,1.58 -8.86,0.53 -8.80,-0.53 -8.73,-1.60 -8.41,-2.62 -8.09,-3.64 -7.54,-4.56 -6.99,-5.47 -6.23,-6.23 -5.47,-6.99 -4.56,-7.54 -3.64,-8.10 -2.62,-8.41 -1.60,-8.73 -0.53,-8.80 0.53,-8.86 1.59,-8.67 2.64,-8.48 3.61,-8.04 4.59,-7.60 5.43,-6.94 6.28,-6.28 6.28,-6.28 L 6.28,-6.28 Z"></path></g><g transform="translate(239.8562605873004 136.23329945998762) rotate(0 0.00005000000000165983 0.00004999999998744897)" stroke="none"><path fill="#1e1e1e" d="M 6.28,-6.28 Q 6.28,-6.28 7.11,-5.11 7.95,-3.94 8.37,-2.57 8.80,-1.19 8.76,0.23 8.72,1.67 8.22,3.02 7.73,4.37 6.83,5.49 5.93,6.61 4.72,7.38 3.50,8.15 2.11,8.50 0.72,8.85 -0.71,8.73 -2.14,8.61 -3.46,8.05 -4.78,7.48 -5.85,6.52 -6.92,5.56 -7.63,4.31 -8.33,3.06 -8.60,1.65 -8.87,0.23 -8.68,-1.18 -8.49,-2.60 -7.85,-3.89 -7.21,-5.18 -6.19,-6.19 -5.18,-7.21 -3.89,-7.85 -2.60,-8.49 -1.18,-8.68 0.24,-8.87 1.65,-8.60 3.06,-8.33 4.31,-7.62 5.56,-6.92 6.52,-5.85 7.48,-4.78 8.05,-3.46 8.62,-2.14 8.73,-0.70 8.85,0.72 8.50,2.11 8.15,3.51 7.38,4.72 6.61,5.93 5.48,6.83 4.36,7.73 3.02,8.22 1.67,8.72 0.23,8.76 -1.20,8.80 -2.57,8.37 -3.94,7.95 -5.11,7.11 -6.28,6.27 -6.28,6.27 -6.28,6.28 -6.94,5.43 -7.60,4.59 -8.04,3.61 -8.48,2.64 -8.67,1.58 -8.86,0.53 -8.80,-0.53 -8.73,-1.60 -8.41,-2.62 -8.09,-3.64 -7.54,-4.56 -6.99,-5.47 -6.23,-6.23 -5.47,-6.99 -4.56,-7.54 -3.64,-8.10 -2.62,-8.41 -1.60,-8.73 -0.53,-8.80 0.53,-8.86 1.59,-8.67 2.64,-8.48 3.61,-8.04 4.59,-7.60 5.43,-6.94 6.28,-6.28 6.28,-6.28 L 6.28,-6.28 Z"></path></g><g transform="translate(131.84407314569407 314.1805582537777) rotate(0 97.98683702523704 64.08114757765497)" stroke="none"><path fill="#1e1e1e" d="M 10.11,0 Q 10.11,0 9.72,7.64 9.32,15.29 9.37,21.08 9.41,26.88 9.57,31.57 9.73,36.26 10.12,42.50 10.51,48.73 10.92,54.12 11.34,59.51 17.87,61.70 24.40,63.89 32.59,67.36 40.78,70.84 52.03,74.89 63.29,78.93 76.74,83.23 90.19,87.52 103.91,91.79 117.63,96.06 129.23,99.76 140.84,103.45 150.00,106.38 159.16,109.30 166.36,111.43 173.55,113.57 178.62,114.82 183.70,116.07 189.32,117.45 194.94,118.83 196.46,119.24 197.98,119.65 199.23,120.30 200.47,120.96 201.45,121.97 202.42,122.99 203.02,124.27 203.62,125.54 203.78,126.94 203.94,128.34 203.64,129.72 203.34,131.10 202.62,132.31 201.90,133.52 200.84,134.44 199.77,135.35 198.46,135.88 197.15,136.41 195.75,136.49 194.34,136.58 192.98,136.21 191.62,135.84 190.45,135.05 189.28,134.27 188.42,133.15 187.57,132.03 187.11,130.70 186.65,129.37 186.65,127.96 186.64,126.55 187.08,125.21 187.53,123.87 188.37,122.75 189.22,121.62 190.38,120.83 191.54,120.03 192.90,119.65 194.25,119.26 195.66,119.33 197.07,119.40 198.38,119.92 199.69,120.43 200.77,121.34 201.85,122.25 202.58,123.45 203.31,124.65 203.62,126.03 203.93,127.40 203.79,128.80 203.64,130.20 203.06,131.49 202.47,132.77 201.51,133.79 200.54,134.82 199.30,135.49 198.06,136.15 196.67,136.39 195.28,136.62 193.89,136.40 192.50,136.18 192.50,136.18 192.50,136.18 190.71,135.50 188.91,134.81 184.06,132.35 179.20,129.89 174.45,127.95 169.71,126.00 162.63,123.72 155.56,121.44 146.30,118.91 137.04,116.37 125.35,113.22 113.67,110.07 99.76,106.52 85.85,102.96 71.98,99.58 58.12,96.19 46.31,93.33 34.51,90.47 25.63,88.50 16.76,86.52 7.62,83.60 -1.52,80.68 -5.87,77.02 -10.22,73.37 -10.78,66.44 -11.34,59.51 -10.92,54.12 -10.51,48.73 -10.12,42.50 -9.73,36.26 -9.57,31.57 -9.41,26.88 -9.37,21.08 -9.32,15.29 -9.72,7.64 -10.11,0 -9.96,-1.21 -9.82,-2.42 -9.39,-3.56 -8.95,-4.70 -8.26,-5.70 -7.57,-6.70 -6.65,-7.51 -5.74,-8.32 -4.66,-8.89 -3.58,-9.45 -2.40,-9.75 -1.21,-10.04 0.00,-10.04 1.21,-10.04 2.40,-9.75 3.58,-9.45 4.66,-8.89 5.74,-8.32 6.66,-7.51 7.57,-6.70 8.26,-5.70 8.95,-4.70 9.39,-3.56 9.82,-2.42 9.96,-1.20 10.11,0.00 10.11,0.00 L 10.11,0 Z"></path></g><g transform="translate(237.61584828056957 271.35455191399205) rotate(0 59.8599223691308 36.75495700945959)" stroke="none"><path fill="#1e1e1e" d="M 3.68,-8.97 Q 3.68,-8.97 9.28,-6.64 14.88,-4.30 20.61,-1.66 26.34,0.98 32.19,3.77 38.04,6.57 43.78,9.35 49.52,12.13 54.79,14.87 60.06,17.60 64.93,20.36 69.79,23.11 74.16,25.70 78.53,28.29 82.47,30.81 86.42,33.34 93.37,38.30 100.33,43.26 103.73,45.93 107.12,48.61 112.92,53.17 118.72,57.73 122.15,60.40 125.58,63.06 126.21,63.37 126.83,63.68 127.78,64.76 128.72,65.84 129.37,67.11 130.03,68.39 130.36,69.79 130.69,71.18 130.68,72.61 130.67,74.05 130.31,75.44 129.96,76.83 129.28,78.09 128.60,79.36 127.64,80.42 126.68,81.49 125.50,82.29 124.31,83.10 122.97,83.59 121.62,84.09 120.20,84.25 118.77,84.41 117.35,84.23 115.93,84.04 114.59,83.52 113.25,83.00 112.08,82.18 110.91,81.35 107.76,76.51 104.62,71.66 103.89,69.85 103.16,68.03 103.05,66.08 102.93,64.13 103.45,62.24 103.97,60.36 105.06,58.74 106.15,57.12 107.70,55.93 109.25,54.74 111.10,54.11 112.95,53.48 114.91,53.47 116.86,53.47 118.72,54.08 120.57,54.70 122.13,55.88 123.69,57.06 124.79,58.67 125.90,60.29 126.43,62.17 126.95,64.05 126.86,66.00 126.76,67.95 126.04,69.77 125.32,71.59 124.06,73.08 122.80,74.58 121.13,75.59 119.46,76.60 117.55,77.03 115.64,77.46 113.70,77.25 111.76,77.05 109.98,76.23 108.20,75.42 106.78,74.08 105.36,72.74 104.43,71.01 103.51,69.29 103.19,67.36 102.87,65.43 103.18,63.50 103.49,61.57 104.40,59.84 105.31,58.11 106.72,56.77 108.14,55.42 109.91,54.59 111.68,53.76 113.62,53.55 115.56,53.33 117.47,53.74 119.38,54.16 121.06,55.16 122.74,56.16 124.01,57.65 125.28,59.13 125.28,59.13 125.28,59.13 126.06,61.40 126.83,63.68 127.78,64.76 128.72,65.84 129.37,67.11 130.03,68.39 130.36,69.78 130.69,71.18 130.68,72.61 130.67,74.05 130.31,75.44 129.96,76.83 129.28,78.09 128.61,79.35 127.65,80.42 126.69,81.49 125.50,82.29 124.31,83.09 122.97,83.59 121.62,84.09 120.20,84.25 118.77,84.41 117.35,84.23 115.93,84.04 114.59,83.52 113.25,83.00 112.08,82.18 110.91,81.35 109.34,79.90 107.77,78.45 103.42,74.48 99.07,70.52 93.12,65.29 87.18,60.06 81.06,55.04 74.95,50.03 71.53,47.50 68.11,44.97 64.08,42.31 60.06,39.65 55.64,36.95 51.22,34.24 46.37,31.59 41.51,28.95 35.82,26.29 30.13,23.63 24.28,21.01 18.42,18.39 12.99,15.95 7.56,13.52 1.94,11.24 -3.68,8.97 -4.70,8.40 -5.72,7.83 -6.57,7.03 -7.43,6.23 -8.06,5.25 -8.70,4.27 -9.09,3.17 -9.47,2.06 -9.58,0.90 -9.69,-0.26 -9.52,-1.41 -9.35,-2.57 -8.90,-3.65 -8.46,-4.73 -7.77,-5.68 -7.08,-6.62 -6.18,-7.37 -5.29,-8.12 -4.24,-8.64 -3.19,-9.15 -2.05,-9.40 -0.90,-9.65 0.26,-9.62 1.42,-9.59 2.55,-9.28 3.68,-8.97 3.68,-8.97 L 3.68,-8.97 Z"></path></g><g transform="translate(91.07831008627372 543.5821504028802) rotate(0 -2.419677634177333 126.92617772495123)" stroke="none"><path fill="#1e1e1e" d="M 9.37,-0.87 Q 9.37,-0.87 9.73,6.97 10.09,14.81 11.22,20.78 12.36,26.74 13.72,31.91 15.08,37.08 16.50,41.96 17.91,46.83 19.57,51.56 21.22,56.29 23.13,61.43 25.03,66.57 26.94,71.92 28.85,77.26 30.72,82.46 32.58,87.66 34.43,92.80 36.27,97.93 37.95,102.19 39.63,106.45 41.94,111.28 44.24,116.11 44.18,123.69 44.12,131.28 38.74,137.42 33.35,143.56 27.46,149.35 21.56,155.13 15.30,161.65 9.03,168.16 3.50,174.50 -2.02,180.83 -6.59,186.78 -11.15,192.72 -14.44,197.64 -17.73,202.56 -20.06,206.32 -22.40,210.09 -25.24,215.11 -28.08,220.14 -30.44,224.59 -32.80,229.03 -34.43,221.40 -36.05,213.76 -29.50,216.97 -22.95,220.17 -19.38,222.80 -15.80,225.42 -12.16,228.12 -8.51,230.82 -2.87,234.77 2.76,238.73 6.99,242.11 11.21,245.49 12.28,247.10 13.36,248.72 13.86,250.59 14.36,252.47 14.23,254.41 14.11,256.34 13.37,258.14 12.64,259.93 11.37,261.40 10.10,262.86 8.43,263.85 6.75,264.83 4.85,265.23 2.96,265.63 1.03,265.40 -0.89,265.17 -2.64,264.34 -4.39,263.51 -5.79,262.16 -7.18,260.81 -8.08,259.09 -8.97,257.37 -9.26,255.45 -9.56,253.53 -9.22,251.62 -8.89,249.71 -7.97,248.00 -7.04,246.30 -5.62,244.98 -4.20,243.66 -2.43,242.86 -0.66,242.06 1.26,241.87 3.19,241.68 5.08,242.12 6.97,242.55 8.63,243.57 10.28,244.59 11.52,246.08 12.76,247.57 13.46,249.38 14.16,251.19 14.25,253.13 14.33,255.06 13.79,256.93 13.26,258.79 12.15,260.39 11.05,261.98 9.49,263.14 7.93,264.30 6.09,264.90 4.25,265.50 2.31,265.48 0.37,265.46 -1.46,264.83 -3.29,264.19 -4.82,263.00 -6.35,261.81 -6.35,261.81 -6.35,261.81 -8.81,259.69 -11.27,257.56 -16.71,253.31 -22.16,249.06 -25.78,246.33 -29.40,243.60 -32.86,240.96 -36.33,238.31 -40.62,234.53 -44.92,230.75 -47.06,223.78 -49.21,216.80 -46.56,213.02 -43.91,209.23 -40.13,204.67 -36.35,200.11 -33.53,196.68 -30.72,193.25 -27.05,188.45 -23.37,183.64 -18.89,177.41 -14.40,171.17 -9.41,164.02 -4.42,156.87 0.99,149.46 6.40,142.05 11.25,135.38 16.11,128.70 20.16,126.49 24.22,124.28 22.41,118.82 20.60,113.36 19.12,108.90 17.63,104.44 15.88,99.28 14.13,94.11 12.34,88.88 10.56,83.64 8.76,78.35 6.97,73.07 5.06,67.60 3.15,62.14 1.55,56.80 -0.04,51.46 -1.20,46.32 -2.36,41.19 -3.55,35.56 -4.73,29.92 -5.96,23.17 -7.19,16.42 -8.28,8.64 -9.37,0.87 -9.34,-0.26 -9.30,-1.39 -9.00,-2.49 -8.70,-3.58 -8.14,-4.57 -7.59,-5.56 -6.81,-6.39 -6.04,-7.21 -5.08,-7.83 -4.13,-8.45 -3.06,-8.82 -1.99,-9.20 -0.86,-9.30 0.26,-9.41 1.38,-9.24 2.50,-9.07 3.55,-8.64 4.60,-8.20 5.52,-7.53 6.43,-6.86 7.16,-5.99 7.89,-5.12 8.39,-4.10 8.89,-3.08 9.13,-1.97 9.37,-0.87 9.37,-0.87 L 9.37,-0.87 Z"></path></g><g transform="translate(182.63908679576033 575.6775406655422) rotate(0 55.0951460430515 134.13251071164086)" stroke="none"><path fill="#1e1e1e" d="M 5.34,-6.15 Q 5.34,-6.15 13.43,1.39 21.52,8.93 29.45,16.36 37.38,23.79 44.90,31.06 52.42,38.33 59.10,45.01 65.77,51.68 71.58,57.75 77.39,63.83 82.26,68.80 87.13,73.77 91.08,77.45 95.03,81.12 98.34,84.29 101.65,87.45 106.52,92.12 111.40,96.79 113.97,106.90 116.54,117.01 111.96,122.77 107.39,128.53 102.10,134.73 96.81,140.93 90.28,149.62 83.75,158.31 77.10,168.26 70.46,178.21 64.93,187.37 59.40,196.53 55.25,203.88 51.11,211.23 48.31,217.23 45.51,223.23 43.73,227.59 41.96,231.95 40.18,236.65 38.40,241.35 34.67,236.88 30.94,232.41 36.18,234.21 41.42,236.02 46.92,239.01 52.42,242.00 56.35,244.33 60.27,246.67 65.20,249.55 70.13,252.42 72.60,254.54 75.07,256.66 76.84,257.43 78.61,258.20 80.05,259.50 81.48,260.79 82.42,262.48 83.37,264.17 83.72,266.07 84.08,267.97 83.81,269.88 83.54,271.80 82.68,273.52 81.81,275.25 80.44,276.61 79.07,277.97 77.33,278.83 75.60,279.68 73.68,279.93 71.76,280.18 69.87,279.81 67.97,279.44 66.29,278.48 64.61,277.52 63.33,276.08 62.04,274.64 61.29,272.86 60.53,271.08 60.38,269.15 60.23,267.22 60.71,265.35 61.18,263.48 62.23,261.85 63.28,260.23 64.79,259.02 66.30,257.82 68.12,257.16 69.93,256.50 71.87,256.46 73.80,256.41 75.64,256.99 77.49,257.56 79.06,258.70 80.62,259.83 81.74,261.40 82.86,262.98 83.42,264.83 83.98,266.68 83.92,268.61 83.86,270.54 83.19,272.35 82.51,274.17 81.29,275.67 80.08,277.17 78.44,278.20 76.81,279.24 74.93,279.70 73.06,280.15 71.13,279.99 69.20,279.82 69.21,279.82 69.21,279.82 63.28,275.75 57.35,271.67 53.06,268.58 48.77,265.50 42.20,261.25 35.64,257.01 30.98,253.34 26.32,249.67 24.55,241.51 22.77,233.35 25.56,229.23 28.34,225.10 30.79,221.06 33.25,217.01 36.49,211.10 39.72,205.19 43.57,197.47 47.42,189.75 52.58,180.03 57.73,170.32 63.87,159.67 70.01,149.01 75.81,139.48 81.62,129.94 86.16,122.56 90.70,115.17 97.21,108.55 103.71,101.92 100.82,105.45 97.93,108.98 93.91,103.46 89.89,97.95 87.24,94.44 84.58,90.93 81.10,86.68 77.63,82.44 73.24,77.28 68.86,72.11 63.09,66.26 57.32,60.41 50.53,54.05 43.73,47.69 36.03,40.83 28.34,33.97 20.09,27.02 11.83,20.07 3.24,13.11 -5.34,6.15 -6.00,5.42 -6.66,4.69 -7.13,3.82 -7.59,2.96 -7.83,2.00 -8.08,1.05 -8.09,0.07 -8.10,-0.90 -7.87,-1.86 -7.64,-2.82 -7.20,-3.69 -6.75,-4.56 -6.10,-5.31 -5.46,-6.05 -4.65,-6.61 -3.85,-7.18 -2.93,-7.54 -2.02,-7.89 -1.04,-8.02 -0.07,-8.15 0.90,-8.04 1.87,-7.93 2.80,-7.59 3.72,-7.25 4.53,-6.70 5.34,-6.15 5.34,-6.15 L 5.34,-6.15 Z"></path></g><g transform="translate(234.33671060686228 181.12499035973815) rotate(0 -35.1793443986619 24.182996191701307)" stroke="none"><path fill="#1e1e1e" d="M 0.15,10.35 Q 0.15,10.35 -5.64,10.39 -11.44,10.42 -16.82,10.48 -22.20,10.54 -27.12,10.63 -32.03,10.71 -39.32,10.99 -46.62,11.27 -50.66,13.15 -54.70,15.03 -55.82,19.60 -56.94,24.16 -53.52,27.62 -50.10,31.07 -45.80,32.61 -41.50,34.16 -40.11,34.62 -38.72,35.08 -36.75,36.15 -34.79,37.21 -33.26,38.85 -31.74,40.49 -30.82,42.53 -29.90,44.57 -29.68,46.79 -29.46,49.02 -29.96,51.20 -30.46,53.37 -31.63,55.28 -32.81,57.19 -34.52,58.62 -36.24,60.05 -38.33,60.86 -40.41,61.66 -42.65,61.76 -44.88,61.86 -47.03,61.25 -49.18,60.63 -51.02,59.35 -52.86,58.08 -54.19,56.29 -55.53,54.50 -56.22,52.37 -56.92,50.24 -56.89,48.01 -56.87,45.77 -56.14,43.66 -55.40,41.55 -54.03,39.78 -52.66,38.01 -50.80,36.78 -48.94,35.54 -46.78,34.96 -44.62,34.38 -42.39,34.53 -40.15,34.67 -38.08,35.52 -36.02,36.36 -34.32,37.83 -32.63,39.29 -31.50,41.22 -30.37,43.15 -29.91,45.33 -29.45,47.52 -29.71,49.74 -29.97,51.96 -30.93,53.98 -31.89,56.00 -33.44,57.61 -35.00,59.22 -36.98,60.25 -38.97,61.28 -41.18,61.62 -43.39,61.96 -45.59,61.58 -47.80,61.19 -47.79,61.19 -47.79,61.19 -52.40,59.40 -57.02,57.61 -61.16,55.77 -65.31,53.94 -70.57,50.57 -75.84,47.21 -78.83,43.02 -81.82,38.82 -82.48,33.53 -83.13,28.25 -82.44,23.38 -81.76,18.51 -79.77,12.41 -77.79,6.31 -74.10,0.99 -70.41,-4.32 -64.83,-7.49 -59.26,-10.66 -52.95,-10.66 -46.64,-10.66 -39.37,-10.40 -32.10,-10.14 -27.22,-10.09 -22.35,-10.03 -17.05,-10.05 -11.75,-10.07 -5.95,-10.21 -0.15,-10.35 1.08,-10.22 2.32,-10.09 3.49,-9.66 4.67,-9.24 5.71,-8.55 6.74,-7.85 7.59,-6.93 8.43,-6.01 9.03,-4.91 9.62,-3.82 9.94,-2.61 10.26,-1.40 10.28,-0.15 10.30,1.09 10.02,2.30 9.74,3.52 9.17,4.63 8.61,5.75 7.80,6.70 6.98,7.64 5.96,8.37 4.95,9.09 3.79,9.55 2.63,10.01 1.39,10.18 0.15,10.35 0.15,10.35 L 0.15,10.35 Z"></path></g></svg>